<?xml version="1.0" encoding="utf-8" standalone="no"?>
<!DOCTYPE svg PUBLIC "-//W3C//DTD SVG 1.1//EN"
  "http://www.w3.org/Graphics/SVG/1.1/DTD/svg11.dtd">
<svg xmlns:xlink="http://www.w3.org/1999/xlink" width="460.8pt" height="345.6pt" viewBox="0 0 460.8 345.6" xmlns="http://www.w3.org/2000/svg" version="1.1">
 <metadata>
  <rdf:RDF xmlns:dc="http://purl.org/dc/elements/1.1/" xmlns:cc="http://creativecommons.org/ns#" xmlns:rdf="http://www.w3.org/1999/02/22-rdf-syntax-ns#">
   <cc:Work>
    <dc:type rdf:resource="http://purl.org/dc/dcmitype/StillImage"/>
    <dc:date>2025-10-18T14:40:57.895596</dc:date>
    <dc:format>image/svg+xml</dc:format>
    <dc:creator>
     <cc:Agent>
      <dc:title>Matplotlib v3.10.7, https://matplotlib.org/</dc:title>
     </cc:Agent>
    </dc:creator>
   </cc:Work>
  </rdf:RDF>
 </metadata>
 <defs>
  <style type="text/css">*{stroke-linejoin: round; stroke-linecap: butt}</style>
 </defs>
 <g id="figure_1">
  <g id="patch_1">
   <path d="M 0 345.6 
L 460.8 345.6 
L 460.8 0 
L 0 0 
z
" style="fill: #ffffff"/>
  </g>
  <g id="axes_1">
   <g id="patch_2">
    <path d="M 57.6 307.584 
L 414.72 307.584 
L 414.72 41.472 
L 57.6 41.472 
z
" style="fill: #ffffff"/>
   </g>
   <g id="matplotlib.axis_1">
    <g id="xtick_1">
     <g id="line2d_1">
      <defs>
       <path id="m68bbdbb3e9" d="M 0 0 
L 0 3.5 
" style="stroke: #000000; stroke-width: 0.8"/>
      </defs>
      <g>
       <use xlink:href="#m68bbdbb3e9" x="73.832727" y="307.584" style="stroke: #000000; stroke-width: 0.8"/>
      </g>
     </g>
     <g id="text_1">
      <!-- 0 -->
      <g transform="translate(70.651477 322.182437) scale(0.1 -0.1)">
       <defs>
        <path id="DejaVuSans-30" d="M 2034 4250 
Q 1547 4250 1301 3770 
Q 1056 3291 1056 2328 
Q 1056 1369 1301 889 
Q 1547 409 2034 409 
Q 2525 409 2770 889 
Q 3016 1369 3016 2328 
Q 3016 3291 2770 3770 
Q 2525 4250 2034 4250 
z
M 2034 4750 
Q 2819 4750 3233 4129 
Q 3647 3509 3647 2328 
Q 3647 1150 3233 529 
Q 2819 -91 2034 -91 
Q 1250 -91 836 529 
Q 422 1150 422 2328 
Q 422 3509 836 4129 
Q 1250 4750 2034 4750 
z
" transform="scale(0.015625)"/>
       </defs>
       <use xlink:href="#DejaVuSans-30"/>
      </g>
     </g>
    </g>
    <g id="xtick_2">
     <g id="line2d_2">
      <g>
       <use xlink:href="#m68bbdbb3e9" x="122.28863" y="307.584" style="stroke: #000000; stroke-width: 0.8"/>
      </g>
     </g>
     <g id="text_2">
      <!-- 10 -->
      <g transform="translate(115.92613 322.182437) scale(0.1 -0.1)">
       <defs>
        <path id="DejaVuSans-31" d="M 794 531 
L 1825 531 
L 1825 4091 
L 703 3866 
L 703 4441 
L 1819 4666 
L 2450 4666 
L 2450 531 
L 3481 531 
L 3481 0 
L 794 0 
L 794 531 
z
" transform="scale(0.015625)"/>
       </defs>
       <use xlink:href="#DejaVuSans-31"/>
       <use xlink:href="#DejaVuSans-30" transform="translate(63.623047 0)"/>
      </g>
     </g>
    </g>
    <g id="xtick_3">
     <g id="line2d_3">
      <g>
       <use xlink:href="#m68bbdbb3e9" x="170.744532" y="307.584" style="stroke: #000000; stroke-width: 0.8"/>
      </g>
     </g>
     <g id="text_3">
      <!-- 20 -->
      <g transform="translate(164.382032 322.182437) scale(0.1 -0.1)">
       <defs>
        <path id="DejaVuSans-32" d="M 1228 531 
L 3431 531 
L 3431 0 
L 469 0 
L 469 531 
Q 828 903 1448 1529 
Q 2069 2156 2228 2338 
Q 2531 2678 2651 2914 
Q 2772 3150 2772 3378 
Q 2772 3750 2511 3984 
Q 2250 4219 1831 4219 
Q 1534 4219 1204 4116 
Q 875 4013 500 3803 
L 500 4441 
Q 881 4594 1212 4672 
Q 1544 4750 1819 4750 
Q 2544 4750 2975 4387 
Q 3406 4025 3406 3419 
Q 3406 3131 3298 2873 
Q 3191 2616 2906 2266 
Q 2828 2175 2409 1742 
Q 1991 1309 1228 531 
z
" transform="scale(0.015625)"/>
       </defs>
       <use xlink:href="#DejaVuSans-32"/>
       <use xlink:href="#DejaVuSans-30" transform="translate(63.623047 0)"/>
      </g>
     </g>
    </g>
    <g id="xtick_4">
     <g id="line2d_4">
      <g>
       <use xlink:href="#m68bbdbb3e9" x="219.200434" y="307.584" style="stroke: #000000; stroke-width: 0.8"/>
      </g>
     </g>
     <g id="text_4">
      <!-- 30 -->
      <g transform="translate(212.837934 322.182437) scale(0.1 -0.1)">
       <defs>
        <path id="DejaVuSans-33" d="M 2597 2516 
Q 3050 2419 3304 2112 
Q 3559 1806 3559 1356 
Q 3559 666 3084 287 
Q 2609 -91 1734 -91 
Q 1441 -91 1130 -33 
Q 819 25 488 141 
L 488 750 
Q 750 597 1062 519 
Q 1375 441 1716 441 
Q 2309 441 2620 675 
Q 2931 909 2931 1356 
Q 2931 1769 2642 2001 
Q 2353 2234 1838 2234 
L 1294 2234 
L 1294 2753 
L 1863 2753 
Q 2328 2753 2575 2939 
Q 2822 3125 2822 3475 
Q 2822 3834 2567 4026 
Q 2313 4219 1838 4219 
Q 1578 4219 1281 4162 
Q 984 4106 628 3988 
L 628 4550 
Q 988 4650 1302 4700 
Q 1616 4750 1894 4750 
Q 2613 4750 3031 4423 
Q 3450 4097 3450 3541 
Q 3450 3153 3228 2886 
Q 3006 2619 2597 2516 
z
" transform="scale(0.015625)"/>
       </defs>
       <use xlink:href="#DejaVuSans-33"/>
       <use xlink:href="#DejaVuSans-30" transform="translate(63.623047 0)"/>
      </g>
     </g>
    </g>
    <g id="xtick_5">
     <g id="line2d_5">
      <g>
       <use xlink:href="#m68bbdbb3e9" x="267.656336" y="307.584" style="stroke: #000000; stroke-width: 0.8"/>
      </g>
     </g>
     <g id="text_5">
      <!-- 40 -->
      <g transform="translate(261.293836 322.182437) scale(0.1 -0.1)">
       <defs>
        <path id="DejaVuSans-34" d="M 2419 4116 
L 825 1625 
L 2419 1625 
L 2419 4116 
z
M 2253 4666 
L 3047 4666 
L 3047 1625 
L 3713 1625 
L 3713 1100 
L 3047 1100 
L 3047 0 
L 2419 0 
L 2419 1100 
L 313 1100 
L 313 1709 
L 2253 4666 
z
" transform="scale(0.015625)"/>
       </defs>
       <use xlink:href="#DejaVuSans-34"/>
       <use xlink:href="#DejaVuSans-30" transform="translate(63.623047 0)"/>
      </g>
     </g>
    </g>
    <g id="xtick_6">
     <g id="line2d_6">
      <g>
       <use xlink:href="#m68bbdbb3e9" x="316.112239" y="307.584" style="stroke: #000000; stroke-width: 0.8"/>
      </g>
     </g>
     <g id="text_6">
      <!-- 50 -->
      <g transform="translate(309.749739 322.182437) scale(0.1 -0.1)">
       <defs>
        <path id="DejaVuSans-35" d="M 691 4666 
L 3169 4666 
L 3169 4134 
L 1269 4134 
L 1269 2991 
Q 1406 3038 1543 3061 
Q 1681 3084 1819 3084 
Q 2600 3084 3056 2656 
Q 3513 2228 3513 1497 
Q 3513 744 3044 326 
Q 2575 -91 1722 -91 
Q 1428 -91 1123 -41 
Q 819 9 494 109 
L 494 744 
Q 775 591 1075 516 
Q 1375 441 1709 441 
Q 2250 441 2565 725 
Q 2881 1009 2881 1497 
Q 2881 1984 2565 2268 
Q 2250 2553 1709 2553 
Q 1456 2553 1204 2497 
Q 953 2441 691 2322 
L 691 4666 
z
" transform="scale(0.015625)"/>
       </defs>
       <use xlink:href="#DejaVuSans-35"/>
       <use xlink:href="#DejaVuSans-30" transform="translate(63.623047 0)"/>
      </g>
     </g>
    </g>
    <g id="xtick_7">
     <g id="line2d_7">
      <g>
       <use xlink:href="#m68bbdbb3e9" x="364.568141" y="307.584" style="stroke: #000000; stroke-width: 0.8"/>
      </g>
     </g>
     <g id="text_7">
      <!-- 60 -->
      <g transform="translate(358.205641 322.182437) scale(0.1 -0.1)">
       <defs>
        <path id="DejaVuSans-36" d="M 2113 2584 
Q 1688 2584 1439 2293 
Q 1191 2003 1191 1497 
Q 1191 994 1439 701 
Q 1688 409 2113 409 
Q 2538 409 2786 701 
Q 3034 994 3034 1497 
Q 3034 2003 2786 2293 
Q 2538 2584 2113 2584 
z
M 3366 4563 
L 3366 3988 
Q 3128 4100 2886 4159 
Q 2644 4219 2406 4219 
Q 1781 4219 1451 3797 
Q 1122 3375 1075 2522 
Q 1259 2794 1537 2939 
Q 1816 3084 2150 3084 
Q 2853 3084 3261 2657 
Q 3669 2231 3669 1497 
Q 3669 778 3244 343 
Q 2819 -91 2113 -91 
Q 1303 -91 875 529 
Q 447 1150 447 2328 
Q 447 3434 972 4092 
Q 1497 4750 2381 4750 
Q 2619 4750 2861 4703 
Q 3103 4656 3366 4563 
z
" transform="scale(0.015625)"/>
       </defs>
       <use xlink:href="#DejaVuSans-36"/>
       <use xlink:href="#DejaVuSans-30" transform="translate(63.623047 0)"/>
      </g>
     </g>
    </g>
    <g id="xtick_8">
     <g id="line2d_8">
      <g>
       <use xlink:href="#m68bbdbb3e9" x="413.024043" y="307.584" style="stroke: #000000; stroke-width: 0.8"/>
      </g>
     </g>
     <g id="text_8">
      <!-- 70 -->
      <g transform="translate(406.661543 322.182437) scale(0.1 -0.1)">
       <defs>
        <path id="DejaVuSans-37" d="M 525 4666 
L 3525 4666 
L 3525 4397 
L 1831 0 
L 1172 0 
L 2766 4134 
L 525 4134 
L 525 4666 
z
" transform="scale(0.015625)"/>
       </defs>
       <use xlink:href="#DejaVuSans-37"/>
       <use xlink:href="#DejaVuSans-30" transform="translate(63.623047 0)"/>
      </g>
     </g>
    </g>
    <g id="text_9">
     <!-- Training Epoch -->
     <g transform="translate(199.534219 335.860562) scale(0.1 -0.1)">
      <defs>
       <path id="DejaVuSans-54" d="M -19 4666 
L 3928 4666 
L 3928 4134 
L 2272 4134 
L 2272 0 
L 1638 0 
L 1638 4134 
L -19 4134 
L -19 4666 
z
" transform="scale(0.015625)"/>
       <path id="DejaVuSans-72" d="M 2631 2963 
Q 2534 3019 2420 3045 
Q 2306 3072 2169 3072 
Q 1681 3072 1420 2755 
Q 1159 2438 1159 1844 
L 1159 0 
L 581 0 
L 581 3500 
L 1159 3500 
L 1159 2956 
Q 1341 3275 1631 3429 
Q 1922 3584 2338 3584 
Q 2397 3584 2469 3576 
Q 2541 3569 2628 3553 
L 2631 2963 
z
" transform="scale(0.015625)"/>
       <path id="DejaVuSans-61" d="M 2194 1759 
Q 1497 1759 1228 1600 
Q 959 1441 959 1056 
Q 959 750 1161 570 
Q 1363 391 1709 391 
Q 2188 391 2477 730 
Q 2766 1069 2766 1631 
L 2766 1759 
L 2194 1759 
z
M 3341 1997 
L 3341 0 
L 2766 0 
L 2766 531 
Q 2569 213 2275 61 
Q 1981 -91 1556 -91 
Q 1019 -91 701 211 
Q 384 513 384 1019 
Q 384 1609 779 1909 
Q 1175 2209 1959 2209 
L 2766 2209 
L 2766 2266 
Q 2766 2663 2505 2880 
Q 2244 3097 1772 3097 
Q 1472 3097 1187 3025 
Q 903 2953 641 2809 
L 641 3341 
Q 956 3463 1253 3523 
Q 1550 3584 1831 3584 
Q 2591 3584 2966 3190 
Q 3341 2797 3341 1997 
z
" transform="scale(0.015625)"/>
       <path id="DejaVuSans-69" d="M 603 3500 
L 1178 3500 
L 1178 0 
L 603 0 
L 603 3500 
z
M 603 4863 
L 1178 4863 
L 1178 4134 
L 603 4134 
L 603 4863 
z
" transform="scale(0.015625)"/>
       <path id="DejaVuSans-6e" d="M 3513 2113 
L 3513 0 
L 2938 0 
L 2938 2094 
Q 2938 2591 2744 2837 
Q 2550 3084 2163 3084 
Q 1697 3084 1428 2787 
Q 1159 2491 1159 1978 
L 1159 0 
L 581 0 
L 581 3500 
L 1159 3500 
L 1159 2956 
Q 1366 3272 1645 3428 
Q 1925 3584 2291 3584 
Q 2894 3584 3203 3211 
Q 3513 2838 3513 2113 
z
" transform="scale(0.015625)"/>
       <path id="DejaVuSans-67" d="M 2906 1791 
Q 2906 2416 2648 2759 
Q 2391 3103 1925 3103 
Q 1463 3103 1205 2759 
Q 947 2416 947 1791 
Q 947 1169 1205 825 
Q 1463 481 1925 481 
Q 2391 481 2648 825 
Q 2906 1169 2906 1791 
z
M 3481 434 
Q 3481 -459 3084 -895 
Q 2688 -1331 1869 -1331 
Q 1566 -1331 1297 -1286 
Q 1028 -1241 775 -1147 
L 775 -588 
Q 1028 -725 1275 -790 
Q 1522 -856 1778 -856 
Q 2344 -856 2625 -561 
Q 2906 -266 2906 331 
L 2906 616 
Q 2728 306 2450 153 
Q 2172 0 1784 0 
Q 1141 0 747 490 
Q 353 981 353 1791 
Q 353 2603 747 3093 
Q 1141 3584 1784 3584 
Q 2172 3584 2450 3431 
Q 2728 3278 2906 2969 
L 2906 3500 
L 3481 3500 
L 3481 434 
z
" transform="scale(0.015625)"/>
       <path id="DejaVuSans-20" transform="scale(0.015625)"/>
       <path id="DejaVuSans-45" d="M 628 4666 
L 3578 4666 
L 3578 4134 
L 1259 4134 
L 1259 2753 
L 3481 2753 
L 3481 2222 
L 1259 2222 
L 1259 531 
L 3634 531 
L 3634 0 
L 628 0 
L 628 4666 
z
" transform="scale(0.015625)"/>
       <path id="DejaVuSans-70" d="M 1159 525 
L 1159 -1331 
L 581 -1331 
L 581 3500 
L 1159 3500 
L 1159 2969 
Q 1341 3281 1617 3432 
Q 1894 3584 2278 3584 
Q 2916 3584 3314 3078 
Q 3713 2572 3713 1747 
Q 3713 922 3314 415 
Q 2916 -91 2278 -91 
Q 1894 -91 1617 61 
Q 1341 213 1159 525 
z
M 3116 1747 
Q 3116 2381 2855 2742 
Q 2594 3103 2138 3103 
Q 1681 3103 1420 2742 
Q 1159 2381 1159 1747 
Q 1159 1113 1420 752 
Q 1681 391 2138 391 
Q 2594 391 2855 752 
Q 3116 1113 3116 1747 
z
" transform="scale(0.015625)"/>
       <path id="DejaVuSans-6f" d="M 1959 3097 
Q 1497 3097 1228 2736 
Q 959 2375 959 1747 
Q 959 1119 1226 758 
Q 1494 397 1959 397 
Q 2419 397 2687 759 
Q 2956 1122 2956 1747 
Q 2956 2369 2687 2733 
Q 2419 3097 1959 3097 
z
M 1959 3584 
Q 2709 3584 3137 3096 
Q 3566 2609 3566 1747 
Q 3566 888 3137 398 
Q 2709 -91 1959 -91 
Q 1206 -91 779 398 
Q 353 888 353 1747 
Q 353 2609 779 3096 
Q 1206 3584 1959 3584 
z
" transform="scale(0.015625)"/>
       <path id="DejaVuSans-63" d="M 3122 3366 
L 3122 2828 
Q 2878 2963 2633 3030 
Q 2388 3097 2138 3097 
Q 1578 3097 1268 2742 
Q 959 2388 959 1747 
Q 959 1106 1268 751 
Q 1578 397 2138 397 
Q 2388 397 2633 464 
Q 2878 531 3122 666 
L 3122 134 
Q 2881 22 2623 -34 
Q 2366 -91 2075 -91 
Q 1284 -91 818 406 
Q 353 903 353 1747 
Q 353 2603 823 3093 
Q 1294 3584 2113 3584 
Q 2378 3584 2631 3529 
Q 2884 3475 3122 3366 
z
" transform="scale(0.015625)"/>
       <path id="DejaVuSans-68" d="M 3513 2113 
L 3513 0 
L 2938 0 
L 2938 2094 
Q 2938 2591 2744 2837 
Q 2550 3084 2163 3084 
Q 1697 3084 1428 2787 
Q 1159 2491 1159 1978 
L 1159 0 
L 581 0 
L 581 4863 
L 1159 4863 
L 1159 2956 
Q 1366 3272 1645 3428 
Q 1925 3584 2291 3584 
Q 2894 3584 3203 3211 
Q 3513 2838 3513 2113 
z
" transform="scale(0.015625)"/>
      </defs>
      <use xlink:href="#DejaVuSans-54"/>
      <use xlink:href="#DejaVuSans-72" transform="translate(46.333984 0)"/>
      <use xlink:href="#DejaVuSans-61" transform="translate(87.447266 0)"/>
      <use xlink:href="#DejaVuSans-69" transform="translate(148.726562 0)"/>
      <use xlink:href="#DejaVuSans-6e" transform="translate(176.509766 0)"/>
      <use xlink:href="#DejaVuSans-69" transform="translate(239.888672 0)"/>
      <use xlink:href="#DejaVuSans-6e" transform="translate(267.671875 0)"/>
      <use xlink:href="#DejaVuSans-67" transform="translate(331.050781 0)"/>
      <use xlink:href="#DejaVuSans-20" transform="translate(394.527344 0)"/>
      <use xlink:href="#DejaVuSans-45" transform="translate(426.314453 0)"/>
      <use xlink:href="#DejaVuSans-70" transform="translate(489.498047 0)"/>
      <use xlink:href="#DejaVuSans-6f" transform="translate(552.974609 0)"/>
      <use xlink:href="#DejaVuSans-63" transform="translate(614.15625 0)"/>
      <use xlink:href="#DejaVuSans-68" transform="translate(669.136719 0)"/>
     </g>
    </g>
   </g>
   <g id="matplotlib.axis_2">
    <g id="ytick_1">
     <g id="line2d_9">
      <defs>
       <path id="m3e841a9c4b" d="M 0 0 
L -3.5 0 
" style="stroke: #000000; stroke-width: 0.8"/>
      </defs>
      <g>
       <use xlink:href="#m3e841a9c4b" x="57.6" y="291.727888" style="stroke: #000000; stroke-width: 0.8"/>
      </g>
     </g>
     <g id="text_10">
      <!-- 0.25 -->
      <g transform="translate(28.334375 295.527106) scale(0.1 -0.1)">
       <defs>
        <path id="DejaVuSans-2e" d="M 684 794 
L 1344 794 
L 1344 0 
L 684 0 
L 684 794 
z
" transform="scale(0.015625)"/>
       </defs>
       <use xlink:href="#DejaVuSans-30"/>
       <use xlink:href="#DejaVuSans-2e" transform="translate(63.623047 0)"/>
       <use xlink:href="#DejaVuSans-32" transform="translate(95.410156 0)"/>
       <use xlink:href="#DejaVuSans-35" transform="translate(159.033203 0)"/>
      </g>
     </g>
    </g>
    <g id="ytick_2">
     <g id="line2d_10">
      <g>
       <use xlink:href="#m3e841a9c4b" x="57.6" y="262.124339" style="stroke: #000000; stroke-width: 0.8"/>
      </g>
     </g>
     <g id="text_11">
      <!-- 0.50 -->
      <g transform="translate(28.334375 265.923557) scale(0.1 -0.1)">
       <use xlink:href="#DejaVuSans-30"/>
       <use xlink:href="#DejaVuSans-2e" transform="translate(63.623047 0)"/>
       <use xlink:href="#DejaVuSans-35" transform="translate(95.410156 0)"/>
       <use xlink:href="#DejaVuSans-30" transform="translate(159.033203 0)"/>
      </g>
     </g>
    </g>
    <g id="ytick_3">
     <g id="line2d_11">
      <g>
       <use xlink:href="#m3e841a9c4b" x="57.6" y="232.52079" style="stroke: #000000; stroke-width: 0.8"/>
      </g>
     </g>
     <g id="text_12">
      <!-- 0.75 -->
      <g transform="translate(28.334375 236.320008) scale(0.1 -0.1)">
       <use xlink:href="#DejaVuSans-30"/>
       <use xlink:href="#DejaVuSans-2e" transform="translate(63.623047 0)"/>
       <use xlink:href="#DejaVuSans-37" transform="translate(95.410156 0)"/>
       <use xlink:href="#DejaVuSans-35" transform="translate(159.033203 0)"/>
      </g>
     </g>
    </g>
    <g id="ytick_4">
     <g id="line2d_12">
      <g>
       <use xlink:href="#m3e841a9c4b" x="57.6" y="202.917241" style="stroke: #000000; stroke-width: 0.8"/>
      </g>
     </g>
     <g id="text_13">
      <!-- 1.00 -->
      <g transform="translate(28.334375 206.716459) scale(0.1 -0.1)">
       <use xlink:href="#DejaVuSans-31"/>
       <use xlink:href="#DejaVuSans-2e" transform="translate(63.623047 0)"/>
       <use xlink:href="#DejaVuSans-30" transform="translate(95.410156 0)"/>
       <use xlink:href="#DejaVuSans-30" transform="translate(159.033203 0)"/>
      </g>
     </g>
    </g>
    <g id="ytick_5">
     <g id="line2d_13">
      <g>
       <use xlink:href="#m3e841a9c4b" x="57.6" y="173.313692" style="stroke: #000000; stroke-width: 0.8"/>
      </g>
     </g>
     <g id="text_14">
      <!-- 1.25 -->
      <g transform="translate(28.334375 177.11291) scale(0.1 -0.1)">
       <use xlink:href="#DejaVuSans-31"/>
       <use xlink:href="#DejaVuSans-2e" transform="translate(63.623047 0)"/>
       <use xlink:href="#DejaVuSans-32" transform="translate(95.410156 0)"/>
       <use xlink:href="#DejaVuSans-35" transform="translate(159.033203 0)"/>
      </g>
     </g>
    </g>
    <g id="ytick_6">
     <g id="line2d_14">
      <g>
       <use xlink:href="#m3e841a9c4b" x="57.6" y="143.710143" style="stroke: #000000; stroke-width: 0.8"/>
      </g>
     </g>
     <g id="text_15">
      <!-- 1.50 -->
      <g transform="translate(28.334375 147.509361) scale(0.1 -0.1)">
       <use xlink:href="#DejaVuSans-31"/>
       <use xlink:href="#DejaVuSans-2e" transform="translate(63.623047 0)"/>
       <use xlink:href="#DejaVuSans-35" transform="translate(95.410156 0)"/>
       <use xlink:href="#DejaVuSans-30" transform="translate(159.033203 0)"/>
      </g>
     </g>
    </g>
    <g id="ytick_7">
     <g id="line2d_15">
      <g>
       <use xlink:href="#m3e841a9c4b" x="57.6" y="114.106594" style="stroke: #000000; stroke-width: 0.8"/>
      </g>
     </g>
     <g id="text_16">
      <!-- 1.75 -->
      <g transform="translate(28.334375 117.905812) scale(0.1 -0.1)">
       <use xlink:href="#DejaVuSans-31"/>
       <use xlink:href="#DejaVuSans-2e" transform="translate(63.623047 0)"/>
       <use xlink:href="#DejaVuSans-37" transform="translate(95.410156 0)"/>
       <use xlink:href="#DejaVuSans-35" transform="translate(159.033203 0)"/>
      </g>
     </g>
    </g>
    <g id="ytick_8">
     <g id="line2d_16">
      <g>
       <use xlink:href="#m3e841a9c4b" x="57.6" y="84.503045" style="stroke: #000000; stroke-width: 0.8"/>
      </g>
     </g>
     <g id="text_17">
      <!-- 2.00 -->
      <g transform="translate(28.334375 88.302263) scale(0.1 -0.1)">
       <use xlink:href="#DejaVuSans-32"/>
       <use xlink:href="#DejaVuSans-2e" transform="translate(63.623047 0)"/>
       <use xlink:href="#DejaVuSans-30" transform="translate(95.410156 0)"/>
       <use xlink:href="#DejaVuSans-30" transform="translate(159.033203 0)"/>
      </g>
     </g>
    </g>
    <g id="ytick_9">
     <g id="line2d_17">
      <g>
       <use xlink:href="#m3e841a9c4b" x="57.6" y="54.899496" style="stroke: #000000; stroke-width: 0.8"/>
      </g>
     </g>
     <g id="text_18">
      <!-- 2.25 -->
      <g transform="translate(28.334375 58.698714) scale(0.1 -0.1)">
       <use xlink:href="#DejaVuSans-32"/>
       <use xlink:href="#DejaVuSans-2e" transform="translate(63.623047 0)"/>
       <use xlink:href="#DejaVuSans-32" transform="translate(95.410156 0)"/>
       <use xlink:href="#DejaVuSans-35" transform="translate(159.033203 0)"/>
      </g>
     </g>
    </g>
    <g id="text_19">
     <!-- Valid RMSE -->
     <g transform="translate(22.254687 202.288156) rotate(-90) scale(0.1 -0.1)">
      <defs>
       <path id="DejaVuSans-56" d="M 1831 0 
L 50 4666 
L 709 4666 
L 2188 738 
L 3669 4666 
L 4325 4666 
L 2547 0 
L 1831 0 
z
" transform="scale(0.015625)"/>
       <path id="DejaVuSans-6c" d="M 603 4863 
L 1178 4863 
L 1178 0 
L 603 0 
L 603 4863 
z
" transform="scale(0.015625)"/>
       <path id="DejaVuSans-64" d="M 2906 2969 
L 2906 4863 
L 3481 4863 
L 3481 0 
L 2906 0 
L 2906 525 
Q 2725 213 2448 61 
Q 2172 -91 1784 -91 
Q 1150 -91 751 415 
Q 353 922 353 1747 
Q 353 2572 751 3078 
Q 1150 3584 1784 3584 
Q 2172 3584 2448 3432 
Q 2725 3281 2906 2969 
z
M 947 1747 
Q 947 1113 1208 752 
Q 1469 391 1925 391 
Q 2381 391 2643 752 
Q 2906 1113 2906 1747 
Q 2906 2381 2643 2742 
Q 2381 3103 1925 3103 
Q 1469 3103 1208 2742 
Q 947 2381 947 1747 
z
" transform="scale(0.015625)"/>
       <path id="DejaVuSans-52" d="M 2841 2188 
Q 3044 2119 3236 1894 
Q 3428 1669 3622 1275 
L 4263 0 
L 3584 0 
L 2988 1197 
Q 2756 1666 2539 1819 
Q 2322 1972 1947 1972 
L 1259 1972 
L 1259 0 
L 628 0 
L 628 4666 
L 2053 4666 
Q 2853 4666 3247 4331 
Q 3641 3997 3641 3322 
Q 3641 2881 3436 2590 
Q 3231 2300 2841 2188 
z
M 1259 4147 
L 1259 2491 
L 2053 2491 
Q 2509 2491 2742 2702 
Q 2975 2913 2975 3322 
Q 2975 3731 2742 3939 
Q 2509 4147 2053 4147 
L 1259 4147 
z
" transform="scale(0.015625)"/>
       <path id="DejaVuSans-4d" d="M 628 4666 
L 1569 4666 
L 2759 1491 
L 3956 4666 
L 4897 4666 
L 4897 0 
L 4281 0 
L 4281 4097 
L 3078 897 
L 2444 897 
L 1241 4097 
L 1241 0 
L 628 0 
L 628 4666 
z
" transform="scale(0.015625)"/>
       <path id="DejaVuSans-53" d="M 3425 4513 
L 3425 3897 
Q 3066 4069 2747 4153 
Q 2428 4238 2131 4238 
Q 1616 4238 1336 4038 
Q 1056 3838 1056 3469 
Q 1056 3159 1242 3001 
Q 1428 2844 1947 2747 
L 2328 2669 
Q 3034 2534 3370 2195 
Q 3706 1856 3706 1288 
Q 3706 609 3251 259 
Q 2797 -91 1919 -91 
Q 1588 -91 1214 -16 
Q 841 59 441 206 
L 441 856 
Q 825 641 1194 531 
Q 1563 422 1919 422 
Q 2459 422 2753 634 
Q 3047 847 3047 1241 
Q 3047 1584 2836 1778 
Q 2625 1972 2144 2069 
L 1759 2144 
Q 1053 2284 737 2584 
Q 422 2884 422 3419 
Q 422 4038 858 4394 
Q 1294 4750 2059 4750 
Q 2388 4750 2728 4690 
Q 3069 4631 3425 4513 
z
" transform="scale(0.015625)"/>
      </defs>
      <use xlink:href="#DejaVuSans-56"/>
      <use xlink:href="#DejaVuSans-61" transform="translate(60.658203 0)"/>
      <use xlink:href="#DejaVuSans-6c" transform="translate(121.9375 0)"/>
      <use xlink:href="#DejaVuSans-69" transform="translate(149.720703 0)"/>
      <use xlink:href="#DejaVuSans-64" transform="translate(177.503906 0)"/>
      <use xlink:href="#DejaVuSans-20" transform="translate(240.980469 0)"/>
      <use xlink:href="#DejaVuSans-52" transform="translate(272.767578 0)"/>
      <use xlink:href="#DejaVuSans-4d" transform="translate(342.25 0)"/>
      <use xlink:href="#DejaVuSans-53" transform="translate(428.529297 0)"/>
      <use xlink:href="#DejaVuSans-45" transform="translate(492.005859 0)"/>
     </g>
    </g>
   </g>
   <g id="line2d_18">
    <path d="M 73.832727 88.084387 
L 78.678318 126.820766 
L 83.523908 152.267943 
L 88.369498 176.869669 
L 93.215088 191.413918 
L 98.060678 215.916619 
L 102.906269 230.705887 
L 107.751859 225.9586 
L 112.597449 228.584486 
L 117.443039 236.079281 
L 122.28863 237.986371 
L 127.13422 248.142481 
L 131.97981 247.116613 
L 136.8254 249.242202 
L 141.670991 253.062289 
L 146.516581 252.819109 
L 151.362171 255.995458 
L 156.207761 256.542134 
L 161.053351 245.181697 
L 165.898942 263.923566 
L 170.744532 237.583361 
L 175.590122 262.967518 
L 180.435712 250.397309 
L 185.281303 265.599851 
L 190.126893 269.358912 
L 194.972483 267.211309 
L 199.818073 266.070772 
L 204.663664 263.325839 
L 209.509254 269.691723 
L 214.354844 270.006673 
L 219.200434 271.682418 
L 224.046024 272.413571 
L 228.891615 265.623883 
L 233.737205 274.847159 
L 238.582795 262.551544 
L 243.428385 275.732426 
L 248.273976 279.66306 
L 253.119566 255.638121 
L 257.965156 268.59395 
L 262.810746 284.262372 
L 267.656336 283.764741 
L 272.501927 264.454927 
L 277.347517 286.509535 
L 282.193107 280.173035 
L 287.038697 276.949195 
L 291.884288 279.682017 
L 296.729878 284.869831 
L 301.575468 279.234831 
L 306.421058 288.840189 
L 311.266649 279.814465 
L 316.112239 280.337322 
L 320.957829 276.150234 
L 325.803419 285.781808 
L 330.649009 287.700463 
L 335.4946 284.373575 
L 340.34019 286.77578 
L 345.18578 284.860695 
L 350.03137 290.242046 
L 354.876961 287.588711 
L 359.722551 288.944516 
L 364.568141 279.023553 
L 369.413731 277.497774 
L 374.259322 285.726998 
L 379.104912 288.301193 
L 383.950502 286.225118 
L 388.796092 278.850593 
" clip-path="url(#paf8cb40599)" style="fill: none; stroke: #7f7f7f; stroke-opacity: 0.2; stroke-width: 1.5; stroke-linecap: square"/>
   </g>
   <g id="line2d_19">
    <path d="M 73.832727 103.286799 
L 78.678318 139.72866 
L 83.523908 154.045206 
L 88.369498 161.04531 
L 93.215088 191.413304 
L 98.060678 198.407498 
L 102.906269 205.394336 
L 107.751859 208.660479 
L 112.597449 206.302688 
L 117.443039 215.599955 
L 122.28863 202.868877 
L 127.13422 215.456724 
L 131.97981 215.697258 
L 136.8254 220.229082 
L 141.670991 224.326275 
L 146.516581 212.797357 
L 151.362171 218.024591 
L 156.207761 230.520308 
L 161.053351 195.473596 
L 165.898942 212.277065 
L 170.744532 204.1768 
L 175.590122 228.28746 
L 180.435712 204.216442 
L 185.281303 221.358423 
L 190.126893 221.422913 
L 194.972483 227.919069 
L 199.818073 230.101635 
L 204.663664 225.195927 
L 209.509254 227.763943 
L 214.354844 218.043592 
L 219.200434 212.961192 
L 224.046024 231.044857 
L 228.891615 218.093884 
L 233.737205 221.627772 
L 238.582795 216.670939 
L 243.428385 220.232667 
L 248.273976 224.914616 
L 253.119566 216.522972 
L 257.965156 218.94155 
L 262.810746 227.051789 
L 267.656336 224.900797 
L 272.501927 225.033508 
L 277.347517 228.650677 
L 282.193107 215.678207 
L 287.038697 228.536023 
L 291.884288 229.560174 
L 296.729878 228.486504 
L 301.575468 231.639248 
L 306.421058 234.718128 
L 311.266649 233.578047 
L 316.112239 235.937172 
L 320.957829 229.785624 
L 325.803419 221.369412 
L 330.649009 231.296488 
L 335.4946 224.00949 
L 340.34019 225.803139 
L 345.18578 227.074551 
L 350.03137 225.680891 
L 354.876961 228.326973 
L 359.722551 227.509895 
L 364.568141 222.134122 
L 369.413731 221.703901 
L 374.259322 227.12174 
L 379.104912 231.559483 
L 383.950502 230.765341 
L 388.796092 228.642405 
" clip-path="url(#paf8cb40599)" style="fill: none; stroke: #d62728; stroke-opacity: 0.2; stroke-width: 1.5; stroke-linecap: square"/>
   </g>
   <g id="line2d_20">
    <path d="M 73.832727 84.385825 
L 78.678318 153.265574 
L 83.523908 175.797283 
L 88.369498 192.151506 
L 93.215088 201.899855 
L 98.060678 206.518255 
L 102.906269 213.252657 
L 107.751859 221.032449 
L 112.597449 234.137565 
L 117.443039 230.528915 
L 122.28863 230.234568 
L 127.13422 245.384528 
L 131.97981 234.908486 
L 136.8254 238.212818 
L 141.670991 251.309362 
L 146.516581 253.236412 
L 151.362171 246.855316 
L 156.207761 251.298557 
L 161.053351 251.058415 
L 165.898942 260.873568 
L 170.744532 245.123069 
L 175.590122 261.041713 
L 180.435712 261.995539 
L 185.281303 265.588594 
L 190.126893 250.763068 
L 194.972483 255.528976 
L 199.818073 269.094738 
L 204.663664 268.528162 
L 209.509254 269.085395 
" clip-path="url(#paf8cb40599)" style="fill: none; stroke: #7f7f7f; stroke-opacity: 0.4; stroke-width: 1.5; stroke-linecap: square"/>
   </g>
   <g id="line2d_21">
    <path d="M 73.832727 98.579861 
L 78.678318 149.55297 
L 83.523908 174.388168 
L 88.369498 182.984216 
L 93.215088 191.875501 
L 98.060678 197.582692 
L 102.906269 195.159736 
L 107.751859 205.999349 
L 112.597449 218.693452 
L 117.443039 218.447803 
L 122.28863 216.479284 
L 127.13422 218.350979 
L 131.97981 223.046979 
L 136.8254 235.211589 
L 141.670991 224.001236 
L 146.516581 229.793254 
L 151.362171 221.070918 
L 156.207761 213.69128 
L 161.053351 234.686482 
L 165.898942 233.177939 
L 170.744532 209.478443 
L 175.590122 227.991812 
L 180.435712 229.737685 
L 185.281303 231.932506 
L 190.126893 203.192642 
L 194.972483 225.57818 
L 199.818073 234.289262 
L 204.663664 219.329888 
L 209.509254 215.098834 
" clip-path="url(#paf8cb40599)" style="fill: none; stroke: #d62728; stroke-opacity: 0.4; stroke-width: 1.5; stroke-linecap: square"/>
   </g>
   <g id="line2d_22">
    <path d="M 73.832727 141.44094 
L 78.678318 170.792674 
L 83.523908 148.254769 
L 88.369498 200.854932 
L 93.215088 202.822319 
L 98.060678 182.819509 
L 102.906269 165.271121 
L 107.751859 223.718346 
L 112.597449 227.549453 
L 117.443039 216.38518 
L 122.28863 226.6277 
L 127.13422 235.146152 
L 131.97981 230.133362 
L 136.8254 237.212797 
L 141.670991 246.632099 
L 146.516581 232.538115 
L 151.362171 244.452989 
L 156.207761 162.639487 
L 161.053351 227.585788 
L 165.898942 254.929858 
L 170.744532 257.141136 
L 175.590122 257.206929 
L 180.435712 254.030185 
L 185.281303 250.60427 
L 190.126893 254.7001 
L 194.972483 257.502942 
L 199.818073 260.506761 
L 204.663664 263.276224 
L 209.509254 258.119398 
L 214.354844 271.890299 
L 219.200434 269.056064 
L 224.046024 262.643951 
L 228.891615 269.206785 
L 233.737205 273.585097 
L 238.582795 268.635957 
L 243.428385 266.684512 
L 248.273976 270.823882 
L 253.119566 269.118339 
L 257.965156 276.222815 
L 262.810746 278.077458 
L 267.656336 268.925156 
L 272.501927 280.584025 
L 277.347517 278.178822 
L 282.193107 278.840317 
L 287.038697 281.248182 
L 291.884288 277.58516 
L 296.729878 275.155328 
L 301.575468 276.50782 
L 306.421058 283.26419 
L 311.266649 275.084764 
L 316.112239 272.890799 
L 320.957829 268.836032 
L 325.803419 285.587153 
L 330.649009 285.972235 
L 335.4946 286.149974 
L 340.34019 286.758145 
L 345.18578 275.676018 
L 350.03137 275.3963 
L 354.876961 268.939655 
L 359.722551 276.936175 
L 364.568141 288.656008 
L 369.413731 288.960471 
L 374.259322 287.449266 
L 379.104912 285.181448 
L 383.950502 287.29124 
L 388.796092 290.62741 
L 393.641682 291.396581 
L 398.487273 295.488 
" clip-path="url(#paf8cb40599)" style="fill: none; stroke: #7f7f7f; stroke-opacity: 0.6; stroke-width: 1.5; stroke-linecap: square"/>
   </g>
   <g id="line2d_23">
    <path d="M 73.832727 138.836194 
L 78.678318 164.989948 
L 83.523908 141.59171 
L 88.369498 195.714404 
L 93.215088 186.555472 
L 98.060678 162.167737 
L 102.906269 151.157835 
L 107.751859 203.123621 
L 112.597449 195.965153 
L 117.443039 196.717508 
L 122.28863 203.343742 
L 127.13422 205.657882 
L 131.97981 205.769871 
L 136.8254 224.443237 
L 141.670991 221.805008 
L 146.516581 225.643713 
L 151.362171 211.542162 
L 156.207761 127.542834 
L 161.053351 206.524544 
L 165.898942 223.658888 
L 170.744532 226.158369 
L 175.590122 219.547743 
L 180.435712 216.020838 
L 185.281303 204.596697 
L 190.126893 225.702818 
L 194.972483 221.553119 
L 199.818073 219.451297 
L 204.663664 231.665553 
L 209.509254 222.592464 
L 214.354844 223.63928 
L 219.200434 219.504256 
L 224.046024 218.151561 
L 228.891615 219.376915 
L 233.737205 225.71137 
L 238.582795 231.941279 
L 243.428385 217.085735 
L 248.273976 234.87446 
L 253.119566 216.697288 
L 257.965156 220.486285 
L 262.810746 230.50991 
L 267.656336 222.413661 
L 272.501927 226.388413 
L 277.347517 227.436526 
L 282.193107 231.93848 
L 287.038697 216.454439 
L 291.884288 224.874678 
L 296.729878 229.96829 
L 301.575468 223.285683 
L 306.421058 221.412098 
L 311.266649 223.400579 
L 316.112239 226.347532 
L 320.957829 209.18637 
L 325.803419 236.529095 
L 330.649009 224.930291 
L 335.4946 230.352609 
L 340.34019 228.083368 
L 345.18578 218.247414 
L 350.03137 236.187756 
L 354.876961 216.643834 
L 359.722551 233.665823 
L 364.568141 229.12029 
L 369.413731 228.792765 
L 374.259322 229.80842 
L 379.104912 217.790993 
L 383.950502 223.949971 
L 388.796092 228.938254 
L 393.641682 227.268568 
L 398.487273 231.144294 
" clip-path="url(#paf8cb40599)" style="fill: none; stroke: #d62728; stroke-opacity: 0.6; stroke-width: 1.5; stroke-linecap: square"/>
   </g>
   <g id="line2d_24">
    <path d="M 73.832727 103.194374 
L 78.678318 155.664301 
L 83.523908 140.27982 
L 88.369498 182.652382 
L 93.215088 154.37853 
L 98.060678 203.756072 
L 102.906269 204.341271 
L 107.751859 181.743102 
L 112.597449 202.754443 
L 117.443039 226.342168 
L 122.28863 225.789525 
L 127.13422 235.420819 
L 131.97981 215.814258 
L 136.8254 233.827 
L 141.670991 232.053102 
L 146.516581 245.670375 
L 151.362171 221.46618 
L 156.207761 242.394864 
L 161.053351 249.555994 
L 165.898942 246.790795 
L 170.744532 253.739394 
L 175.590122 245.296403 
L 180.435712 257.157265 
L 185.281303 242.050074 
L 190.126893 245.326511 
L 194.972483 256.507733 
L 199.818073 257.10428 
L 204.663664 250.257925 
L 209.509254 256.564996 
L 214.354844 258.451074 
L 219.200434 262.357047 
L 224.046024 262.812792 
L 228.891615 264.7291 
L 233.737205 269.087858 
L 238.582795 264.233259 
L 243.428385 271.222178 
L 248.273976 270.966325 
L 253.119566 266.70859 
L 257.965156 248.854048 
L 262.810746 253.448154 
L 267.656336 272.092436 
L 272.501927 277.320552 
L 277.347517 255.942442 
L 282.193107 267.937678 
L 287.038697 270.605896 
L 291.884288 270.325702 
L 296.729878 278.070248 
L 301.575468 273.235454 
L 306.421058 276.760283 
L 311.266649 278.108678 
L 316.112239 283.297127 
L 320.957829 277.508952 
" clip-path="url(#paf8cb40599)" style="fill: none; stroke: #7f7f7f; stroke-opacity: 0.8; stroke-width: 1.5; stroke-linecap: square"/>
   </g>
   <g id="line2d_25">
    <path d="M 73.832727 105.631083 
L 78.678318 154.932975 
L 83.523908 130.037581 
L 88.369498 180.564751 
L 93.215088 155.87347 
L 98.060678 194.221301 
L 102.906269 197.838835 
L 107.751859 169.105411 
L 112.597449 202.012246 
L 117.443039 218.776147 
L 122.28863 212.956638 
L 127.13422 218.175032 
L 131.97981 198.613701 
L 136.8254 222.686036 
L 141.670991 213.234397 
L 146.516581 228.169616 
L 151.362171 191.083275 
L 156.207761 215.930083 
L 161.053351 230.532093 
L 165.898942 224.546006 
L 170.744532 225.449561 
L 175.590122 217.50159 
L 180.435712 228.348573 
L 185.281303 226.759451 
L 190.126893 220.735713 
L 194.972483 232.239571 
L 199.818073 224.370426 
L 204.663664 219.277515 
L 209.509254 218.562745 
L 214.354844 223.495972 
L 219.200434 228.073549 
L 224.046024 231.890196 
L 228.891615 233.04804 
L 233.737205 233.072831 
L 238.582795 229.270672 
L 243.428385 231.677576 
L 248.273976 236.739097 
L 253.119566 222.597389 
L 257.965156 206.112058 
L 262.810746 220.584113 
L 267.656336 231.106552 
L 272.501927 232.924623 
L 277.347517 209.715245 
L 282.193107 232.525701 
L 287.038697 230.676682 
L 291.884288 221.880006 
L 296.729878 231.087963 
L 301.575468 223.297391 
L 306.421058 233.590544 
L 311.266649 224.178161 
L 316.112239 230.261054 
L 320.957829 234.239253 
" clip-path="url(#paf8cb40599)" style="fill: none; stroke: #2ca02c; stroke-opacity: 0.8; stroke-width: 1.5; stroke-linecap: square"/>
   </g>
   <g id="line2d_26">
    <path d="M 73.832727 53.568 
L 78.678318 110.228982 
L 83.523908 121.905402 
L 88.369498 163.507186 
L 93.215088 131.499232 
L 98.060678 154.733954 
L 102.906269 178.611359 
L 107.751859 200.549188 
L 112.597449 201.467621 
L 117.443039 213.340588 
L 122.28863 217.531718 
L 127.13422 200.66359 
L 131.97981 227.164015 
L 136.8254 217.302715 
L 141.670991 182.820121 
L 146.516581 199.629492 
L 151.362171 229.454892 
L 156.207761 224.434004 
L 161.053351 213.975132 
L 165.898942 247.530913 
L 170.744532 220.976529 
L 175.590122 240.633972 
L 180.435712 230.411003 
L 185.281303 236.979489 
L 190.126893 248.511497 
L 194.972483 251.236552 
L 199.818073 260.216953 
L 204.663664 250.218943 
L 209.509254 260.769931 
L 214.354844 261.500713 
L 219.200434 257.610933 
L 224.046024 262.538639 
L 228.891615 245.780101 
L 233.737205 264.361105 
L 238.582795 239.164008 
L 243.428385 252.486648 
L 248.273976 259.512917 
L 253.119566 257.817616 
L 257.965156 263.675644 
L 262.810746 255.456853 
L 267.656336 266.220191 
L 272.501927 272.576129 
L 277.347517 261.007027 
L 282.193107 268.313416 
" clip-path="url(#paf8cb40599)" style="fill: none; stroke: #7f7f7f; stroke-width: 1.5; stroke-linecap: square"/>
   </g>
   <g id="line2d_27">
    <path d="M 73.832727 68.611502 
L 78.678318 126.470018 
L 83.523908 118.385442 
L 88.369498 160.362143 
L 93.215088 130.556681 
L 98.060678 150.193314 
L 102.906269 176.031299 
L 107.751859 194.460181 
L 112.597449 191.263056 
L 117.443039 205.073154 
L 122.28863 213.699705 
L 127.13422 193.926166 
L 131.97981 217.596591 
L 136.8254 211.697955 
L 141.670991 164.717192 
L 146.516581 186.616334 
L 151.362171 223.655899 
L 156.207761 219.352693 
L 161.053351 198.931393 
L 165.898942 229.198442 
L 170.744532 203.58945 
L 175.590122 218.334592 
L 180.435712 212.238934 
L 185.281303 209.277995 
L 190.126893 227.007298 
L 194.972483 221.99737 
L 199.818073 232.05685 
L 204.663664 219.539838 
L 209.509254 235.904509 
L 214.354844 228.210488 
L 219.200434 232.476332 
L 224.046024 228.308485 
L 228.891615 215.008781 
L 233.737205 230.95712 
L 238.582795 219.313227 
L 243.428385 228.161388 
L 248.273976 224.730211 
L 253.119566 216.169908 
L 257.965156 231.519435 
L 262.810746 217.578534 
L 267.656336 232.477352 
L 272.501927 229.997872 
L 277.347517 231.69542 
L 282.193107 230.703499 
" clip-path="url(#paf8cb40599)" style="fill: none; stroke: #d62728; stroke-width: 1.5; stroke-linecap: square"/>
   </g>
   <g id="line2d_28">
    <path d="M 57.6 236.739097 
L 414.72 236.739097 
" clip-path="url(#paf8cb40599)" style="fill: none; stroke-dasharray: 5.55,2.4; stroke-dashoffset: 0; stroke: #d62728; stroke-opacity: 0.5; stroke-width: 1.5"/>
   </g>
   <g id="patch_3">
    <path d="M 57.6 307.584 
L 57.6 41.472 
" style="fill: none; stroke: #000000; stroke-width: 0.8; stroke-linejoin: miter; stroke-linecap: square"/>
   </g>
   <g id="patch_4">
    <path d="M 414.72 307.584 
L 414.72 41.472 
" style="fill: none; stroke: #000000; stroke-width: 0.8; stroke-linejoin: miter; stroke-linecap: square"/>
   </g>
   <g id="patch_5">
    <path d="M 57.6 307.584 
L 414.72 307.584 
" style="fill: none; stroke: #000000; stroke-width: 0.8; stroke-linejoin: miter; stroke-linecap: square"/>
   </g>
   <g id="patch_6">
    <path d="M 57.6 41.472 
L 414.72 41.472 
" style="fill: none; stroke: #000000; stroke-width: 0.8; stroke-linejoin: miter; stroke-linecap: square"/>
   </g>
   <g id="legend_1">
    <g id="patch_7">
     <path d="M 351.268438 137.54075 
L 407.72 137.54075 
Q 409.72 137.54075 409.72 135.54075 
L 409.72 48.472 
Q 409.72 46.472 407.72 46.472 
L 351.268438 46.472 
Q 349.268438 46.472 349.268438 48.472 
L 349.268438 135.54075 
Q 349.268438 137.54075 351.268438 137.54075 
z
" style="fill: #ffffff; opacity: 0.8; stroke: #cccccc; stroke-linejoin: miter"/>
    </g>
    <g id="text_20">
     <!-- Batch Size -->
     <g transform="translate(353.268438 58.070438) scale(0.1 -0.1)">
      <defs>
       <path id="DejaVuSans-42" d="M 1259 2228 
L 1259 519 
L 2272 519 
Q 2781 519 3026 730 
Q 3272 941 3272 1375 
Q 3272 1813 3026 2020 
Q 2781 2228 2272 2228 
L 1259 2228 
z
M 1259 4147 
L 1259 2741 
L 2194 2741 
Q 2656 2741 2882 2914 
Q 3109 3088 3109 3444 
Q 3109 3797 2882 3972 
Q 2656 4147 2194 4147 
L 1259 4147 
z
M 628 4666 
L 2241 4666 
Q 2963 4666 3353 4366 
Q 3744 4066 3744 3513 
Q 3744 3084 3544 2831 
Q 3344 2578 2956 2516 
Q 3422 2416 3680 2098 
Q 3938 1781 3938 1306 
Q 3938 681 3513 340 
Q 3088 0 2303 0 
L 628 0 
L 628 4666 
z
" transform="scale(0.015625)"/>
       <path id="DejaVuSans-74" d="M 1172 4494 
L 1172 3500 
L 2356 3500 
L 2356 3053 
L 1172 3053 
L 1172 1153 
Q 1172 725 1289 603 
Q 1406 481 1766 481 
L 2356 481 
L 2356 0 
L 1766 0 
Q 1100 0 847 248 
Q 594 497 594 1153 
L 594 3053 
L 172 3053 
L 172 3500 
L 594 3500 
L 594 4494 
L 1172 4494 
z
" transform="scale(0.015625)"/>
       <path id="DejaVuSans-7a" d="M 353 3500 
L 3084 3500 
L 3084 2975 
L 922 459 
L 3084 459 
L 3084 0 
L 275 0 
L 275 525 
L 2438 3041 
L 353 3041 
L 353 3500 
z
" transform="scale(0.015625)"/>
       <path id="DejaVuSans-65" d="M 3597 1894 
L 3597 1613 
L 953 1613 
Q 991 1019 1311 708 
Q 1631 397 2203 397 
Q 2534 397 2845 478 
Q 3156 559 3463 722 
L 3463 178 
Q 3153 47 2828 -22 
Q 2503 -91 2169 -91 
Q 1331 -91 842 396 
Q 353 884 353 1716 
Q 353 2575 817 3079 
Q 1281 3584 2069 3584 
Q 2775 3584 3186 3129 
Q 3597 2675 3597 1894 
z
M 3022 2063 
Q 3016 2534 2758 2815 
Q 2500 3097 2075 3097 
Q 1594 3097 1305 2825 
Q 1016 2553 972 2059 
L 3022 2063 
z
" transform="scale(0.015625)"/>
      </defs>
      <use xlink:href="#DejaVuSans-42"/>
      <use xlink:href="#DejaVuSans-61" transform="translate(68.603516 0)"/>
      <use xlink:href="#DejaVuSans-74" transform="translate(129.882812 0)"/>
      <use xlink:href="#DejaVuSans-63" transform="translate(169.091797 0)"/>
      <use xlink:href="#DejaVuSans-68" transform="translate(224.072266 0)"/>
      <use xlink:href="#DejaVuSans-20" transform="translate(287.451172 0)"/>
      <use xlink:href="#DejaVuSans-53" transform="translate(319.238281 0)"/>
      <use xlink:href="#DejaVuSans-69" transform="translate(382.714844 0)"/>
      <use xlink:href="#DejaVuSans-7a" transform="translate(410.498047 0)"/>
      <use xlink:href="#DejaVuSans-65" transform="translate(462.988281 0)"/>
     </g>
    </g>
    <g id="line2d_29">
     <path d="M 359.131719 69.248563 
L 369.131719 69.248563 
L 379.131719 69.248563 
" style="fill: none; stroke: #d62728; stroke-opacity: 0.2; stroke-width: 1.5; stroke-linecap: square"/>
    </g>
    <g id="text_21">
     <!-- 4 -->
     <g transform="translate(387.131719 72.748563) scale(0.1 -0.1)">
      <use xlink:href="#DejaVuSans-34"/>
     </g>
    </g>
    <g id="line2d_30">
     <path d="M 359.131719 83.926688 
L 369.131719 83.926688 
L 379.131719 83.926688 
" style="fill: none; stroke: #d62728; stroke-opacity: 0.4; stroke-width: 1.5; stroke-linecap: square"/>
    </g>
    <g id="text_22">
     <!-- 8 -->
     <g transform="translate(387.131719 87.426688) scale(0.1 -0.1)">
      <defs>
       <path id="DejaVuSans-38" d="M 2034 2216 
Q 1584 2216 1326 1975 
Q 1069 1734 1069 1313 
Q 1069 891 1326 650 
Q 1584 409 2034 409 
Q 2484 409 2743 651 
Q 3003 894 3003 1313 
Q 3003 1734 2745 1975 
Q 2488 2216 2034 2216 
z
M 1403 2484 
Q 997 2584 770 2862 
Q 544 3141 544 3541 
Q 544 4100 942 4425 
Q 1341 4750 2034 4750 
Q 2731 4750 3128 4425 
Q 3525 4100 3525 3541 
Q 3525 3141 3298 2862 
Q 3072 2584 2669 2484 
Q 3125 2378 3379 2068 
Q 3634 1759 3634 1313 
Q 3634 634 3220 271 
Q 2806 -91 2034 -91 
Q 1263 -91 848 271 
Q 434 634 434 1313 
Q 434 1759 690 2068 
Q 947 2378 1403 2484 
z
M 1172 3481 
Q 1172 3119 1398 2916 
Q 1625 2713 2034 2713 
Q 2441 2713 2670 2916 
Q 2900 3119 2900 3481 
Q 2900 3844 2670 4047 
Q 2441 4250 2034 4250 
Q 1625 4250 1398 4047 
Q 1172 3844 1172 3481 
z
" transform="scale(0.015625)"/>
      </defs>
      <use xlink:href="#DejaVuSans-38"/>
     </g>
    </g>
    <g id="line2d_31">
     <path d="M 359.131719 98.604813 
L 369.131719 98.604813 
L 379.131719 98.604813 
" style="fill: none; stroke: #d62728; stroke-opacity: 0.6; stroke-width: 1.5; stroke-linecap: square"/>
    </g>
    <g id="text_23">
     <!-- 16 -->
     <g transform="translate(387.131719 102.104813) scale(0.1 -0.1)">
      <use xlink:href="#DejaVuSans-31"/>
      <use xlink:href="#DejaVuSans-36" transform="translate(63.623047 0)"/>
     </g>
    </g>
    <g id="line2d_32">
     <path d="M 359.131719 113.282938 
L 369.131719 113.282938 
L 379.131719 113.282938 
" style="fill: none; stroke: #2ca02c; stroke-opacity: 0.8; stroke-width: 1.5; stroke-linecap: square"/>
    </g>
    <g id="text_24">
     <!-- 32 -->
     <g transform="translate(387.131719 116.782938) scale(0.1 -0.1)">
      <use xlink:href="#DejaVuSans-33"/>
      <use xlink:href="#DejaVuSans-32" transform="translate(63.623047 0)"/>
     </g>
    </g>
    <g id="line2d_33">
     <path d="M 359.131719 127.961063 
L 369.131719 127.961063 
L 379.131719 127.961063 
" style="fill: none; stroke: #d62728; stroke-width: 1.5; stroke-linecap: square"/>
    </g>
    <g id="text_25">
     <!-- 64 -->
     <g transform="translate(387.131719 131.461063) scale(0.1 -0.1)">
      <use xlink:href="#DejaVuSans-36"/>
      <use xlink:href="#DejaVuSans-34" transform="translate(63.623047 0)"/>
     </g>
    </g>
   </g>
  </g>
 </g>
 <defs>
  <clipPath id="paf8cb40599">
   <rect x="57.6" y="41.472" width="357.12" height="266.112"/>
  </clipPath>
 </defs>
</svg>
