<?xml version="1.0" encoding="utf-8" standalone="no"?>
<!DOCTYPE svg PUBLIC "-//W3C//DTD SVG 1.1//EN"
  "http://www.w3.org/Graphics/SVG/1.1/DTD/svg11.dtd">
<svg xmlns:xlink="http://www.w3.org/1999/xlink" width="460.8pt" height="345.6pt" viewBox="0 0 460.8 345.6" xmlns="http://www.w3.org/2000/svg" version="1.1">
 <metadata>
  <rdf:RDF xmlns:dc="http://purl.org/dc/elements/1.1/" xmlns:cc="http://creativecommons.org/ns#" xmlns:rdf="http://www.w3.org/1999/02/22-rdf-syntax-ns#">
   <cc:Work>
    <dc:type rdf:resource="http://purl.org/dc/dcmitype/StillImage"/>
    <dc:date>2025-10-20T21:34:54.098921</dc:date>
    <dc:format>image/svg+xml</dc:format>
    <dc:creator>
     <cc:Agent>
      <dc:title>Matplotlib v3.10.7, https://matplotlib.org/</dc:title>
     </cc:Agent>
    </dc:creator>
   </cc:Work>
  </rdf:RDF>
 </metadata>
 <defs>
  <style type="text/css">*{stroke-linejoin: round; stroke-linecap: butt}</style>
 </defs>
 <g id="figure_1">
  <g id="patch_1">
   <path d="M 0 345.6 
L 460.8 345.6 
L 460.8 0 
L 0 0 
z
" style="fill: #ffffff"/>
  </g>
  <g id="axes_1">
   <g id="patch_2">
    <path d="M 103.104 307.584 
L 369.216 307.584 
L 369.216 41.472 
L 103.104 41.472 
z
" style="fill: #ffffff"/>
   </g>
   <g id="PathCollection_1">
    <defs>
     <path id="m88f5a5a299" d="M 0 3 
C 0.795609 3 1.55874 2.683901 2.12132 2.12132 
C 2.683901 1.55874 3 0.795609 3 0 
C 3 -0.795609 2.683901 -1.55874 2.12132 -2.12132 
C 1.55874 -2.683901 0.795609 -3 0 -3 
C -0.795609 -3 -1.55874 -2.683901 -2.12132 -2.12132 
C -2.683901 -1.55874 -3 -0.795609 -3 0 
C -3 0.795609 -2.683901 1.55874 -2.12132 2.12132 
C -1.55874 2.683901 -0.795609 3 0 3 
z
" style="stroke: #7f7f7f"/>
    </defs>
    <g clip-path="url(#p77ae847c95)">
     <use xlink:href="#m88f5a5a299" x="205.669225" y="189.416039" style="fill: #7f7f7f; stroke: #7f7f7f"/>
     <use xlink:href="#m88f5a5a299" x="281.221471" y="130.987507" style="fill: #7f7f7f; stroke: #7f7f7f"/>
     <use xlink:href="#m88f5a5a299" x="285.338869" y="145.163917" style="fill: #7f7f7f; stroke: #7f7f7f"/>
     <use xlink:href="#m88f5a5a299" x="239.780612" y="161.699941" style="fill: #7f7f7f; stroke: #7f7f7f"/>
     <use xlink:href="#m88f5a5a299" x="334.221362" y="83.42069" style="fill: #7f7f7f; stroke: #7f7f7f"/>
     <use xlink:href="#m88f5a5a299" x="294.858619" y="130.182242" style="fill: #7f7f7f; stroke: #7f7f7f"/>
     <use xlink:href="#m88f5a5a299" x="261.720584" y="149.152788" style="fill: #7f7f7f; stroke: #7f7f7f"/>
     <use xlink:href="#m88f5a5a299" x="206.245248" y="194.659626" style="fill: #7f7f7f; stroke: #7f7f7f"/>
     <use xlink:href="#m88f5a5a299" x="291.670725" y="121.811232" style="fill: #7f7f7f; stroke: #7f7f7f"/>
     <use xlink:href="#m88f5a5a299" x="289.062355" y="134.920197" style="fill: #7f7f7f; stroke: #7f7f7f"/>
     <use xlink:href="#m88f5a5a299" x="201.692164" y="200.390116" style="fill: #7f7f7f; stroke: #7f7f7f"/>
     <use xlink:href="#m88f5a5a299" x="302.81141" y="98.776906" style="fill: #7f7f7f; stroke: #7f7f7f"/>
     <use xlink:href="#m88f5a5a299" x="275.151706" y="128.365714" style="fill: #7f7f7f; stroke: #7f7f7f"/>
     <use xlink:href="#m88f5a5a299" x="338.44367" y="64.880867" style="fill: #7f7f7f; stroke: #7f7f7f"/>
     <use xlink:href="#m88f5a5a299" x="256.106772" y="151.400039" style="fill: #7f7f7f; stroke: #7f7f7f"/>
     <use xlink:href="#m88f5a5a299" x="337.867511" y="75.742581" style="fill: #7f7f7f; stroke: #7f7f7f"/>
     <use xlink:href="#m88f5a5a299" x="295.859746" y="119.938522" style="fill: #7f7f7f; stroke: #7f7f7f"/>
     <use xlink:href="#m88f5a5a299" x="319.036037" y="73.345513" style="fill: #7f7f7f; stroke: #7f7f7f"/>
     <use xlink:href="#m88f5a5a299" x="242.669573" y="158.329064" style="fill: #7f7f7f; stroke: #7f7f7f"/>
     <use xlink:href="#m88f5a5a299" x="329.049121" y="85.106128" style="fill: #7f7f7f; stroke: #7f7f7f"/>
     <use xlink:href="#m88f5a5a299" x="274.307994" y="135.444556" style="fill: #7f7f7f; stroke: #7f7f7f"/>
     <use xlink:href="#m88f5a5a299" x="271.905081" y="138.497072" style="fill: #7f7f7f; stroke: #7f7f7f"/>
     <use xlink:href="#m88f5a5a299" x="251.635066" y="157.205438" style="fill: #7f7f7f; stroke: #7f7f7f"/>
     <use xlink:href="#m88f5a5a299" x="259.59048" y="104.769576" style="fill: #7f7f7f; stroke: #7f7f7f"/>
     <use xlink:href="#m88f5a5a299" x="275.47267" y="120.687606" style="fill: #7f7f7f; stroke: #7f7f7f"/>
     <use xlink:href="#m88f5a5a299" x="204.638134" y="203.086818" style="fill: #7f7f7f; stroke: #7f7f7f"/>
     <use xlink:href="#m88f5a5a299" x="257.361377" y="147.280079" style="fill: #7f7f7f; stroke: #7f7f7f"/>
     <use xlink:href="#m88f5a5a299" x="302.436926" y="116.567645" style="fill: #7f7f7f; stroke: #7f7f7f"/>
     <use xlink:href="#m88f5a5a299" x="246.205178" y="168.123334" style="fill: #7f7f7f; stroke: #7f7f7f"/>
     <use xlink:href="#m88f5a5a299" x="348.469308" y="79.300729" style="fill: #7f7f7f; stroke: #7f7f7f"/>
     <use xlink:href="#m88f5a5a299" x="257.552079" y="150.164051" style="fill: #7f7f7f; stroke: #7f7f7f"/>
     <use xlink:href="#m88f5a5a299" x="203.11368" y="202.712276" style="fill: #7f7f7f; stroke: #7f7f7f"/>
     <use xlink:href="#m88f5a5a299" x="205.372661" y="206.644966" style="fill: #7f7f7f; stroke: #7f7f7f"/>
     <use xlink:href="#m88f5a5a299" x="314.954895" y="103.758313" style="fill: #7f7f7f; stroke: #7f7f7f"/>
     <use xlink:href="#m88f5a5a299" x="297.581345" y="134.732926" style="fill: #7f7f7f; stroke: #7f7f7f"/>
     <use xlink:href="#m88f5a5a299" x="296.979463" y="115.631291" style="fill: #7f7f7f; stroke: #7f7f7f"/>
     <use xlink:href="#m88f5a5a299" x="231.804691" y="191.288749" style="fill: #7f7f7f; stroke: #7f7f7f"/>
     <use xlink:href="#m88f5a5a299" x="276.799264" y="162.636296" style="fill: #7f7f7f; stroke: #7f7f7f"/>
     <use xlink:href="#m88f5a5a299" x="296.068959" y="116.380374" style="fill: #7f7f7f; stroke: #7f7f7f"/>
     <use xlink:href="#m88f5a5a299" x="247.477687" y="166.194443" style="fill: #7f7f7f; stroke: #7f7f7f"/>
     <use xlink:href="#m88f5a5a299" x="195.707664" y="221.75773" style="fill: #7f7f7f; stroke: #7f7f7f"/>
     <use xlink:href="#m88f5a5a299" x="313.675199" y="128.365714" style="fill: #7f7f7f; stroke: #7f7f7f"/>
     <use xlink:href="#m88f5a5a299" x="316.70606" y="77.053478" style="fill: #7f7f7f; stroke: #7f7f7f"/>
     <use xlink:href="#m88f5a5a299" x="293.969224" y="115.106932" style="fill: #7f7f7f; stroke: #7f7f7f"/>
     <use xlink:href="#m88f5a5a299" x="271.610898" y="137.916532" style="fill: #7f7f7f; stroke: #7f7f7f"/>
     <use xlink:href="#m88f5a5a299" x="289.02437" y="108.140453" style="fill: #7f7f7f; stroke: #7f7f7f"/>
     <use xlink:href="#m88f5a5a299" x="232.092028" y="208.723673" style="fill: #7f7f7f; stroke: #7f7f7f"/>
     <use xlink:href="#m88f5a5a299" x="322.810765" y="92.409695" style="fill: #7f7f7f; stroke: #7f7f7f"/>
     <use xlink:href="#m88f5a5a299" x="296.221544" y="138.852887" style="fill: #7f7f7f; stroke: #7f7f7f"/>
     <use xlink:href="#m88f5a5a299" x="262.3387" y="148.590975" style="fill: #7f7f7f; stroke: #7f7f7f"/>
     <use xlink:href="#m88f5a5a299" x="333.976616" y="83.308327" style="fill: #7f7f7f; stroke: #7f7f7f"/>
     <use xlink:href="#m88f5a5a299" x="312.284364" y="84.918857" style="fill: #7f7f7f; stroke: #7f7f7f"/>
     <use xlink:href="#m88f5a5a299" x="254.958953" y="154.021833" style="fill: #7f7f7f; stroke: #7f7f7f"/>
     <use xlink:href="#m88f5a5a299" x="323.881626" y="98.926723" style="fill: #7f7f7f; stroke: #7f7f7f"/>
     <use xlink:href="#m88f5a5a299" x="176.383042" y="288.856906" style="fill: #7f7f7f; stroke: #7f7f7f"/>
     <use xlink:href="#m88f5a5a299" x="255.737947" y="163.198108" style="fill: #7f7f7f; stroke: #7f7f7f"/>
     <use xlink:href="#m88f5a5a299" x="311.545354" y="112.634956" style="fill: #7f7f7f; stroke: #7f7f7f"/>
     <use xlink:href="#m88f5a5a299" x="300.073316" y="109.638621" style="fill: #7f7f7f; stroke: #7f7f7f"/>
     <use xlink:href="#m88f5a5a299" x="247.960803" y="154.864552" style="fill: #7f7f7f; stroke: #7f7f7f"/>
     <use xlink:href="#m88f5a5a299" x="227.308349" y="187.730601" style="fill: #7f7f7f; stroke: #7f7f7f"/>
     <use xlink:href="#m88f5a5a299" x="327.212666" y="79.300729" style="fill: #7f7f7f; stroke: #7f7f7f"/>
     <use xlink:href="#m88f5a5a299" x="220.348507" y="145.781911" style="fill: #7f7f7f; stroke: #7f7f7f"/>
     <use xlink:href="#m88f5a5a299" x="299.286749" y="107.953182" style="fill: #7f7f7f; stroke: #7f7f7f"/>
     <use xlink:href="#m88f5a5a299" x="289.095978" y="128.552985" style="fill: #7f7f7f; stroke: #7f7f7f"/>
     <use xlink:href="#m88f5a5a299" x="316.002747" y="108.327724" style="fill: #7f7f7f; stroke: #7f7f7f"/>
     <use xlink:href="#m88f5a5a299" x="358.087829" y="50.835547" style="fill: #7f7f7f; stroke: #7f7f7f"/>
     <use xlink:href="#m88f5a5a299" x="298.575974" y="121.623961" style="fill: #7f7f7f; stroke: #7f7f7f"/>
     <use xlink:href="#m88f5a5a299" x="205.331221" y="195.034167" style="fill: #7f7f7f; stroke: #7f7f7f"/>
     <use xlink:href="#m88f5a5a299" x="358.52349" y="61.50999" style="fill: #7f7f7f; stroke: #7f7f7f"/>
     <use xlink:href="#m88f5a5a299" x="288.524525" y="119.56398" style="fill: #7f7f7f; stroke: #7f7f7f"/>
     <use xlink:href="#m88f5a5a299" x="314.990784" y="95.5933" style="fill: #7f7f7f; stroke: #7f7f7f"/>
     <use xlink:href="#m88f5a5a299" x="221.617332" y="177.243429" style="fill: #7f7f7f; stroke: #7f7f7f"/>
     <use xlink:href="#m88f5a5a299" x="275.782956" y="119.938522" style="fill: #7f7f7f; stroke: #7f7f7f"/>
     <use xlink:href="#m88f5a5a299" x="231.0006" y="185.48335" style="fill: #7f7f7f; stroke: #7f7f7f"/>
     <use xlink:href="#m88f5a5a299" x="299.21624" y="111.848418" style="fill: #7f7f7f; stroke: #7f7f7f"/>
     <use xlink:href="#m88f5a5a299" x="240.142572" y="153.572382" style="fill: #7f7f7f; stroke: #7f7f7f"/>
     <use xlink:href="#m88f5a5a299" x="341.908869" y="62.820887" style="fill: #7f7f7f; stroke: #7f7f7f"/>
     <use xlink:href="#m88f5a5a299" x="350.387496" y="74.806227" style="fill: #7f7f7f; stroke: #7f7f7f"/>
     <use xlink:href="#m88f5a5a299" x="285.96218" y="129.676611" style="fill: #7f7f7f; stroke: #7f7f7f"/>
     <use xlink:href="#m88f5a5a299" x="321.600199" y="80.237084" style="fill: #7f7f7f; stroke: #7f7f7f"/>
     <use xlink:href="#m88f5a5a299" x="301.684016" y="98.889269" style="fill: #7f7f7f; stroke: #7f7f7f"/>
     <use xlink:href="#m88f5a5a299" x="276.335188" y="131.736591" style="fill: #7f7f7f; stroke: #7f7f7f"/>
     <use xlink:href="#m88f5a5a299" x="227.070432" y="188.666956" style="fill: #7f7f7f; stroke: #7f7f7f"/>
     <use xlink:href="#m88f5a5a299" x="307.419345" y="90.911527" style="fill: #7f7f7f; stroke: #7f7f7f"/>
     <use xlink:href="#m88f5a5a299" x="266.618267" y="152.336394" style="fill: #7f7f7f; stroke: #7f7f7f"/>
     <use xlink:href="#m88f5a5a299" x="289.323182" y="138.721797" style="fill: #7f7f7f; stroke: #7f7f7f"/>
     <use xlink:href="#m88f5a5a299" x="247.213611" y="161.51267" style="fill: #7f7f7f; stroke: #7f7f7f"/>
     <use xlink:href="#m88f5a5a299" x="292.397617" y="135.313466" style="fill: #7f7f7f; stroke: #7f7f7f"/>
     <use xlink:href="#m88f5a5a299" x="275.886397" y="134.920197" style="fill: #7f7f7f; stroke: #7f7f7f"/>
     <use xlink:href="#m88f5a5a299" x="286.992447" y="131.99877" style="fill: #7f7f7f; stroke: #7f7f7f"/>
     <use xlink:href="#m88f5a5a299" x="340.486539" y="66.191764" style="fill: #7f7f7f; stroke: #7f7f7f"/>
     <use xlink:href="#m88f5a5a299" x="340.897199" y="73.869872" style="fill: #7f7f7f; stroke: #7f7f7f"/>
     <use xlink:href="#m88f5a5a299" x="302.344468" y="110.013163" style="fill: #7f7f7f; stroke: #7f7f7f"/>
     <use xlink:href="#m88f5a5a299" x="358.059425" y="51.022818" style="fill: #7f7f7f; stroke: #7f7f7f"/>
     <use xlink:href="#m88f5a5a299" x="296.40512" y="125.519196" style="fill: #7f7f7f; stroke: #7f7f7f"/>
     <use xlink:href="#m88f5a5a299" x="338.433835" y="76.866207" style="fill: #7f7f7f; stroke: #7f7f7f"/>
     <use xlink:href="#m88f5a5a299" x="297.760643" y="132.279677" style="fill: #7f7f7f; stroke: #7f7f7f"/>
     <use xlink:href="#m88f5a5a299" x="299.720198" y="117.691271" style="fill: #7f7f7f; stroke: #7f7f7f"/>
     <use xlink:href="#m88f5a5a299" x="289.908387" y="154.958187" style="fill: #7f7f7f; stroke: #7f7f7f"/>
     <use xlink:href="#m88f5a5a299" x="346.415813" y="65.068138" style="fill: #7f7f7f; stroke: #7f7f7f"/>
     <use xlink:href="#m88f5a5a299" x="315.539339" y="126.736457" style="fill: #7f7f7f; stroke: #7f7f7f"/>
     <use xlink:href="#m88f5a5a299" x="279.126811" y="119.957249" style="fill: #7f7f7f; stroke: #7f7f7f"/>
     <use xlink:href="#m88f5a5a299" x="300.447585" y="115.44402" style="fill: #7f7f7f; stroke: #7f7f7f"/>
     <use xlink:href="#m88f5a5a299" x="277.354857" y="134.732926" style="fill: #7f7f7f; stroke: #7f7f7f"/>
     <use xlink:href="#m88f5a5a299" x="269.763925" y="157.57998" style="fill: #7f7f7f; stroke: #7f7f7f"/>
     <use xlink:href="#m88f5a5a299" x="290.712723" y="138.852887" style="fill: #7f7f7f; stroke: #7f7f7f"/>
     <use xlink:href="#m88f5a5a299" x="249.376379" y="151.025498" style="fill: #7f7f7f; stroke: #7f7f7f"/>
     <use xlink:href="#m88f5a5a299" x="283.509302" y="126.305734" style="fill: #7f7f7f; stroke: #7f7f7f"/>
     <use xlink:href="#m88f5a5a299" x="270.720786" y="145.182644" style="fill: #7f7f7f; stroke: #7f7f7f"/>
     <use xlink:href="#m88f5a5a299" x="310.976351" y="91.847882" style="fill: #7f7f7f; stroke: #7f7f7f"/>
     <use xlink:href="#m88f5a5a299" x="268.27887" y="145.650822" style="fill: #7f7f7f; stroke: #7f7f7f"/>
     <use xlink:href="#m88f5a5a299" x="262.573829" y="147.654621" style="fill: #7f7f7f; stroke: #7f7f7f"/>
    </g>
   </g>
   <g id="matplotlib.axis_1">
    <g id="xtick_1">
     <g id="line2d_1">
      <defs>
       <path id="m59afe08902" d="M 0 0 
L 0 3.5 
" style="stroke: #000000; stroke-width: 0.8"/>
      </defs>
      <g>
       <use xlink:href="#m59afe08902" x="114.340256" y="307.584" style="stroke: #000000; stroke-width: 0.8"/>
      </g>
     </g>
     <g id="text_1">
      <!-- −12 -->
      <g transform="translate(103.787912 322.182437) scale(0.1 -0.1)">
       <defs>
        <path id="DejaVuSans-2212" d="M 678 2272 
L 4684 2272 
L 4684 1741 
L 678 1741 
L 678 2272 
z
" transform="scale(0.015625)"/>
        <path id="DejaVuSans-31" d="M 794 531 
L 1825 531 
L 1825 4091 
L 703 3866 
L 703 4441 
L 1819 4666 
L 2450 4666 
L 2450 531 
L 3481 531 
L 3481 0 
L 794 0 
L 794 531 
z
" transform="scale(0.015625)"/>
        <path id="DejaVuSans-32" d="M 1228 531 
L 3431 531 
L 3431 0 
L 469 0 
L 469 531 
Q 828 903 1448 1529 
Q 2069 2156 2228 2338 
Q 2531 2678 2651 2914 
Q 2772 3150 2772 3378 
Q 2772 3750 2511 3984 
Q 2250 4219 1831 4219 
Q 1534 4219 1204 4116 
Q 875 4013 500 3803 
L 500 4441 
Q 881 4594 1212 4672 
Q 1544 4750 1819 4750 
Q 2544 4750 2975 4387 
Q 3406 4025 3406 3419 
Q 3406 3131 3298 2873 
Q 3191 2616 2906 2266 
Q 2828 2175 2409 1742 
Q 1991 1309 1228 531 
z
" transform="scale(0.015625)"/>
       </defs>
       <use xlink:href="#DejaVuSans-2212"/>
       <use xlink:href="#DejaVuSans-31" transform="translate(83.789062 0)"/>
       <use xlink:href="#DejaVuSans-32" transform="translate(147.412109 0)"/>
      </g>
     </g>
    </g>
    <g id="xtick_2">
     <g id="line2d_2">
      <g>
       <use xlink:href="#m59afe08902" x="151.794443" y="307.584" style="stroke: #000000; stroke-width: 0.8"/>
      </g>
     </g>
     <g id="text_2">
      <!-- −10 -->
      <g transform="translate(141.2421 322.182437) scale(0.1 -0.1)">
       <defs>
        <path id="DejaVuSans-30" d="M 2034 4250 
Q 1547 4250 1301 3770 
Q 1056 3291 1056 2328 
Q 1056 1369 1301 889 
Q 1547 409 2034 409 
Q 2525 409 2770 889 
Q 3016 1369 3016 2328 
Q 3016 3291 2770 3770 
Q 2525 4250 2034 4250 
z
M 2034 4750 
Q 2819 4750 3233 4129 
Q 3647 3509 3647 2328 
Q 3647 1150 3233 529 
Q 2819 -91 2034 -91 
Q 1250 -91 836 529 
Q 422 1150 422 2328 
Q 422 3509 836 4129 
Q 1250 4750 2034 4750 
z
" transform="scale(0.015625)"/>
       </defs>
       <use xlink:href="#DejaVuSans-2212"/>
       <use xlink:href="#DejaVuSans-31" transform="translate(83.789062 0)"/>
       <use xlink:href="#DejaVuSans-30" transform="translate(147.412109 0)"/>
      </g>
     </g>
    </g>
    <g id="xtick_3">
     <g id="line2d_3">
      <g>
       <use xlink:href="#m59afe08902" x="189.248631" y="307.584" style="stroke: #000000; stroke-width: 0.8"/>
      </g>
     </g>
     <g id="text_3">
      <!-- −8 -->
      <g transform="translate(181.877537 322.182437) scale(0.1 -0.1)">
       <defs>
        <path id="DejaVuSans-38" d="M 2034 2216 
Q 1584 2216 1326 1975 
Q 1069 1734 1069 1313 
Q 1069 891 1326 650 
Q 1584 409 2034 409 
Q 2484 409 2743 651 
Q 3003 894 3003 1313 
Q 3003 1734 2745 1975 
Q 2488 2216 2034 2216 
z
M 1403 2484 
Q 997 2584 770 2862 
Q 544 3141 544 3541 
Q 544 4100 942 4425 
Q 1341 4750 2034 4750 
Q 2731 4750 3128 4425 
Q 3525 4100 3525 3541 
Q 3525 3141 3298 2862 
Q 3072 2584 2669 2484 
Q 3125 2378 3379 2068 
Q 3634 1759 3634 1313 
Q 3634 634 3220 271 
Q 2806 -91 2034 -91 
Q 1263 -91 848 271 
Q 434 634 434 1313 
Q 434 1759 690 2068 
Q 947 2378 1403 2484 
z
M 1172 3481 
Q 1172 3119 1398 2916 
Q 1625 2713 2034 2713 
Q 2441 2713 2670 2916 
Q 2900 3119 2900 3481 
Q 2900 3844 2670 4047 
Q 2441 4250 2034 4250 
Q 1625 4250 1398 4047 
Q 1172 3844 1172 3481 
z
" transform="scale(0.015625)"/>
       </defs>
       <use xlink:href="#DejaVuSans-2212"/>
       <use xlink:href="#DejaVuSans-38" transform="translate(83.789062 0)"/>
      </g>
     </g>
    </g>
    <g id="xtick_4">
     <g id="line2d_4">
      <g>
       <use xlink:href="#m59afe08902" x="226.702818" y="307.584" style="stroke: #000000; stroke-width: 0.8"/>
      </g>
     </g>
     <g id="text_4">
      <!-- −6 -->
      <g transform="translate(219.331724 322.182437) scale(0.1 -0.1)">
       <defs>
        <path id="DejaVuSans-36" d="M 2113 2584 
Q 1688 2584 1439 2293 
Q 1191 2003 1191 1497 
Q 1191 994 1439 701 
Q 1688 409 2113 409 
Q 2538 409 2786 701 
Q 3034 994 3034 1497 
Q 3034 2003 2786 2293 
Q 2538 2584 2113 2584 
z
M 3366 4563 
L 3366 3988 
Q 3128 4100 2886 4159 
Q 2644 4219 2406 4219 
Q 1781 4219 1451 3797 
Q 1122 3375 1075 2522 
Q 1259 2794 1537 2939 
Q 1816 3084 2150 3084 
Q 2853 3084 3261 2657 
Q 3669 2231 3669 1497 
Q 3669 778 3244 343 
Q 2819 -91 2113 -91 
Q 1303 -91 875 529 
Q 447 1150 447 2328 
Q 447 3434 972 4092 
Q 1497 4750 2381 4750 
Q 2619 4750 2861 4703 
Q 3103 4656 3366 4563 
z
" transform="scale(0.015625)"/>
       </defs>
       <use xlink:href="#DejaVuSans-2212"/>
       <use xlink:href="#DejaVuSans-36" transform="translate(83.789062 0)"/>
      </g>
     </g>
    </g>
    <g id="xtick_5">
     <g id="line2d_5">
      <g>
       <use xlink:href="#m59afe08902" x="264.157005" y="307.584" style="stroke: #000000; stroke-width: 0.8"/>
      </g>
     </g>
     <g id="text_5">
      <!-- −4 -->
      <g transform="translate(256.785911 322.182437) scale(0.1 -0.1)">
       <defs>
        <path id="DejaVuSans-34" d="M 2419 4116 
L 825 1625 
L 2419 1625 
L 2419 4116 
z
M 2253 4666 
L 3047 4666 
L 3047 1625 
L 3713 1625 
L 3713 1100 
L 3047 1100 
L 3047 0 
L 2419 0 
L 2419 1100 
L 313 1100 
L 313 1709 
L 2253 4666 
z
" transform="scale(0.015625)"/>
       </defs>
       <use xlink:href="#DejaVuSans-2212"/>
       <use xlink:href="#DejaVuSans-34" transform="translate(83.789062 0)"/>
      </g>
     </g>
    </g>
    <g id="xtick_6">
     <g id="line2d_6">
      <g>
       <use xlink:href="#m59afe08902" x="301.611192" y="307.584" style="stroke: #000000; stroke-width: 0.8"/>
      </g>
     </g>
     <g id="text_6">
      <!-- −2 -->
      <g transform="translate(294.240098 322.182437) scale(0.1 -0.1)">
       <use xlink:href="#DejaVuSans-2212"/>
       <use xlink:href="#DejaVuSans-32" transform="translate(83.789062 0)"/>
      </g>
     </g>
    </g>
    <g id="xtick_7">
     <g id="line2d_7">
      <g>
       <use xlink:href="#m59afe08902" x="339.065379" y="307.584" style="stroke: #000000; stroke-width: 0.8"/>
      </g>
     </g>
     <g id="text_7">
      <!-- 0 -->
      <g transform="translate(335.884129 322.182437) scale(0.1 -0.1)">
       <use xlink:href="#DejaVuSans-30"/>
      </g>
     </g>
    </g>
    <g id="text_8">
     <!-- Predicted Solubility $(log(mol\:dm^{-3}))$ -->
     <g transform="translate(146.86 337.362125) scale(0.1 -0.1)">
      <defs>
       <path id="DejaVuSans-50" d="M 1259 4147 
L 1259 2394 
L 2053 2394 
Q 2494 2394 2734 2622 
Q 2975 2850 2975 3272 
Q 2975 3691 2734 3919 
Q 2494 4147 2053 4147 
L 1259 4147 
z
M 628 4666 
L 2053 4666 
Q 2838 4666 3239 4311 
Q 3641 3956 3641 3272 
Q 3641 2581 3239 2228 
Q 2838 1875 2053 1875 
L 1259 1875 
L 1259 0 
L 628 0 
L 628 4666 
z
" transform="scale(0.015625)"/>
       <path id="DejaVuSans-72" d="M 2631 2963 
Q 2534 3019 2420 3045 
Q 2306 3072 2169 3072 
Q 1681 3072 1420 2755 
Q 1159 2438 1159 1844 
L 1159 0 
L 581 0 
L 581 3500 
L 1159 3500 
L 1159 2956 
Q 1341 3275 1631 3429 
Q 1922 3584 2338 3584 
Q 2397 3584 2469 3576 
Q 2541 3569 2628 3553 
L 2631 2963 
z
" transform="scale(0.015625)"/>
       <path id="DejaVuSans-65" d="M 3597 1894 
L 3597 1613 
L 953 1613 
Q 991 1019 1311 708 
Q 1631 397 2203 397 
Q 2534 397 2845 478 
Q 3156 559 3463 722 
L 3463 178 
Q 3153 47 2828 -22 
Q 2503 -91 2169 -91 
Q 1331 -91 842 396 
Q 353 884 353 1716 
Q 353 2575 817 3079 
Q 1281 3584 2069 3584 
Q 2775 3584 3186 3129 
Q 3597 2675 3597 1894 
z
M 3022 2063 
Q 3016 2534 2758 2815 
Q 2500 3097 2075 3097 
Q 1594 3097 1305 2825 
Q 1016 2553 972 2059 
L 3022 2063 
z
" transform="scale(0.015625)"/>
       <path id="DejaVuSans-64" d="M 2906 2969 
L 2906 4863 
L 3481 4863 
L 3481 0 
L 2906 0 
L 2906 525 
Q 2725 213 2448 61 
Q 2172 -91 1784 -91 
Q 1150 -91 751 415 
Q 353 922 353 1747 
Q 353 2572 751 3078 
Q 1150 3584 1784 3584 
Q 2172 3584 2448 3432 
Q 2725 3281 2906 2969 
z
M 947 1747 
Q 947 1113 1208 752 
Q 1469 391 1925 391 
Q 2381 391 2643 752 
Q 2906 1113 2906 1747 
Q 2906 2381 2643 2742 
Q 2381 3103 1925 3103 
Q 1469 3103 1208 2742 
Q 947 2381 947 1747 
z
" transform="scale(0.015625)"/>
       <path id="DejaVuSans-69" d="M 603 3500 
L 1178 3500 
L 1178 0 
L 603 0 
L 603 3500 
z
M 603 4863 
L 1178 4863 
L 1178 4134 
L 603 4134 
L 603 4863 
z
" transform="scale(0.015625)"/>
       <path id="DejaVuSans-63" d="M 3122 3366 
L 3122 2828 
Q 2878 2963 2633 3030 
Q 2388 3097 2138 3097 
Q 1578 3097 1268 2742 
Q 959 2388 959 1747 
Q 959 1106 1268 751 
Q 1578 397 2138 397 
Q 2388 397 2633 464 
Q 2878 531 3122 666 
L 3122 134 
Q 2881 22 2623 -34 
Q 2366 -91 2075 -91 
Q 1284 -91 818 406 
Q 353 903 353 1747 
Q 353 2603 823 3093 
Q 1294 3584 2113 3584 
Q 2378 3584 2631 3529 
Q 2884 3475 3122 3366 
z
" transform="scale(0.015625)"/>
       <path id="DejaVuSans-74" d="M 1172 4494 
L 1172 3500 
L 2356 3500 
L 2356 3053 
L 1172 3053 
L 1172 1153 
Q 1172 725 1289 603 
Q 1406 481 1766 481 
L 2356 481 
L 2356 0 
L 1766 0 
Q 1100 0 847 248 
Q 594 497 594 1153 
L 594 3053 
L 172 3053 
L 172 3500 
L 594 3500 
L 594 4494 
L 1172 4494 
z
" transform="scale(0.015625)"/>
       <path id="DejaVuSans-20" transform="scale(0.015625)"/>
       <path id="DejaVuSans-53" d="M 3425 4513 
L 3425 3897 
Q 3066 4069 2747 4153 
Q 2428 4238 2131 4238 
Q 1616 4238 1336 4038 
Q 1056 3838 1056 3469 
Q 1056 3159 1242 3001 
Q 1428 2844 1947 2747 
L 2328 2669 
Q 3034 2534 3370 2195 
Q 3706 1856 3706 1288 
Q 3706 609 3251 259 
Q 2797 -91 1919 -91 
Q 1588 -91 1214 -16 
Q 841 59 441 206 
L 441 856 
Q 825 641 1194 531 
Q 1563 422 1919 422 
Q 2459 422 2753 634 
Q 3047 847 3047 1241 
Q 3047 1584 2836 1778 
Q 2625 1972 2144 2069 
L 1759 2144 
Q 1053 2284 737 2584 
Q 422 2884 422 3419 
Q 422 4038 858 4394 
Q 1294 4750 2059 4750 
Q 2388 4750 2728 4690 
Q 3069 4631 3425 4513 
z
" transform="scale(0.015625)"/>
       <path id="DejaVuSans-6f" d="M 1959 3097 
Q 1497 3097 1228 2736 
Q 959 2375 959 1747 
Q 959 1119 1226 758 
Q 1494 397 1959 397 
Q 2419 397 2687 759 
Q 2956 1122 2956 1747 
Q 2956 2369 2687 2733 
Q 2419 3097 1959 3097 
z
M 1959 3584 
Q 2709 3584 3137 3096 
Q 3566 2609 3566 1747 
Q 3566 888 3137 398 
Q 2709 -91 1959 -91 
Q 1206 -91 779 398 
Q 353 888 353 1747 
Q 353 2609 779 3096 
Q 1206 3584 1959 3584 
z
" transform="scale(0.015625)"/>
       <path id="DejaVuSans-6c" d="M 603 4863 
L 1178 4863 
L 1178 0 
L 603 0 
L 603 4863 
z
" transform="scale(0.015625)"/>
       <path id="DejaVuSans-75" d="M 544 1381 
L 544 3500 
L 1119 3500 
L 1119 1403 
Q 1119 906 1312 657 
Q 1506 409 1894 409 
Q 2359 409 2629 706 
Q 2900 1003 2900 1516 
L 2900 3500 
L 3475 3500 
L 3475 0 
L 2900 0 
L 2900 538 
Q 2691 219 2414 64 
Q 2138 -91 1772 -91 
Q 1169 -91 856 284 
Q 544 659 544 1381 
z
M 1991 3584 
L 1991 3584 
z
" transform="scale(0.015625)"/>
       <path id="DejaVuSans-62" d="M 3116 1747 
Q 3116 2381 2855 2742 
Q 2594 3103 2138 3103 
Q 1681 3103 1420 2742 
Q 1159 2381 1159 1747 
Q 1159 1113 1420 752 
Q 1681 391 2138 391 
Q 2594 391 2855 752 
Q 3116 1113 3116 1747 
z
M 1159 2969 
Q 1341 3281 1617 3432 
Q 1894 3584 2278 3584 
Q 2916 3584 3314 3078 
Q 3713 2572 3713 1747 
Q 3713 922 3314 415 
Q 2916 -91 2278 -91 
Q 1894 -91 1617 61 
Q 1341 213 1159 525 
L 1159 0 
L 581 0 
L 581 4863 
L 1159 4863 
L 1159 2969 
z
" transform="scale(0.015625)"/>
       <path id="DejaVuSans-79" d="M 2059 -325 
Q 1816 -950 1584 -1140 
Q 1353 -1331 966 -1331 
L 506 -1331 
L 506 -850 
L 844 -850 
Q 1081 -850 1212 -737 
Q 1344 -625 1503 -206 
L 1606 56 
L 191 3500 
L 800 3500 
L 1894 763 
L 2988 3500 
L 3597 3500 
L 2059 -325 
z
" transform="scale(0.015625)"/>
       <path id="DejaVuSans-28" d="M 1984 4856 
Q 1566 4138 1362 3434 
Q 1159 2731 1159 2009 
Q 1159 1288 1364 580 
Q 1569 -128 1984 -844 
L 1484 -844 
Q 1016 -109 783 600 
Q 550 1309 550 2009 
Q 550 2706 781 3412 
Q 1013 4119 1484 4856 
L 1984 4856 
z
" transform="scale(0.015625)"/>
       <path id="DejaVuSans-Oblique-6c" d="M 1172 4863 
L 1747 4863 
L 800 0 
L 225 0 
L 1172 4863 
z
" transform="scale(0.015625)"/>
       <path id="DejaVuSans-Oblique-6f" d="M 1625 -91 
Q 1009 -91 651 289 
Q 294 669 294 1325 
Q 294 1706 417 2101 
Q 541 2497 738 2766 
Q 1047 3184 1428 3384 
Q 1809 3584 2291 3584 
Q 2888 3584 3255 3212 
Q 3622 2841 3622 2241 
Q 3622 1825 3500 1412 
Q 3378 1000 3181 728 
Q 2875 309 2494 109 
Q 2113 -91 1625 -91 
z
M 891 1344 
Q 891 869 1089 633 
Q 1288 397 1691 397 
Q 2269 397 2648 901 
Q 3028 1406 3028 2181 
Q 3028 2634 2825 2865 
Q 2622 3097 2228 3097 
Q 1903 3097 1650 2945 
Q 1397 2794 1197 2484 
Q 1050 2253 970 1956 
Q 891 1659 891 1344 
z
" transform="scale(0.015625)"/>
       <path id="DejaVuSans-Oblique-67" d="M 3816 3500 
L 3219 434 
Q 3047 -456 2561 -893 
Q 2075 -1331 1253 -1331 
Q 950 -1331 690 -1286 
Q 431 -1241 206 -1147 
L 313 -588 
Q 525 -725 762 -790 
Q 1000 -856 1269 -856 
Q 1816 -856 2167 -557 
Q 2519 -259 2631 300 
L 2681 563 
Q 2441 288 2122 144 
Q 1803 0 1434 0 
Q 903 0 598 351 
Q 294 703 294 1319 
Q 294 1803 478 2267 
Q 663 2731 997 3091 
Q 1219 3328 1514 3456 
Q 1809 3584 2131 3584 
Q 2484 3584 2746 3420 
Q 3009 3256 3138 2956 
L 3238 3500 
L 3816 3500 
z
M 2950 2216 
Q 2950 2641 2750 2872 
Q 2550 3103 2181 3103 
Q 1953 3103 1747 3012 
Q 1541 2922 1394 2759 
Q 1156 2491 1023 2127 
Q 891 1763 891 1375 
Q 891 944 1092 712 
Q 1294 481 1672 481 
Q 2219 481 2584 976 
Q 2950 1472 2950 2216 
z
" transform="scale(0.015625)"/>
       <path id="DejaVuSans-Oblique-6d" d="M 5747 2113 
L 5338 0 
L 4763 0 
L 5166 2094 
Q 5191 2228 5203 2325 
Q 5216 2422 5216 2491 
Q 5216 2772 5059 2928 
Q 4903 3084 4622 3084 
Q 4203 3084 3875 2770 
Q 3547 2456 3450 1953 
L 3066 0 
L 2491 0 
L 2900 2094 
Q 2925 2209 2937 2307 
Q 2950 2406 2950 2484 
Q 2950 2769 2794 2926 
Q 2638 3084 2363 3084 
Q 1938 3084 1609 2770 
Q 1281 2456 1184 1953 
L 800 0 
L 225 0 
L 909 3500 
L 1484 3500 
L 1375 2956 
Q 1609 3263 1923 3423 
Q 2238 3584 2597 3584 
Q 2978 3584 3223 3384 
Q 3469 3184 3519 2828 
Q 3781 3197 4126 3390 
Q 4472 3584 4856 3584 
Q 5306 3584 5551 3325 
Q 5797 3066 5797 2591 
Q 5797 2488 5784 2364 
Q 5772 2241 5747 2113 
z
" transform="scale(0.015625)"/>
       <path id="DejaVuSans-Oblique-64" d="M 2675 525 
Q 2444 222 2128 65 
Q 1813 -91 1428 -91 
Q 903 -91 598 267 
Q 294 625 294 1247 
Q 294 1766 478 2236 
Q 663 2706 1013 3078 
Q 1244 3325 1534 3454 
Q 1825 3584 2144 3584 
Q 2481 3584 2739 3421 
Q 2997 3259 3138 2956 
L 3513 4863 
L 4091 4863 
L 3144 0 
L 2566 0 
L 2675 525 
z
M 891 1350 
Q 891 897 1095 644 
Q 1300 391 1663 391 
Q 1931 391 2161 520 
Q 2391 650 2566 903 
Q 2750 1166 2856 1509 
Q 2963 1853 2963 2188 
Q 2963 2622 2758 2865 
Q 2553 3109 2194 3109 
Q 1922 3109 1687 2981 
Q 1453 2853 1288 2613 
Q 1106 2353 998 2009 
Q 891 1666 891 1350 
z
" transform="scale(0.015625)"/>
       <path id="DejaVuSans-33" d="M 2597 2516 
Q 3050 2419 3304 2112 
Q 3559 1806 3559 1356 
Q 3559 666 3084 287 
Q 2609 -91 1734 -91 
Q 1441 -91 1130 -33 
Q 819 25 488 141 
L 488 750 
Q 750 597 1062 519 
Q 1375 441 1716 441 
Q 2309 441 2620 675 
Q 2931 909 2931 1356 
Q 2931 1769 2642 2001 
Q 2353 2234 1838 2234 
L 1294 2234 
L 1294 2753 
L 1863 2753 
Q 2328 2753 2575 2939 
Q 2822 3125 2822 3475 
Q 2822 3834 2567 4026 
Q 2313 4219 1838 4219 
Q 1578 4219 1281 4162 
Q 984 4106 628 3988 
L 628 4550 
Q 988 4650 1302 4700 
Q 1616 4750 1894 4750 
Q 2613 4750 3031 4423 
Q 3450 4097 3450 3541 
Q 3450 3153 3228 2886 
Q 3006 2619 2597 2516 
z
" transform="scale(0.015625)"/>
       <path id="DejaVuSans-29" d="M 513 4856 
L 1013 4856 
Q 1481 4119 1714 3412 
Q 1947 2706 1947 2009 
Q 1947 1309 1714 600 
Q 1481 -109 1013 -844 
L 513 -844 
Q 928 -128 1133 580 
Q 1338 1288 1338 2009 
Q 1338 2731 1133 3434 
Q 928 4138 513 4856 
z
" transform="scale(0.015625)"/>
      </defs>
      <use xlink:href="#DejaVuSans-50" transform="translate(0 0.765625)"/>
      <use xlink:href="#DejaVuSans-72" transform="translate(60.302734 0.765625)"/>
      <use xlink:href="#DejaVuSans-65" transform="translate(101.416016 0.765625)"/>
      <use xlink:href="#DejaVuSans-64" transform="translate(162.939453 0.765625)"/>
      <use xlink:href="#DejaVuSans-69" transform="translate(226.416016 0.765625)"/>
      <use xlink:href="#DejaVuSans-63" transform="translate(254.199219 0.765625)"/>
      <use xlink:href="#DejaVuSans-74" transform="translate(309.179688 0.765625)"/>
      <use xlink:href="#DejaVuSans-65" transform="translate(348.388672 0.765625)"/>
      <use xlink:href="#DejaVuSans-64" transform="translate(409.912109 0.765625)"/>
      <use xlink:href="#DejaVuSans-20" transform="translate(473.388672 0.765625)"/>
      <use xlink:href="#DejaVuSans-53" transform="translate(505.175781 0.765625)"/>
      <use xlink:href="#DejaVuSans-6f" transform="translate(568.652344 0.765625)"/>
      <use xlink:href="#DejaVuSans-6c" transform="translate(629.833984 0.765625)"/>
      <use xlink:href="#DejaVuSans-75" transform="translate(657.617188 0.765625)"/>
      <use xlink:href="#DejaVuSans-62" transform="translate(720.996094 0.765625)"/>
      <use xlink:href="#DejaVuSans-69" transform="translate(784.472656 0.765625)"/>
      <use xlink:href="#DejaVuSans-6c" transform="translate(812.255859 0.765625)"/>
      <use xlink:href="#DejaVuSans-69" transform="translate(840.039062 0.765625)"/>
      <use xlink:href="#DejaVuSans-74" transform="translate(867.822266 0.765625)"/>
      <use xlink:href="#DejaVuSans-79" transform="translate(907.03125 0.765625)"/>
      <use xlink:href="#DejaVuSans-20" transform="translate(966.210938 0.765625)"/>
      <use xlink:href="#DejaVuSans-28" transform="translate(997.998047 0.765625)"/>
      <use xlink:href="#DejaVuSans-Oblique-6c" transform="translate(1037.011719 0.765625)"/>
      <use xlink:href="#DejaVuSans-Oblique-6f" transform="translate(1064.794922 0.765625)"/>
      <use xlink:href="#DejaVuSans-Oblique-67" transform="translate(1125.976562 0.765625)"/>
      <use xlink:href="#DejaVuSans-28" transform="translate(1189.453125 0.765625)"/>
      <use xlink:href="#DejaVuSans-Oblique-6d" transform="translate(1228.466797 0.765625)"/>
      <use xlink:href="#DejaVuSans-Oblique-6f" transform="translate(1325.878906 0.765625)"/>
      <use xlink:href="#DejaVuSans-Oblique-6c" transform="translate(1387.060547 0.765625)"/>
      <use xlink:href="#DejaVuSans-Oblique-64" transform="translate(1436.490669 0.765625)"/>
      <use xlink:href="#DejaVuSans-Oblique-6d" transform="translate(1499.967231 0.765625)"/>
      <use xlink:href="#DejaVuSans-2212" transform="translate(1602.029237 39.046875) scale(0.7)"/>
      <use xlink:href="#DejaVuSans-33" transform="translate(1660.68158 39.046875) scale(0.7)"/>
      <use xlink:href="#DejaVuSans-29" transform="translate(1707.952088 0.765625)"/>
      <use xlink:href="#DejaVuSans-29" transform="translate(1746.96576 0.765625)"/>
     </g>
    </g>
   </g>
   <g id="matplotlib.axis_2">
    <g id="ytick_1">
     <g id="line2d_8">
      <defs>
       <path id="m4603cb3ab8" d="M 0 0 
L -3.5 0 
" style="stroke: #000000; stroke-width: 0.8"/>
      </defs>
      <g>
       <use xlink:href="#m4603cb3ab8" x="103.104" y="296.347744" style="stroke: #000000; stroke-width: 0.8"/>
      </g>
     </g>
     <g id="text_9">
      <!-- −12 -->
      <g transform="translate(74.999313 300.146963) scale(0.1 -0.1)">
       <use xlink:href="#DejaVuSans-2212"/>
       <use xlink:href="#DejaVuSans-31" transform="translate(83.789062 0)"/>
       <use xlink:href="#DejaVuSans-32" transform="translate(147.412109 0)"/>
      </g>
     </g>
    </g>
    <g id="ytick_2">
     <g id="line2d_9">
      <g>
       <use xlink:href="#m4603cb3ab8" x="103.104" y="258.893557" style="stroke: #000000; stroke-width: 0.8"/>
      </g>
     </g>
     <g id="text_10">
      <!-- −10 -->
      <g transform="translate(74.999313 262.692775) scale(0.1 -0.1)">
       <use xlink:href="#DejaVuSans-2212"/>
       <use xlink:href="#DejaVuSans-31" transform="translate(83.789062 0)"/>
       <use xlink:href="#DejaVuSans-30" transform="translate(147.412109 0)"/>
      </g>
     </g>
    </g>
    <g id="ytick_3">
     <g id="line2d_10">
      <g>
       <use xlink:href="#m4603cb3ab8" x="103.104" y="221.439369" style="stroke: #000000; stroke-width: 0.8"/>
      </g>
     </g>
     <g id="text_11">
      <!-- −8 -->
      <g transform="translate(81.361813 225.238588) scale(0.1 -0.1)">
       <use xlink:href="#DejaVuSans-2212"/>
       <use xlink:href="#DejaVuSans-38" transform="translate(83.789062 0)"/>
      </g>
     </g>
    </g>
    <g id="ytick_4">
     <g id="line2d_11">
      <g>
       <use xlink:href="#m4603cb3ab8" x="103.104" y="183.985182" style="stroke: #000000; stroke-width: 0.8"/>
      </g>
     </g>
     <g id="text_12">
      <!-- −6 -->
      <g transform="translate(81.361813 187.784401) scale(0.1 -0.1)">
       <use xlink:href="#DejaVuSans-2212"/>
       <use xlink:href="#DejaVuSans-36" transform="translate(83.789062 0)"/>
      </g>
     </g>
    </g>
    <g id="ytick_5">
     <g id="line2d_12">
      <g>
       <use xlink:href="#m4603cb3ab8" x="103.104" y="146.530995" style="stroke: #000000; stroke-width: 0.8"/>
      </g>
     </g>
     <g id="text_13">
      <!-- −4 -->
      <g transform="translate(81.361813 150.330214) scale(0.1 -0.1)">
       <use xlink:href="#DejaVuSans-2212"/>
       <use xlink:href="#DejaVuSans-34" transform="translate(83.789062 0)"/>
      </g>
     </g>
    </g>
    <g id="ytick_6">
     <g id="line2d_13">
      <g>
       <use xlink:href="#m4603cb3ab8" x="103.104" y="109.076808" style="stroke: #000000; stroke-width: 0.8"/>
      </g>
     </g>
     <g id="text_14">
      <!-- −2 -->
      <g transform="translate(81.361813 112.876027) scale(0.1 -0.1)">
       <use xlink:href="#DejaVuSans-2212"/>
       <use xlink:href="#DejaVuSans-32" transform="translate(83.789062 0)"/>
      </g>
     </g>
    </g>
    <g id="ytick_7">
     <g id="line2d_14">
      <g>
       <use xlink:href="#m4603cb3ab8" x="103.104" y="71.622621" style="stroke: #000000; stroke-width: 0.8"/>
      </g>
     </g>
     <g id="text_15">
      <!-- 0 -->
      <g transform="translate(89.7415 75.421839) scale(0.1 -0.1)">
       <use xlink:href="#DejaVuSans-30"/>
      </g>
     </g>
    </g>
    <g id="text_16">
     <!-- Actual Solubility $(log(mol\:dm^{-3}))$ -->
     <g transform="translate(68.899313 255.928) rotate(-90) scale(0.1 -0.1)">
      <defs>
       <path id="DejaVuSans-41" d="M 2188 4044 
L 1331 1722 
L 3047 1722 
L 2188 4044 
z
M 1831 4666 
L 2547 4666 
L 4325 0 
L 3669 0 
L 3244 1197 
L 1141 1197 
L 716 0 
L 50 0 
L 1831 4666 
z
" transform="scale(0.015625)"/>
       <path id="DejaVuSans-61" d="M 2194 1759 
Q 1497 1759 1228 1600 
Q 959 1441 959 1056 
Q 959 750 1161 570 
Q 1363 391 1709 391 
Q 2188 391 2477 730 
Q 2766 1069 2766 1631 
L 2766 1759 
L 2194 1759 
z
M 3341 1997 
L 3341 0 
L 2766 0 
L 2766 531 
Q 2569 213 2275 61 
Q 1981 -91 1556 -91 
Q 1019 -91 701 211 
Q 384 513 384 1019 
Q 384 1609 779 1909 
Q 1175 2209 1959 2209 
L 2766 2209 
L 2766 2266 
Q 2766 2663 2505 2880 
Q 2244 3097 1772 3097 
Q 1472 3097 1187 3025 
Q 903 2953 641 2809 
L 641 3341 
Q 956 3463 1253 3523 
Q 1550 3584 1831 3584 
Q 2591 3584 2966 3190 
Q 3341 2797 3341 1997 
z
" transform="scale(0.015625)"/>
      </defs>
      <use xlink:href="#DejaVuSans-41" transform="translate(0 0.765625)"/>
      <use xlink:href="#DejaVuSans-63" transform="translate(68.408203 0.765625)"/>
      <use xlink:href="#DejaVuSans-74" transform="translate(123.388672 0.765625)"/>
      <use xlink:href="#DejaVuSans-75" transform="translate(162.597656 0.765625)"/>
      <use xlink:href="#DejaVuSans-61" transform="translate(225.976562 0.765625)"/>
      <use xlink:href="#DejaVuSans-6c" transform="translate(287.255859 0.765625)"/>
      <use xlink:href="#DejaVuSans-20" transform="translate(315.039062 0.765625)"/>
      <use xlink:href="#DejaVuSans-53" transform="translate(346.826172 0.765625)"/>
      <use xlink:href="#DejaVuSans-6f" transform="translate(410.302734 0.765625)"/>
      <use xlink:href="#DejaVuSans-6c" transform="translate(471.484375 0.765625)"/>
      <use xlink:href="#DejaVuSans-75" transform="translate(499.267578 0.765625)"/>
      <use xlink:href="#DejaVuSans-62" transform="translate(562.646484 0.765625)"/>
      <use xlink:href="#DejaVuSans-69" transform="translate(626.123047 0.765625)"/>
      <use xlink:href="#DejaVuSans-6c" transform="translate(653.90625 0.765625)"/>
      <use xlink:href="#DejaVuSans-69" transform="translate(681.689453 0.765625)"/>
      <use xlink:href="#DejaVuSans-74" transform="translate(709.472656 0.765625)"/>
      <use xlink:href="#DejaVuSans-79" transform="translate(748.681641 0.765625)"/>
      <use xlink:href="#DejaVuSans-20" transform="translate(807.861328 0.765625)"/>
      <use xlink:href="#DejaVuSans-28" transform="translate(839.648438 0.765625)"/>
      <use xlink:href="#DejaVuSans-Oblique-6c" transform="translate(878.662109 0.765625)"/>
      <use xlink:href="#DejaVuSans-Oblique-6f" transform="translate(906.445312 0.765625)"/>
      <use xlink:href="#DejaVuSans-Oblique-67" transform="translate(967.626953 0.765625)"/>
      <use xlink:href="#DejaVuSans-28" transform="translate(1031.103516 0.765625)"/>
      <use xlink:href="#DejaVuSans-Oblique-6d" transform="translate(1070.117188 0.765625)"/>
      <use xlink:href="#DejaVuSans-Oblique-6f" transform="translate(1167.529297 0.765625)"/>
      <use xlink:href="#DejaVuSans-Oblique-6c" transform="translate(1228.710938 0.765625)"/>
      <use xlink:href="#DejaVuSans-Oblique-64" transform="translate(1278.14106 0.765625)"/>
      <use xlink:href="#DejaVuSans-Oblique-6d" transform="translate(1341.617622 0.765625)"/>
      <use xlink:href="#DejaVuSans-2212" transform="translate(1443.679627 39.046875) scale(0.7)"/>
      <use xlink:href="#DejaVuSans-33" transform="translate(1502.331971 39.046875) scale(0.7)"/>
      <use xlink:href="#DejaVuSans-29" transform="translate(1549.602479 0.765625)"/>
      <use xlink:href="#DejaVuSans-29" transform="translate(1588.616151 0.765625)"/>
     </g>
    </g>
   </g>
   <g id="line2d_15">
    <path d="M 103.104 307.584 
L 369.216 41.472 
L 369.216 41.472 
" clip-path="url(#p77ae847c95)" style="fill: none; stroke-dasharray: 5.55,2.4; stroke-dashoffset: 0; stroke: #d62728; stroke-opacity: 0.5; stroke-width: 1.5"/>
   </g>
   <g id="patch_3">
    <path d="M 103.104 307.584 
L 103.104 41.472 
" style="fill: none; stroke: #000000; stroke-width: 0.8; stroke-linejoin: miter; stroke-linecap: square"/>
   </g>
   <g id="patch_4">
    <path d="M 369.216 307.584 
L 369.216 41.472 
" style="fill: none; stroke: #000000; stroke-width: 0.8; stroke-linejoin: miter; stroke-linecap: square"/>
   </g>
   <g id="patch_5">
    <path d="M 103.104 307.584 
L 369.216 307.584 
" style="fill: none; stroke: #000000; stroke-width: 0.8; stroke-linejoin: miter; stroke-linecap: square"/>
   </g>
   <g id="patch_6">
    <path d="M 103.104 41.472 
L 369.216 41.472 
" style="fill: none; stroke: #000000; stroke-width: 0.8; stroke-linejoin: miter; stroke-linecap: square"/>
   </g>
   <g id="text_17">
    <!-- R^2 = 0.8860 -->
    <g transform="translate(106.849419 52.815856) scale(0.1 -0.1)">
     <defs>
      <path id="DejaVuSans-52" d="M 2841 2188 
Q 3044 2119 3236 1894 
Q 3428 1669 3622 1275 
L 4263 0 
L 3584 0 
L 2988 1197 
Q 2756 1666 2539 1819 
Q 2322 1972 1947 1972 
L 1259 1972 
L 1259 0 
L 628 0 
L 628 4666 
L 2053 4666 
Q 2853 4666 3247 4331 
Q 3641 3997 3641 3322 
Q 3641 2881 3436 2590 
Q 3231 2300 2841 2188 
z
M 1259 4147 
L 1259 2491 
L 2053 2491 
Q 2509 2491 2742 2702 
Q 2975 2913 2975 3322 
Q 2975 3731 2742 3939 
Q 2509 4147 2053 4147 
L 1259 4147 
z
" transform="scale(0.015625)"/>
      <path id="DejaVuSans-5e" d="M 2988 4666 
L 4684 2925 
L 4056 2925 
L 2681 4159 
L 1306 2925 
L 678 2925 
L 2375 4666 
L 2988 4666 
z
" transform="scale(0.015625)"/>
      <path id="DejaVuSans-3d" d="M 678 2906 
L 4684 2906 
L 4684 2381 
L 678 2381 
L 678 2906 
z
M 678 1631 
L 4684 1631 
L 4684 1100 
L 678 1100 
L 678 1631 
z
" transform="scale(0.015625)"/>
      <path id="DejaVuSans-2e" d="M 684 794 
L 1344 794 
L 1344 0 
L 684 0 
L 684 794 
z
" transform="scale(0.015625)"/>
     </defs>
     <use xlink:href="#DejaVuSans-52"/>
     <use xlink:href="#DejaVuSans-5e" transform="translate(69.482422 0)"/>
     <use xlink:href="#DejaVuSans-32" transform="translate(153.271484 0)"/>
     <use xlink:href="#DejaVuSans-20" transform="translate(216.894531 0)"/>
     <use xlink:href="#DejaVuSans-3d" transform="translate(248.681641 0)"/>
     <use xlink:href="#DejaVuSans-20" transform="translate(332.470703 0)"/>
     <use xlink:href="#DejaVuSans-30" transform="translate(364.257812 0)"/>
     <use xlink:href="#DejaVuSans-2e" transform="translate(427.880859 0)"/>
     <use xlink:href="#DejaVuSans-38" transform="translate(459.667969 0)"/>
     <use xlink:href="#DejaVuSans-38" transform="translate(523.291016 0)"/>
     <use xlink:href="#DejaVuSans-36" transform="translate(586.914062 0)"/>
     <use xlink:href="#DejaVuSans-30" transform="translate(650.537109 0)"/>
    </g>
   </g>
  </g>
 </g>
 <defs>
  <clipPath id="p77ae847c95">
   <rect x="103.104" y="41.472" width="266.112" height="266.112"/>
  </clipPath>
 </defs>
</svg>
