<svg xmlns="http://www.w3.org/2000/svg" xmlns:rdkit="http://www.rdkit.org/xml" xmlns:xlink="http://www.w3.org/1999/xlink" version="1.1" baseProfile="full" xml:space="preserve" width="256px" height="768px" viewBox="0 0 256 768">
<!-- END OF HEADER -->
<rect style="opacity:1.0;fill:#FFFFFF;stroke:none" width="256.0" height="256.0" x="0.0" y="0.0"> </rect>
<path class="bond-0 atom-0 atom-1" d="M 146.9,181.8 L 151.9,173.2" style="fill:none;fill-rule:evenodd;stroke:#000000;stroke-width:2.0px;stroke-linecap:butt;stroke-linejoin:miter;stroke-opacity:1"/>
<path class="bond-0 atom-0 atom-1" d="M 151.9,173.2 L 156.9,164.5" style="fill:none;fill-rule:evenodd;stroke:#FF0000;stroke-width:2.0px;stroke-linecap:butt;stroke-linejoin:miter;stroke-opacity:1"/>
<path class="bond-1 atom-1 atom-2" d="M 156.9,155.5 L 151.9,146.8" style="fill:none;fill-rule:evenodd;stroke:#FF0000;stroke-width:2.0px;stroke-linecap:butt;stroke-linejoin:miter;stroke-opacity:1"/>
<path class="bond-1 atom-1 atom-2" d="M 151.9,146.8 L 146.9,138.1" style="fill:none;fill-rule:evenodd;stroke:#000000;stroke-width:2.0px;stroke-linecap:butt;stroke-linejoin:miter;stroke-opacity:1"/>
<path class="bond-2 atom-2 atom-3" d="M 146.9,138.1 L 121.7,138.1" style="fill:none;fill-rule:evenodd;stroke:#000000;stroke-width:2.0px;stroke-linecap:butt;stroke-linejoin:miter;stroke-opacity:1"/>
<path class="bond-2 atom-2 atom-3" d="M 144.7,134.4 L 123.9,134.4" style="fill:none;fill-rule:evenodd;stroke:#000000;stroke-width:2.0px;stroke-linecap:butt;stroke-linejoin:miter;stroke-opacity:1"/>
<path class="bond-3 atom-3 atom-4" d="M 121.7,138.1 L 109.1,116.3" style="fill:none;fill-rule:evenodd;stroke:#000000;stroke-width:2.0px;stroke-linecap:butt;stroke-linejoin:miter;stroke-opacity:1"/>
<path class="bond-4 atom-4 atom-5" d="M 109.1,116.3 L 83.9,116.3" style="fill:none;fill-rule:evenodd;stroke:#000000;stroke-width:2.0px;stroke-linecap:butt;stroke-linejoin:miter;stroke-opacity:1"/>
<path class="bond-5 atom-5 atom-6" d="M 82.8,114.4 L 77.5,123.6" style="fill:none;fill-rule:evenodd;stroke:#000000;stroke-width:2.0px;stroke-linecap:butt;stroke-linejoin:miter;stroke-opacity:1"/>
<path class="bond-5 atom-5 atom-6" d="M 77.5,123.6 L 72.2,132.7" style="fill:none;fill-rule:evenodd;stroke:#FF0000;stroke-width:2.0px;stroke-linecap:butt;stroke-linejoin:miter;stroke-opacity:1"/>
<path class="bond-5 atom-5 atom-6" d="M 86.0,116.3 L 80.7,125.5" style="fill:none;fill-rule:evenodd;stroke:#000000;stroke-width:2.0px;stroke-linecap:butt;stroke-linejoin:miter;stroke-opacity:1"/>
<path class="bond-5 atom-5 atom-6" d="M 80.7,125.5 L 75.5,134.6" style="fill:none;fill-rule:evenodd;stroke:#FF0000;stroke-width:2.0px;stroke-linecap:butt;stroke-linejoin:miter;stroke-opacity:1"/>
<path class="bond-6 atom-5 atom-7" d="M 83.9,116.3 L 78.9,107.7" style="fill:none;fill-rule:evenodd;stroke:#000000;stroke-width:2.0px;stroke-linecap:butt;stroke-linejoin:miter;stroke-opacity:1"/>
<path class="bond-6 atom-5 atom-7" d="M 78.9,107.7 L 73.9,99.0" style="fill:none;fill-rule:evenodd;stroke:#FF0000;stroke-width:2.0px;stroke-linecap:butt;stroke-linejoin:miter;stroke-opacity:1"/>
<path class="bond-7 atom-4 atom-8" d="M 109.1,116.3 L 121.7,94.5" style="fill:none;fill-rule:evenodd;stroke:#000000;stroke-width:2.0px;stroke-linecap:butt;stroke-linejoin:miter;stroke-opacity:1"/>
<path class="bond-7 atom-4 atom-8" d="M 113.4,116.3 L 123.9,98.2" style="fill:none;fill-rule:evenodd;stroke:#000000;stroke-width:2.0px;stroke-linecap:butt;stroke-linejoin:miter;stroke-opacity:1"/>
<path class="bond-8 atom-8 atom-9" d="M 121.7,94.5 L 146.9,94.5" style="fill:none;fill-rule:evenodd;stroke:#000000;stroke-width:2.0px;stroke-linecap:butt;stroke-linejoin:miter;stroke-opacity:1"/>
<path class="bond-9 atom-9 atom-10" d="M 146.9,94.5 L 151.9,85.8" style="fill:none;fill-rule:evenodd;stroke:#000000;stroke-width:2.0px;stroke-linecap:butt;stroke-linejoin:miter;stroke-opacity:1"/>
<path class="bond-9 atom-9 atom-10" d="M 151.9,85.8 L 156.9,77.2" style="fill:none;fill-rule:evenodd;stroke:#FF0000;stroke-width:2.0px;stroke-linecap:butt;stroke-linejoin:miter;stroke-opacity:1"/>
<path class="bond-10 atom-10 atom-11" d="M 156.9,68.2 L 151.9,59.5" style="fill:none;fill-rule:evenodd;stroke:#FF0000;stroke-width:2.0px;stroke-linecap:butt;stroke-linejoin:miter;stroke-opacity:1"/>
<path class="bond-10 atom-10 atom-11" d="M 151.9,59.5 L 146.9,50.8" style="fill:none;fill-rule:evenodd;stroke:#000000;stroke-width:2.0px;stroke-linecap:butt;stroke-linejoin:miter;stroke-opacity:1"/>
<path class="bond-11 atom-9 atom-12" d="M 146.9,94.5 L 159.5,116.3" style="fill:none;fill-rule:evenodd;stroke:#000000;stroke-width:2.0px;stroke-linecap:butt;stroke-linejoin:miter;stroke-opacity:1"/>
<path class="bond-11 atom-9 atom-12" d="M 144.7,98.2 L 155.1,116.3" style="fill:none;fill-rule:evenodd;stroke:#000000;stroke-width:2.0px;stroke-linecap:butt;stroke-linejoin:miter;stroke-opacity:1"/>
<path class="bond-12 atom-12 atom-13" d="M 159.5,116.3 L 170.0,116.3" style="fill:none;fill-rule:evenodd;stroke:#000000;stroke-width:2.0px;stroke-linecap:butt;stroke-linejoin:miter;stroke-opacity:1"/>
<path class="bond-12 atom-12 atom-13" d="M 170.0,116.3 L 180.6,116.3" style="fill:none;fill-rule:evenodd;stroke:#FF0000;stroke-width:2.0px;stroke-linecap:butt;stroke-linejoin:miter;stroke-opacity:1"/>
<path class="bond-13 atom-12 atom-2" d="M 159.5,116.3 L 146.9,138.1" style="fill:none;fill-rule:evenodd;stroke:#000000;stroke-width:2.0px;stroke-linecap:butt;stroke-linejoin:miter;stroke-opacity:1"/>
<path d="M 122.9,138.1 L 121.7,138.1 L 121.0,137.0" style="fill:none;stroke:#000000;stroke-width:2.0px;stroke-linecap:butt;stroke-linejoin:miter;stroke-miterlimit:10;stroke-opacity:1;"/>
<path d="M 85.1,116.3 L 83.9,116.3 L 83.6,115.9" style="fill:none;stroke:#000000;stroke-width:2.0px;stroke-linecap:butt;stroke-linejoin:miter;stroke-miterlimit:10;stroke-opacity:1;"/>
<path d="M 121.0,95.6 L 121.7,94.5 L 122.9,94.5" style="fill:none;stroke:#000000;stroke-width:2.0px;stroke-linecap:butt;stroke-linejoin:miter;stroke-miterlimit:10;stroke-opacity:1;"/>
<path class="atom-1" d="M 156.2 160.0 Q 156.2 158.3, 157.1 157.3 Q 157.9 156.4, 159.5 156.4 Q 161.1 156.4, 161.9 157.3 Q 162.8 158.3, 162.8 160.0 Q 162.8 161.7, 161.9 162.7 Q 161.1 163.7, 159.5 163.7 Q 157.9 163.7, 157.1 162.7 Q 156.2 161.7, 156.2 160.0 M 159.5 162.9 Q 160.6 162.9, 161.2 162.2 Q 161.8 161.4, 161.8 160.0 Q 161.8 158.6, 161.2 157.9 Q 160.6 157.2, 159.5 157.2 Q 158.4 157.2, 157.8 157.9 Q 157.2 158.6, 157.2 160.0 Q 157.2 161.4, 157.8 162.2 Q 158.4 162.9, 159.5 162.9 " fill="#FF0000"/>
<path class="atom-6" d="M 68.0 138.2 Q 68.0 136.4, 68.8 135.5 Q 69.7 134.5, 71.3 134.5 Q 72.8 134.5, 73.7 135.5 Q 74.5 136.4, 74.5 138.2 Q 74.5 139.9, 73.7 140.9 Q 72.8 141.9, 71.3 141.9 Q 69.7 141.9, 68.8 140.9 Q 68.0 139.9, 68.0 138.2 M 71.3 141.0 Q 72.3 141.0, 72.9 140.3 Q 73.5 139.6, 73.5 138.2 Q 73.5 136.8, 72.9 136.0 Q 72.3 135.3, 71.3 135.3 Q 70.2 135.3, 69.6 136.0 Q 69.0 136.7, 69.0 138.2 Q 69.0 139.6, 69.6 140.3 Q 70.2 141.0, 71.3 141.0 " fill="#FF0000"/>
<path class="atom-7" d="M 60.9 90.9 L 61.9 90.9 L 61.9 94.0 L 65.5 94.0 L 65.5 90.9 L 66.5 90.9 L 66.5 98.1 L 65.5 98.1 L 65.5 94.8 L 61.9 94.8 L 61.9 98.1 L 60.9 98.1 L 60.9 90.9 " fill="#FF0000"/>
<path class="atom-7" d="M 68.0 94.5 Q 68.0 92.8, 68.8 91.8 Q 69.7 90.9, 71.3 90.9 Q 72.8 90.9, 73.7 91.8 Q 74.5 92.8, 74.5 94.5 Q 74.5 96.2, 73.7 97.2 Q 72.8 98.2, 71.3 98.2 Q 69.7 98.2, 68.8 97.2 Q 68.0 96.2, 68.0 94.5 M 71.3 97.4 Q 72.3 97.4, 72.9 96.7 Q 73.5 95.9, 73.5 94.5 Q 73.5 93.1, 72.9 92.4 Q 72.3 91.7, 71.3 91.7 Q 70.2 91.7, 69.6 92.4 Q 69.0 93.1, 69.0 94.5 Q 69.0 95.9, 69.6 96.7 Q 70.2 97.4, 71.3 97.4 " fill="#FF0000"/>
<path class="atom-10" d="M 156.2 72.7 Q 156.2 70.9, 157.1 70.0 Q 157.9 69.0, 159.5 69.0 Q 161.1 69.0, 161.9 70.0 Q 162.8 70.9, 162.8 72.7 Q 162.8 74.4, 161.9 75.4 Q 161.1 76.4, 159.5 76.4 Q 157.9 76.4, 157.1 75.4 Q 156.2 74.4, 156.2 72.7 M 159.5 75.5 Q 160.6 75.5, 161.2 74.8 Q 161.8 74.1, 161.8 72.7 Q 161.8 71.3, 161.2 70.5 Q 160.6 69.8, 159.5 69.8 Q 158.4 69.8, 157.8 70.5 Q 157.2 71.2, 157.2 72.7 Q 157.2 74.1, 157.8 74.8 Q 158.4 75.5, 159.5 75.5 " fill="#FF0000"/>
<path class="atom-13" d="M 181.4 116.3 Q 181.4 114.6, 182.3 113.6 Q 183.1 112.7, 184.7 112.7 Q 186.3 112.7, 187.1 113.6 Q 188.0 114.6, 188.0 116.3 Q 188.0 118.1, 187.1 119.0 Q 186.3 120.0, 184.7 120.0 Q 183.1 120.0, 182.3 119.0 Q 181.4 118.1, 181.4 116.3 M 184.7 119.2 Q 185.8 119.2, 186.4 118.5 Q 187.0 117.8, 187.0 116.3 Q 187.0 114.9, 186.4 114.2 Q 185.8 113.5, 184.7 113.5 Q 183.6 113.5, 183.0 114.2 Q 182.4 114.9, 182.4 116.3 Q 182.4 117.8, 183.0 118.5 Q 183.6 119.2, 184.7 119.2 " fill="#FF0000"/>
<path class="atom-13" d="M 189.1 112.8 L 190.1 112.8 L 190.1 115.8 L 193.7 115.8 L 193.7 112.8 L 194.7 112.8 L 194.7 119.9 L 193.7 119.9 L 193.7 116.6 L 190.1 116.6 L 190.1 119.9 L 189.1 119.9 L 189.1 112.8 " fill="#FF0000"/>
<path class="legend" d="M 96.1 227.2 Q 96.2 227.2, 96.6 227.4 Q 97.0 227.5, 97.4 227.6 Q 97.8 227.7, 98.2 227.7 Q 99.0 227.7, 99.4 227.4 Q 99.8 227.0, 99.8 226.3 Q 99.8 225.9, 99.6 225.6 Q 99.4 225.3, 99.1 225.2 Q 98.7 225.1, 98.1 224.9 Q 97.4 224.7, 97.0 224.5 Q 96.6 224.3, 96.3 223.8 Q 96.0 223.4, 96.0 222.7 Q 96.0 221.7, 96.7 221.0 Q 97.4 220.4, 98.7 220.4 Q 99.6 220.4, 100.7 220.8 L 100.4 221.7 Q 99.5 221.3, 98.8 221.3 Q 98.0 221.3, 97.5 221.7 Q 97.1 222.0, 97.1 222.5 Q 97.1 223.0, 97.3 223.2 Q 97.6 223.5, 97.9 223.6 Q 98.2 223.8, 98.8 223.9 Q 99.5 224.2, 99.9 224.4 Q 100.3 224.6, 100.6 225.1 Q 101.0 225.6, 101.0 226.3 Q 101.0 227.4, 100.2 228.1 Q 99.5 228.6, 98.2 228.6 Q 97.5 228.6, 97.0 228.5 Q 96.4 228.3, 95.8 228.1 L 96.1 227.2 " fill="#000000"/>
<path class="legend" d="M 106.4 222.6 L 107.4 222.6 L 104.4 231.2 L 103.4 231.2 L 104.4 228.4 L 103.9 228.4 L 101.9 222.6 L 103.0 222.6 L 104.7 227.5 L 106.4 222.6 " fill="#000000"/>
<path class="legend" d="M 108.8 222.6 L 108.9 223.4 Q 109.5 222.5, 110.5 222.5 Q 110.8 222.5, 111.3 222.6 L 111.1 223.6 Q 110.6 223.4, 110.3 223.4 Q 109.9 223.4, 109.5 223.6 Q 109.2 223.8, 109.0 224.3 L 109.0 228.4 L 107.9 228.4 L 107.9 222.6 L 108.8 222.6 " fill="#000000"/>
<path class="legend" d="M 111.8 220.4 L 112.9 220.4 L 112.9 221.4 L 111.8 221.4 L 111.8 220.4 M 111.8 222.6 L 112.9 222.6 L 112.9 228.4 L 111.8 228.4 L 111.8 222.6 " fill="#000000"/>
<path class="legend" d="M 117.3 222.5 Q 118.2 222.5, 118.7 223.0 Q 119.2 223.6, 119.2 224.6 L 119.2 228.4 L 118.1 228.4 L 118.1 224.6 Q 118.1 223.9, 117.8 223.6 Q 117.6 223.3, 117.0 223.3 Q 116.5 223.3, 116.0 223.6 Q 115.6 223.8, 115.3 224.2 L 115.3 228.4 L 114.2 228.4 L 114.2 222.6 L 115.1 222.6 L 115.2 223.4 Q 116.0 222.5, 117.3 222.5 " fill="#000000"/>
<path class="legend" d="M 125.7 222.6 L 125.7 228.8 Q 125.7 231.3, 123.1 231.3 Q 121.8 231.3, 120.7 230.7 L 121.0 229.9 Q 121.6 230.2, 122.1 230.3 Q 122.5 230.4, 123.1 230.4 Q 123.9 230.4, 124.3 230.1 Q 124.7 229.7, 124.7 228.8 L 124.7 227.8 Q 124.1 228.5, 123.0 228.5 Q 121.8 228.5, 121.1 227.8 Q 120.4 227.0, 120.4 225.6 Q 120.4 224.1, 121.2 223.3 Q 122.0 222.5, 123.4 222.5 Q 124.2 222.5, 124.9 222.7 L 124.9 222.6 L 125.7 222.6 M 123.1 227.7 Q 123.7 227.7, 124.1 227.4 Q 124.5 227.0, 124.7 226.4 L 124.7 223.5 Q 124.1 223.3, 123.4 223.3 Q 122.5 223.3, 122.0 223.9 Q 121.5 224.5, 121.5 225.6 Q 121.5 226.6, 121.9 227.1 Q 122.3 227.7, 123.1 227.7 " fill="#000000"/>
<path class="legend" d="M 127.1 220.4 L 128.1 220.4 L 128.1 221.4 L 127.1 221.4 L 127.1 220.4 M 127.1 222.6 L 128.1 222.6 L 128.1 228.4 L 127.1 228.4 L 127.1 222.6 " fill="#000000"/>
<path class="legend" d="M 129.5 225.5 Q 129.5 224.1, 130.2 223.3 Q 130.9 222.5, 132.3 222.5 Q 133.6 222.5, 134.3 223.4 L 133.6 224.0 Q 133.3 223.7, 133.0 223.5 Q 132.7 223.3, 132.3 223.3 Q 131.5 223.3, 131.0 223.9 Q 130.6 224.4, 130.6 225.5 Q 130.6 226.6, 131.0 227.1 Q 131.5 227.7, 132.3 227.7 Q 132.8 227.7, 133.1 227.6 Q 133.5 227.5, 133.9 227.3 L 134.2 228.0 Q 133.3 228.5, 132.3 228.5 Q 130.9 228.5, 130.2 227.7 Q 129.5 226.9, 129.5 225.5 " fill="#000000"/>
<path class="legend" d="" fill="#000000"/>
<path class="legend" d="M 145.0 228.4 L 144.2 226.1 L 141.0 226.1 L 140.2 228.4 L 139.1 228.4 L 141.9 220.4 L 143.2 220.4 L 146.1 228.4 L 145.0 228.4 M 141.3 225.2 L 143.9 225.2 L 142.6 221.5 L 141.3 225.2 " fill="#000000"/>
<path class="legend" d="M 146.6 225.5 Q 146.6 224.1, 147.3 223.3 Q 148.0 222.5, 149.4 222.5 Q 150.7 222.5, 151.4 223.4 L 150.7 224.0 Q 150.4 223.7, 150.1 223.5 Q 149.8 223.3, 149.4 223.3 Q 148.6 223.3, 148.1 223.9 Q 147.7 224.4, 147.7 225.5 Q 147.7 226.6, 148.2 227.1 Q 148.6 227.7, 149.5 227.7 Q 150.0 227.7, 150.3 227.6 Q 150.6 227.5, 151.0 227.3 L 151.3 228.0 Q 150.5 228.5, 149.4 228.5 Q 148.0 228.5, 147.3 227.7 Q 146.6 226.9, 146.6 225.5 " fill="#000000"/>
<path class="legend" d="M 152.1 220.4 L 153.1 220.4 L 153.1 221.4 L 152.1 221.4 L 152.1 220.4 M 152.1 222.6 L 153.1 222.6 L 153.1 228.4 L 152.1 228.4 L 152.1 222.6 " fill="#000000"/>
<path class="legend" d="M 159.8 219.8 L 159.8 228.4 L 158.9 228.4 L 158.8 227.7 Q 158.1 228.5, 157.1 228.5 Q 155.8 228.5, 155.2 227.8 Q 154.5 227.0, 154.5 225.6 Q 154.5 224.1, 155.3 223.3 Q 156.1 222.5, 157.5 222.5 Q 158.1 222.5, 158.7 222.6 L 158.7 219.8 L 159.8 219.8 M 157.1 227.7 Q 157.7 227.7, 158.1 227.4 Q 158.6 227.0, 158.7 226.4 L 158.7 223.5 Q 158.1 223.3, 157.5 223.3 Q 156.6 223.3, 156.1 223.9 Q 155.6 224.5, 155.6 225.6 Q 155.6 226.6, 156.0 227.1 Q 156.4 227.7, 157.1 227.7 " fill="#000000"/>
<path class="legend" d="M 96.2 236.2 L 100.4 236.2 L 100.4 237.1 L 96.2 237.1 L 96.2 236.2 " fill="#000000"/>
<path class="legend" d="M 101.4 233.8 Q 101.7 233.0, 102.4 232.6 Q 103.1 232.1, 104.1 232.1 Q 105.3 232.1, 106.0 232.8 Q 106.6 233.5, 106.6 234.6 Q 106.6 235.8, 105.8 236.9 Q 104.9 238.1, 103.1 239.4 L 106.8 239.4 L 106.8 240.3 L 101.4 240.3 L 101.4 239.5 Q 102.9 238.4, 103.7 237.7 Q 104.6 236.9, 105.1 236.1 Q 105.5 235.4, 105.5 234.7 Q 105.5 233.9, 105.1 233.5 Q 104.7 233.1, 104.1 233.1 Q 103.4 233.1, 103.0 233.3 Q 102.5 233.6, 102.2 234.2 L 101.4 233.8 " fill="#000000"/>
<path class="legend" d="M 107.8 239.1 L 109.0 239.1 L 109.0 240.3 L 107.8 240.3 L 107.8 239.1 " fill="#000000"/>
<path class="legend" d="M 113.9 236.0 Q 114.7 236.3, 115.1 236.8 Q 115.5 237.3, 115.5 238.1 Q 115.5 238.8, 115.1 239.3 Q 114.8 239.8, 114.2 240.1 Q 113.6 240.4, 112.7 240.4 Q 111.9 240.4, 111.2 240.1 Q 110.6 239.8, 110.1 239.2 L 110.7 238.5 Q 111.2 239.1, 111.6 239.3 Q 112.1 239.5, 112.7 239.5 Q 113.5 239.5, 113.9 239.1 Q 114.3 238.7, 114.3 238.1 Q 114.3 237.2, 113.9 236.9 Q 113.4 236.5, 112.4 236.5 L 111.9 236.5 L 111.9 235.7 L 112.4 235.7 Q 113.2 235.7, 113.7 235.3 Q 114.2 234.9, 114.2 234.2 Q 114.2 233.7, 113.8 233.4 Q 113.4 233.1, 112.7 233.1 Q 112.1 233.1, 111.7 233.3 Q 111.2 233.5, 110.9 234.1 L 110.1 233.7 Q 110.4 233.0, 111.1 232.6 Q 111.8 232.1, 112.7 232.1 Q 113.9 232.1, 114.6 232.7 Q 115.3 233.3, 115.3 234.2 Q 115.3 234.8, 115.0 235.3 Q 114.6 235.8, 113.9 236.0 " fill="#000000"/>
<path class="legend" d="M 116.5 233.8 Q 116.8 233.0, 117.5 232.6 Q 118.3 232.1, 119.2 232.1 Q 120.4 232.1, 121.1 232.8 Q 121.8 233.5, 121.8 234.6 Q 121.8 235.8, 120.9 236.9 Q 120.0 238.1, 118.2 239.4 L 121.9 239.4 L 121.9 240.3 L 116.5 240.3 L 116.5 239.5 Q 118.0 238.4, 118.9 237.7 Q 119.8 236.9, 120.2 236.1 Q 120.7 235.4, 120.7 234.7 Q 120.7 233.9, 120.3 233.5 Q 119.9 233.1, 119.2 233.1 Q 118.6 233.1, 118.2 233.3 Q 117.7 233.6, 117.4 234.2 L 116.5 233.8 " fill="#000000"/>
<path class="legend" d="" fill="#000000"/>
<path class="legend" d="M 127.2 237.0 Q 127.2 235.4, 127.6 234.1 Q 128.1 232.7, 129.0 231.3 L 129.7 231.7 Q 128.9 233.0, 128.5 234.3 Q 128.2 235.5, 128.2 237.0 Q 128.2 238.6, 128.5 239.8 Q 128.9 241.0, 129.7 242.4 L 129.0 242.8 Q 128.1 241.4, 127.6 240.0 Q 127.2 238.7, 127.2 237.0 " fill="#000000"/>
<path class="legend" d="M 130.3 236.2 L 134.5 236.2 L 134.5 237.1 L 130.3 237.1 L 130.3 236.2 " fill="#000000"/>
<path class="legend" d="M 135.9 239.4 L 137.6 239.4 L 137.6 233.4 L 135.7 234.0 L 135.4 233.3 L 137.9 232.2 L 138.7 232.3 L 138.7 239.4 L 140.3 239.4 L 140.3 240.3 L 135.9 240.3 L 135.9 239.4 " fill="#000000"/>
<path class="legend" d="M 141.1 239.1 L 142.3 239.1 L 142.3 240.3 L 141.1 240.3 L 141.1 239.1 " fill="#000000"/>
<path class="legend" d="M 146.3 235.2 Q 147.0 235.2, 147.6 235.6 Q 148.2 235.8, 148.5 236.4 Q 148.8 237.0, 148.8 237.7 Q 148.8 238.6, 148.4 239.2 Q 148.0 239.8, 147.4 240.1 Q 146.7 240.4, 145.9 240.4 Q 145.2 240.4, 144.5 240.1 Q 143.8 239.8, 143.4 239.3 L 144.1 238.6 Q 144.4 239.0, 144.9 239.2 Q 145.5 239.4, 146.0 239.4 Q 146.7 239.4, 147.2 239.0 Q 147.7 238.6, 147.7 237.8 Q 147.7 236.9, 147.2 236.5 Q 146.7 236.1, 145.9 236.1 Q 145.2 236.1, 144.4 236.4 L 143.8 236.1 L 144.2 232.2 L 148.3 232.2 L 148.2 233.1 L 145.1 233.1 L 144.9 235.5 Q 145.6 235.2, 146.3 235.2 " fill="#000000"/>
<path class="legend" d="M 155.0 237.5 L 155.9 237.5 L 155.9 238.4 L 155.0 238.4 L 155.0 240.3 L 153.9 240.3 L 153.9 238.4 L 149.7 238.4 L 149.7 237.7 L 153.3 232.2 L 155.0 232.2 L 155.0 237.5 M 151.1 237.5 L 153.9 237.5 L 153.9 233.0 L 151.1 237.5 " fill="#000000"/>
<path class="legend" d="M 159.4 237.0 Q 159.4 238.7, 158.9 240.0 Q 158.4 241.4, 157.5 242.8 L 156.9 242.4 Q 157.6 241.0, 158.0 239.8 Q 158.3 238.6, 158.3 237.0 Q 158.3 235.5, 158.0 234.3 Q 157.6 233.0, 156.9 231.7 L 157.5 231.3 Q 158.4 232.7, 158.9 234.1 Q 159.4 235.4, 159.4 237.0 " fill="#000000"/>
<path class="bond-0 atom-0 atom-1" d="M 40.8,424.2 L 61.6,409.9" style="fill:none;fill-rule:evenodd;stroke:#000000;stroke-width:2.0px;stroke-linecap:butt;stroke-linejoin:miter;stroke-opacity:1"/>
<path class="bond-1 atom-1 atom-2" d="M 61.6,409.9 L 59.6,384.8" style="fill:none;fill-rule:evenodd;stroke:#000000;stroke-width:2.0px;stroke-linecap:butt;stroke-linejoin:miter;stroke-opacity:1"/>
<path class="bond-1 atom-1 atom-2" d="M 65.2,407.5 L 63.5,386.7" style="fill:none;fill-rule:evenodd;stroke:#000000;stroke-width:2.0px;stroke-linecap:butt;stroke-linejoin:miter;stroke-opacity:1"/>
<path class="bond-2 atom-2 atom-3" d="M 59.6,384.8 L 36.8,374.0" style="fill:none;fill-rule:evenodd;stroke:#000000;stroke-width:2.0px;stroke-linecap:butt;stroke-linejoin:miter;stroke-opacity:1"/>
<path class="bond-3 atom-3 atom-4" d="M 36.7,371.8 L 27.9,377.9" style="fill:none;fill-rule:evenodd;stroke:#000000;stroke-width:2.0px;stroke-linecap:butt;stroke-linejoin:miter;stroke-opacity:1"/>
<path class="bond-3 atom-3 atom-4" d="M 27.9,377.9 L 19.1,383.9" style="fill:none;fill-rule:evenodd;stroke:#FF0000;stroke-width:2.0px;stroke-linecap:butt;stroke-linejoin:miter;stroke-opacity:1"/>
<path class="bond-3 atom-3 atom-4" d="M 38.8,374.9 L 30.0,380.9" style="fill:none;fill-rule:evenodd;stroke:#000000;stroke-width:2.0px;stroke-linecap:butt;stroke-linejoin:miter;stroke-opacity:1"/>
<path class="bond-3 atom-3 atom-4" d="M 30.0,380.9 L 21.2,387.0" style="fill:none;fill-rule:evenodd;stroke:#FF0000;stroke-width:2.0px;stroke-linecap:butt;stroke-linejoin:miter;stroke-opacity:1"/>
<path class="bond-4 atom-3 atom-5" d="M 36.8,374.0 L 36.0,363.7" style="fill:none;fill-rule:evenodd;stroke:#000000;stroke-width:2.0px;stroke-linecap:butt;stroke-linejoin:miter;stroke-opacity:1"/>
<path class="bond-4 atom-3 atom-5" d="M 36.0,363.7 L 35.2,353.4" style="fill:none;fill-rule:evenodd;stroke:#FF0000;stroke-width:2.0px;stroke-linecap:butt;stroke-linejoin:miter;stroke-opacity:1"/>
<path class="bond-5 atom-2 atom-6" d="M 59.6,384.8 L 68.2,378.9" style="fill:none;fill-rule:evenodd;stroke:#000000;stroke-width:2.0px;stroke-linecap:butt;stroke-linejoin:miter;stroke-opacity:1"/>
<path class="bond-5 atom-2 atom-6" d="M 68.2,378.9 L 76.8,372.9" style="fill:none;fill-rule:evenodd;stroke:#0000FF;stroke-width:2.0px;stroke-linecap:butt;stroke-linejoin:miter;stroke-opacity:1"/>
<path class="bond-6 atom-6 atom-7" d="M 82.5,366.1 L 86.8,356.9" style="fill:none;fill-rule:evenodd;stroke:#0000FF;stroke-width:2.0px;stroke-linecap:butt;stroke-linejoin:miter;stroke-opacity:1"/>
<path class="bond-6 atom-6 atom-7" d="M 86.8,356.9 L 91.2,347.7" style="fill:none;fill-rule:evenodd;stroke:#000000;stroke-width:2.0px;stroke-linecap:butt;stroke-linejoin:miter;stroke-opacity:1"/>
<path class="bond-7 atom-7 atom-8" d="M 93.6,348.9 L 89.9,338.4" style="fill:none;fill-rule:evenodd;stroke:#000000;stroke-width:2.0px;stroke-linecap:butt;stroke-linejoin:miter;stroke-opacity:1"/>
<path class="bond-7 atom-7 atom-8" d="M 89.9,338.4 L 86.1,327.9" style="fill:none;fill-rule:evenodd;stroke:#FF0000;stroke-width:2.0px;stroke-linecap:butt;stroke-linejoin:miter;stroke-opacity:1"/>
<path class="bond-7 atom-7 atom-8" d="M 90.1,350.1 L 86.3,339.6" style="fill:none;fill-rule:evenodd;stroke:#000000;stroke-width:2.0px;stroke-linecap:butt;stroke-linejoin:miter;stroke-opacity:1"/>
<path class="bond-7 atom-7 atom-8" d="M 86.3,339.6 L 82.6,329.1" style="fill:none;fill-rule:evenodd;stroke:#FF0000;stroke-width:2.0px;stroke-linecap:butt;stroke-linejoin:miter;stroke-opacity:1"/>
<path class="bond-8 atom-7 atom-9" d="M 91.2,347.7 L 114.0,358.6" style="fill:none;fill-rule:evenodd;stroke:#000000;stroke-width:2.0px;stroke-linecap:butt;stroke-linejoin:miter;stroke-opacity:1"/>
<path class="bond-9 atom-9 atom-10" d="M 114.0,358.6 L 123.4,354.2 L 124.0,356.0 Z" style="fill:#000000;fill-rule:evenodd;fill-opacity:1;stroke:#000000;stroke-width:0.5px;stroke-linecap:butt;stroke-linejoin:miter;stroke-miterlimit:10;stroke-opacity:1;"/>
<path class="bond-9 atom-9 atom-10" d="M 123.4,354.2 L 134.0,353.4 L 132.8,349.9 Z" style="fill:#0000FF;fill-rule:evenodd;fill-opacity:1;stroke:#0000FF;stroke-width:0.5px;stroke-linecap:butt;stroke-linejoin:miter;stroke-miterlimit:10;stroke-opacity:1;"/>
<path class="bond-9 atom-9 atom-10" d="M 123.4,354.2 L 124.0,356.0 L 134.0,353.4 Z" style="fill:#0000FF;fill-rule:evenodd;fill-opacity:1;stroke:#0000FF;stroke-width:0.5px;stroke-linecap:butt;stroke-linejoin:miter;stroke-miterlimit:10;stroke-opacity:1;"/>
<path class="bond-10 atom-10 atom-11" d="M 141.3,353.1 L 149.1,359.8" style="fill:none;fill-rule:evenodd;stroke:#0000FF;stroke-width:2.0px;stroke-linecap:butt;stroke-linejoin:miter;stroke-opacity:1"/>
<path class="bond-10 atom-10 atom-11" d="M 149.1,359.8 L 156.9,366.5" style="fill:none;fill-rule:evenodd;stroke:#000000;stroke-width:2.0px;stroke-linecap:butt;stroke-linejoin:miter;stroke-opacity:1"/>
<path class="bond-11 atom-11 atom-12" d="M 155.3,365.1 L 153.3,375.8" style="fill:none;fill-rule:evenodd;stroke:#000000;stroke-width:2.0px;stroke-linecap:butt;stroke-linejoin:miter;stroke-opacity:1"/>
<path class="bond-11 atom-11 atom-12" d="M 153.3,375.8 L 151.3,386.5" style="fill:none;fill-rule:evenodd;stroke:#FF0000;stroke-width:2.0px;stroke-linecap:butt;stroke-linejoin:miter;stroke-opacity:1"/>
<path class="bond-11 atom-11 atom-12" d="M 158.9,365.8 L 157.0,376.5" style="fill:none;fill-rule:evenodd;stroke:#000000;stroke-width:2.0px;stroke-linecap:butt;stroke-linejoin:miter;stroke-opacity:1"/>
<path class="bond-11 atom-11 atom-12" d="M 157.0,376.5 L 155.0,387.2" style="fill:none;fill-rule:evenodd;stroke:#FF0000;stroke-width:2.0px;stroke-linecap:butt;stroke-linejoin:miter;stroke-opacity:1"/>
<path class="bond-12 atom-11 atom-13" d="M 156.9,366.5 L 180.7,358.0" style="fill:none;fill-rule:evenodd;stroke:#000000;stroke-width:2.0px;stroke-linecap:butt;stroke-linejoin:miter;stroke-opacity:1"/>
<path class="bond-13 atom-13 atom-14" d="M 181.0,354.7 L 181.6,354.8" style="fill:none;fill-rule:evenodd;stroke:#000000;stroke-width:1.0px;stroke-linecap:butt;stroke-linejoin:miter;stroke-opacity:1"/>
<path class="bond-13 atom-13 atom-14" d="M 181.3,351.4 L 182.5,351.6" style="fill:none;fill-rule:evenodd;stroke:#000000;stroke-width:1.0px;stroke-linecap:butt;stroke-linejoin:miter;stroke-opacity:1"/>
<path class="bond-13 atom-13 atom-14" d="M 181.6,348.1 L 183.4,348.4" style="fill:none;fill-rule:evenodd;stroke:#000000;stroke-width:1.0px;stroke-linecap:butt;stroke-linejoin:miter;stroke-opacity:1"/>
<path class="bond-13 atom-13 atom-14" d="M 181.9,344.8 L 184.3,345.2" style="fill:none;fill-rule:evenodd;stroke:#0000FF;stroke-width:1.0px;stroke-linecap:butt;stroke-linejoin:miter;stroke-opacity:1"/>
<path class="bond-13 atom-13 atom-14" d="M 182.1,341.4 L 185.2,342.0" style="fill:none;fill-rule:evenodd;stroke:#0000FF;stroke-width:1.0px;stroke-linecap:butt;stroke-linejoin:miter;stroke-opacity:1"/>
<path class="bond-13 atom-13 atom-14" d="M 182.4,338.1 L 186.1,338.8" style="fill:none;fill-rule:evenodd;stroke:#0000FF;stroke-width:1.0px;stroke-linecap:butt;stroke-linejoin:miter;stroke-opacity:1"/>
<path class="bond-14 atom-13 atom-15" d="M 180.7,358.0 L 199.9,374.4" style="fill:none;fill-rule:evenodd;stroke:#000000;stroke-width:2.0px;stroke-linecap:butt;stroke-linejoin:miter;stroke-opacity:1"/>
<path class="bond-15 atom-15 atom-16" d="M 199.9,374.4 L 195.3,399.2" style="fill:none;fill-rule:evenodd;stroke:#000000;stroke-width:2.0px;stroke-linecap:butt;stroke-linejoin:miter;stroke-opacity:1"/>
<path class="bond-15 atom-15 atom-16" d="M 203.1,377.2 L 199.3,397.8" style="fill:none;fill-rule:evenodd;stroke:#000000;stroke-width:2.0px;stroke-linecap:butt;stroke-linejoin:miter;stroke-opacity:1"/>
<path class="bond-16 atom-16 atom-17" d="M 195.3,399.2 L 214.5,415.6" style="fill:none;fill-rule:evenodd;stroke:#000000;stroke-width:2.0px;stroke-linecap:butt;stroke-linejoin:miter;stroke-opacity:1"/>
<path class="bond-17 atom-17 atom-18" d="M 214.5,415.6 L 238.2,407.1" style="fill:none;fill-rule:evenodd;stroke:#000000;stroke-width:2.0px;stroke-linecap:butt;stroke-linejoin:miter;stroke-opacity:1"/>
<path class="bond-18 atom-18 atom-19" d="M 238.2,407.1 L 242.8,382.3" style="fill:none;fill-rule:evenodd;stroke:#000000;stroke-width:2.0px;stroke-linecap:butt;stroke-linejoin:miter;stroke-opacity:1"/>
<path class="bond-18 atom-18 atom-19" d="M 234.9,404.3 L 238.7,383.8" style="fill:none;fill-rule:evenodd;stroke:#000000;stroke-width:2.0px;stroke-linecap:butt;stroke-linejoin:miter;stroke-opacity:1"/>
<path class="bond-19 atom-19 atom-20" d="M 242.8,382.3 L 223.6,366.0" style="fill:none;fill-rule:evenodd;stroke:#000000;stroke-width:2.0px;stroke-linecap:butt;stroke-linejoin:miter;stroke-opacity:1"/>
<path class="bond-20 atom-9 atom-21" d="M 114.0,358.6 L 103.1,381.3" style="fill:none;fill-rule:evenodd;stroke:#000000;stroke-width:2.0px;stroke-linecap:butt;stroke-linejoin:miter;stroke-opacity:1"/>
<path class="bond-21 atom-21 atom-22" d="M 103.1,381.3 L 104.0,391.7" style="fill:none;fill-rule:evenodd;stroke:#000000;stroke-width:2.0px;stroke-linecap:butt;stroke-linejoin:miter;stroke-opacity:1"/>
<path class="bond-21 atom-21 atom-22" d="M 104.0,391.7 L 104.8,402.1" style="fill:none;fill-rule:evenodd;stroke:#CCCC00;stroke-width:2.0px;stroke-linecap:butt;stroke-linejoin:miter;stroke-opacity:1"/>
<path class="bond-22 atom-22 atom-23" d="M 102.0,408.6 L 93.2,414.7" style="fill:none;fill-rule:evenodd;stroke:#CCCC00;stroke-width:2.0px;stroke-linecap:butt;stroke-linejoin:miter;stroke-opacity:1"/>
<path class="bond-22 atom-22 atom-23" d="M 93.2,414.7 L 84.4,420.8" style="fill:none;fill-rule:evenodd;stroke:#000000;stroke-width:2.0px;stroke-linecap:butt;stroke-linejoin:miter;stroke-opacity:1"/>
<path class="bond-23 atom-23 atom-1" d="M 84.4,420.8 L 61.6,409.9" style="fill:none;fill-rule:evenodd;stroke:#000000;stroke-width:2.0px;stroke-linecap:butt;stroke-linejoin:miter;stroke-opacity:1"/>
<path class="bond-24 atom-21 atom-6" d="M 103.1,381.3 L 93.5,376.8" style="fill:none;fill-rule:evenodd;stroke:#000000;stroke-width:2.0px;stroke-linecap:butt;stroke-linejoin:miter;stroke-opacity:1"/>
<path class="bond-24 atom-21 atom-6" d="M 93.5,376.8 L 83.9,372.2" style="fill:none;fill-rule:evenodd;stroke:#0000FF;stroke-width:2.0px;stroke-linecap:butt;stroke-linejoin:miter;stroke-opacity:1"/>
<path class="bond-25 atom-20 atom-15" d="M 223.6,366.0 L 199.9,374.4" style="fill:none;fill-rule:evenodd;stroke:#000000;stroke-width:2.0px;stroke-linecap:butt;stroke-linejoin:miter;stroke-opacity:1"/>
<path class="bond-26 atom-21 atom-24" d="M 106.2,381.4 L 106.1,382.3" style="fill:none;fill-rule:evenodd;stroke:#000000;stroke-width:1.0px;stroke-linecap:butt;stroke-linejoin:miter;stroke-opacity:1"/>
<path class="bond-26 atom-21 atom-24" d="M 109.4,381.5 L 109.0,383.4" style="fill:none;fill-rule:evenodd;stroke:#000000;stroke-width:1.0px;stroke-linecap:butt;stroke-linejoin:miter;stroke-opacity:1"/>
<path class="bond-26 atom-21 atom-24" d="M 112.5,381.6 L 112.0,384.4" style="fill:none;fill-rule:evenodd;stroke:#000000;stroke-width:1.0px;stroke-linecap:butt;stroke-linejoin:miter;stroke-opacity:1"/>
<path class="bond-26 atom-21 atom-24" d="M 115.6,381.7 L 114.9,385.4" style="fill:none;fill-rule:evenodd;stroke:#000000;stroke-width:1.0px;stroke-linecap:butt;stroke-linejoin:miter;stroke-opacity:1"/>
<path d="M 38.0,374.5 L 36.8,374.0 L 36.8,373.5" style="fill:none;stroke:#000000;stroke-width:2.0px;stroke-linecap:butt;stroke-linejoin:miter;stroke-miterlimit:10;stroke-opacity:1;"/>
<path d="M 91.0,348.2 L 91.2,347.7 L 92.3,348.3" style="fill:none;stroke:#000000;stroke-width:2.0px;stroke-linecap:butt;stroke-linejoin:miter;stroke-miterlimit:10;stroke-opacity:1;"/>
<path d="M 112.8,358.0 L 114.0,358.6 L 113.4,359.7" style="fill:none;stroke:#000000;stroke-width:2.0px;stroke-linecap:butt;stroke-linejoin:miter;stroke-miterlimit:10;stroke-opacity:1;"/>
<path d="M 156.5,366.2 L 156.9,366.5 L 158.1,366.1" style="fill:none;stroke:#000000;stroke-width:2.0px;stroke-linecap:butt;stroke-linejoin:miter;stroke-miterlimit:10;stroke-opacity:1;"/>
<path d="M 179.5,358.5 L 180.7,358.0 L 181.6,358.9" style="fill:none;stroke:#000000;stroke-width:2.0px;stroke-linecap:butt;stroke-linejoin:miter;stroke-miterlimit:10;stroke-opacity:1;"/>
<path d="M 195.5,398.0 L 195.3,399.2 L 196.2,400.0" style="fill:none;stroke:#000000;stroke-width:2.0px;stroke-linecap:butt;stroke-linejoin:miter;stroke-miterlimit:10;stroke-opacity:1;"/>
<path d="M 213.5,414.7 L 214.5,415.6 L 215.7,415.1" style="fill:none;stroke:#000000;stroke-width:2.0px;stroke-linecap:butt;stroke-linejoin:miter;stroke-miterlimit:10;stroke-opacity:1;"/>
<path d="M 237.0,407.5 L 238.2,407.1 L 238.5,405.9" style="fill:none;stroke:#000000;stroke-width:2.0px;stroke-linecap:butt;stroke-linejoin:miter;stroke-miterlimit:10;stroke-opacity:1;"/>
<path d="M 242.6,383.6 L 242.8,382.3 L 241.8,381.5" style="fill:none;stroke:#000000;stroke-width:2.0px;stroke-linecap:butt;stroke-linejoin:miter;stroke-miterlimit:10;stroke-opacity:1;"/>
<path d="M 224.6,366.8 L 223.6,366.0 L 222.4,366.4" style="fill:none;stroke:#000000;stroke-width:2.0px;stroke-linecap:butt;stroke-linejoin:miter;stroke-miterlimit:10;stroke-opacity:1;"/>
<path d="M 84.8,420.5 L 84.4,420.8 L 83.2,420.2" style="fill:none;stroke:#000000;stroke-width:2.0px;stroke-linecap:butt;stroke-linejoin:miter;stroke-miterlimit:10;stroke-opacity:1;"/>
<path class="atom-4" d="M 12.8 388.3 Q 12.8 386.6, 13.6 385.6 Q 14.5 384.7, 16.1 384.7 Q 17.7 384.7, 18.5 385.6 Q 19.4 386.6, 19.4 388.3 Q 19.4 390.0, 18.5 391.0 Q 17.6 392.0, 16.1 392.0 Q 14.5 392.0, 13.6 391.0 Q 12.8 390.0, 12.8 388.3 M 16.1 391.2 Q 17.2 391.2, 17.8 390.5 Q 18.3 389.7, 18.3 388.3 Q 18.3 386.9, 17.8 386.2 Q 17.2 385.5, 16.1 385.5 Q 15.0 385.5, 14.4 386.2 Q 13.8 386.9, 13.8 388.3 Q 13.8 389.7, 14.4 390.5 Q 15.0 391.2, 16.1 391.2 " fill="#FF0000"/>
<path class="atom-5" d="M 31.6 348.9 Q 31.6 347.1, 32.4 346.2 Q 33.3 345.2, 34.8 345.2 Q 36.4 345.2, 37.3 346.2 Q 38.1 347.1, 38.1 348.9 Q 38.1 350.6, 37.3 351.6 Q 36.4 352.6, 34.8 352.6 Q 33.3 352.6, 32.4 351.6 Q 31.6 350.6, 31.6 348.9 M 34.8 351.8 Q 35.9 351.8, 36.5 351.0 Q 37.1 350.3, 37.1 348.9 Q 37.1 347.5, 36.5 346.7 Q 35.9 346.0, 34.8 346.0 Q 33.8 346.0, 33.2 346.7 Q 32.6 347.4, 32.6 348.9 Q 32.6 350.3, 33.2 351.0 Q 33.8 351.8, 34.8 351.8 " fill="#FF0000"/>
<path class="atom-5" d="M 39.2 345.3 L 40.2 345.3 L 40.2 348.3 L 43.8 348.3 L 43.8 345.3 L 44.8 345.3 L 44.8 352.4 L 43.8 352.4 L 43.8 349.1 L 40.2 349.1 L 40.2 352.4 L 39.2 352.4 L 39.2 345.3 " fill="#FF0000"/>
<path class="atom-6" d="M 78.8 366.9 L 81.1 370.7 Q 81.4 371.1, 81.7 371.8 Q 82.1 372.4, 82.1 372.5 L 82.1 366.9 L 83.1 366.9 L 83.1 374.1 L 82.1 374.1 L 79.6 369.9 Q 79.3 369.5, 79.0 368.9 Q 78.7 368.3, 78.6 368.2 L 78.6 374.1 L 77.7 374.1 L 77.7 366.9 L 78.8 366.9 " fill="#0000FF"/>
<path class="atom-8" d="M 79.5 324.0 Q 79.5 322.3, 80.3 321.3 Q 81.2 320.4, 82.8 320.4 Q 84.3 320.4, 85.2 321.3 Q 86.0 322.3, 86.0 324.0 Q 86.0 325.7, 85.2 326.7 Q 84.3 327.7, 82.8 327.7 Q 81.2 327.7, 80.3 326.7 Q 79.5 325.7, 79.5 324.0 M 82.8 326.9 Q 83.9 326.9, 84.4 326.2 Q 85.0 325.4, 85.0 324.0 Q 85.0 322.6, 84.4 321.9 Q 83.9 321.2, 82.8 321.2 Q 81.7 321.2, 81.1 321.9 Q 80.5 322.6, 80.5 324.0 Q 80.5 325.4, 81.1 326.2 Q 81.7 326.9, 82.8 326.9 " fill="#FF0000"/>
<path class="atom-10" d="M 136.1 346.6 L 138.5 350.3 Q 138.7 350.7, 139.1 351.4 Q 139.5 352.1, 139.5 352.1 L 139.5 346.6 L 140.4 346.6 L 140.4 353.7 L 139.5 353.7 L 136.9 349.6 Q 136.7 349.1, 136.3 348.5 Q 136.0 348.0, 135.9 347.8 L 135.9 353.7 L 135.0 353.7 L 135.0 346.6 L 136.1 346.6 " fill="#0000FF"/>
<path class="atom-10" d="M 134.9 338.7 L 135.9 338.7 L 135.9 341.7 L 139.6 341.7 L 139.6 338.7 L 140.5 338.7 L 140.5 345.8 L 139.6 345.8 L 139.6 342.5 L 135.9 342.5 L 135.9 345.8 L 134.9 345.8 L 134.9 338.7 " fill="#0000FF"/>
<path class="atom-12" d="M 149.1 391.3 Q 149.1 389.6, 149.9 388.6 Q 150.8 387.7, 152.3 387.7 Q 153.9 387.7, 154.8 388.6 Q 155.6 389.6, 155.6 391.3 Q 155.6 393.0, 154.8 394.0 Q 153.9 395.0, 152.3 395.0 Q 150.8 395.0, 149.9 394.0 Q 149.1 393.0, 149.1 391.3 M 152.3 394.2 Q 153.4 394.2, 154.0 393.5 Q 154.6 392.7, 154.6 391.3 Q 154.6 389.9, 154.0 389.2 Q 153.4 388.5, 152.3 388.5 Q 151.3 388.5, 150.7 389.2 Q 150.1 389.9, 150.1 391.3 Q 150.1 392.7, 150.7 393.5 Q 151.3 394.2, 152.3 394.2 " fill="#FF0000"/>
<path class="atom-14" d="M 183.7 329.7 L 186.0 333.5 Q 186.2 333.8, 186.6 334.5 Q 187.0 335.2, 187.0 335.2 L 187.0 329.7 L 187.9 329.7 L 187.9 336.8 L 187.0 336.8 L 184.5 332.7 Q 184.2 332.2, 183.9 331.6 Q 183.6 331.1, 183.5 330.9 L 183.5 336.8 L 182.5 336.8 L 182.5 329.7 L 183.7 329.7 " fill="#0000FF"/>
<path class="atom-14" d="M 189.3 329.7 L 190.3 329.7 L 190.3 332.7 L 193.9 332.7 L 193.9 329.7 L 194.9 329.7 L 194.9 336.8 L 193.9 336.8 L 193.9 333.5 L 190.3 333.5 L 190.3 336.8 L 189.3 336.8 L 189.3 329.7 " fill="#0000FF"/>
<path class="atom-14" d="M 196.3 336.6 Q 196.5 336.1, 196.9 335.9 Q 197.3 335.6, 197.9 335.6 Q 198.6 335.6, 199.0 336.0 Q 199.4 336.4, 199.4 337.1 Q 199.4 337.8, 198.9 338.4 Q 198.3 339.1, 197.3 339.9 L 199.5 339.9 L 199.5 340.4 L 196.3 340.4 L 196.3 339.9 Q 197.2 339.3, 197.7 338.9 Q 198.2 338.4, 198.5 338.0 Q 198.7 337.6, 198.7 337.1 Q 198.7 336.7, 198.5 336.4 Q 198.3 336.2, 197.9 336.2 Q 197.5 336.2, 197.2 336.3 Q 197.0 336.5, 196.8 336.8 L 196.3 336.6 " fill="#0000FF"/>
<path class="atom-22" d="M 103.1 408.9 Q 103.2 408.9, 103.5 409.1 Q 103.9 409.2, 104.2 409.3 Q 104.6 409.4, 105.0 409.4 Q 105.6 409.4, 106.0 409.1 Q 106.4 408.7, 106.4 408.2 Q 106.4 407.8, 106.2 407.5 Q 106.0 407.3, 105.7 407.2 Q 105.4 407.0, 104.9 406.9 Q 104.3 406.7, 103.9 406.5 Q 103.5 406.3, 103.3 405.9 Q 103.0 405.6, 103.0 404.9 Q 103.0 404.0, 103.6 403.5 Q 104.2 402.9, 105.4 402.9 Q 106.3 402.9, 107.2 403.3 L 107.0 404.1 Q 106.1 403.7, 105.5 403.7 Q 104.8 403.7, 104.4 404.0 Q 104.0 404.3, 104.0 404.8 Q 104.0 405.2, 104.2 405.4 Q 104.4 405.6, 104.7 405.8 Q 105.0 405.9, 105.5 406.1 Q 106.1 406.3, 106.5 406.5 Q 106.9 406.7, 107.1 407.1 Q 107.4 407.5, 107.4 408.2 Q 107.4 409.2, 106.8 409.7 Q 106.1 410.2, 105.0 410.2 Q 104.4 410.2, 103.9 410.1 Q 103.4 409.9, 102.8 409.7 L 103.1 408.9 " fill="#CCCC00"/>
<path class="atom-24" d="M 116.9 380.8 L 117.8 380.8 L 117.8 383.8 L 121.5 383.8 L 121.5 380.8 L 122.5 380.8 L 122.5 388.0 L 121.5 388.0 L 121.5 384.7 L 117.8 384.7 L 117.8 388.0 L 116.9 388.0 L 116.9 380.8 " fill="#000000"/>
<path class="legend" d="M 102.5 480.6 Q 102.5 478.5, 103.5 477.4 Q 104.4 476.3, 106.3 476.3 Q 108.1 476.3, 109.0 477.6 L 108.2 478.2 Q 107.5 477.3, 106.3 477.3 Q 105.0 477.3, 104.4 478.2 Q 103.7 479.0, 103.7 480.6 Q 103.7 482.3, 104.4 483.2 Q 105.1 484.0, 106.4 484.0 Q 107.4 484.0, 108.5 483.5 L 108.8 484.3 Q 108.4 484.6, 107.7 484.8 Q 107.0 485.0, 106.3 485.0 Q 104.4 485.0, 103.5 483.8 Q 102.5 482.7, 102.5 480.6 " fill="#000000"/>
<path class="legend" d="M 109.9 481.8 Q 109.9 480.3, 110.7 479.5 Q 111.4 478.6, 112.8 478.6 Q 114.2 478.6, 114.7 479.4 Q 115.4 480.2, 115.4 481.7 L 115.4 481.9 L 111.1 481.9 Q 111.1 483.0, 111.6 483.5 Q 112.0 484.1, 112.9 484.1 Q 113.4 484.1, 113.8 484.0 Q 114.3 483.8, 114.8 483.6 L 115.1 484.4 Q 114.5 484.7, 114.0 484.8 Q 113.4 485.0, 112.8 485.0 Q 111.5 485.0, 110.7 484.1 Q 109.9 483.3, 109.9 481.8 M 112.8 479.5 Q 112.1 479.5, 111.7 479.9 Q 111.3 480.3, 111.1 481.1 L 114.2 481.1 Q 114.1 480.3, 113.8 479.9 Q 113.4 479.5, 112.8 479.5 " fill="#000000"/>
<path class="legend" d="M 116.3 479.6 L 116.3 478.7 L 117.4 478.7 L 117.4 477.8 Q 117.4 476.8, 117.9 476.3 Q 118.4 475.8, 119.3 475.8 Q 119.7 475.8, 120.1 475.9 Q 120.4 476.0, 120.8 476.1 L 120.4 476.9 Q 119.9 476.7, 119.4 476.7 Q 119.0 476.7, 118.7 477.0 Q 118.5 477.2, 118.5 477.7 L 118.5 478.7 L 120.4 478.7 L 120.4 479.6 L 118.5 479.6 L 118.5 486.7 L 117.4 486.7 L 117.4 479.6 L 116.3 479.6 " fill="#000000"/>
<path class="legend" d="M 121.8 478.7 L 122.0 479.6 Q 122.6 478.6, 123.7 478.6 Q 124.0 478.6, 124.4 478.7 L 124.3 479.7 Q 123.8 479.6, 123.5 479.6 Q 123.0 479.6, 122.6 479.8 Q 122.3 480.0, 122.1 480.5 L 122.1 484.9 L 120.9 484.9 L 120.9 478.7 L 121.8 478.7 " fill="#000000"/>
<path class="legend" d="M 125.1 483.2 Q 125.1 482.2, 125.9 481.7 Q 126.7 481.2, 128.1 481.2 L 129.0 481.2 L 129.0 480.9 Q 129.0 480.1, 128.7 479.8 Q 128.4 479.5, 127.6 479.5 Q 127.1 479.5, 126.8 479.6 Q 126.4 479.7, 125.8 479.9 L 125.4 479.2 Q 126.6 478.6, 127.6 478.6 Q 128.9 478.6, 129.5 479.2 Q 130.1 479.7, 130.1 480.9 L 130.1 484.9 L 129.3 484.9 Q 129.3 484.8, 129.2 484.6 Q 129.2 484.4, 129.1 484.1 Q 128.3 485.0, 127.1 485.0 Q 126.2 485.0, 125.6 484.5 Q 125.1 484.0, 125.1 483.2 M 126.2 483.2 Q 126.2 483.6, 126.5 483.9 Q 126.8 484.1, 127.3 484.1 Q 127.8 484.1, 128.3 483.9 Q 128.7 483.7, 129.0 483.3 L 129.0 482.0 L 128.2 482.0 Q 127.2 482.0, 126.7 482.3 Q 126.2 482.6, 126.2 483.2 " fill="#000000"/>
<path class="legend" d="M 137.1 475.8 L 137.1 484.8 L 136.2 484.8 L 136.0 484.1 Q 135.3 485.0, 134.2 485.0 Q 132.9 485.0, 132.2 484.2 Q 131.5 483.4, 131.5 481.9 Q 131.5 480.4, 132.4 479.5 Q 133.2 478.6, 134.7 478.6 Q 135.3 478.6, 136.0 478.8 L 136.0 475.8 L 137.1 475.8 M 134.3 484.1 Q 134.9 484.1, 135.3 483.7 Q 135.8 483.4, 136.0 482.8 L 136.0 479.7 Q 135.4 479.5, 134.7 479.5 Q 133.7 479.5, 133.2 480.1 Q 132.7 480.8, 132.7 481.9 Q 132.7 482.9, 133.1 483.5 Q 133.5 484.1, 134.3 484.1 " fill="#000000"/>
<path class="legend" d="M 138.5 476.4 L 139.6 476.4 L 139.6 477.5 L 138.5 477.5 L 138.5 476.4 M 138.5 478.7 L 139.6 478.7 L 139.6 484.9 L 138.5 484.9 L 138.5 478.7 " fill="#000000"/>
<path class="legend" d="M 144.3 478.6 Q 145.3 478.6, 145.8 479.2 Q 146.3 479.7, 146.3 480.8 L 146.3 484.9 L 145.2 484.9 L 145.2 480.9 Q 145.2 480.2, 144.9 479.8 Q 144.6 479.5, 144.0 479.5 Q 143.4 479.5, 143.0 479.8 Q 142.5 480.0, 142.2 480.5 L 142.2 484.9 L 141.1 484.9 L 141.1 478.7 L 142.0 478.7 L 142.2 479.6 Q 143.0 478.6, 144.3 478.6 " fill="#000000"/>
<path class="legend" d="M 147.7 481.8 Q 147.7 480.3, 148.4 479.5 Q 149.2 478.6, 150.6 478.6 Q 151.9 478.6, 152.5 479.4 Q 153.1 480.2, 153.1 481.7 L 153.1 481.9 L 148.8 481.9 Q 148.9 483.0, 149.3 483.5 Q 149.8 484.1, 150.7 484.1 Q 151.1 484.1, 151.6 484.0 Q 152.0 483.8, 152.6 483.6 L 152.9 484.4 Q 152.3 484.7, 151.7 484.8 Q 151.2 485.0, 150.6 485.0 Q 149.2 485.0, 148.5 484.1 Q 147.7 483.3, 147.7 481.8 M 150.6 479.5 Q 149.9 479.5, 149.4 479.9 Q 149.0 480.3, 148.9 481.1 L 151.9 481.1 Q 151.9 480.3, 151.5 479.9 Q 151.2 479.5, 150.6 479.5 " fill="#000000"/>
<path class="legend" d="M 95.4 491.9 L 99.8 491.9 L 99.8 492.8 L 95.4 492.8 L 95.4 491.9 " fill="#000000"/>
<path class="legend" d="M 103.8 490.9 Q 104.5 490.9, 105.1 491.2 Q 105.8 491.5, 106.1 492.1 Q 106.4 492.7, 106.4 493.5 Q 106.4 494.4, 106.0 495.0 Q 105.6 495.6, 104.9 495.9 Q 104.2 496.2, 103.4 496.2 Q 102.7 496.2, 101.9 496.0 Q 101.2 495.7, 100.7 495.1 L 101.5 494.4 Q 101.8 494.8, 102.4 495.1 Q 102.9 495.3, 103.5 495.3 Q 104.2 495.3, 104.7 494.8 Q 105.3 494.4, 105.3 493.5 Q 105.3 492.6, 104.7 492.2 Q 104.2 491.8, 103.4 491.8 Q 102.7 491.8, 101.8 492.1 L 101.2 491.8 L 101.6 487.7 L 105.9 487.7 L 105.8 488.7 L 102.6 488.7 L 102.3 491.2 Q 103.1 490.9, 103.8 490.9 " fill="#000000"/>
<path class="legend" d="M 107.4 495.0 L 108.6 495.0 L 108.6 496.2 L 107.4 496.2 L 107.4 495.0 " fill="#000000"/>
<path class="legend" d="M 113.8 491.7 Q 114.6 491.9, 115.0 492.5 Q 115.4 493.0, 115.4 493.8 Q 115.4 494.6, 115.1 495.1 Q 114.7 495.7, 114.0 496.0 Q 113.4 496.3, 112.5 496.3 Q 111.6 496.3, 110.9 496.0 Q 110.3 495.6, 109.7 495.0 L 110.4 494.3 Q 110.9 494.9, 111.4 495.1 Q 111.8 495.3, 112.5 495.3 Q 113.3 495.3, 113.8 494.9 Q 114.2 494.5, 114.2 493.8 Q 114.2 493.0, 113.7 492.6 Q 113.3 492.2, 112.2 492.2 L 111.6 492.2 L 111.6 491.3 L 112.2 491.3 Q 113.1 491.3, 113.6 490.9 Q 114.0 490.5, 114.0 489.8 Q 114.0 489.2, 113.6 488.9 Q 113.2 488.6, 112.5 488.6 Q 111.8 488.6, 111.4 488.8 Q 111.0 489.1, 110.6 489.7 L 109.8 489.3 Q 110.1 488.6, 110.8 488.1 Q 111.5 487.6, 112.5 487.6 Q 113.8 487.6, 114.5 488.2 Q 115.2 488.8, 115.2 489.8 Q 115.2 490.5, 114.9 490.9 Q 114.5 491.4, 113.8 491.7 " fill="#000000"/>
<path class="legend" d="M 120.6 491.7 Q 121.4 491.9, 121.8 492.5 Q 122.2 493.0, 122.2 493.8 Q 122.2 494.6, 121.8 495.1 Q 121.5 495.7, 120.8 496.0 Q 120.1 496.3, 119.3 496.3 Q 118.4 496.3, 117.7 496.0 Q 117.0 495.6, 116.5 495.0 L 117.2 494.3 Q 117.7 494.9, 118.1 495.1 Q 118.6 495.3, 119.3 495.3 Q 120.1 495.3, 120.5 494.9 Q 121.0 494.5, 121.0 493.8 Q 121.0 493.0, 120.5 492.6 Q 120.0 492.2, 119.0 492.2 L 118.4 492.2 L 118.4 491.3 L 118.9 491.3 Q 119.8 491.3, 120.3 490.9 Q 120.8 490.5, 120.8 489.8 Q 120.8 489.2, 120.4 488.9 Q 120.0 488.6, 119.3 488.6 Q 118.6 488.6, 118.2 488.8 Q 117.7 489.1, 117.4 489.7 L 116.6 489.3 Q 116.9 488.6, 117.6 488.1 Q 118.3 487.6, 119.3 487.6 Q 120.5 487.6, 121.3 488.2 Q 122.0 488.8, 122.0 489.8 Q 122.0 490.5, 121.6 490.9 Q 121.3 491.4, 120.6 491.7 " fill="#000000"/>
<path class="legend" d="" fill="#000000"/>
<path class="legend" d="M 127.6 492.8 Q 127.6 491.0, 128.1 489.6 Q 128.6 488.3, 129.6 486.7 L 130.2 487.1 Q 129.5 488.6, 129.1 489.9 Q 128.7 491.1, 128.7 492.8 Q 128.7 494.4, 129.1 495.6 Q 129.5 496.9, 130.2 498.4 L 129.6 498.8 Q 128.6 497.3, 128.1 495.9 Q 127.6 494.5, 127.6 492.8 " fill="#000000"/>
<path class="legend" d="M 130.9 491.9 L 135.3 491.9 L 135.3 492.8 L 130.9 492.8 L 130.9 491.9 " fill="#000000"/>
<path class="legend" d="M 136.7 495.2 L 138.6 495.2 L 138.6 488.9 L 136.5 489.5 L 136.3 488.8 L 138.8 487.7 L 139.7 487.8 L 139.7 495.2 L 141.3 495.2 L 141.3 496.2 L 136.7 496.2 L 136.7 495.2 " fill="#000000"/>
<path class="legend" d="M 142.2 495.0 L 143.4 495.0 L 143.4 496.2 L 142.2 496.2 L 142.2 495.0 " fill="#000000"/>
<path class="legend" d="M 145.0 495.2 L 146.9 495.2 L 146.9 488.9 L 144.9 489.5 L 144.6 488.8 L 147.2 487.7 L 148.0 487.8 L 148.0 495.2 L 149.7 495.2 L 149.7 496.2 L 145.0 496.2 L 145.0 495.2 " fill="#000000"/>
<path class="legend" d="M 153.4 487.6 Q 154.9 487.6, 155.6 488.6 Q 156.4 489.7, 156.4 491.7 Q 156.4 493.9, 155.5 495.1 Q 154.5 496.2, 152.7 496.2 Q 152.2 496.2, 151.8 496.1 Q 151.3 496.0, 150.9 495.8 L 151.3 495.0 Q 152.0 495.3, 152.7 495.3 Q 153.9 495.3, 154.5 494.5 Q 155.1 493.8, 155.2 492.2 Q 154.8 492.6, 154.2 492.8 Q 153.7 493.0, 153.1 493.0 Q 152.4 493.0, 151.8 492.7 Q 151.2 492.3, 150.9 491.8 Q 150.5 491.2, 150.5 490.4 Q 150.5 489.6, 150.9 489.0 Q 151.3 488.3, 151.9 488.0 Q 152.6 487.6, 153.4 487.6 M 151.7 490.4 Q 151.7 491.2, 152.2 491.6 Q 152.6 492.0, 153.3 492.0 Q 153.8 492.0, 154.3 491.8 Q 154.8 491.6, 155.2 491.3 Q 155.1 489.9, 154.7 489.2 Q 154.3 488.6, 153.4 488.6 Q 152.9 488.6, 152.5 488.8 Q 152.2 489.1, 152.0 489.5 Q 151.7 489.9, 151.7 490.4 " fill="#000000"/>
<path class="legend" d="M 160.2 492.8 Q 160.2 494.5, 159.7 495.9 Q 159.2 497.3, 158.3 498.8 L 157.6 498.4 Q 158.4 496.9, 158.7 495.6 Q 159.1 494.4, 159.1 492.8 Q 159.1 491.1, 158.7 489.9 Q 158.4 488.6, 157.6 487.1 L 158.3 486.7 Q 159.2 488.3, 159.7 489.6 Q 160.2 491.0, 160.2 492.8 " fill="#000000"/>
<path class="bond-0 atom-0 atom-1" d="M 83.8,628.8 L 94.5,626.3" style="fill:none;fill-rule:evenodd;stroke:#FF0000;stroke-width:2.0px;stroke-linecap:butt;stroke-linejoin:miter;stroke-opacity:1"/>
<path class="bond-0 atom-0 atom-1" d="M 94.5,626.3 L 105.3,623.8" style="fill:none;fill-rule:evenodd;stroke:#000000;stroke-width:2.0px;stroke-linecap:butt;stroke-linejoin:miter;stroke-opacity:1"/>
<path class="bond-0 atom-0 atom-1" d="M 84.6,632.5 L 95.4,630.0" style="fill:none;fill-rule:evenodd;stroke:#FF0000;stroke-width:2.0px;stroke-linecap:butt;stroke-linejoin:miter;stroke-opacity:1"/>
<path class="bond-0 atom-0 atom-1" d="M 95.4,630.0 L 106.1,627.5" style="fill:none;fill-rule:evenodd;stroke:#000000;stroke-width:2.0px;stroke-linecap:butt;stroke-linejoin:miter;stroke-opacity:1"/>
<path class="bond-1 atom-1 atom-2" d="M 104.7,625.9 L 107.6,616.0" style="fill:none;fill-rule:evenodd;stroke:#000000;stroke-width:2.0px;stroke-linecap:butt;stroke-linejoin:miter;stroke-opacity:1"/>
<path class="bond-1 atom-1 atom-2" d="M 107.6,616.0 L 110.6,606.1" style="fill:none;fill-rule:evenodd;stroke:#0000FF;stroke-width:2.0px;stroke-linecap:butt;stroke-linejoin:miter;stroke-opacity:1"/>
<path class="bond-2 atom-2 atom-3" d="M 115.5,600.9 L 126.0,598.4" style="fill:none;fill-rule:evenodd;stroke:#0000FF;stroke-width:2.0px;stroke-linecap:butt;stroke-linejoin:miter;stroke-opacity:1"/>
<path class="bond-2 atom-2 atom-3" d="M 126.0,598.4 L 136.5,596.0" style="fill:none;fill-rule:evenodd;stroke:#000000;stroke-width:2.0px;stroke-linecap:butt;stroke-linejoin:miter;stroke-opacity:1"/>
<path class="bond-3 atom-3 atom-4" d="M 136.5,596.0 L 153.7,614.4" style="fill:none;fill-rule:evenodd;stroke:#000000;stroke-width:2.0px;stroke-linecap:butt;stroke-linejoin:miter;stroke-opacity:1"/>
<path class="bond-3 atom-3 atom-4" d="M 135.2,600.2 L 149.5,615.4" style="fill:none;fill-rule:evenodd;stroke:#000000;stroke-width:2.0px;stroke-linecap:butt;stroke-linejoin:miter;stroke-opacity:1"/>
<path class="bond-4 atom-4 atom-5" d="M 153.7,614.4 L 165.4,611.7" style="fill:none;fill-rule:evenodd;stroke:#000000;stroke-width:2.0px;stroke-linecap:butt;stroke-linejoin:miter;stroke-opacity:1"/>
<path class="bond-4 atom-4 atom-5" d="M 165.4,611.7 L 177.0,608.9" style="fill:none;fill-rule:evenodd;stroke:#A01EEF;stroke-width:2.0px;stroke-linecap:butt;stroke-linejoin:miter;stroke-opacity:1"/>
<path class="bond-5 atom-4 atom-6" d="M 153.7,614.4 L 146.4,638.5" style="fill:none;fill-rule:evenodd;stroke:#000000;stroke-width:2.0px;stroke-linecap:butt;stroke-linejoin:miter;stroke-opacity:1"/>
<path class="bond-6 atom-6 atom-7" d="M 144.3,639.0 L 151.3,646.4" style="fill:none;fill-rule:evenodd;stroke:#000000;stroke-width:2.0px;stroke-linecap:butt;stroke-linejoin:miter;stroke-opacity:1"/>
<path class="bond-6 atom-6 atom-7" d="M 151.3,646.4 L 158.2,653.8" style="fill:none;fill-rule:evenodd;stroke:#FF0000;stroke-width:2.0px;stroke-linecap:butt;stroke-linejoin:miter;stroke-opacity:1"/>
<path class="bond-6 atom-6 atom-7" d="M 147.1,636.4 L 154.0,643.8" style="fill:none;fill-rule:evenodd;stroke:#000000;stroke-width:2.0px;stroke-linecap:butt;stroke-linejoin:miter;stroke-opacity:1"/>
<path class="bond-6 atom-6 atom-7" d="M 154.0,643.8 L 161.0,651.2" style="fill:none;fill-rule:evenodd;stroke:#FF0000;stroke-width:2.0px;stroke-linecap:butt;stroke-linejoin:miter;stroke-opacity:1"/>
<path class="bond-7 atom-6 atom-8" d="M 146.4,638.5 L 135.9,641.0" style="fill:none;fill-rule:evenodd;stroke:#000000;stroke-width:2.0px;stroke-linecap:butt;stroke-linejoin:miter;stroke-opacity:1"/>
<path class="bond-7 atom-6 atom-8" d="M 135.9,641.0 L 125.4,643.4" style="fill:none;fill-rule:evenodd;stroke:#0000FF;stroke-width:2.0px;stroke-linecap:butt;stroke-linejoin:miter;stroke-opacity:1"/>
<path class="bond-8 atom-8 atom-1" d="M 118.4,640.5 L 111.5,633.2" style="fill:none;fill-rule:evenodd;stroke:#0000FF;stroke-width:2.0px;stroke-linecap:butt;stroke-linejoin:miter;stroke-opacity:1"/>
<path class="bond-8 atom-8 atom-1" d="M 111.5,633.2 L 104.7,625.9" style="fill:none;fill-rule:evenodd;stroke:#000000;stroke-width:2.0px;stroke-linecap:butt;stroke-linejoin:miter;stroke-opacity:1"/>
<path d="M 104.8,625.4 L 104.7,625.9 L 105.0,626.2" style="fill:none;stroke:#000000;stroke-width:2.0px;stroke-linecap:butt;stroke-linejoin:miter;stroke-miterlimit:10;stroke-opacity:1;"/>
<path d="M 136.0,596.1 L 136.5,596.0 L 137.4,596.9" style="fill:none;stroke:#000000;stroke-width:2.0px;stroke-linecap:butt;stroke-linejoin:miter;stroke-miterlimit:10;stroke-opacity:1;"/>
<path d="M 146.8,637.3 L 146.4,638.5 L 145.9,638.6" style="fill:none;stroke:#000000;stroke-width:2.0px;stroke-linecap:butt;stroke-linejoin:miter;stroke-miterlimit:10;stroke-opacity:1;"/>
<path class="atom-0" d="M 76.8 631.6 Q 76.8 629.9, 77.7 628.9 Q 78.5 628.0, 80.1 628.0 Q 81.7 628.0, 82.5 628.9 Q 83.4 629.9, 83.4 631.6 Q 83.4 633.4, 82.5 634.3 Q 81.7 635.3, 80.1 635.3 Q 78.5 635.3, 77.7 634.3 Q 76.8 633.4, 76.8 631.6 M 80.1 634.5 Q 81.2 634.5, 81.8 633.8 Q 82.4 633.1, 82.4 631.6 Q 82.4 630.2, 81.8 629.5 Q 81.2 628.8, 80.1 628.8 Q 79.0 628.8, 78.4 629.5 Q 77.8 630.2, 77.8 631.6 Q 77.8 633.1, 78.4 633.8 Q 79.0 634.5, 80.1 634.5 " fill="#FF0000"/>
<path class="atom-2" d="M 102.3 598.2 L 103.2 598.2 L 103.2 601.2 L 106.9 601.2 L 106.9 598.2 L 107.8 598.2 L 107.8 605.3 L 106.9 605.3 L 106.9 602.0 L 103.2 602.0 L 103.2 605.3 L 102.3 605.3 L 102.3 598.2 " fill="#0000FF"/>
<path class="atom-2" d="M 110.4 598.2 L 112.7 601.9 Q 112.9 602.3, 113.3 603.0 Q 113.7 603.7, 113.7 603.7 L 113.7 598.2 L 114.7 598.2 L 114.7 605.3 L 113.7 605.3 L 111.2 601.2 Q 110.9 600.7, 110.6 600.1 Q 110.3 599.6, 110.2 599.4 L 110.2 605.3 L 109.2 605.3 L 109.2 598.2 L 110.4 598.2 " fill="#0000FF"/>
<path class="atom-5" d="M 177.8 605.0 L 178.8 605.0 L 178.8 612.2 L 177.8 612.2 L 177.8 605.0 " fill="#A01EEF"/>
<path class="atom-7" d="M 160.4 656.9 Q 160.4 655.2, 161.3 654.2 Q 162.1 653.3, 163.7 653.3 Q 165.3 653.3, 166.1 654.2 Q 167.0 655.2, 167.0 656.9 Q 167.0 658.6, 166.1 659.6 Q 165.3 660.6, 163.7 660.6 Q 162.1 660.6, 161.3 659.6 Q 160.4 658.7, 160.4 656.9 M 163.7 659.8 Q 164.8 659.8, 165.4 659.1 Q 166.0 658.3, 166.0 656.9 Q 166.0 655.5, 165.4 654.8 Q 164.8 654.1, 163.7 654.1 Q 162.6 654.1, 162.0 654.8 Q 161.4 655.5, 161.4 656.9 Q 161.4 658.4, 162.0 659.1 Q 162.6 659.8, 163.7 659.8 " fill="#FF0000"/>
<path class="atom-8" d="M 120.3 640.7 L 122.7 644.5 Q 122.9 644.8, 123.3 645.5 Q 123.6 646.2, 123.7 646.2 L 123.7 640.7 L 124.6 640.7 L 124.6 647.8 L 123.6 647.8 L 121.1 643.7 Q 120.8 643.2, 120.5 642.6 Q 120.2 642.1, 120.1 641.9 L 120.1 647.8 L 119.2 647.8 L 119.2 640.7 L 120.3 640.7 " fill="#0000FF"/>
<path class="atom-8" d="M 119.1 648.5 L 120.1 648.5 L 120.1 651.6 L 123.7 651.6 L 123.7 648.5 L 124.7 648.5 L 124.7 655.7 L 123.7 655.7 L 123.7 652.4 L 120.1 652.4 L 120.1 655.7 L 119.1 655.7 L 119.1 648.5 " fill="#0000FF"/>
<path class="legend" d="M 97.8 735.9 Q 98.6 735.9, 99.3 736.2 Q 100.0 736.6, 100.3 737.2 Q 100.7 737.8, 100.7 738.7 Q 100.7 739.6, 100.2 740.3 Q 99.8 741.0, 99.0 741.3 Q 98.3 741.7, 97.4 741.7 Q 96.6 741.7, 95.8 741.4 Q 95.1 741.1, 94.5 740.5 L 95.3 739.7 Q 95.7 740.1, 96.3 740.4 Q 96.9 740.6, 97.5 740.6 Q 98.3 740.6, 98.8 740.1 Q 99.4 739.6, 99.4 738.7 Q 99.4 737.8, 98.8 737.3 Q 98.3 736.8, 97.4 736.8 Q 96.6 736.8, 95.7 737.2 L 95.0 736.9 L 95.4 732.5 L 100.1 732.5 L 100.0 733.5 L 96.5 733.5 L 96.2 736.2 Q 97.0 735.9, 97.8 735.9 " fill="#000000"/>
<path class="legend" d="M 101.8 737.0 L 106.5 737.0 L 106.5 738.0 L 101.8 738.0 L 101.8 737.0 " fill="#000000"/>
<path class="legend" d="M 107.6 732.5 L 108.8 732.5 L 108.8 733.6 L 107.6 733.6 L 107.6 732.5 M 107.6 735.0 L 108.8 735.0 L 108.8 741.6 L 107.6 741.6 L 107.6 735.0 " fill="#000000"/>
<path class="legend" d="M 110.3 738.3 Q 110.3 736.6, 111.1 735.7 Q 112.0 734.8, 113.5 734.8 Q 115.0 734.8, 115.8 735.7 Q 116.6 736.6, 116.6 738.3 Q 116.6 739.9, 115.8 740.8 Q 115.0 741.7, 113.5 741.7 Q 112.0 741.7, 111.1 740.8 Q 110.3 739.9, 110.3 738.3 M 111.6 738.3 Q 111.6 739.5, 112.1 740.1 Q 112.6 740.7, 113.5 740.7 Q 114.4 740.7, 114.9 740.1 Q 115.4 739.5, 115.4 738.3 Q 115.4 737.0, 114.9 736.4 Q 114.4 735.8, 113.5 735.8 Q 112.6 735.8, 112.1 736.4 Q 111.6 737.0, 111.6 738.3 " fill="#000000"/>
<path class="legend" d="M 123.7 731.8 L 123.7 741.6 L 122.7 741.6 L 122.5 740.8 Q 121.8 741.7, 120.6 741.7 Q 119.2 741.7, 118.4 740.8 Q 117.6 740.0, 117.6 738.4 Q 117.6 736.7, 118.6 735.8 Q 119.5 734.8, 121.1 734.8 Q 121.7 734.8, 122.5 735.0 L 122.5 731.8 L 123.7 731.8 M 120.6 740.7 Q 121.3 740.7, 121.8 740.4 Q 122.3 740.0, 122.5 739.3 L 122.5 736.0 Q 121.8 735.8, 121.1 735.8 Q 120.0 735.8, 119.5 736.5 Q 118.9 737.1, 118.9 738.4 Q 118.9 739.5, 119.3 740.1 Q 119.8 740.7, 120.6 740.7 " fill="#000000"/>
<path class="legend" d="M 125.1 738.3 Q 125.1 736.6, 126.0 735.7 Q 126.8 734.8, 128.3 734.8 Q 129.8 734.8, 130.6 735.7 Q 131.4 736.6, 131.4 738.3 Q 131.4 739.9, 130.6 740.8 Q 129.8 741.7, 128.3 741.7 Q 126.8 741.7, 126.0 740.8 Q 125.1 739.9, 125.1 738.3 M 126.4 738.3 Q 126.4 739.5, 126.9 740.1 Q 127.4 740.7, 128.3 740.7 Q 129.2 740.7, 129.7 740.1 Q 130.2 739.5, 130.2 738.3 Q 130.2 737.0, 129.7 736.4 Q 129.2 735.8, 128.3 735.8 Q 127.4 735.8, 126.9 736.4 Q 126.4 737.0, 126.4 738.3 " fill="#000000"/>
<path class="legend" d="M 138.1 735.0 L 138.1 741.6 L 137.1 741.6 L 137.0 740.7 Q 136.1 741.7, 134.7 741.7 Q 133.6 741.7, 133.0 741.1 Q 132.5 740.5, 132.5 739.3 L 132.5 735.0 L 133.7 735.0 L 133.7 739.2 Q 133.7 740.0, 134.0 740.4 Q 134.3 740.7, 135.0 740.7 Q 135.6 740.7, 136.1 740.5 Q 136.6 740.2, 136.9 739.7 L 136.9 735.0 L 138.1 735.0 " fill="#000000"/>
<path class="legend" d="M 140.6 735.0 L 140.7 735.9 Q 141.4 734.8, 142.6 734.8 Q 142.9 734.8, 143.4 735.0 L 143.2 736.1 Q 142.7 735.9, 142.3 735.9 Q 141.8 735.9, 141.4 736.1 Q 141.1 736.3, 140.8 736.9 L 140.8 741.6 L 139.6 741.6 L 139.6 735.0 L 140.6 735.0 " fill="#000000"/>
<path class="legend" d="M 144.0 739.8 Q 144.0 738.7, 144.9 738.2 Q 145.7 737.6, 147.3 737.6 L 148.3 737.6 L 148.3 737.3 Q 148.3 736.5, 147.9 736.1 Q 147.6 735.8, 146.8 735.8 Q 146.2 735.8, 145.8 735.9 Q 145.4 736.0, 144.8 736.3 L 144.4 735.4 Q 145.6 734.8, 146.8 734.8 Q 148.2 734.8, 148.8 735.4 Q 149.5 736.0, 149.5 737.3 L 149.5 741.6 L 148.5 741.6 Q 148.5 741.5, 148.5 741.3 Q 148.5 741.1, 148.4 740.8 Q 147.5 741.7, 146.2 741.7 Q 145.2 741.7, 144.6 741.2 Q 144.0 740.7, 144.0 739.8 M 145.3 739.8 Q 145.3 740.3, 145.6 740.5 Q 145.9 740.8, 146.4 740.8 Q 147.0 740.8, 147.5 740.5 Q 147.9 740.3, 148.3 739.9 L 148.3 738.5 L 147.4 738.5 Q 146.3 738.5, 145.8 738.8 Q 145.3 739.1, 145.3 739.8 " fill="#000000"/>
<path class="legend" d="M 150.9 738.3 Q 150.9 736.7, 151.7 735.8 Q 152.5 734.8, 154.1 734.8 Q 155.6 734.8, 156.4 735.9 L 155.6 736.5 Q 155.3 736.2, 154.9 736.0 Q 154.6 735.8, 154.1 735.8 Q 153.2 735.8, 152.7 736.4 Q 152.2 737.0, 152.2 738.3 Q 152.2 739.5, 152.7 740.1 Q 153.2 740.7, 154.2 740.7 Q 154.7 740.7, 155.1 740.6 Q 155.5 740.5, 155.9 740.3 L 156.3 741.1 Q 155.3 741.7, 154.1 741.7 Q 152.5 741.7, 151.7 740.8 Q 150.9 739.9, 150.9 738.3 " fill="#000000"/>
<path class="legend" d="M 157.1 732.5 L 158.3 732.5 L 158.3 733.6 L 157.1 733.6 L 157.1 732.5 M 157.1 735.0 L 158.3 735.0 L 158.3 741.6 L 157.1 741.6 L 157.1 735.0 " fill="#000000"/>
<path class="legend" d="M 159.9 731.8 L 161.1 731.8 L 161.1 741.6 L 159.9 741.6 L 159.9 731.8 " fill="#000000"/>
<path class="legend" d="M 92.2 747.3 L 96.9 747.3 L 96.9 748.3 L 92.2 748.3 L 92.2 747.3 " fill="#000000"/>
<path class="legend" d="M 98.0 744.5 Q 98.3 743.7, 99.1 743.2 Q 99.9 742.7, 101.1 742.7 Q 102.4 742.7, 103.2 743.5 Q 104.0 744.2, 104.0 745.5 Q 104.0 746.9, 103.0 748.2 Q 102.0 749.4, 99.9 750.9 L 104.1 750.9 L 104.1 751.9 L 98.0 751.9 L 98.0 751.1 Q 99.7 749.9, 100.7 749.0 Q 101.7 748.1, 102.2 747.2 Q 102.7 746.4, 102.7 745.6 Q 102.7 744.7, 102.3 744.2 Q 101.8 743.7, 101.1 743.7 Q 100.3 743.7, 99.8 744.0 Q 99.3 744.3, 99.0 745.0 L 98.0 744.5 " fill="#000000"/>
<path class="legend" d="M 105.3 750.7 L 106.6 750.7 L 106.6 751.9 L 105.3 751.9 L 105.3 750.7 " fill="#000000"/>
<path class="legend" d="M 107.9 744.5 Q 108.2 743.7, 109.0 743.2 Q 109.8 742.7, 110.9 742.7 Q 112.3 742.7, 113.1 743.5 Q 113.9 744.2, 113.9 745.5 Q 113.9 746.9, 112.9 748.2 Q 111.9 749.4, 109.8 750.9 L 114.0 750.9 L 114.0 751.9 L 107.9 751.9 L 107.9 751.1 Q 109.6 749.9, 110.6 749.0 Q 111.6 748.1, 112.1 747.2 Q 112.6 746.4, 112.6 745.6 Q 112.6 744.7, 112.1 744.2 Q 111.7 743.7, 110.9 743.7 Q 110.2 743.7, 109.7 744.0 Q 109.2 744.3, 108.9 745.0 L 107.9 744.5 " fill="#000000"/>
<path class="legend" d="M 118.5 746.2 Q 119.3 746.2, 120.0 746.6 Q 120.6 746.9, 121.0 747.6 Q 121.4 748.2, 121.4 749.1 Q 121.4 750.0, 120.9 750.7 Q 120.5 751.3, 119.7 751.7 Q 119.0 752.0, 118.1 752.0 Q 117.3 752.0, 116.5 751.7 Q 115.7 751.4, 115.2 750.8 L 116.0 750.0 Q 116.4 750.5, 117.0 750.8 Q 117.6 751.0, 118.2 751.0 Q 119.0 751.0, 119.5 750.5 Q 120.1 750.0, 120.1 749.1 Q 120.1 748.1, 119.5 747.7 Q 119.0 747.2, 118.1 747.2 Q 117.3 747.2, 116.4 747.5 L 115.7 747.2 L 116.1 742.8 L 120.8 742.8 L 120.7 743.8 L 117.2 743.8 L 116.9 746.6 Q 117.7 746.2, 118.5 746.2 " fill="#000000"/>
<path class="legend" d="" fill="#000000"/>
<path class="legend" d="M 127.1 748.3 Q 127.1 746.4, 127.7 744.9 Q 128.2 743.4, 129.2 741.7 L 130.0 742.2 Q 129.1 743.7, 128.7 745.1 Q 128.3 746.5, 128.3 748.3 Q 128.3 750.0, 128.7 751.4 Q 129.1 752.8, 130.0 754.3 L 129.2 754.8 Q 128.2 753.2, 127.7 751.7 Q 127.1 750.1, 127.1 748.3 " fill="#000000"/>
<path class="legend" d="M 130.7 747.3 L 135.4 747.3 L 135.4 748.3 L 130.7 748.3 L 130.7 747.3 " fill="#000000"/>
<path class="legend" d="M 137.0 750.9 L 139.0 750.9 L 139.0 744.1 L 136.8 744.8 L 136.5 744.0 L 139.3 742.8 L 140.2 742.9 L 140.2 750.9 L 142.0 750.9 L 142.0 751.9 L 137.0 751.9 L 137.0 750.9 " fill="#000000"/>
<path class="legend" d="M 143.0 750.7 L 144.2 750.7 L 144.2 751.9 L 143.0 751.9 L 143.0 750.7 " fill="#000000"/>
<path class="legend" d="M 149.1 746.2 Q 149.9 746.2, 150.5 746.6 Q 151.1 746.9, 151.5 747.6 Q 151.8 748.2, 151.8 749.0 Q 151.8 749.9, 151.4 750.6 Q 151.0 751.3, 150.3 751.7 Q 149.6 752.0, 148.8 752.0 Q 147.1 752.0, 146.3 750.9 Q 145.5 749.8, 145.5 747.6 Q 145.5 745.2, 146.5 744.0 Q 147.5 742.7, 149.5 742.7 Q 150.0 742.7, 150.5 742.8 Q 151.0 743.0, 151.5 743.2 L 151.0 744.1 Q 150.3 743.7, 149.5 743.7 Q 148.2 743.7, 147.5 744.6 Q 146.9 745.4, 146.8 747.1 Q 147.3 746.7, 147.8 746.5 Q 148.4 746.2, 149.1 746.2 M 148.8 751.0 Q 149.3 751.0, 149.7 750.7 Q 150.1 750.5, 150.3 750.0 Q 150.5 749.6, 150.5 749.0 Q 150.5 748.2, 150.1 747.7 Q 149.6 747.3, 148.8 747.3 Q 148.3 747.3, 147.7 747.5 Q 147.2 747.7, 146.8 748.1 Q 146.8 749.6, 147.3 750.3 Q 147.8 751.0, 148.8 751.0 " fill="#000000"/>
<path class="legend" d="M 156.0 742.7 Q 157.6 742.7, 158.5 743.8 Q 159.3 744.9, 159.3 747.1 Q 159.3 749.5, 158.3 750.8 Q 157.3 752.0, 155.3 752.0 Q 154.7 752.0, 154.3 751.9 Q 153.8 751.8, 153.3 751.5 L 153.8 750.7 Q 154.5 751.0, 155.3 751.0 Q 156.6 751.0, 157.2 750.2 Q 157.9 749.3, 158.0 747.6 Q 157.5 748.1, 156.9 748.3 Q 156.3 748.5, 155.7 748.5 Q 154.9 748.5, 154.3 748.2 Q 153.6 747.8, 153.3 747.2 Q 152.9 746.6, 152.9 745.8 Q 152.9 744.9, 153.3 744.2 Q 153.7 743.5, 154.4 743.1 Q 155.1 742.7, 156.0 742.7 M 154.2 745.7 Q 154.2 746.6, 154.7 747.0 Q 155.1 747.5, 155.9 747.5 Q 156.5 747.5, 157.0 747.3 Q 157.6 747.0, 158.0 746.6 Q 157.9 745.1, 157.4 744.5 Q 157.0 743.8, 156.0 743.8 Q 155.5 743.8, 155.1 744.0 Q 154.7 744.3, 154.5 744.7 Q 154.2 745.2, 154.2 745.7 " fill="#000000"/>
<path class="legend" d="M 163.4 748.3 Q 163.4 750.1, 162.9 751.7 Q 162.3 753.2, 161.3 754.8 L 160.6 754.3 Q 161.4 752.8, 161.8 751.4 Q 162.2 750.0, 162.2 748.3 Q 162.2 746.5, 161.8 745.1 Q 161.4 743.7, 160.6 742.2 L 161.3 741.7 Q 162.3 743.4, 162.9 744.9 Q 163.4 746.4, 163.4 748.3 " fill="#000000"/>
</svg>