<?xml version="1.0" encoding="utf-8" standalone="no"?>
<!DOCTYPE svg PUBLIC "-//W3C//DTD SVG 1.1//EN"
  "http://www.w3.org/Graphics/SVG/1.1/DTD/svg11.dtd">
<svg xmlns:xlink="http://www.w3.org/1999/xlink" width="460.8pt" height="345.6pt" viewBox="0 0 460.8 345.6" xmlns="http://www.w3.org/2000/svg" version="1.1">
 <metadata>
  <rdf:RDF xmlns:dc="http://purl.org/dc/elements/1.1/" xmlns:cc="http://creativecommons.org/ns#" xmlns:rdf="http://www.w3.org/1999/02/22-rdf-syntax-ns#">
   <cc:Work>
    <dc:type rdf:resource="http://purl.org/dc/dcmitype/StillImage"/>
    <dc:date>2025-10-20T15:10:47.782701</dc:date>
    <dc:format>image/svg+xml</dc:format>
    <dc:creator>
     <cc:Agent>
      <dc:title>Matplotlib v3.10.7, https://matplotlib.org/</dc:title>
     </cc:Agent>
    </dc:creator>
   </cc:Work>
  </rdf:RDF>
 </metadata>
 <defs>
  <style type="text/css">*{stroke-linejoin: round; stroke-linecap: butt}</style>
 </defs>
 <g id="figure_1">
  <g id="patch_1">
   <path d="M 0 345.6 
L 460.8 345.6 
L 460.8 0 
L 0 0 
z
" style="fill: #ffffff"/>
  </g>
  <g id="axes_1">
   <g id="patch_2">
    <path d="M 361.173846 307.013202 
Q 359.984755 296.9134 358.926392 287.923964 
" clip-path="url(#pca8a1a4ffd)" style="fill: none; stroke: #000000; stroke-linecap: round"/>
    <path d="M 357.407817 292.130379 
L 358.926392 287.923964 
L 361.380379 291.662673 
z
" clip-path="url(#pca8a1a4ffd)" style="stroke: #000000; stroke-linecap: round"/>
   </g>
   <g id="patch_3">
    <path d="M 46.367918 240.695383 
Q 59.043716 229.071076 70.895506 218.202422 
" clip-path="url(#pca8a1a4ffd)" style="fill: none; stroke: #000000; stroke-linecap: round"/>
    <path d="M 66.595695 219.431902 
L 70.895506 218.202422 
L 69.299203 222.379959 
z
" clip-path="url(#pca8a1a4ffd)" style="stroke: #000000; stroke-linecap: round"/>
   </g>
   <g id="patch_4">
    <path d="M 40.726419 255.178367 
Q 41.557337 264.874681 42.292796 273.457042 
" clip-path="url(#pca8a1a4ffd)" style="fill: none; stroke: #000000; stroke-linecap: round"/>
    <path d="M 43.943968 269.300886 
L 42.292796 273.457042 
L 39.958574 269.642412 
z
" clip-path="url(#pca8a1a4ffd)" style="stroke: #000000; stroke-linecap: round"/>
   </g>
   <g id="patch_5">
    <path d="M 358.794838 286.806584 
Q 359.983929 296.906386 361.042293 305.895822 
" clip-path="url(#pca8a1a4ffd)" style="fill: none; stroke: #000000; stroke-linecap: round"/>
    <path d="M 362.560868 301.689407 
L 361.042293 305.895822 
L 358.588305 302.157113 
z
" clip-path="url(#pca8a1a4ffd)" style="stroke: #000000; stroke-linecap: round"/>
   </g>
   <g id="patch_6">
    <path d="M 365.28729 282.526673 
Q 376.91557 289.215524 387.574713 295.346905 
" clip-path="url(#pca8a1a4ffd)" style="fill: none; stroke: #000000; stroke-linecap: round"/>
    <path d="M 385.104654 291.618795 
L 387.574713 295.346905 
L 383.110189 295.086086 
z
" clip-path="url(#pca8a1a4ffd)" style="stroke: #000000; stroke-linecap: round"/>
   </g>
   <g id="patch_7">
    <path d="M 353.250649 270.830102 
Q 342.097842 252.669469 331.530119 235.461556 
" clip-path="url(#pca8a1a4ffd)" style="fill: none; stroke: #000000; stroke-linecap: round"/>
    <path d="M 331.919103 239.916743 
L 331.530119 235.461556 
L 335.327659 237.823481 
z
" clip-path="url(#pca8a1a4ffd)" style="stroke: #000000; stroke-linecap: round"/>
   </g>
   <g id="patch_8">
    <path d="M 86.871979 154.396542 
Q 100.558921 161.908854 113.265754 168.883217 
" clip-path="url(#pca8a1a4ffd)" style="fill: none; stroke: #000000; stroke-linecap: round"/>
    <path d="M 110.721526 165.205323 
L 113.265754 168.883217 
L 108.796902 168.711862 
z
" clip-path="url(#pca8a1a4ffd)" style="stroke: #000000; stroke-linecap: round"/>
   </g>
   <g id="patch_9">
    <path d="M 152.438482 121.520334 
Q 155.951099 132.11771 159.111953 141.653832 
" clip-path="url(#pca8a1a4ffd)" style="fill: none; stroke: #000000; stroke-linecap: round"/>
    <path d="M 159.751871 137.227716 
L 159.111953 141.653832 
L 155.955011 138.486227 
z
" clip-path="url(#pca8a1a4ffd)" style="stroke: #000000; stroke-linecap: round"/>
   </g>
   <g id="patch_10">
    <path d="M 42.388217 274.570546 
Q 41.557299 264.874233 40.82184 256.291871 
" clip-path="url(#pca8a1a4ffd)" style="fill: none; stroke: #000000; stroke-linecap: round"/>
    <path d="M 39.170668 260.448027 
L 40.82184 256.291871 
L 43.156062 260.106502 
z
" clip-path="url(#pca8a1a4ffd)" style="stroke: #000000; stroke-linecap: round"/>
   </g>
   <g id="patch_11">
    <path d="M 51.553701 285.202054 
Q 63.987926 288.153995 75.334351 290.847687 
" clip-path="url(#pca8a1a4ffd)" style="fill: none; stroke: #000000; stroke-linecap: round"/>
    <path d="M 71.90449 287.977834 
L 75.334351 290.847687 
L 70.980553 291.869664 
z
" clip-path="url(#pca8a1a4ffd)" style="stroke: #000000; stroke-linecap: round"/>
   </g>
   <g id="patch_12">
    <path d="M 387.335522 38.549114 
Q 397.733979 35.491496 407.059813 32.749279 
" clip-path="url(#pca8a1a4ffd)" style="fill: none; stroke: #000000; stroke-linecap: round"/>
    <path d="M 402.65807 31.95892 
L 407.059813 32.749279 
L 403.78648 35.796457 
z
" clip-path="url(#pca8a1a4ffd)" style="stroke: #000000; stroke-linecap: round"/>
   </g>
   <g id="patch_13">
    <path d="M 374.226028 48.197534 
Q 366.943474 59.126389 360.280896 69.124851 
" clip-path="url(#pca8a1a4ffd)" style="fill: none; stroke: #000000; stroke-linecap: round"/>
    <path d="M 364.163327 66.905226 
L 360.280896 69.124851 
L 360.834655 64.687132 
z
" clip-path="url(#pca8a1a4ffd)" style="stroke: #000000; stroke-linecap: round"/>
   </g>
   <g id="patch_14">
    <path d="M 334.602287 127.832199 
Q 315.186781 146.932775 296.568282 165.249272 
" clip-path="url(#pca8a1a4ffd)" style="fill: none; stroke: #000000; stroke-linecap: round"/>
    <path d="M 300.822344 163.869795 
L 296.568282 165.249272 
L 298.017138 161.018337 
z
" clip-path="url(#pca8a1a4ffd)" style="stroke: #000000; stroke-linecap: round"/>
   </g>
   <g id="patch_15">
    <path d="M 348.430145 117.708922 
Q 365.722311 108.561739 382.026195 99.937336 
" clip-path="url(#pca8a1a4ffd)" style="fill: none; stroke: #000000; stroke-linecap: round"/>
    <path d="M 377.555233 100.039798 
L 382.026195 99.937336 
L 379.425587 103.575583 
z
" clip-path="url(#pca8a1a4ffd)" style="stroke: #000000; stroke-linecap: round"/>
   </g>
   <g id="patch_16">
    <path d="M 343.391487 113.498007 
Q 347.818671 99.508702 351.908522 86.585326 
" clip-path="url(#pca8a1a4ffd)" style="fill: none; stroke: #000000; stroke-linecap: round"/>
    <path d="M 348.794847 89.79547 
L 351.908522 86.585326 
L 352.608432 91.002353 
z
" clip-path="url(#pca8a1a4ffd)" style="stroke: #000000; stroke-linecap: round"/>
   </g>
   <g id="patch_17">
    <path d="M 294.4144 179.302145 
Q 308.006363 199.617454 320.97662 219.003527 
" clip-path="url(#pca8a1a4ffd)" style="fill: none; stroke: #000000; stroke-linecap: round"/>
    <path d="M 320.414605 214.566846 
L 320.97662 219.003527 
L 317.090066 216.791129 
z
" clip-path="url(#pca8a1a4ffd)" style="stroke: #000000; stroke-linecap: round"/>
   </g>
   <g id="patch_18">
    <path d="M 295.774829 166.029855 
Q 315.190335 146.929279 333.808834 128.612783 
" clip-path="url(#pca8a1a4ffd)" style="fill: none; stroke: #000000; stroke-linecap: round"/>
    <path d="M 329.554772 129.99226 
L 333.808834 128.612783 
L 332.359979 132.843718 
z
" clip-path="url(#pca8a1a4ffd)" style="stroke: #000000; stroke-linecap: round"/>
   </g>
   <g id="patch_19">
    <path d="M 280.95093 171.622914 
Q 246.281116 169.689435 212.727601 167.818211 
" clip-path="url(#pca8a1a4ffd)" style="fill: none; stroke: #000000; stroke-linecap: round"/>
    <path d="M 216.610031 170.037835 
L 212.727601 167.818211 
L 216.832759 166.044041 
z
" clip-path="url(#pca8a1a4ffd)" style="stroke: #000000; stroke-linecap: round"/>
   </g>
   <g id="patch_20">
    <path d="M 383.016336 99.413573 
Q 365.724171 108.560755 349.420287 117.185158 
" clip-path="url(#pca8a1a4ffd)" style="fill: none; stroke: #000000; stroke-linecap: round"/>
    <path d="M 353.891249 117.082697 
L 349.420287 117.185158 
L 352.020895 113.546912 
z
" clip-path="url(#pca8a1a4ffd)" style="stroke: #000000; stroke-linecap: round"/>
   </g>
   <g id="patch_21">
    <path d="M 396.462437 88.931172 
Q 405.741121 78.626395 414.271684 69.152471 
" clip-path="url(#pca8a1a4ffd)" style="fill: none; stroke: #000000; stroke-linecap: round"/>
    <path d="M 410.108853 70.786739 
L 414.271684 69.152471 
L 413.0814 73.463297 
z
" clip-path="url(#pca8a1a4ffd)" style="stroke: #000000; stroke-linecap: round"/>
   </g>
   <g id="patch_22">
    <path d="M 359.660913 70.055253 
Q 366.943467 59.126399 373.606045 49.127937 
" clip-path="url(#pca8a1a4ffd)" style="fill: none; stroke: #000000; stroke-linecap: round"/>
    <path d="M 369.723615 51.347562 
L 373.606045 49.127937 
L 373.052286 53.565656 
z
" clip-path="url(#pca8a1a4ffd)" style="stroke: #000000; stroke-linecap: round"/>
   </g>
   <g id="patch_23">
    <path d="M 352.245804 85.519559 
Q 347.81862 99.508864 343.728769 112.43224 
" clip-path="url(#pca8a1a4ffd)" style="fill: none; stroke: #000000; stroke-linecap: round"/>
    <path d="M 346.842444 109.222096 
L 343.728769 112.43224 
L 343.028859 108.015213 
z
" clip-path="url(#pca8a1a4ffd)" style="stroke: #000000; stroke-linecap: round"/>
   </g>
   <g id="patch_24">
    <path d="M 76.421264 291.105725 
Q 63.987039 288.153784 52.640613 285.460092 
" clip-path="url(#pca8a1a4ffd)" style="fill: none; stroke: #000000; stroke-linecap: round"/>
    <path d="M 56.070474 288.329945 
L 52.640613 285.460092 
L 56.994412 284.438115 
z
" clip-path="url(#pca8a1a4ffd)" style="stroke: #000000; stroke-linecap: round"/>
   </g>
   <g id="patch_25">
    <path d="M 90.461106 286.50881 
Q 95.982645 280.020218 100.779616 274.383097 
" clip-path="url(#pca8a1a4ffd)" style="fill: none; stroke: #000000; stroke-linecap: round"/>
    <path d="M 96.664167 276.133262 
L 100.779616 274.383097 
L 99.710479 278.725555 
z
" clip-path="url(#pca8a1a4ffd)" style="stroke: #000000; stroke-linecap: round"/>
   </g>
   <g id="patch_26">
    <path d="M 101.504239 273.531561 
Q 95.9827 280.020153 91.185729 285.657275 
" clip-path="url(#pca8a1a4ffd)" style="fill: none; stroke: #000000; stroke-linecap: round"/>
    <path d="M 95.301178 283.907109 
L 91.185729 285.657275 
L 92.254866 281.314816 
z
" clip-path="url(#pca8a1a4ffd)" style="stroke: #000000; stroke-linecap: round"/>
   </g>
   <g id="patch_27">
    <path d="M 108.178166 258.335937 
Q 109.547841 247.224811 110.78073 237.223319 
" clip-path="url(#pca8a1a4ffd)" style="fill: none; stroke: #000000; stroke-linecap: round"/>
    <path d="M 108.306377 240.948581 
L 110.78073 237.223319 
L 112.276328 241.437959 
z
" clip-path="url(#pca8a1a4ffd)" style="stroke: #000000; stroke-linecap: round"/>
   </g>
   <g id="patch_28">
    <path d="M 330.944554 234.508053 
Q 342.097361 252.668686 352.665084 269.876599 
" clip-path="url(#pca8a1a4ffd)" style="fill: none; stroke: #000000; stroke-linecap: round"/>
    <path d="M 352.2761 265.421412 
L 352.665084 269.876599 
L 348.867544 267.514674 
z
" clip-path="url(#pca8a1a4ffd)" style="stroke: #000000; stroke-linecap: round"/>
   </g>
   <g id="patch_29">
    <path d="M 321.597387 219.93136 
Q 308.005424 199.616051 295.035167 180.229978 
" clip-path="url(#pca8a1a4ffd)" style="fill: none; stroke: #000000; stroke-linecap: round"/>
    <path d="M 295.597181 184.666659 
L 295.035167 180.229978 
L 298.921721 182.442375 
z
" clip-path="url(#pca8a1a4ffd)" style="stroke: #000000; stroke-linecap: round"/>
   </g>
   <g id="patch_30">
    <path d="M 158.164322 158.603931 
Q 151.496877 171.314179 145.348801 183.034347 
" clip-path="url(#pca8a1a4ffd)" style="fill: none; stroke: #000000; stroke-linecap: round"/>
    <path d="M 148.978056 180.421206 
L 145.348801 183.034347 
L 145.435841 178.563058 
z
" clip-path="url(#pca8a1a4ffd)" style="stroke: #000000; stroke-linecap: round"/>
   </g>
   <g id="patch_31">
    <path d="M 159.463899 142.715635 
Q 155.951281 132.118259 152.790428 122.582138 
" clip-path="url(#pca8a1a4ffd)" style="fill: none; stroke: #000000; stroke-linecap: round"/>
    <path d="M 152.15051 127.008254 
L 152.790428 122.582138 
L 155.94737 125.749743 
z
" clip-path="url(#pca8a1a4ffd)" style="stroke: #000000; stroke-linecap: round"/>
   </g>
   <g id="patch_32">
    <path d="M 170.228786 154.156049 
Q 182.577773 159.10476 193.888956 163.637583 
" clip-path="url(#pca8a1a4ffd)" style="fill: none; stroke: #000000; stroke-linecap: round"/>
    <path d="M 190.919958 160.293177 
L 193.888956 163.637583 
L 189.432033 164.006138 
z
" clip-path="url(#pca8a1a4ffd)" style="stroke: #000000; stroke-linecap: round"/>
   </g>
   <g id="patch_33">
    <path d="M 130.469708 172.91721 
Q 162.399807 170.431431 193.215244 168.032429 
" clip-path="url(#pca8a1a4ffd)" style="fill: none; stroke: #000000; stroke-linecap: round"/>
    <path d="M 189.07208 166.348926 
L 193.215244 168.032429 
L 189.382543 170.336859 
z
" clip-path="url(#pca8a1a4ffd)" style="stroke: #000000; stroke-linecap: round"/>
   </g>
   <g id="patch_34">
    <path d="M 114.246465 169.421497 
Q 100.559524 161.909185 87.852691 154.934822 
" clip-path="url(#pca8a1a4ffd)" style="fill: none; stroke: #000000; stroke-linecap: round"/>
    <path d="M 90.396918 158.612717 
L 87.852691 154.934822 
L 92.321543 155.106177 
z
" clip-path="url(#pca8a1a4ffd)" style="stroke: #000000; stroke-linecap: round"/>
   </g>
   <g id="patch_35">
    <path d="M 115.301772 179.269896 
Q 99.970046 192.592034 85.482262 205.180849 
" clip-path="url(#pca8a1a4ffd)" style="fill: none; stroke: #000000; stroke-linecap: round"/>
    <path d="M 89.813447 204.066921 
L 85.482262 205.180849 
L 87.189831 201.047544 
z
" clip-path="url(#pca8a1a4ffd)" style="stroke: #000000; stroke-linecap: round"/>
   </g>
   <g id="patch_36">
    <path d="M 417.618526 38.567973 
Q 418.627983 45.936463 419.485691 52.197265 
" clip-path="url(#pca8a1a4ffd)" style="fill: none; stroke: #000000; stroke-linecap: round"/>
    <path d="M 420.924268 47.962824 
L 419.485691 52.197265 
L 416.961284 48.505739 
z
" clip-path="url(#pca8a1a4ffd)" style="stroke: #000000; stroke-linecap: round"/>
   </g>
   <g id="patch_37">
    <path d="M 408.135335 32.433026 
Q 397.736878 35.490644 388.411045 38.232862 
" clip-path="url(#pca8a1a4ffd)" style="fill: none; stroke: #000000; stroke-linecap: round"/>
    <path d="M 392.812787 39.023221 
L 388.411045 38.232862 
L 391.684377 35.185683 
z
" clip-path="url(#pca8a1a4ffd)" style="stroke: #000000; stroke-linecap: round"/>
   </g>
   <g id="patch_38">
    <path d="M 415.019447 68.322016 
Q 405.740763 78.626792 397.2102 88.100717 
" clip-path="url(#pca8a1a4ffd)" style="fill: none; stroke: #000000; stroke-linecap: round"/>
    <path d="M 401.373031 86.466448 
L 397.2102 88.100717 
L 398.400484 83.78989 
z
" clip-path="url(#pca8a1a4ffd)" style="stroke: #000000; stroke-linecap: round"/>
   </g>
   <g id="patch_39">
    <path d="M 419.638083 53.309639 
Q 418.628625 45.941149 417.770918 39.680346 
" clip-path="url(#pca8a1a4ffd)" style="fill: none; stroke: #000000; stroke-linecap: round"/>
    <path d="M 416.33234 43.914788 
L 417.770918 39.680346 
L 420.295324 43.371873 
z
" clip-path="url(#pca8a1a4ffd)" style="stroke: #000000; stroke-linecap: round"/>
   </g>
   <g id="patch_40">
    <path d="M 211.610658 167.755921 
Q 246.280472 169.689399 279.833987 171.560624 
" clip-path="url(#pca8a1a4ffd)" style="fill: none; stroke: #000000; stroke-linecap: round"/>
    <path d="M 275.951557 169.340999 
L 279.833987 171.560624 
L 275.728829 173.334793 
z
" clip-path="url(#pca8a1a4ffd)" style="stroke: #000000; stroke-linecap: round"/>
   </g>
   <g id="patch_41">
    <path d="M 194.332106 167.945481 
Q 162.402007 170.43126 131.586569 172.830261 
" clip-path="url(#pca8a1a4ffd)" style="fill: none; stroke: #000000; stroke-linecap: round"/>
    <path d="M 135.729734 174.513765 
L 131.586569 172.830261 
L 135.419271 170.525831 
z
" clip-path="url(#pca8a1a4ffd)" style="stroke: #000000; stroke-linecap: round"/>
   </g>
   <g id="patch_42">
    <path d="M 194.921393 164.051319 
Q 182.572405 159.102609 171.261222 154.569785 
" clip-path="url(#pca8a1a4ffd)" style="fill: none; stroke: #000000; stroke-linecap: round"/>
    <path d="M 174.23022 157.914191 
L 171.261222 154.569785 
L 175.718146 154.20123 
z
" clip-path="url(#pca8a1a4ffd)" style="stroke: #000000; stroke-linecap: round"/>
   </g>
   <g id="patch_43">
    <path d="M 135.37727 198.440472 
Q 126.392285 209.605229 118.108258 219.898976 
" clip-path="url(#pca8a1a4ffd)" style="fill: none; stroke: #000000; stroke-linecap: round"/>
    <path d="M 122.174189 218.036665 
L 118.108258 219.898976 
L 119.057967 215.528844 
z
" clip-path="url(#pca8a1a4ffd)" style="stroke: #000000; stroke-linecap: round"/>
   </g>
   <g id="patch_44">
    <path d="M 144.829008 184.025235 
Q 151.496453 171.314987 157.644529 159.594819 
" clip-path="url(#pca8a1a4ffd)" style="fill: none; stroke: #000000; stroke-linecap: round"/>
    <path d="M 154.015274 162.20796 
L 157.644529 159.594819 
L 157.557489 164.066108 
z
" clip-path="url(#pca8a1a4ffd)" style="stroke: #000000; stroke-linecap: round"/>
   </g>
   <g id="patch_45">
    <path d="M 84.639224 205.913386 
Q 99.970951 192.591248 114.458735 180.002433 
" clip-path="url(#pca8a1a4ffd)" style="fill: none; stroke: #000000; stroke-linecap: round"/>
    <path d="M 110.12755 181.11636 
L 114.458735 180.002433 
L 112.751166 184.135738 
z
" clip-path="url(#pca8a1a4ffd)" style="stroke: #000000; stroke-linecap: round"/>
   </g>
   <g id="patch_46">
    <path d="M 71.720335 217.446015 
Q 59.044537 229.070323 47.192746 239.938977 
" clip-path="url(#pca8a1a4ffd)" style="fill: none; stroke: #000000; stroke-linecap: round"/>
    <path d="M 51.492558 238.709497 
L 47.192746 239.938977 
L 48.78905 235.761439 
z
" clip-path="url(#pca8a1a4ffd)" style="stroke: #000000; stroke-linecap: round"/>
   </g>
   <g id="patch_47">
    <path d="M 85.937713 215.277627 
Q 95.039764 219.556043 103.129987 223.35885 
" clip-path="url(#pca8a1a4ffd)" style="fill: none; stroke: #000000; stroke-linecap: round"/>
    <path d="M 100.360758 219.847245 
L 103.129987 223.35885 
L 98.659166 223.467271 
z
" clip-path="url(#pca8a1a4ffd)" style="stroke: #000000; stroke-linecap: round"/>
   </g>
   <g id="patch_48">
    <path d="M 110.917249 236.115845 
Q 109.547575 247.226972 108.314685 257.228463 
" clip-path="url(#pca8a1a4ffd)" style="fill: none; stroke: #000000; stroke-linecap: round"/>
    <path d="M 110.789038 253.503201 
L 108.314685 257.228463 
L 106.819088 253.013823 
z
" clip-path="url(#pca8a1a4ffd)" style="stroke: #000000; stroke-linecap: round"/>
   </g>
   <g id="patch_49">
    <path d="M 117.40535 220.77241 
Q 126.390335 209.607652 134.674363 199.313905 
" clip-path="url(#pca8a1a4ffd)" style="fill: none; stroke: #000000; stroke-linecap: round"/>
    <path d="M 130.608432 201.176217 
L 134.674363 199.313905 
L 133.724654 203.684037 
z
" clip-path="url(#pca8a1a4ffd)" style="stroke: #000000; stroke-linecap: round"/>
   </g>
   <g id="patch_50">
    <path d="M 104.140939 223.834048 
Q 95.038888 219.555632 86.948665 215.752825 
" clip-path="url(#pca8a1a4ffd)" style="fill: none; stroke: #000000; stroke-linecap: round"/>
    <path d="M 89.717894 219.264429 
L 86.948665 215.752825 
L 91.419486 215.644404 
z
" clip-path="url(#pca8a1a4ffd)" style="stroke: #000000; stroke-linecap: round"/>
   </g>
   <g id="patch_51">
    <path d="M 388.546112 295.905676 
Q 376.917832 289.216825 366.258689 283.085444 
" clip-path="url(#pca8a1a4ffd)" style="fill: none; stroke: #000000; stroke-linecap: round"/>
    <path d="M 368.728748 286.813555 
L 366.258689 283.085444 
L 370.723213 283.346263 
z
" clip-path="url(#pca8a1a4ffd)" style="stroke: #000000; stroke-linecap: round"/>
   </g>
   <g id="PathCollection_1">
    <defs>
     <path id="m243a9af76c" d="M 0 8.660254 
C 2.296726 8.660254 4.499694 7.747755 6.123724 6.123724 
C 7.747755 4.499694 8.660254 2.296726 8.660254 0 
C 8.660254 -2.296726 7.747755 -4.499694 6.123724 -6.123724 
C 4.499694 -7.747755 2.296726 -8.660254 0 -8.660254 
C -2.296726 -8.660254 -4.499694 -7.747755 -6.123724 -6.123724 
C -7.747755 -4.499694 -8.660254 -2.296726 -8.660254 0 
C -8.660254 2.296726 -7.747755 4.499694 -6.123724 6.123724 
C -4.499694 7.747755 -2.296726 8.660254 0 8.660254 
z
" style="stroke: #808080"/>
    </defs>
    <g clip-path="url(#pca8a1a4ffd)">
     <use xlink:href="#m243a9af76c" x="362.185973" y="315.609917" style="fill: #808080; stroke: #808080"/>
     <use xlink:href="#m243a9af76c" x="39.986777" y="246.547192" style="fill: #808080; stroke: #808080"/>
     <use xlink:href="#m243a9af76c" x="357.782711" y="278.209869" style="fill: #808080; stroke: #808080"/>
     <use xlink:href="#m243a9af76c" x="79.278924" y="150.228964" style="fill: #808080; stroke: #808080"/>
     <use xlink:href="#m243a9af76c" x="149.714495" y="113.302217" style="fill: #808080; stroke: #808080"/>
     <use xlink:href="#m243a9af76c" x="43.127859" y="283.201722" style="fill: #808080; stroke: #808080"/>
     <use xlink:href="#m243a9af76c" x="379.027472" y="40.992058" style="fill: #808080; stroke: #808080"/>
     <use xlink:href="#m243a9af76c" x="340.777821" y="121.756836" style="fill: #808080; stroke: #808080"/>
     <use xlink:href="#m243a9af76c" x="289.599295" y="172.105219" style="fill: #808080; stroke: #808080"/>
     <use xlink:href="#m243a9af76c" x="390.668661" y="95.365658" style="fill: #808080; stroke: #808080"/>
     <use xlink:href="#m243a9af76c" x="354.85947" y="77.26073" style="fill: #808080; stroke: #808080"/>
     <use xlink:href="#m243a9af76c" x="84.847105" y="293.106057" style="fill: #808080; stroke: #808080"/>
     <use xlink:href="#m243a9af76c" x="107.118239" y="266.934314" style="fill: #808080; stroke: #808080"/>
     <use xlink:href="#m243a9af76c" x="326.412492" y="227.128286" style="fill: #808080; stroke: #808080"/>
     <use xlink:href="#m243a9af76c" x="162.187885" y="150.933753" style="fill: #808080; stroke: #808080"/>
     <use xlink:href="#m243a9af76c" x="121.839521" y="173.589075" style="fill: #808080; stroke: #808080"/>
     <use xlink:href="#m243a9af76c" x="416.443386" y="29.990083" style="fill: #808080; stroke: #808080"/>
     <use xlink:href="#m243a9af76c" x="420.813223" y="61.887529" style="fill: #808080; stroke: #808080"/>
     <use xlink:href="#m243a9af76c" x="202.962293" y="167.273615" style="fill: #808080; stroke: #808080"/>
     <use xlink:href="#m243a9af76c" x="140.805445" y="191.695413" style="fill: #808080; stroke: #808080"/>
     <use xlink:href="#m243a9af76c" x="78.101476" y="211.594206" style="fill: #808080; stroke: #808080"/>
     <use xlink:href="#m243a9af76c" x="111.977176" y="227.517469" style="fill: #808080; stroke: #808080"/>
     <use xlink:href="#m243a9af76c" x="396.050691" y="300.222481" style="fill: #808080; stroke: #808080"/>
    </g>
   </g>
   <g id="text_1">
    <g clip-path="url(#pca8a1a4ffd)">
     <!-- 0 -->
     <g style="fill: #ffffff" transform="translate(358.368473 318.921167) scale(0.12 -0.12)">
      <defs>
       <path id="DejaVuSans-30" d="M 2034 4250 
Q 1547 4250 1301 3770 
Q 1056 3291 1056 2328 
Q 1056 1369 1301 889 
Q 1547 409 2034 409 
Q 2525 409 2770 889 
Q 3016 1369 3016 2328 
Q 3016 3291 2770 3770 
Q 2525 4250 2034 4250 
z
M 2034 4750 
Q 2819 4750 3233 4129 
Q 3647 3509 3647 2328 
Q 3647 1150 3233 529 
Q 2819 -91 2034 -91 
Q 1250 -91 836 529 
Q 422 1150 422 2328 
Q 422 3509 836 4129 
Q 1250 4750 2034 4750 
z
" transform="scale(0.015625)"/>
      </defs>
      <use xlink:href="#DejaVuSans-30"/>
     </g>
    </g>
   </g>
   <g id="text_2">
    <g clip-path="url(#pca8a1a4ffd)">
     <!-- 1 -->
     <g style="fill: #ffffff" transform="translate(36.169277 249.858442) scale(0.12 -0.12)">
      <defs>
       <path id="DejaVuSans-31" d="M 794 531 
L 1825 531 
L 1825 4091 
L 703 3866 
L 703 4441 
L 1819 4666 
L 2450 4666 
L 2450 531 
L 3481 531 
L 3481 0 
L 794 0 
L 794 531 
z
" transform="scale(0.015625)"/>
      </defs>
      <use xlink:href="#DejaVuSans-31"/>
     </g>
    </g>
   </g>
   <g id="text_3">
    <g clip-path="url(#pca8a1a4ffd)">
     <!-- 2 -->
     <g style="fill: #ffffff" transform="translate(353.965211 281.521119) scale(0.12 -0.12)">
      <defs>
       <path id="DejaVuSans-32" d="M 1228 531 
L 3431 531 
L 3431 0 
L 469 0 
L 469 531 
Q 828 903 1448 1529 
Q 2069 2156 2228 2338 
Q 2531 2678 2651 2914 
Q 2772 3150 2772 3378 
Q 2772 3750 2511 3984 
Q 2250 4219 1831 4219 
Q 1534 4219 1204 4116 
Q 875 4013 500 3803 
L 500 4441 
Q 881 4594 1212 4672 
Q 1544 4750 1819 4750 
Q 2544 4750 2975 4387 
Q 3406 4025 3406 3419 
Q 3406 3131 3298 2873 
Q 3191 2616 2906 2266 
Q 2828 2175 2409 1742 
Q 1991 1309 1228 531 
z
" transform="scale(0.015625)"/>
      </defs>
      <use xlink:href="#DejaVuSans-32"/>
     </g>
    </g>
   </g>
   <g id="text_4">
    <g clip-path="url(#pca8a1a4ffd)">
     <!-- 3 -->
     <g style="fill: #ffffff" transform="translate(75.461424 153.540214) scale(0.12 -0.12)">
      <defs>
       <path id="DejaVuSans-33" d="M 2597 2516 
Q 3050 2419 3304 2112 
Q 3559 1806 3559 1356 
Q 3559 666 3084 287 
Q 2609 -91 1734 -91 
Q 1441 -91 1130 -33 
Q 819 25 488 141 
L 488 750 
Q 750 597 1062 519 
Q 1375 441 1716 441 
Q 2309 441 2620 675 
Q 2931 909 2931 1356 
Q 2931 1769 2642 2001 
Q 2353 2234 1838 2234 
L 1294 2234 
L 1294 2753 
L 1863 2753 
Q 2328 2753 2575 2939 
Q 2822 3125 2822 3475 
Q 2822 3834 2567 4026 
Q 2313 4219 1838 4219 
Q 1578 4219 1281 4162 
Q 984 4106 628 3988 
L 628 4550 
Q 988 4650 1302 4700 
Q 1616 4750 1894 4750 
Q 2613 4750 3031 4423 
Q 3450 4097 3450 3541 
Q 3450 3153 3228 2886 
Q 3006 2619 2597 2516 
z
" transform="scale(0.015625)"/>
      </defs>
      <use xlink:href="#DejaVuSans-33"/>
     </g>
    </g>
   </g>
   <g id="text_5">
    <g clip-path="url(#pca8a1a4ffd)">
     <!-- 4 -->
     <g style="fill: #ffffff" transform="translate(145.896995 116.613467) scale(0.12 -0.12)">
      <defs>
       <path id="DejaVuSans-34" d="M 2419 4116 
L 825 1625 
L 2419 1625 
L 2419 4116 
z
M 2253 4666 
L 3047 4666 
L 3047 1625 
L 3713 1625 
L 3713 1100 
L 3047 1100 
L 3047 0 
L 2419 0 
L 2419 1100 
L 313 1100 
L 313 1709 
L 2253 4666 
z
" transform="scale(0.015625)"/>
      </defs>
      <use xlink:href="#DejaVuSans-34"/>
     </g>
    </g>
   </g>
   <g id="text_6">
    <g clip-path="url(#pca8a1a4ffd)">
     <!-- 5 -->
     <g style="fill: #ffffff" transform="translate(39.310359 286.512972) scale(0.12 -0.12)">
      <defs>
       <path id="DejaVuSans-35" d="M 691 4666 
L 3169 4666 
L 3169 4134 
L 1269 4134 
L 1269 2991 
Q 1406 3038 1543 3061 
Q 1681 3084 1819 3084 
Q 2600 3084 3056 2656 
Q 3513 2228 3513 1497 
Q 3513 744 3044 326 
Q 2575 -91 1722 -91 
Q 1428 -91 1123 -41 
Q 819 9 494 109 
L 494 744 
Q 775 591 1075 516 
Q 1375 441 1709 441 
Q 2250 441 2565 725 
Q 2881 1009 2881 1497 
Q 2881 1984 2565 2268 
Q 2250 2553 1709 2553 
Q 1456 2553 1204 2497 
Q 953 2441 691 2322 
L 691 4666 
z
" transform="scale(0.015625)"/>
      </defs>
      <use xlink:href="#DejaVuSans-35"/>
     </g>
    </g>
   </g>
   <g id="text_7">
    <g clip-path="url(#pca8a1a4ffd)">
     <!-- 6 -->
     <g style="fill: #ffffff" transform="translate(375.209972 44.303308) scale(0.12 -0.12)">
      <defs>
       <path id="DejaVuSans-36" d="M 2113 2584 
Q 1688 2584 1439 2293 
Q 1191 2003 1191 1497 
Q 1191 994 1439 701 
Q 1688 409 2113 409 
Q 2538 409 2786 701 
Q 3034 994 3034 1497 
Q 3034 2003 2786 2293 
Q 2538 2584 2113 2584 
z
M 3366 4563 
L 3366 3988 
Q 3128 4100 2886 4159 
Q 2644 4219 2406 4219 
Q 1781 4219 1451 3797 
Q 1122 3375 1075 2522 
Q 1259 2794 1537 2939 
Q 1816 3084 2150 3084 
Q 2853 3084 3261 2657 
Q 3669 2231 3669 1497 
Q 3669 778 3244 343 
Q 2819 -91 2113 -91 
Q 1303 -91 875 529 
Q 447 1150 447 2328 
Q 447 3434 972 4092 
Q 1497 4750 2381 4750 
Q 2619 4750 2861 4703 
Q 3103 4656 3366 4563 
z
" transform="scale(0.015625)"/>
      </defs>
      <use xlink:href="#DejaVuSans-36"/>
     </g>
    </g>
   </g>
   <g id="text_8">
    <g clip-path="url(#pca8a1a4ffd)">
     <!-- 7 -->
     <g style="fill: #ffffff" transform="translate(336.960321 125.068086) scale(0.12 -0.12)">
      <defs>
       <path id="DejaVuSans-37" d="M 525 4666 
L 3525 4666 
L 3525 4397 
L 1831 0 
L 1172 0 
L 2766 4134 
L 525 4134 
L 525 4666 
z
" transform="scale(0.015625)"/>
      </defs>
      <use xlink:href="#DejaVuSans-37"/>
     </g>
    </g>
   </g>
   <g id="text_9">
    <g clip-path="url(#pca8a1a4ffd)">
     <!-- 8 -->
     <g style="fill: #ffffff" transform="translate(285.781795 175.416469) scale(0.12 -0.12)">
      <defs>
       <path id="DejaVuSans-38" d="M 2034 2216 
Q 1584 2216 1326 1975 
Q 1069 1734 1069 1313 
Q 1069 891 1326 650 
Q 1584 409 2034 409 
Q 2484 409 2743 651 
Q 3003 894 3003 1313 
Q 3003 1734 2745 1975 
Q 2488 2216 2034 2216 
z
M 1403 2484 
Q 997 2584 770 2862 
Q 544 3141 544 3541 
Q 544 4100 942 4425 
Q 1341 4750 2034 4750 
Q 2731 4750 3128 4425 
Q 3525 4100 3525 3541 
Q 3525 3141 3298 2862 
Q 3072 2584 2669 2484 
Q 3125 2378 3379 2068 
Q 3634 1759 3634 1313 
Q 3634 634 3220 271 
Q 2806 -91 2034 -91 
Q 1263 -91 848 271 
Q 434 634 434 1313 
Q 434 1759 690 2068 
Q 947 2378 1403 2484 
z
M 1172 3481 
Q 1172 3119 1398 2916 
Q 1625 2713 2034 2713 
Q 2441 2713 2670 2916 
Q 2900 3119 2900 3481 
Q 2900 3844 2670 4047 
Q 2441 4250 2034 4250 
Q 1625 4250 1398 4047 
Q 1172 3844 1172 3481 
z
" transform="scale(0.015625)"/>
      </defs>
      <use xlink:href="#DejaVuSans-38"/>
     </g>
    </g>
   </g>
   <g id="text_10">
    <g clip-path="url(#pca8a1a4ffd)">
     <!-- 9 -->
     <g style="fill: #ffffff" transform="translate(386.851161 98.676908) scale(0.12 -0.12)">
      <defs>
       <path id="DejaVuSans-39" d="M 703 97 
L 703 672 
Q 941 559 1184 500 
Q 1428 441 1663 441 
Q 2288 441 2617 861 
Q 2947 1281 2994 2138 
Q 2813 1869 2534 1725 
Q 2256 1581 1919 1581 
Q 1219 1581 811 2004 
Q 403 2428 403 3163 
Q 403 3881 828 4315 
Q 1253 4750 1959 4750 
Q 2769 4750 3195 4129 
Q 3622 3509 3622 2328 
Q 3622 1225 3098 567 
Q 2575 -91 1691 -91 
Q 1453 -91 1209 -44 
Q 966 3 703 97 
z
M 1959 2075 
Q 2384 2075 2632 2365 
Q 2881 2656 2881 3163 
Q 2881 3666 2632 3958 
Q 2384 4250 1959 4250 
Q 1534 4250 1286 3958 
Q 1038 3666 1038 3163 
Q 1038 2656 1286 2365 
Q 1534 2075 1959 2075 
z
" transform="scale(0.015625)"/>
      </defs>
      <use xlink:href="#DejaVuSans-39"/>
     </g>
    </g>
   </g>
   <g id="text_11">
    <g clip-path="url(#pca8a1a4ffd)">
     <!-- 10 -->
     <g style="fill: #ffffff" transform="translate(347.22447 80.57198) scale(0.12 -0.12)">
      <use xlink:href="#DejaVuSans-31"/>
      <use xlink:href="#DejaVuSans-30" transform="translate(63.623047 0)"/>
     </g>
    </g>
   </g>
   <g id="text_12">
    <g clip-path="url(#pca8a1a4ffd)">
     <!-- 11 -->
     <g style="fill: #ffffff" transform="translate(77.212105 296.417307) scale(0.12 -0.12)">
      <use xlink:href="#DejaVuSans-31"/>
      <use xlink:href="#DejaVuSans-31" transform="translate(63.623047 0)"/>
     </g>
    </g>
   </g>
   <g id="text_13">
    <g clip-path="url(#pca8a1a4ffd)">
     <!-- 12 -->
     <g style="fill: #ffffff" transform="translate(99.483239 270.245564) scale(0.12 -0.12)">
      <use xlink:href="#DejaVuSans-31"/>
      <use xlink:href="#DejaVuSans-32" transform="translate(63.623047 0)"/>
     </g>
    </g>
   </g>
   <g id="text_14">
    <g clip-path="url(#pca8a1a4ffd)">
     <!-- 13 -->
     <g style="fill: #ffffff" transform="translate(318.777492 230.439536) scale(0.12 -0.12)">
      <use xlink:href="#DejaVuSans-31"/>
      <use xlink:href="#DejaVuSans-33" transform="translate(63.623047 0)"/>
     </g>
    </g>
   </g>
   <g id="text_15">
    <g clip-path="url(#pca8a1a4ffd)">
     <!-- 14 -->
     <g style="fill: #ffffff" transform="translate(154.552885 154.245003) scale(0.12 -0.12)">
      <use xlink:href="#DejaVuSans-31"/>
      <use xlink:href="#DejaVuSans-34" transform="translate(63.623047 0)"/>
     </g>
    </g>
   </g>
   <g id="text_16">
    <g clip-path="url(#pca8a1a4ffd)">
     <!-- 15 -->
     <g style="fill: #ffffff" transform="translate(114.204521 176.900325) scale(0.12 -0.12)">
      <use xlink:href="#DejaVuSans-31"/>
      <use xlink:href="#DejaVuSans-35" transform="translate(63.623047 0)"/>
     </g>
    </g>
   </g>
   <g id="text_17">
    <g clip-path="url(#pca8a1a4ffd)">
     <!-- 16 -->
     <g style="fill: #ffffff" transform="translate(408.808386 33.301333) scale(0.12 -0.12)">
      <use xlink:href="#DejaVuSans-31"/>
      <use xlink:href="#DejaVuSans-36" transform="translate(63.623047 0)"/>
     </g>
    </g>
   </g>
   <g id="text_18">
    <g clip-path="url(#pca8a1a4ffd)">
     <!-- 17 -->
     <g style="fill: #ffffff" transform="translate(413.178223 65.198779) scale(0.12 -0.12)">
      <use xlink:href="#DejaVuSans-31"/>
      <use xlink:href="#DejaVuSans-37" transform="translate(63.623047 0)"/>
     </g>
    </g>
   </g>
   <g id="text_19">
    <g clip-path="url(#pca8a1a4ffd)">
     <!-- 18 -->
     <g style="fill: #ffffff" transform="translate(195.327293 170.584865) scale(0.12 -0.12)">
      <use xlink:href="#DejaVuSans-31"/>
      <use xlink:href="#DejaVuSans-38" transform="translate(63.623047 0)"/>
     </g>
    </g>
   </g>
   <g id="text_20">
    <g clip-path="url(#pca8a1a4ffd)">
     <!-- 19 -->
     <g style="fill: #ffffff" transform="translate(133.170445 195.006663) scale(0.12 -0.12)">
      <use xlink:href="#DejaVuSans-31"/>
      <use xlink:href="#DejaVuSans-39" transform="translate(63.623047 0)"/>
     </g>
    </g>
   </g>
   <g id="text_21">
    <g clip-path="url(#pca8a1a4ffd)">
     <!-- 20 -->
     <g style="fill: #ffffff" transform="translate(70.466476 214.905456) scale(0.12 -0.12)">
      <use xlink:href="#DejaVuSans-32"/>
      <use xlink:href="#DejaVuSans-30" transform="translate(63.623047 0)"/>
     </g>
    </g>
   </g>
   <g id="text_22">
    <g clip-path="url(#pca8a1a4ffd)">
     <!-- 21 -->
     <g style="fill: #ffffff" transform="translate(104.342176 230.828719) scale(0.12 -0.12)">
      <use xlink:href="#DejaVuSans-32"/>
      <use xlink:href="#DejaVuSans-31" transform="translate(63.623047 0)"/>
     </g>
    </g>
   </g>
   <g id="text_23">
    <g clip-path="url(#pca8a1a4ffd)">
     <!-- 22 -->
     <g style="fill: #ffffff" transform="translate(388.415691 303.533731) scale(0.12 -0.12)">
      <use xlink:href="#DejaVuSans-32"/>
      <use xlink:href="#DejaVuSans-32" transform="translate(63.623047 0)"/>
     </g>
    </g>
   </g>
  </g>
 </g>
 <defs>
  <clipPath id="pca8a1a4ffd">
   <rect x="0" y="0" width="460.8" height="345.6"/>
  </clipPath>
 </defs>
</svg>
