<?xml version="1.0" encoding="utf-8" standalone="no"?>
<!DOCTYPE svg PUBLIC "-//W3C//DTD SVG 1.1//EN"
  "http://www.w3.org/Graphics/SVG/1.1/DTD/svg11.dtd">
<svg xmlns:xlink="http://www.w3.org/1999/xlink" width="460.8pt" height="345.6pt" viewBox="0 0 460.8 345.6" xmlns="http://www.w3.org/2000/svg" version="1.1">
 <metadata>
  <rdf:RDF xmlns:dc="http://purl.org/dc/elements/1.1/" xmlns:cc="http://creativecommons.org/ns#" xmlns:rdf="http://www.w3.org/1999/02/22-rdf-syntax-ns#">
   <cc:Work>
    <dc:type rdf:resource="http://purl.org/dc/dcmitype/StillImage"/>
    <dc:date>2025-10-19T16:04:38.573989</dc:date>
    <dc:format>image/svg+xml</dc:format>
    <dc:creator>
     <cc:Agent>
      <dc:title>Matplotlib v3.10.7, https://matplotlib.org/</dc:title>
     </cc:Agent>
    </dc:creator>
   </cc:Work>
  </rdf:RDF>
 </metadata>
 <defs>
  <style type="text/css">*{stroke-linejoin: round; stroke-linecap: butt}</style>
 </defs>
 <g id="figure_1">
  <g id="patch_1">
   <path d="M 0 345.6 
L 460.8 345.6 
L 460.8 0 
L 0 0 
z
" style="fill: #ffffff"/>
  </g>
  <g id="axes_1">
   <g id="patch_2">
    <path d="M 134.753544 301.690597 
Q 145.639469 296.809236 155.505228 292.385328 
" clip-path="url(#pe1fcb10126)" style="fill: none; stroke: #000000; stroke-linecap: round"/>
    <path d="M 151.037058 292.197033 
L 155.505228 292.385328 
L 152.67369 295.846887 
z
" clip-path="url(#pe1fcb10126)" style="stroke: #000000; stroke-linecap: round"/>
   </g>
   <g id="patch_3">
    <path d="M 121.566348 56.814141 
Q 128.598615 66.826284 134.988274 75.92352 
" clip-path="url(#pe1fcb10126)" style="fill: none; stroke: #000000; stroke-linecap: round"/>
    <path d="M 134.32585 71.500716 
L 134.988274 75.92352 
L 131.052576 73.799777 
z
" clip-path="url(#pe1fcb10126)" style="stroke: #000000; stroke-linecap: round"/>
   </g>
   <g id="patch_4">
    <path d="M 108.88607 45.768466 
Q 97.388824 39.858313 86.885927 34.459306 
" clip-path="url(#pe1fcb10126)" style="fill: none; stroke: #000000; stroke-linecap: round"/>
    <path d="M 89.529057 38.066779 
L 86.885927 34.459306 
L 91.357784 34.509286 
z
" clip-path="url(#pe1fcb10126)" style="stroke: #000000; stroke-linecap: round"/>
   </g>
   <g id="patch_5">
    <path d="M 156.524978 291.928061 
Q 145.639054 296.809422 135.773295 301.23333 
" clip-path="url(#pe1fcb10126)" style="fill: none; stroke: #000000; stroke-linecap: round"/>
    <path d="M 140.241465 301.421625 
L 135.773295 301.23333 
L 138.604833 297.771771 
z
" clip-path="url(#pe1fcb10126)" style="stroke: #000000; stroke-linecap: round"/>
   </g>
   <g id="patch_6">
    <path d="M 163.849501 297.029467 
Q 163.518653 301.998921 163.262074 305.852811 
" clip-path="url(#pe1fcb10126)" style="fill: none; stroke: #000000; stroke-linecap: round"/>
    <path d="M 165.523374 301.994505 
L 163.262074 305.852811 
L 161.53221 301.728787 
z
" clip-path="url(#pe1fcb10126)" style="stroke: #000000; stroke-linecap: round"/>
   </g>
   <g id="patch_7">
    <path d="M 170.399993 282.119462 
Q 181.112243 270.88524 191.052945 260.460161 
" clip-path="url(#pe1fcb10126)" style="fill: none; stroke: #000000; stroke-linecap: round"/>
    <path d="M 186.84513 261.974852 
L 191.052945 260.460161 
L 189.740009 264.735228 
z
" clip-path="url(#pe1fcb10126)" style="stroke: #000000; stroke-linecap: round"/>
   </g>
   <g id="patch_8">
    <path d="M 215.84682 105.881981 
Q 205.011724 110.708465 195.19792 115.080015 
" clip-path="url(#pe1fcb10126)" style="fill: none; stroke: #000000; stroke-linecap: round"/>
    <path d="M 199.665612 115.279338 
L 195.19792 115.080015 
L 198.037993 111.625455 
z
" clip-path="url(#pe1fcb10126)" style="stroke: #000000; stroke-linecap: round"/>
   </g>
   <g id="patch_9">
    <path d="M 108.266558 161.744561 
Q 118.197689 157.904324 127.086034 154.46732 
" clip-path="url(#pe1fcb10126)" style="fill: none; stroke: #000000; stroke-linecap: round"/>
    <path d="M 122.633924 154.044572 
L 127.086034 154.46732 
L 124.076569 157.775359 
z
" clip-path="url(#pe1fcb10126)" style="stroke: #000000; stroke-linecap: round"/>
   </g>
   <g id="patch_10">
    <path d="M 85.895231 33.950039 
Q 97.392477 39.860191 107.895374 45.259199 
" clip-path="url(#pe1fcb10126)" style="fill: none; stroke: #000000; stroke-linecap: round"/>
    <path d="M 105.252244 41.651725 
L 107.895374 45.259199 
L 103.423517 45.209218 
z
" clip-path="url(#pe1fcb10126)" style="stroke: #000000; stroke-linecap: round"/>
   </g>
   <g id="patch_11">
    <path d="M 69.736495 31.873924 
Q 59.086953 34.246648 49.528687 36.376234 
" clip-path="url(#pe1fcb10126)" style="fill: none; stroke: #000000; stroke-linecap: round"/>
    <path d="M 53.867894 37.458496 
L 49.528687 36.376234 
L 52.99802 33.554226 
z
" clip-path="url(#pe1fcb10126)" style="stroke: #000000; stroke-linecap: round"/>
   </g>
   <g id="patch_12">
    <path d="M 413.81875 267.491647 
Q 415.56993 271.46796 416.870489 274.421072 
" clip-path="url(#pe1fcb10126)" style="fill: none; stroke: #000000; stroke-linecap: round"/>
    <path d="M 417.088657 269.95426 
L 416.870489 274.421072 
L 413.427941 271.56645 
z
" clip-path="url(#pe1fcb10126)" style="stroke: #000000; stroke-linecap: round"/>
   </g>
   <g id="patch_13">
    <path d="M 402.114707 256.826038 
Q 387.725951 252.025143 374.397752 247.57811 
" clip-path="url(#pe1fcb10126)" style="fill: none; stroke: #000000; stroke-linecap: round"/>
    <path d="M 377.559111 250.741306 
L 374.397752 247.57811 
L 378.825124 246.94694 
z
" clip-path="url(#pe1fcb10126)" style="stroke: #000000; stroke-linecap: round"/>
   </g>
   <g id="patch_14">
    <path d="M 297.51457 236.214044 
Q 269.750324 227.330888 243.050937 218.788432 
" clip-path="url(#pe1fcb10126)" style="fill: none; stroke: #000000; stroke-linecap: round"/>
    <path d="M 246.251225 221.912237 
L 243.050937 218.788432 
L 247.470154 218.102484 
z
" clip-path="url(#pe1fcb10126)" style="stroke: #000000; stroke-linecap: round"/>
   </g>
   <g id="patch_15">
    <path d="M 312.611192 244.163299 
Q 323.851106 252.881419 334.207583 260.914309 
" clip-path="url(#pe1fcb10126)" style="fill: none; stroke: #000000; stroke-linecap: round"/>
    <path d="M 332.272676 256.88242 
L 334.207583 260.914309 
L 329.821127 260.043101 
z
" clip-path="url(#pe1fcb10126)" style="stroke: #000000; stroke-linecap: round"/>
   </g>
   <g id="patch_16">
    <path d="M 314.385205 239.671628 
Q 335.442003 241.66867 355.385762 243.560151 
" clip-path="url(#pe1fcb10126)" style="fill: none; stroke: #000000; stroke-linecap: round"/>
    <path d="M 351.592466 241.191417 
L 355.385762 243.560151 
L 351.214797 245.173548 
z
" clip-path="url(#pe1fcb10126)" style="stroke: #000000; stroke-linecap: round"/>
   </g>
   <g id="patch_17">
    <path d="M 227.751961 222.067085 
Q 215.77031 234.594892 204.561419 246.314715 
" clip-path="url(#pe1fcb10126)" style="fill: none; stroke: #000000; stroke-linecap: round"/>
    <path d="M 208.771501 244.806335 
L 204.561419 246.314715 
L 205.880765 242.041621 
z
" clip-path="url(#pe1fcb10126)" style="stroke: #000000; stroke-linecap: round"/>
   </g>
   <g id="patch_18">
    <path d="M 241.989415 218.448799 
Q 269.753661 227.331955 296.453049 235.874411 
" clip-path="url(#pe1fcb10126)" style="fill: none; stroke: #000000; stroke-linecap: round"/>
    <path d="M 293.25276 232.750606 
L 296.453049 235.874411 
L 292.033832 236.560359 
z
" clip-path="url(#pe1fcb10126)" style="stroke: #000000; stroke-linecap: round"/>
   </g>
   <g id="patch_19">
    <path d="M 228.363017 209.013572 
Q 214.053893 190.922549 200.43835 173.70842 
" clip-path="url(#pe1fcb10126)" style="fill: none; stroke: #000000; stroke-linecap: round"/>
    <path d="M 201.351145 178.086411 
L 200.43835 173.70842 
L 204.488419 175.604978 
z
" clip-path="url(#pe1fcb10126)" style="stroke: #000000; stroke-linecap: round"/>
   </g>
   <g id="patch_20">
    <path d="M 335.085744 261.595446 
Q 323.84583 252.877327 313.489354 244.844436 
" clip-path="url(#pe1fcb10126)" style="fill: none; stroke: #000000; stroke-linecap: round"/>
    <path d="M 315.424261 248.876326 
L 313.489354 244.844436 
L 317.87581 245.715644 
z
" clip-path="url(#pe1fcb10126)" style="stroke: #000000; stroke-linecap: round"/>
   </g>
   <g id="patch_21">
    <path d="M 349.71453 270.695625 
Q 361.652038 276.50963 372.584389 281.834087 
" clip-path="url(#pe1fcb10126)" style="fill: none; stroke: #000000; stroke-linecap: round"/>
    <path d="M 369.863959 278.284543 
L 372.584389 281.834087 
L 368.112496 281.880705 
z
" clip-path="url(#pe1fcb10126)" style="stroke: #000000; stroke-linecap: round"/>
   </g>
   <g id="patch_22">
    <path d="M 373.337279 247.224277 
Q 387.726035 252.025172 401.054234 256.472205 
" clip-path="url(#pe1fcb10126)" style="fill: none; stroke: #000000; stroke-linecap: round"/>
    <path d="M 397.892875 253.309009 
L 401.054234 256.472205 
L 396.626862 257.103375 
z
" clip-path="url(#pe1fcb10126)" style="stroke: #000000; stroke-linecap: round"/>
   </g>
   <g id="patch_23">
    <path d="M 356.504637 243.666266 
Q 335.447839 241.669224 315.504079 239.777743 
" clip-path="url(#pe1fcb10126)" style="fill: none; stroke: #000000; stroke-linecap: round"/>
    <path d="M 319.297376 242.146477 
L 315.504079 239.777743 
L 319.675045 238.164346 
z
" clip-path="url(#pe1fcb10126)" style="stroke: #000000; stroke-linecap: round"/>
   </g>
   <g id="patch_24">
    <path d="M 48.442058 36.618336 
Q 59.0916 34.245612 68.649866 32.116025 
" clip-path="url(#pe1fcb10126)" style="fill: none; stroke: #000000; stroke-linecap: round"/>
    <path d="M 64.31066 31.033764 
L 68.649866 32.116025 
L 65.180533 34.938034 
z
" clip-path="url(#pe1fcb10126)" style="stroke: #000000; stroke-linecap: round"/>
   </g>
   <g id="patch_25">
    <path d="M 43.418612 46.455771 
Q 45.558175 51.414406 47.2548 55.346491 
" clip-path="url(#pe1fcb10126)" style="fill: none; stroke: #000000; stroke-linecap: round"/>
    <path d="M 47.506445 50.881441 
L 47.2548 55.346491 
L 43.833747 52.466145 
z
" clip-path="url(#pe1fcb10126)" style="stroke: #000000; stroke-linecap: round"/>
   </g>
   <g id="patch_26">
    <path d="M 47.697865 56.373333 
Q 45.558301 51.414698 43.861676 47.482614 
" clip-path="url(#pe1fcb10126)" style="fill: none; stroke: #000000; stroke-linecap: round"/>
    <path d="M 43.610032 51.947664 
L 43.861676 47.482614 
L 47.28273 50.36296 
z
" clip-path="url(#pe1fcb10126)" style="stroke: #000000; stroke-linecap: round"/>
   </g>
   <g id="patch_27">
    <path d="M 58.532248 68.816274 
Q 70.901374 76.317648 82.314529 83.239265 
" clip-path="url(#pe1fcb10126)" style="fill: none; stroke: #000000; stroke-linecap: round"/>
    <path d="M 79.931445 79.454967 
L 82.314529 83.239265 
L 77.857241 82.875154 
z
" clip-path="url(#pe1fcb10126)" style="stroke: #000000; stroke-linecap: round"/>
   </g>
   <g id="patch_28">
    <path d="M 191.826931 259.648461 
Q 181.11468 270.882684 171.173978 281.307763 
" clip-path="url(#pe1fcb10126)" style="fill: none; stroke: #000000; stroke-linecap: round"/>
    <path d="M 175.381794 279.793071 
L 171.173978 281.307763 
L 172.486914 277.032695 
z
" clip-path="url(#pe1fcb10126)" style="stroke: #000000; stroke-linecap: round"/>
   </g>
   <g id="patch_29">
    <path d="M 203.787562 247.123846 
Q 215.769213 234.596039 226.978104 222.876216 
" clip-path="url(#pe1fcb10126)" style="fill: none; stroke: #000000; stroke-linecap: round"/>
    <path d="M 222.768022 224.384596 
L 226.978104 222.876216 
L 225.658759 227.14931 
z
" clip-path="url(#pe1fcb10126)" style="stroke: #000000; stroke-linecap: round"/>
   </g>
   <g id="patch_30">
    <path d="M 129.94896 144.952279 
Q 120.414886 135.83456 111.688827 127.48957 
" clip-path="url(#pe1fcb10126)" style="fill: none; stroke: #000000; stroke-linecap: round"/>
    <path d="M 113.197371 131.699593 
L 111.688827 127.48957 
L 115.961972 128.808749 
z
" clip-path="url(#pe1fcb10126)" style="stroke: #000000; stroke-linecap: round"/>
   </g>
   <g id="patch_31">
    <path d="M 128.132197 154.062782 
Q 118.201066 157.903019 109.312722 161.340023 
" clip-path="url(#pe1fcb10126)" style="fill: none; stroke: #000000; stroke-linecap: round"/>
    <path d="M 113.764832 161.762771 
L 109.312722 161.340023 
L 112.322186 158.031984 
z
" clip-path="url(#pe1fcb10126)" style="stroke: #000000; stroke-linecap: round"/>
   </g>
   <g id="patch_32">
    <path d="M 144.591192 153.115604 
Q 165.290896 158.490008 184.908445 163.583446 
" clip-path="url(#pe1fcb10126)" style="fill: none; stroke: #000000; stroke-linecap: round"/>
    <path d="M 181.539422 160.642412 
L 184.908445 163.583446 
L 180.534204 164.514044 
z
" clip-path="url(#pe1fcb10126)" style="stroke: #000000; stroke-linecap: round"/>
   </g>
   <g id="patch_33">
    <path d="M 187.738148 127.595955 
Q 190.31926 142.550195 192.710211 156.402691 
" clip-path="url(#pe1fcb10126)" style="fill: none; stroke: #000000; stroke-linecap: round"/>
    <path d="M 194.000726 152.120802 
L 192.710211 156.402691 
L 190.059009 152.801145 
z
" clip-path="url(#pe1fcb10126)" style="stroke: #000000; stroke-linecap: round"/>
   </g>
   <g id="patch_34">
    <path d="M 194.175703 115.535361 
Q 205.010799 110.708877 214.824603 106.337327 
" clip-path="url(#pe1fcb10126)" style="fill: none; stroke: #000000; stroke-linecap: round"/>
    <path d="M 210.356911 106.138004 
L 214.824603 106.337327 
L 211.98453 109.791887 
z
" clip-path="url(#pe1fcb10126)" style="stroke: #000000; stroke-linecap: round"/>
   </g>
   <g id="patch_35">
    <path d="M 179.401052 113.777358 
Q 163.436267 101.491629 148.357526 89.887756 
" clip-path="url(#pe1fcb10126)" style="fill: none; stroke: #000000; stroke-linecap: round"/>
    <path d="M 150.307789 93.91224 
L 148.357526 89.887756 
L 152.747271 90.742236 
z
" clip-path="url(#pe1fcb10126)" style="stroke: #000000; stroke-linecap: round"/>
   </g>
   <g id="patch_36">
    <path d="M 412.172287 283.974709 
Q 401.096127 284.745181 391.135306 285.438068 
" clip-path="url(#pe1fcb10126)" style="fill: none; stroke: #000000; stroke-linecap: round"/>
    <path d="M 395.264451 287.155672 
L 391.135306 285.438068 
L 394.986876 283.165315 
z
" clip-path="url(#pe1fcb10126)" style="stroke: #000000; stroke-linecap: round"/>
   </g>
   <g id="patch_37">
    <path d="M 417.323026 275.448624 
Q 415.571846 271.472311 414.271287 268.519199 
" clip-path="url(#pe1fcb10126)" style="fill: none; stroke: #000000; stroke-linecap: round"/>
    <path d="M 414.053119 272.986011 
L 414.271287 268.519199 
L 417.713835 271.373821 
z
" clip-path="url(#pe1fcb10126)" style="stroke: #000000; stroke-linecap: round"/>
   </g>
   <g id="patch_38">
    <path d="M 373.593817 282.325716 
Q 361.656308 276.51171 350.723958 271.187254 
" clip-path="url(#pe1fcb10126)" style="fill: none; stroke: #000000; stroke-linecap: round"/>
    <path d="M 353.444388 274.736797 
L 350.723958 271.187254 
L 355.195851 271.140636 
z
" clip-path="url(#pe1fcb10126)" style="stroke: #000000; stroke-linecap: round"/>
   </g>
   <g id="patch_39">
    <path d="M 390.018755 285.515737 
Q 401.094915 284.745265 411.055736 284.052378 
" clip-path="url(#pe1fcb10126)" style="fill: none; stroke: #000000; stroke-linecap: round"/>
    <path d="M 406.926591 282.334773 
L 411.055736 284.052378 
L 407.204165 286.325131 
z
" clip-path="url(#pe1fcb10126)" style="stroke: #000000; stroke-linecap: round"/>
   </g>
   <g id="patch_40">
    <path d="M 199.74835 172.836053 
Q 214.057474 190.927077 227.673017 208.141206 
" clip-path="url(#pe1fcb10126)" style="fill: none; stroke: #000000; stroke-linecap: round"/>
    <path d="M 226.760222 203.763215 
L 227.673017 208.141206 
L 223.622948 206.244647 
z
" clip-path="url(#pe1fcb10126)" style="stroke: #000000; stroke-linecap: round"/>
   </g>
   <g id="patch_41">
    <path d="M 192.900357 157.504346 
Q 190.319245 142.550107 187.928294 128.697611 
" clip-path="url(#pe1fcb10126)" style="fill: none; stroke: #000000; stroke-linecap: round"/>
    <path d="M 186.637779 132.979499 
L 187.928294 128.697611 
L 190.579496 132.299156 
z
" clip-path="url(#pe1fcb10126)" style="stroke: #000000; stroke-linecap: round"/>
   </g>
   <g id="patch_42">
    <path d="M 185.99208 163.864798 
Q 165.292377 158.490393 145.674827 153.396955 
" clip-path="url(#pe1fcb10126)" style="fill: none; stroke: #000000; stroke-linecap: round"/>
    <path d="M 149.04385 156.337989 
L 145.674827 153.396955 
L 150.049069 152.466357 
z
" clip-path="url(#pe1fcb10126)" style="stroke: #000000; stroke-linecap: round"/>
   </g>
   <g id="patch_43">
    <path d="M 101.196252 112.770493 
Q 97.64677 104.518669 94.539068 97.293893 
" clip-path="url(#pe1fcb10126)" style="fill: none; stroke: #000000; stroke-linecap: round"/>
    <path d="M 94.282387 101.758657 
L 94.539068 97.293893 
L 97.95687 100.178096 
z
" clip-path="url(#pe1fcb10126)" style="stroke: #000000; stroke-linecap: round"/>
   </g>
   <g id="patch_44">
    <path d="M 110.880105 126.716165 
Q 120.414179 135.833884 129.140238 144.178874 
" clip-path="url(#pe1fcb10126)" style="fill: none; stroke: #000000; stroke-linecap: round"/>
    <path d="M 127.631694 139.968851 
L 129.140238 144.178874 
L 124.867093 142.859695 
z
" clip-path="url(#pe1fcb10126)" style="stroke: #000000; stroke-linecap: round"/>
   </g>
   <g id="patch_45">
    <path d="M 147.470941 89.205482 
Q 163.435725 101.491211 178.514467 113.095085 
" clip-path="url(#pe1fcb10126)" style="fill: none; stroke: #000000; stroke-linecap: round"/>
    <path d="M 176.564204 109.0706 
L 178.514467 113.095085 
L 174.124721 112.240604 
z
" clip-path="url(#pe1fcb10126)" style="stroke: #000000; stroke-linecap: round"/>
   </g>
   <g id="patch_46">
    <path d="M 135.630454 76.837818 
Q 128.598187 66.825675 122.208527 57.728439 
" clip-path="url(#pe1fcb10126)" style="fill: none; stroke: #000000; stroke-linecap: round"/>
    <path d="M 122.870952 62.151243 
L 122.208527 57.728439 
L 126.144225 59.852182 
z
" clip-path="url(#pe1fcb10126)" style="stroke: #000000; stroke-linecap: round"/>
   </g>
   <g id="patch_47">
    <path d="M 131.979335 84.681328 
Q 115.639097 86.116488 100.412606 87.453828 
" clip-path="url(#pe1fcb10126)" style="fill: none; stroke: #000000; stroke-linecap: round"/>
    <path d="M 104.572253 89.096186 
L 100.412606 87.453828 
L 104.222281 85.111526 
z
" clip-path="url(#pe1fcb10126)" style="stroke: #000000; stroke-linecap: round"/>
   </g>
   <g id="patch_48">
    <path d="M 83.271772 83.819794 
Q 70.902646 76.318419 59.489491 69.396802 
" clip-path="url(#pe1fcb10126)" style="fill: none; stroke: #000000; stroke-linecap: round"/>
    <path d="M 61.872575 73.1811 
L 59.489491 69.396802 
L 63.946779 69.760914 
z
" clip-path="url(#pe1fcb10126)" style="stroke: #000000; stroke-linecap: round"/>
   </g>
   <g id="patch_49">
    <path d="M 94.09765 96.267688 
Q 97.647133 104.519512 100.754835 111.744288 
" clip-path="url(#pe1fcb10126)" style="fill: none; stroke: #000000; stroke-linecap: round"/>
    <path d="M 101.011515 107.279524 
L 100.754835 111.744288 
L 97.337032 108.860085 
z
" clip-path="url(#pe1fcb10126)" style="stroke: #000000; stroke-linecap: round"/>
   </g>
   <g id="patch_50">
    <path d="M 99.302262 87.55135 
Q 115.642499 86.116189 130.868991 84.778849 
" clip-path="url(#pe1fcb10126)" style="fill: none; stroke: #000000; stroke-linecap: round"/>
    <path d="M 126.709344 83.136491 
L 130.868991 84.778849 
L 127.059316 87.121151 
z
" clip-path="url(#pe1fcb10126)" style="stroke: #000000; stroke-linecap: round"/>
   </g>
   <g id="patch_51">
    <path d="M 163.187958 306.96607 
Q 163.518806 301.996616 163.775384 298.142726 
" clip-path="url(#pe1fcb10126)" style="fill: none; stroke: #000000; stroke-linecap: round"/>
    <path d="M 161.514085 302.001032 
L 163.775384 298.142726 
L 165.505249 302.26675 
z
" clip-path="url(#pe1fcb10126)" style="stroke: #000000; stroke-linecap: round"/>
   </g>
   <g id="PathCollection_1">
    <defs>
     <path id="md848f2c931" d="M 0 8.660254 
C 2.296726 8.660254 4.499694 7.747755 6.123724 6.123724 
C 7.747755 4.499694 8.660254 2.296726 8.660254 0 
C 8.660254 -2.296726 7.747755 -4.499694 6.123724 -6.123724 
C 4.499694 -7.747755 2.296726 -8.660254 0 -8.660254 
C -2.296726 -8.660254 -4.499694 -7.747755 -6.123724 -6.123724 
C -7.747755 -4.499694 -8.660254 -2.296726 -8.660254 0 
C -8.660254 2.296726 -7.747755 4.499694 -6.123724 6.123724 
C -4.499694 7.747755 -2.296726 8.660254 0 8.660254 
z
" style="stroke: #808080"/>
    </defs>
    <g clip-path="url(#pe1fcb10126)">
     <use xlink:href="#md848f2c931" x="126.853545" y="305.233038" style="fill: #808080; stroke: #808080"/>
     <use xlink:href="#md848f2c931" x="116.589525" y="49.728422" style="fill: #808080; stroke: #808080"/>
     <use xlink:href="#md848f2c931" x="164.424977" y="288.38562" style="fill: #808080; stroke: #808080"/>
     <use xlink:href="#md848f2c931" x="223.757807" y="102.358039" style="fill: #808080; stroke: #808080"/>
     <use xlink:href="#md848f2c931" x="100.189272" y="164.86794" style="fill: #808080; stroke: #808080"/>
     <use xlink:href="#md848f2c931" x="78.191776" y="29.990083" style="fill: #808080; stroke: #808080"/>
     <use xlink:href="#md848f2c931" x="410.328553" y="259.566636" style="fill: #808080; stroke: #808080"/>
     <use xlink:href="#md848f2c931" x="305.766408" y="238.854215" style="fill: #808080; stroke: #808080"/>
     <use xlink:href="#md848f2c931" x="233.737577" y="215.808628" style="fill: #808080; stroke: #808080"/>
     <use xlink:href="#md848f2c931" x="341.930528" y="266.90453" style="fill: #808080; stroke: #808080"/>
     <use xlink:href="#md848f2c931" x="365.123434" y="244.483679" style="fill: #808080; stroke: #808080"/>
     <use xlink:href="#md848f2c931" x="39.986777" y="38.502177" style="fill: #808080; stroke: #808080"/>
     <use xlink:href="#md848f2c931" x="51.1297" y="64.326928" style="fill: #808080; stroke: #808080"/>
     <use xlink:href="#md848f2c931" x="197.801946" y="253.382303" style="fill: #808080; stroke: #808080"/>
     <use xlink:href="#md848f2c931" x="136.209483" y="150.939403" style="fill: #808080; stroke: #808080"/>
     <use xlink:href="#md848f2c931" x="186.264716" y="119.059303" style="fill: #808080; stroke: #808080"/>
     <use xlink:href="#md848f2c931" x="420.813223" y="283.373635" style="fill: #808080; stroke: #808080"/>
     <use xlink:href="#md848f2c931" x="381.377819" y="286.116811" style="fill: #808080; stroke: #808080"/>
     <use xlink:href="#md848f2c931" x="194.37379" y="166.040998" style="fill: #808080; stroke: #808080"/>
     <use xlink:href="#md848f2c931" x="104.619582" y="120.729041" style="fill: #808080; stroke: #808080"/>
     <use xlink:href="#md848f2c931" x="140.607276" y="83.923537" style="fill: #808080; stroke: #808080"/>
     <use xlink:href="#md848f2c931" x="90.67432" y="88.30914" style="fill: #808080; stroke: #808080"/>
     <use xlink:href="#md848f2c931" x="162.612481" y="315.609917" style="fill: #808080; stroke: #808080"/>
    </g>
   </g>
   <g id="text_1">
    <g clip-path="url(#pe1fcb10126)">
     <!-- 0 -->
     <g style="fill: #ffffff" transform="translate(123.036045 308.544288) scale(0.12 -0.12)">
      <defs>
       <path id="DejaVuSans-30" d="M 2034 4250 
Q 1547 4250 1301 3770 
Q 1056 3291 1056 2328 
Q 1056 1369 1301 889 
Q 1547 409 2034 409 
Q 2525 409 2770 889 
Q 3016 1369 3016 2328 
Q 3016 3291 2770 3770 
Q 2525 4250 2034 4250 
z
M 2034 4750 
Q 2819 4750 3233 4129 
Q 3647 3509 3647 2328 
Q 3647 1150 3233 529 
Q 2819 -91 2034 -91 
Q 1250 -91 836 529 
Q 422 1150 422 2328 
Q 422 3509 836 4129 
Q 1250 4750 2034 4750 
z
" transform="scale(0.015625)"/>
      </defs>
      <use xlink:href="#DejaVuSans-30"/>
     </g>
    </g>
   </g>
   <g id="text_2">
    <g clip-path="url(#pe1fcb10126)">
     <!-- 1 -->
     <g style="fill: #ffffff" transform="translate(112.772025 53.039672) scale(0.12 -0.12)">
      <defs>
       <path id="DejaVuSans-31" d="M 794 531 
L 1825 531 
L 1825 4091 
L 703 3866 
L 703 4441 
L 1819 4666 
L 2450 4666 
L 2450 531 
L 3481 531 
L 3481 0 
L 794 0 
L 794 531 
z
" transform="scale(0.015625)"/>
      </defs>
      <use xlink:href="#DejaVuSans-31"/>
     </g>
    </g>
   </g>
   <g id="text_3">
    <g clip-path="url(#pe1fcb10126)">
     <!-- 2 -->
     <g style="fill: #ffffff" transform="translate(160.607477 291.69687) scale(0.12 -0.12)">
      <defs>
       <path id="DejaVuSans-32" d="M 1228 531 
L 3431 531 
L 3431 0 
L 469 0 
L 469 531 
Q 828 903 1448 1529 
Q 2069 2156 2228 2338 
Q 2531 2678 2651 2914 
Q 2772 3150 2772 3378 
Q 2772 3750 2511 3984 
Q 2250 4219 1831 4219 
Q 1534 4219 1204 4116 
Q 875 4013 500 3803 
L 500 4441 
Q 881 4594 1212 4672 
Q 1544 4750 1819 4750 
Q 2544 4750 2975 4387 
Q 3406 4025 3406 3419 
Q 3406 3131 3298 2873 
Q 3191 2616 2906 2266 
Q 2828 2175 2409 1742 
Q 1991 1309 1228 531 
z
" transform="scale(0.015625)"/>
      </defs>
      <use xlink:href="#DejaVuSans-32"/>
     </g>
    </g>
   </g>
   <g id="text_4">
    <g clip-path="url(#pe1fcb10126)">
     <!-- 3 -->
     <g style="fill: #ffffff" transform="translate(219.940307 105.669289) scale(0.12 -0.12)">
      <defs>
       <path id="DejaVuSans-33" d="M 2597 2516 
Q 3050 2419 3304 2112 
Q 3559 1806 3559 1356 
Q 3559 666 3084 287 
Q 2609 -91 1734 -91 
Q 1441 -91 1130 -33 
Q 819 25 488 141 
L 488 750 
Q 750 597 1062 519 
Q 1375 441 1716 441 
Q 2309 441 2620 675 
Q 2931 909 2931 1356 
Q 2931 1769 2642 2001 
Q 2353 2234 1838 2234 
L 1294 2234 
L 1294 2753 
L 1863 2753 
Q 2328 2753 2575 2939 
Q 2822 3125 2822 3475 
Q 2822 3834 2567 4026 
Q 2313 4219 1838 4219 
Q 1578 4219 1281 4162 
Q 984 4106 628 3988 
L 628 4550 
Q 988 4650 1302 4700 
Q 1616 4750 1894 4750 
Q 2613 4750 3031 4423 
Q 3450 4097 3450 3541 
Q 3450 3153 3228 2886 
Q 3006 2619 2597 2516 
z
" transform="scale(0.015625)"/>
      </defs>
      <use xlink:href="#DejaVuSans-33"/>
     </g>
    </g>
   </g>
   <g id="text_5">
    <g clip-path="url(#pe1fcb10126)">
     <!-- 4 -->
     <g style="fill: #ffffff" transform="translate(96.371772 168.17919) scale(0.12 -0.12)">
      <defs>
       <path id="DejaVuSans-34" d="M 2419 4116 
L 825 1625 
L 2419 1625 
L 2419 4116 
z
M 2253 4666 
L 3047 4666 
L 3047 1625 
L 3713 1625 
L 3713 1100 
L 3047 1100 
L 3047 0 
L 2419 0 
L 2419 1100 
L 313 1100 
L 313 1709 
L 2253 4666 
z
" transform="scale(0.015625)"/>
      </defs>
      <use xlink:href="#DejaVuSans-34"/>
     </g>
    </g>
   </g>
   <g id="text_6">
    <g clip-path="url(#pe1fcb10126)">
     <!-- 5 -->
     <g style="fill: #ffffff" transform="translate(74.374276 33.301333) scale(0.12 -0.12)">
      <defs>
       <path id="DejaVuSans-35" d="M 691 4666 
L 3169 4666 
L 3169 4134 
L 1269 4134 
L 1269 2991 
Q 1406 3038 1543 3061 
Q 1681 3084 1819 3084 
Q 2600 3084 3056 2656 
Q 3513 2228 3513 1497 
Q 3513 744 3044 326 
Q 2575 -91 1722 -91 
Q 1428 -91 1123 -41 
Q 819 9 494 109 
L 494 744 
Q 775 591 1075 516 
Q 1375 441 1709 441 
Q 2250 441 2565 725 
Q 2881 1009 2881 1497 
Q 2881 1984 2565 2268 
Q 2250 2553 1709 2553 
Q 1456 2553 1204 2497 
Q 953 2441 691 2322 
L 691 4666 
z
" transform="scale(0.015625)"/>
      </defs>
      <use xlink:href="#DejaVuSans-35"/>
     </g>
    </g>
   </g>
   <g id="text_7">
    <g clip-path="url(#pe1fcb10126)">
     <!-- 6 -->
     <g style="fill: #ffffff" transform="translate(406.511053 262.877886) scale(0.12 -0.12)">
      <defs>
       <path id="DejaVuSans-36" d="M 2113 2584 
Q 1688 2584 1439 2293 
Q 1191 2003 1191 1497 
Q 1191 994 1439 701 
Q 1688 409 2113 409 
Q 2538 409 2786 701 
Q 3034 994 3034 1497 
Q 3034 2003 2786 2293 
Q 2538 2584 2113 2584 
z
M 3366 4563 
L 3366 3988 
Q 3128 4100 2886 4159 
Q 2644 4219 2406 4219 
Q 1781 4219 1451 3797 
Q 1122 3375 1075 2522 
Q 1259 2794 1537 2939 
Q 1816 3084 2150 3084 
Q 2853 3084 3261 2657 
Q 3669 2231 3669 1497 
Q 3669 778 3244 343 
Q 2819 -91 2113 -91 
Q 1303 -91 875 529 
Q 447 1150 447 2328 
Q 447 3434 972 4092 
Q 1497 4750 2381 4750 
Q 2619 4750 2861 4703 
Q 3103 4656 3366 4563 
z
" transform="scale(0.015625)"/>
      </defs>
      <use xlink:href="#DejaVuSans-36"/>
     </g>
    </g>
   </g>
   <g id="text_8">
    <g clip-path="url(#pe1fcb10126)">
     <!-- 7 -->
     <g style="fill: #ffffff" transform="translate(301.948908 242.165465) scale(0.12 -0.12)">
      <defs>
       <path id="DejaVuSans-37" d="M 525 4666 
L 3525 4666 
L 3525 4397 
L 1831 0 
L 1172 0 
L 2766 4134 
L 525 4134 
L 525 4666 
z
" transform="scale(0.015625)"/>
      </defs>
      <use xlink:href="#DejaVuSans-37"/>
     </g>
    </g>
   </g>
   <g id="text_9">
    <g clip-path="url(#pe1fcb10126)">
     <!-- 8 -->
     <g style="fill: #ffffff" transform="translate(229.920077 219.119878) scale(0.12 -0.12)">
      <defs>
       <path id="DejaVuSans-38" d="M 2034 2216 
Q 1584 2216 1326 1975 
Q 1069 1734 1069 1313 
Q 1069 891 1326 650 
Q 1584 409 2034 409 
Q 2484 409 2743 651 
Q 3003 894 3003 1313 
Q 3003 1734 2745 1975 
Q 2488 2216 2034 2216 
z
M 1403 2484 
Q 997 2584 770 2862 
Q 544 3141 544 3541 
Q 544 4100 942 4425 
Q 1341 4750 2034 4750 
Q 2731 4750 3128 4425 
Q 3525 4100 3525 3541 
Q 3525 3141 3298 2862 
Q 3072 2584 2669 2484 
Q 3125 2378 3379 2068 
Q 3634 1759 3634 1313 
Q 3634 634 3220 271 
Q 2806 -91 2034 -91 
Q 1263 -91 848 271 
Q 434 634 434 1313 
Q 434 1759 690 2068 
Q 947 2378 1403 2484 
z
M 1172 3481 
Q 1172 3119 1398 2916 
Q 1625 2713 2034 2713 
Q 2441 2713 2670 2916 
Q 2900 3119 2900 3481 
Q 2900 3844 2670 4047 
Q 2441 4250 2034 4250 
Q 1625 4250 1398 4047 
Q 1172 3844 1172 3481 
z
" transform="scale(0.015625)"/>
      </defs>
      <use xlink:href="#DejaVuSans-38"/>
     </g>
    </g>
   </g>
   <g id="text_10">
    <g clip-path="url(#pe1fcb10126)">
     <!-- 9 -->
     <g style="fill: #ffffff" transform="translate(338.113028 270.21578) scale(0.12 -0.12)">
      <defs>
       <path id="DejaVuSans-39" d="M 703 97 
L 703 672 
Q 941 559 1184 500 
Q 1428 441 1663 441 
Q 2288 441 2617 861 
Q 2947 1281 2994 2138 
Q 2813 1869 2534 1725 
Q 2256 1581 1919 1581 
Q 1219 1581 811 2004 
Q 403 2428 403 3163 
Q 403 3881 828 4315 
Q 1253 4750 1959 4750 
Q 2769 4750 3195 4129 
Q 3622 3509 3622 2328 
Q 3622 1225 3098 567 
Q 2575 -91 1691 -91 
Q 1453 -91 1209 -44 
Q 966 3 703 97 
z
M 1959 2075 
Q 2384 2075 2632 2365 
Q 2881 2656 2881 3163 
Q 2881 3666 2632 3958 
Q 2384 4250 1959 4250 
Q 1534 4250 1286 3958 
Q 1038 3666 1038 3163 
Q 1038 2656 1286 2365 
Q 1534 2075 1959 2075 
z
" transform="scale(0.015625)"/>
      </defs>
      <use xlink:href="#DejaVuSans-39"/>
     </g>
    </g>
   </g>
   <g id="text_11">
    <g clip-path="url(#pe1fcb10126)">
     <!-- 10 -->
     <g style="fill: #ffffff" transform="translate(357.488434 247.794929) scale(0.12 -0.12)">
      <use xlink:href="#DejaVuSans-31"/>
      <use xlink:href="#DejaVuSans-30" transform="translate(63.623047 0)"/>
     </g>
    </g>
   </g>
   <g id="text_12">
    <g clip-path="url(#pe1fcb10126)">
     <!-- 11 -->
     <g style="fill: #ffffff" transform="translate(32.351777 41.813427) scale(0.12 -0.12)">
      <use xlink:href="#DejaVuSans-31"/>
      <use xlink:href="#DejaVuSans-31" transform="translate(63.623047 0)"/>
     </g>
    </g>
   </g>
   <g id="text_13">
    <g clip-path="url(#pe1fcb10126)">
     <!-- 12 -->
     <g style="fill: #ffffff" transform="translate(43.4947 67.638178) scale(0.12 -0.12)">
      <use xlink:href="#DejaVuSans-31"/>
      <use xlink:href="#DejaVuSans-32" transform="translate(63.623047 0)"/>
     </g>
    </g>
   </g>
   <g id="text_14">
    <g clip-path="url(#pe1fcb10126)">
     <!-- 13 -->
     <g style="fill: #ffffff" transform="translate(190.166946 256.693553) scale(0.12 -0.12)">
      <use xlink:href="#DejaVuSans-31"/>
      <use xlink:href="#DejaVuSans-33" transform="translate(63.623047 0)"/>
     </g>
    </g>
   </g>
   <g id="text_15">
    <g clip-path="url(#pe1fcb10126)">
     <!-- 14 -->
     <g style="fill: #ffffff" transform="translate(128.574483 154.250653) scale(0.12 -0.12)">
      <use xlink:href="#DejaVuSans-31"/>
      <use xlink:href="#DejaVuSans-34" transform="translate(63.623047 0)"/>
     </g>
    </g>
   </g>
   <g id="text_16">
    <g clip-path="url(#pe1fcb10126)">
     <!-- 15 -->
     <g style="fill: #ffffff" transform="translate(178.629716 122.370553) scale(0.12 -0.12)">
      <use xlink:href="#DejaVuSans-31"/>
      <use xlink:href="#DejaVuSans-35" transform="translate(63.623047 0)"/>
     </g>
    </g>
   </g>
   <g id="text_17">
    <g clip-path="url(#pe1fcb10126)">
     <!-- 16 -->
     <g style="fill: #ffffff" transform="translate(413.178223 286.684885) scale(0.12 -0.12)">
      <use xlink:href="#DejaVuSans-31"/>
      <use xlink:href="#DejaVuSans-36" transform="translate(63.623047 0)"/>
     </g>
    </g>
   </g>
   <g id="text_18">
    <g clip-path="url(#pe1fcb10126)">
     <!-- 17 -->
     <g style="fill: #ffffff" transform="translate(373.742819 289.428061) scale(0.12 -0.12)">
      <use xlink:href="#DejaVuSans-31"/>
      <use xlink:href="#DejaVuSans-37" transform="translate(63.623047 0)"/>
     </g>
    </g>
   </g>
   <g id="text_19">
    <g clip-path="url(#pe1fcb10126)">
     <!-- 18 -->
     <g style="fill: #ffffff" transform="translate(186.73879 169.352248) scale(0.12 -0.12)">
      <use xlink:href="#DejaVuSans-31"/>
      <use xlink:href="#DejaVuSans-38" transform="translate(63.623047 0)"/>
     </g>
    </g>
   </g>
   <g id="text_20">
    <g clip-path="url(#pe1fcb10126)">
     <!-- 19 -->
     <g style="fill: #ffffff" transform="translate(96.984582 124.040291) scale(0.12 -0.12)">
      <use xlink:href="#DejaVuSans-31"/>
      <use xlink:href="#DejaVuSans-39" transform="translate(63.623047 0)"/>
     </g>
    </g>
   </g>
   <g id="text_21">
    <g clip-path="url(#pe1fcb10126)">
     <!-- 20 -->
     <g style="fill: #ffffff" transform="translate(132.972276 87.234787) scale(0.12 -0.12)">
      <use xlink:href="#DejaVuSans-32"/>
      <use xlink:href="#DejaVuSans-30" transform="translate(63.623047 0)"/>
     </g>
    </g>
   </g>
   <g id="text_22">
    <g clip-path="url(#pe1fcb10126)">
     <!-- 21 -->
     <g style="fill: #ffffff" transform="translate(83.03932 91.62039) scale(0.12 -0.12)">
      <use xlink:href="#DejaVuSans-32"/>
      <use xlink:href="#DejaVuSans-31" transform="translate(63.623047 0)"/>
     </g>
    </g>
   </g>
   <g id="text_23">
    <g clip-path="url(#pe1fcb10126)">
     <!-- 22 -->
     <g style="fill: #ffffff" transform="translate(154.977481 318.921167) scale(0.12 -0.12)">
      <use xlink:href="#DejaVuSans-32"/>
      <use xlink:href="#DejaVuSans-32" transform="translate(63.623047 0)"/>
     </g>
    </g>
   </g>
  </g>
 </g>
 <defs>
  <clipPath id="pe1fcb10126">
   <rect x="0" y="0" width="460.8" height="345.6"/>
  </clipPath>
 </defs>
</svg>
