<?xml version="1.0" encoding="utf-8" standalone="no"?>
<!DOCTYPE svg PUBLIC "-//W3C//DTD SVG 1.1//EN"
  "http://www.w3.org/Graphics/SVG/1.1/DTD/svg11.dtd">
<svg xmlns:xlink="http://www.w3.org/1999/xlink" width="460.8pt" height="345.6pt" viewBox="0 0 460.8 345.6" xmlns="http://www.w3.org/2000/svg" version="1.1">
 <metadata>
  <rdf:RDF xmlns:dc="http://purl.org/dc/elements/1.1/" xmlns:cc="http://creativecommons.org/ns#" xmlns:rdf="http://www.w3.org/1999/02/22-rdf-syntax-ns#">
   <cc:Work>
    <dc:type rdf:resource="http://purl.org/dc/dcmitype/StillImage"/>
    <dc:date>2025-10-18T14:47:14.480662</dc:date>
    <dc:format>image/svg+xml</dc:format>
    <dc:creator>
     <cc:Agent>
      <dc:title>Matplotlib v3.10.7, https://matplotlib.org/</dc:title>
     </cc:Agent>
    </dc:creator>
   </cc:Work>
  </rdf:RDF>
 </metadata>
 <defs>
  <style type="text/css">*{stroke-linejoin: round; stroke-linecap: butt}</style>
 </defs>
 <g id="figure_1">
  <g id="patch_1">
   <path d="M 0 345.6 
L 460.8 345.6 
L 460.8 0 
L 0 0 
z
" style="fill: #ffffff"/>
  </g>
  <g id="axes_1">
   <g id="patch_2">
    <path d="M 57.6 307.584 
L 414.72 307.584 
L 414.72 41.472 
L 57.6 41.472 
z
" style="fill: #ffffff"/>
   </g>
   <g id="matplotlib.axis_1">
    <g id="xtick_1">
     <g id="line2d_1">
      <defs>
       <path id="m16fa78c846" d="M 0 0 
L 0 3.5 
" style="stroke: #000000; stroke-width: 0.8"/>
      </defs>
      <g>
       <use xlink:href="#m16fa78c846" x="73.832727" y="307.584" style="stroke: #000000; stroke-width: 0.8"/>
      </g>
     </g>
     <g id="text_1">
      <!-- 0 -->
      <g transform="translate(70.651477 322.182437) scale(0.1 -0.1)">
       <defs>
        <path id="DejaVuSans-30" d="M 2034 4250 
Q 1547 4250 1301 3770 
Q 1056 3291 1056 2328 
Q 1056 1369 1301 889 
Q 1547 409 2034 409 
Q 2525 409 2770 889 
Q 3016 1369 3016 2328 
Q 3016 3291 2770 3770 
Q 2525 4250 2034 4250 
z
M 2034 4750 
Q 2819 4750 3233 4129 
Q 3647 3509 3647 2328 
Q 3647 1150 3233 529 
Q 2819 -91 2034 -91 
Q 1250 -91 836 529 
Q 422 1150 422 2328 
Q 422 3509 836 4129 
Q 1250 4750 2034 4750 
z
" transform="scale(0.015625)"/>
       </defs>
       <use xlink:href="#DejaVuSans-30"/>
      </g>
     </g>
    </g>
    <g id="xtick_2">
     <g id="line2d_2">
      <g>
       <use xlink:href="#m16fa78c846" x="139.419504" y="307.584" style="stroke: #000000; stroke-width: 0.8"/>
      </g>
     </g>
     <g id="text_2">
      <!-- 20 -->
      <g transform="translate(133.057004 322.182437) scale(0.1 -0.1)">
       <defs>
        <path id="DejaVuSans-32" d="M 1228 531 
L 3431 531 
L 3431 0 
L 469 0 
L 469 531 
Q 828 903 1448 1529 
Q 2069 2156 2228 2338 
Q 2531 2678 2651 2914 
Q 2772 3150 2772 3378 
Q 2772 3750 2511 3984 
Q 2250 4219 1831 4219 
Q 1534 4219 1204 4116 
Q 875 4013 500 3803 
L 500 4441 
Q 881 4594 1212 4672 
Q 1544 4750 1819 4750 
Q 2544 4750 2975 4387 
Q 3406 4025 3406 3419 
Q 3406 3131 3298 2873 
Q 3191 2616 2906 2266 
Q 2828 2175 2409 1742 
Q 1991 1309 1228 531 
z
" transform="scale(0.015625)"/>
       </defs>
       <use xlink:href="#DejaVuSans-32"/>
       <use xlink:href="#DejaVuSans-30" transform="translate(63.623047 0)"/>
      </g>
     </g>
    </g>
    <g id="xtick_3">
     <g id="line2d_3">
      <g>
       <use xlink:href="#m16fa78c846" x="205.006281" y="307.584" style="stroke: #000000; stroke-width: 0.8"/>
      </g>
     </g>
     <g id="text_3">
      <!-- 40 -->
      <g transform="translate(198.643781 322.182437) scale(0.1 -0.1)">
       <defs>
        <path id="DejaVuSans-34" d="M 2419 4116 
L 825 1625 
L 2419 1625 
L 2419 4116 
z
M 2253 4666 
L 3047 4666 
L 3047 1625 
L 3713 1625 
L 3713 1100 
L 3047 1100 
L 3047 0 
L 2419 0 
L 2419 1100 
L 313 1100 
L 313 1709 
L 2253 4666 
z
" transform="scale(0.015625)"/>
       </defs>
       <use xlink:href="#DejaVuSans-34"/>
       <use xlink:href="#DejaVuSans-30" transform="translate(63.623047 0)"/>
      </g>
     </g>
    </g>
    <g id="xtick_4">
     <g id="line2d_4">
      <g>
       <use xlink:href="#m16fa78c846" x="270.593058" y="307.584" style="stroke: #000000; stroke-width: 0.8"/>
      </g>
     </g>
     <g id="text_4">
      <!-- 60 -->
      <g transform="translate(264.230558 322.182437) scale(0.1 -0.1)">
       <defs>
        <path id="DejaVuSans-36" d="M 2113 2584 
Q 1688 2584 1439 2293 
Q 1191 2003 1191 1497 
Q 1191 994 1439 701 
Q 1688 409 2113 409 
Q 2538 409 2786 701 
Q 3034 994 3034 1497 
Q 3034 2003 2786 2293 
Q 2538 2584 2113 2584 
z
M 3366 4563 
L 3366 3988 
Q 3128 4100 2886 4159 
Q 2644 4219 2406 4219 
Q 1781 4219 1451 3797 
Q 1122 3375 1075 2522 
Q 1259 2794 1537 2939 
Q 1816 3084 2150 3084 
Q 2853 3084 3261 2657 
Q 3669 2231 3669 1497 
Q 3669 778 3244 343 
Q 2819 -91 2113 -91 
Q 1303 -91 875 529 
Q 447 1150 447 2328 
Q 447 3434 972 4092 
Q 1497 4750 2381 4750 
Q 2619 4750 2861 4703 
Q 3103 4656 3366 4563 
z
" transform="scale(0.015625)"/>
       </defs>
       <use xlink:href="#DejaVuSans-36"/>
       <use xlink:href="#DejaVuSans-30" transform="translate(63.623047 0)"/>
      </g>
     </g>
    </g>
    <g id="xtick_5">
     <g id="line2d_5">
      <g>
       <use xlink:href="#m16fa78c846" x="336.179835" y="307.584" style="stroke: #000000; stroke-width: 0.8"/>
      </g>
     </g>
     <g id="text_5">
      <!-- 80 -->
      <g transform="translate(329.817335 322.182437) scale(0.1 -0.1)">
       <defs>
        <path id="DejaVuSans-38" d="M 2034 2216 
Q 1584 2216 1326 1975 
Q 1069 1734 1069 1313 
Q 1069 891 1326 650 
Q 1584 409 2034 409 
Q 2484 409 2743 651 
Q 3003 894 3003 1313 
Q 3003 1734 2745 1975 
Q 2488 2216 2034 2216 
z
M 1403 2484 
Q 997 2584 770 2862 
Q 544 3141 544 3541 
Q 544 4100 942 4425 
Q 1341 4750 2034 4750 
Q 2731 4750 3128 4425 
Q 3525 4100 3525 3541 
Q 3525 3141 3298 2862 
Q 3072 2584 2669 2484 
Q 3125 2378 3379 2068 
Q 3634 1759 3634 1313 
Q 3634 634 3220 271 
Q 2806 -91 2034 -91 
Q 1263 -91 848 271 
Q 434 634 434 1313 
Q 434 1759 690 2068 
Q 947 2378 1403 2484 
z
M 1172 3481 
Q 1172 3119 1398 2916 
Q 1625 2713 2034 2713 
Q 2441 2713 2670 2916 
Q 2900 3119 2900 3481 
Q 2900 3844 2670 4047 
Q 2441 4250 2034 4250 
Q 1625 4250 1398 4047 
Q 1172 3844 1172 3481 
z
" transform="scale(0.015625)"/>
       </defs>
       <use xlink:href="#DejaVuSans-38"/>
       <use xlink:href="#DejaVuSans-30" transform="translate(63.623047 0)"/>
      </g>
     </g>
    </g>
    <g id="xtick_6">
     <g id="line2d_6">
      <g>
       <use xlink:href="#m16fa78c846" x="401.766612" y="307.584" style="stroke: #000000; stroke-width: 0.8"/>
      </g>
     </g>
     <g id="text_6">
      <!-- 100 -->
      <g transform="translate(392.222862 322.182437) scale(0.1 -0.1)">
       <defs>
        <path id="DejaVuSans-31" d="M 794 531 
L 1825 531 
L 1825 4091 
L 703 3866 
L 703 4441 
L 1819 4666 
L 2450 4666 
L 2450 531 
L 3481 531 
L 3481 0 
L 794 0 
L 794 531 
z
" transform="scale(0.015625)"/>
       </defs>
       <use xlink:href="#DejaVuSans-31"/>
       <use xlink:href="#DejaVuSans-30" transform="translate(63.623047 0)"/>
       <use xlink:href="#DejaVuSans-30" transform="translate(127.246094 0)"/>
      </g>
     </g>
    </g>
    <g id="text_7">
     <!-- Training Epoch -->
     <g transform="translate(199.534219 335.860562) scale(0.1 -0.1)">
      <defs>
       <path id="DejaVuSans-54" d="M -19 4666 
L 3928 4666 
L 3928 4134 
L 2272 4134 
L 2272 0 
L 1638 0 
L 1638 4134 
L -19 4134 
L -19 4666 
z
" transform="scale(0.015625)"/>
       <path id="DejaVuSans-72" d="M 2631 2963 
Q 2534 3019 2420 3045 
Q 2306 3072 2169 3072 
Q 1681 3072 1420 2755 
Q 1159 2438 1159 1844 
L 1159 0 
L 581 0 
L 581 3500 
L 1159 3500 
L 1159 2956 
Q 1341 3275 1631 3429 
Q 1922 3584 2338 3584 
Q 2397 3584 2469 3576 
Q 2541 3569 2628 3553 
L 2631 2963 
z
" transform="scale(0.015625)"/>
       <path id="DejaVuSans-61" d="M 2194 1759 
Q 1497 1759 1228 1600 
Q 959 1441 959 1056 
Q 959 750 1161 570 
Q 1363 391 1709 391 
Q 2188 391 2477 730 
Q 2766 1069 2766 1631 
L 2766 1759 
L 2194 1759 
z
M 3341 1997 
L 3341 0 
L 2766 0 
L 2766 531 
Q 2569 213 2275 61 
Q 1981 -91 1556 -91 
Q 1019 -91 701 211 
Q 384 513 384 1019 
Q 384 1609 779 1909 
Q 1175 2209 1959 2209 
L 2766 2209 
L 2766 2266 
Q 2766 2663 2505 2880 
Q 2244 3097 1772 3097 
Q 1472 3097 1187 3025 
Q 903 2953 641 2809 
L 641 3341 
Q 956 3463 1253 3523 
Q 1550 3584 1831 3584 
Q 2591 3584 2966 3190 
Q 3341 2797 3341 1997 
z
" transform="scale(0.015625)"/>
       <path id="DejaVuSans-69" d="M 603 3500 
L 1178 3500 
L 1178 0 
L 603 0 
L 603 3500 
z
M 603 4863 
L 1178 4863 
L 1178 4134 
L 603 4134 
L 603 4863 
z
" transform="scale(0.015625)"/>
       <path id="DejaVuSans-6e" d="M 3513 2113 
L 3513 0 
L 2938 0 
L 2938 2094 
Q 2938 2591 2744 2837 
Q 2550 3084 2163 3084 
Q 1697 3084 1428 2787 
Q 1159 2491 1159 1978 
L 1159 0 
L 581 0 
L 581 3500 
L 1159 3500 
L 1159 2956 
Q 1366 3272 1645 3428 
Q 1925 3584 2291 3584 
Q 2894 3584 3203 3211 
Q 3513 2838 3513 2113 
z
" transform="scale(0.015625)"/>
       <path id="DejaVuSans-67" d="M 2906 1791 
Q 2906 2416 2648 2759 
Q 2391 3103 1925 3103 
Q 1463 3103 1205 2759 
Q 947 2416 947 1791 
Q 947 1169 1205 825 
Q 1463 481 1925 481 
Q 2391 481 2648 825 
Q 2906 1169 2906 1791 
z
M 3481 434 
Q 3481 -459 3084 -895 
Q 2688 -1331 1869 -1331 
Q 1566 -1331 1297 -1286 
Q 1028 -1241 775 -1147 
L 775 -588 
Q 1028 -725 1275 -790 
Q 1522 -856 1778 -856 
Q 2344 -856 2625 -561 
Q 2906 -266 2906 331 
L 2906 616 
Q 2728 306 2450 153 
Q 2172 0 1784 0 
Q 1141 0 747 490 
Q 353 981 353 1791 
Q 353 2603 747 3093 
Q 1141 3584 1784 3584 
Q 2172 3584 2450 3431 
Q 2728 3278 2906 2969 
L 2906 3500 
L 3481 3500 
L 3481 434 
z
" transform="scale(0.015625)"/>
       <path id="DejaVuSans-20" transform="scale(0.015625)"/>
       <path id="DejaVuSans-45" d="M 628 4666 
L 3578 4666 
L 3578 4134 
L 1259 4134 
L 1259 2753 
L 3481 2753 
L 3481 2222 
L 1259 2222 
L 1259 531 
L 3634 531 
L 3634 0 
L 628 0 
L 628 4666 
z
" transform="scale(0.015625)"/>
       <path id="DejaVuSans-70" d="M 1159 525 
L 1159 -1331 
L 581 -1331 
L 581 3500 
L 1159 3500 
L 1159 2969 
Q 1341 3281 1617 3432 
Q 1894 3584 2278 3584 
Q 2916 3584 3314 3078 
Q 3713 2572 3713 1747 
Q 3713 922 3314 415 
Q 2916 -91 2278 -91 
Q 1894 -91 1617 61 
Q 1341 213 1159 525 
z
M 3116 1747 
Q 3116 2381 2855 2742 
Q 2594 3103 2138 3103 
Q 1681 3103 1420 2742 
Q 1159 2381 1159 1747 
Q 1159 1113 1420 752 
Q 1681 391 2138 391 
Q 2594 391 2855 752 
Q 3116 1113 3116 1747 
z
" transform="scale(0.015625)"/>
       <path id="DejaVuSans-6f" d="M 1959 3097 
Q 1497 3097 1228 2736 
Q 959 2375 959 1747 
Q 959 1119 1226 758 
Q 1494 397 1959 397 
Q 2419 397 2687 759 
Q 2956 1122 2956 1747 
Q 2956 2369 2687 2733 
Q 2419 3097 1959 3097 
z
M 1959 3584 
Q 2709 3584 3137 3096 
Q 3566 2609 3566 1747 
Q 3566 888 3137 398 
Q 2709 -91 1959 -91 
Q 1206 -91 779 398 
Q 353 888 353 1747 
Q 353 2609 779 3096 
Q 1206 3584 1959 3584 
z
" transform="scale(0.015625)"/>
       <path id="DejaVuSans-63" d="M 3122 3366 
L 3122 2828 
Q 2878 2963 2633 3030 
Q 2388 3097 2138 3097 
Q 1578 3097 1268 2742 
Q 959 2388 959 1747 
Q 959 1106 1268 751 
Q 1578 397 2138 397 
Q 2388 397 2633 464 
Q 2878 531 3122 666 
L 3122 134 
Q 2881 22 2623 -34 
Q 2366 -91 2075 -91 
Q 1284 -91 818 406 
Q 353 903 353 1747 
Q 353 2603 823 3093 
Q 1294 3584 2113 3584 
Q 2378 3584 2631 3529 
Q 2884 3475 3122 3366 
z
" transform="scale(0.015625)"/>
       <path id="DejaVuSans-68" d="M 3513 2113 
L 3513 0 
L 2938 0 
L 2938 2094 
Q 2938 2591 2744 2837 
Q 2550 3084 2163 3084 
Q 1697 3084 1428 2787 
Q 1159 2491 1159 1978 
L 1159 0 
L 581 0 
L 581 4863 
L 1159 4863 
L 1159 2956 
Q 1366 3272 1645 3428 
Q 1925 3584 2291 3584 
Q 2894 3584 3203 3211 
Q 3513 2838 3513 2113 
z
" transform="scale(0.015625)"/>
      </defs>
      <use xlink:href="#DejaVuSans-54"/>
      <use xlink:href="#DejaVuSans-72" transform="translate(46.333984 0)"/>
      <use xlink:href="#DejaVuSans-61" transform="translate(87.447266 0)"/>
      <use xlink:href="#DejaVuSans-69" transform="translate(148.726562 0)"/>
      <use xlink:href="#DejaVuSans-6e" transform="translate(176.509766 0)"/>
      <use xlink:href="#DejaVuSans-69" transform="translate(239.888672 0)"/>
      <use xlink:href="#DejaVuSans-6e" transform="translate(267.671875 0)"/>
      <use xlink:href="#DejaVuSans-67" transform="translate(331.050781 0)"/>
      <use xlink:href="#DejaVuSans-20" transform="translate(394.527344 0)"/>
      <use xlink:href="#DejaVuSans-45" transform="translate(426.314453 0)"/>
      <use xlink:href="#DejaVuSans-70" transform="translate(489.498047 0)"/>
      <use xlink:href="#DejaVuSans-6f" transform="translate(552.974609 0)"/>
      <use xlink:href="#DejaVuSans-63" transform="translate(614.15625 0)"/>
      <use xlink:href="#DejaVuSans-68" transform="translate(669.136719 0)"/>
     </g>
    </g>
   </g>
   <g id="matplotlib.axis_2">
    <g id="ytick_1">
     <g id="line2d_7">
      <defs>
       <path id="mb16df4bc61" d="M 0 0 
L -3.5 0 
" style="stroke: #000000; stroke-width: 0.8"/>
      </defs>
      <g>
       <use xlink:href="#mb16df4bc61" x="57.6" y="306.454911" style="stroke: #000000; stroke-width: 0.8"/>
      </g>
     </g>
     <g id="text_8">
      <!-- 0.25 -->
      <g transform="translate(28.334375 310.25413) scale(0.1 -0.1)">
       <defs>
        <path id="DejaVuSans-2e" d="M 684 794 
L 1344 794 
L 1344 0 
L 684 0 
L 684 794 
z
" transform="scale(0.015625)"/>
        <path id="DejaVuSans-35" d="M 691 4666 
L 3169 4666 
L 3169 4134 
L 1269 4134 
L 1269 2991 
Q 1406 3038 1543 3061 
Q 1681 3084 1819 3084 
Q 2600 3084 3056 2656 
Q 3513 2228 3513 1497 
Q 3513 744 3044 326 
Q 2575 -91 1722 -91 
Q 1428 -91 1123 -41 
Q 819 9 494 109 
L 494 744 
Q 775 591 1075 516 
Q 1375 441 1709 441 
Q 2250 441 2565 725 
Q 2881 1009 2881 1497 
Q 2881 1984 2565 2268 
Q 2250 2553 1709 2553 
Q 1456 2553 1204 2497 
Q 953 2441 691 2322 
L 691 4666 
z
" transform="scale(0.015625)"/>
       </defs>
       <use xlink:href="#DejaVuSans-30"/>
       <use xlink:href="#DejaVuSans-2e" transform="translate(63.623047 0)"/>
       <use xlink:href="#DejaVuSans-32" transform="translate(95.410156 0)"/>
       <use xlink:href="#DejaVuSans-35" transform="translate(159.033203 0)"/>
      </g>
     </g>
    </g>
    <g id="ytick_2">
     <g id="line2d_8">
      <g>
       <use xlink:href="#mb16df4bc61" x="57.6" y="270.619688" style="stroke: #000000; stroke-width: 0.8"/>
      </g>
     </g>
     <g id="text_9">
      <!-- 0.50 -->
      <g transform="translate(28.334375 274.418907) scale(0.1 -0.1)">
       <use xlink:href="#DejaVuSans-30"/>
       <use xlink:href="#DejaVuSans-2e" transform="translate(63.623047 0)"/>
       <use xlink:href="#DejaVuSans-35" transform="translate(95.410156 0)"/>
       <use xlink:href="#DejaVuSans-30" transform="translate(159.033203 0)"/>
      </g>
     </g>
    </g>
    <g id="ytick_3">
     <g id="line2d_9">
      <g>
       <use xlink:href="#mb16df4bc61" x="57.6" y="234.784465" style="stroke: #000000; stroke-width: 0.8"/>
      </g>
     </g>
     <g id="text_10">
      <!-- 0.75 -->
      <g transform="translate(28.334375 238.583684) scale(0.1 -0.1)">
       <defs>
        <path id="DejaVuSans-37" d="M 525 4666 
L 3525 4666 
L 3525 4397 
L 1831 0 
L 1172 0 
L 2766 4134 
L 525 4134 
L 525 4666 
z
" transform="scale(0.015625)"/>
       </defs>
       <use xlink:href="#DejaVuSans-30"/>
       <use xlink:href="#DejaVuSans-2e" transform="translate(63.623047 0)"/>
       <use xlink:href="#DejaVuSans-37" transform="translate(95.410156 0)"/>
       <use xlink:href="#DejaVuSans-35" transform="translate(159.033203 0)"/>
      </g>
     </g>
    </g>
    <g id="ytick_4">
     <g id="line2d_10">
      <g>
       <use xlink:href="#mb16df4bc61" x="57.6" y="198.949242" style="stroke: #000000; stroke-width: 0.8"/>
      </g>
     </g>
     <g id="text_11">
      <!-- 1.00 -->
      <g transform="translate(28.334375 202.748461) scale(0.1 -0.1)">
       <use xlink:href="#DejaVuSans-31"/>
       <use xlink:href="#DejaVuSans-2e" transform="translate(63.623047 0)"/>
       <use xlink:href="#DejaVuSans-30" transform="translate(95.410156 0)"/>
       <use xlink:href="#DejaVuSans-30" transform="translate(159.033203 0)"/>
      </g>
     </g>
    </g>
    <g id="ytick_5">
     <g id="line2d_11">
      <g>
       <use xlink:href="#mb16df4bc61" x="57.6" y="163.114019" style="stroke: #000000; stroke-width: 0.8"/>
      </g>
     </g>
     <g id="text_12">
      <!-- 1.25 -->
      <g transform="translate(28.334375 166.913237) scale(0.1 -0.1)">
       <use xlink:href="#DejaVuSans-31"/>
       <use xlink:href="#DejaVuSans-2e" transform="translate(63.623047 0)"/>
       <use xlink:href="#DejaVuSans-32" transform="translate(95.410156 0)"/>
       <use xlink:href="#DejaVuSans-35" transform="translate(159.033203 0)"/>
      </g>
     </g>
    </g>
    <g id="ytick_6">
     <g id="line2d_12">
      <g>
       <use xlink:href="#mb16df4bc61" x="57.6" y="127.278796" style="stroke: #000000; stroke-width: 0.8"/>
      </g>
     </g>
     <g id="text_13">
      <!-- 1.50 -->
      <g transform="translate(28.334375 131.078014) scale(0.1 -0.1)">
       <use xlink:href="#DejaVuSans-31"/>
       <use xlink:href="#DejaVuSans-2e" transform="translate(63.623047 0)"/>
       <use xlink:href="#DejaVuSans-35" transform="translate(95.410156 0)"/>
       <use xlink:href="#DejaVuSans-30" transform="translate(159.033203 0)"/>
      </g>
     </g>
    </g>
    <g id="ytick_7">
     <g id="line2d_13">
      <g>
       <use xlink:href="#mb16df4bc61" x="57.6" y="91.443573" style="stroke: #000000; stroke-width: 0.8"/>
      </g>
     </g>
     <g id="text_14">
      <!-- 1.75 -->
      <g transform="translate(28.334375 95.242791) scale(0.1 -0.1)">
       <use xlink:href="#DejaVuSans-31"/>
       <use xlink:href="#DejaVuSans-2e" transform="translate(63.623047 0)"/>
       <use xlink:href="#DejaVuSans-37" transform="translate(95.410156 0)"/>
       <use xlink:href="#DejaVuSans-35" transform="translate(159.033203 0)"/>
      </g>
     </g>
    </g>
    <g id="ytick_8">
     <g id="line2d_14">
      <g>
       <use xlink:href="#mb16df4bc61" x="57.6" y="55.60835" style="stroke: #000000; stroke-width: 0.8"/>
      </g>
     </g>
     <g id="text_15">
      <!-- 2.00 -->
      <g transform="translate(28.334375 59.407568) scale(0.1 -0.1)">
       <use xlink:href="#DejaVuSans-32"/>
       <use xlink:href="#DejaVuSans-2e" transform="translate(63.623047 0)"/>
       <use xlink:href="#DejaVuSans-30" transform="translate(95.410156 0)"/>
       <use xlink:href="#DejaVuSans-30" transform="translate(159.033203 0)"/>
      </g>
     </g>
    </g>
    <g id="text_16">
     <!-- Valid RMSE -->
     <g transform="translate(22.254687 202.288156) rotate(-90) scale(0.1 -0.1)">
      <defs>
       <path id="DejaVuSans-56" d="M 1831 0 
L 50 4666 
L 709 4666 
L 2188 738 
L 3669 4666 
L 4325 4666 
L 2547 0 
L 1831 0 
z
" transform="scale(0.015625)"/>
       <path id="DejaVuSans-6c" d="M 603 4863 
L 1178 4863 
L 1178 0 
L 603 0 
L 603 4863 
z
" transform="scale(0.015625)"/>
       <path id="DejaVuSans-64" d="M 2906 2969 
L 2906 4863 
L 3481 4863 
L 3481 0 
L 2906 0 
L 2906 525 
Q 2725 213 2448 61 
Q 2172 -91 1784 -91 
Q 1150 -91 751 415 
Q 353 922 353 1747 
Q 353 2572 751 3078 
Q 1150 3584 1784 3584 
Q 2172 3584 2448 3432 
Q 2725 3281 2906 2969 
z
M 947 1747 
Q 947 1113 1208 752 
Q 1469 391 1925 391 
Q 2381 391 2643 752 
Q 2906 1113 2906 1747 
Q 2906 2381 2643 2742 
Q 2381 3103 1925 3103 
Q 1469 3103 1208 2742 
Q 947 2381 947 1747 
z
" transform="scale(0.015625)"/>
       <path id="DejaVuSans-52" d="M 2841 2188 
Q 3044 2119 3236 1894 
Q 3428 1669 3622 1275 
L 4263 0 
L 3584 0 
L 2988 1197 
Q 2756 1666 2539 1819 
Q 2322 1972 1947 1972 
L 1259 1972 
L 1259 0 
L 628 0 
L 628 4666 
L 2053 4666 
Q 2853 4666 3247 4331 
Q 3641 3997 3641 3322 
Q 3641 2881 3436 2590 
Q 3231 2300 2841 2188 
z
M 1259 4147 
L 1259 2491 
L 2053 2491 
Q 2509 2491 2742 2702 
Q 2975 2913 2975 3322 
Q 2975 3731 2742 3939 
Q 2509 4147 2053 4147 
L 1259 4147 
z
" transform="scale(0.015625)"/>
       <path id="DejaVuSans-4d" d="M 628 4666 
L 1569 4666 
L 2759 1491 
L 3956 4666 
L 4897 4666 
L 4897 0 
L 4281 0 
L 4281 4097 
L 3078 897 
L 2444 897 
L 1241 4097 
L 1241 0 
L 628 0 
L 628 4666 
z
" transform="scale(0.015625)"/>
       <path id="DejaVuSans-53" d="M 3425 4513 
L 3425 3897 
Q 3066 4069 2747 4153 
Q 2428 4238 2131 4238 
Q 1616 4238 1336 4038 
Q 1056 3838 1056 3469 
Q 1056 3159 1242 3001 
Q 1428 2844 1947 2747 
L 2328 2669 
Q 3034 2534 3370 2195 
Q 3706 1856 3706 1288 
Q 3706 609 3251 259 
Q 2797 -91 1919 -91 
Q 1588 -91 1214 -16 
Q 841 59 441 206 
L 441 856 
Q 825 641 1194 531 
Q 1563 422 1919 422 
Q 2459 422 2753 634 
Q 3047 847 3047 1241 
Q 3047 1584 2836 1778 
Q 2625 1972 2144 2069 
L 1759 2144 
Q 1053 2284 737 2584 
Q 422 2884 422 3419 
Q 422 4038 858 4394 
Q 1294 4750 2059 4750 
Q 2388 4750 2728 4690 
Q 3069 4631 3425 4513 
z
" transform="scale(0.015625)"/>
      </defs>
      <use xlink:href="#DejaVuSans-56"/>
      <use xlink:href="#DejaVuSans-61" transform="translate(60.658203 0)"/>
      <use xlink:href="#DejaVuSans-6c" transform="translate(121.9375 0)"/>
      <use xlink:href="#DejaVuSans-69" transform="translate(149.720703 0)"/>
      <use xlink:href="#DejaVuSans-64" transform="translate(177.503906 0)"/>
      <use xlink:href="#DejaVuSans-20" transform="translate(240.980469 0)"/>
      <use xlink:href="#DejaVuSans-52" transform="translate(272.767578 0)"/>
      <use xlink:href="#DejaVuSans-4d" transform="translate(342.25 0)"/>
      <use xlink:href="#DejaVuSans-53" transform="translate(428.529297 0)"/>
      <use xlink:href="#DejaVuSans-45" transform="translate(492.005859 0)"/>
     </g>
    </g>
   </g>
   <g id="line2d_15">
    <path d="M 73.832727 61.174921 
L 77.112066 84.17553 
L 80.391405 123.642607 
L 83.670744 143.970258 
L 86.950083 179.24389 
L 90.229421 155.03232 
L 93.50876 199.6407 
L 96.788099 182.084562 
L 100.067438 193.544277 
L 103.346777 207.495276 
L 106.626116 229.200233 
L 109.905455 209.458709 
L 113.184793 223.924447 
L 116.464132 211.169038 
L 119.743471 243.327405 
L 123.02281 239.96688 
L 126.302149 252.609374 
L 129.581488 246.015055 
L 132.860826 247.350144 
L 136.140165 242.181533 
L 139.419504 248.990108 
L 142.698843 249.427377 
L 145.978182 255.765563 
L 149.257521 255.777924 
L 152.53686 247.110529 
L 155.816198 256.344198 
L 159.095537 251.977657 
L 162.374876 259.178914 
L 165.654215 248.57295 
L 168.933554 224.515131 
L 172.212893 255.94879 
L 175.492231 262.792683 
L 178.77157 257.07965 
L 182.050909 264.039244 
L 185.330248 250.55697 
L 188.609587 258.857328 
L 191.888926 251.970605 
L 195.168264 256.634723 
L 198.447603 262.625613 
L 201.726942 233.014769 
L 205.006281 268.214563 
L 208.28562 262.089642 
L 211.564959 254.123525 
L 214.844298 225.760205 
L 218.123636 260.812167 
L 221.402975 263.245536 
L 224.682314 270.997462 
L 227.961653 246.296998 
L 231.240992 262.696413 
L 234.520331 270.665407 
L 237.799669 273.115044 
L 241.079008 274.113325 
L 244.358347 273.009909 
L 247.637686 262.965836 
L 250.917025 274.241448 
L 254.196364 278.14469 
L 257.475702 270.943453 
L 260.755041 279.197962 
L 264.03438 258.407955 
L 267.313719 273.36623 
L 270.593058 277.606053 
L 273.872397 265.346731 
L 277.151736 278.267558 
L 280.431074 269.085597 
L 283.710413 283.274605 
L 286.989752 286.22081 
L 290.269091 283.960438 
L 293.54843 285.115849 
L 296.827769 288.354858 
L 300.107107 286.131402 
L 303.386446 270.166734 
L 306.665785 286.727738 
L 309.945124 277.521076 
L 313.224463 290.570032 
L 316.503802 279.105773 
L 319.78314 287.86616 
L 323.062479 291.150906 
L 326.341818 284.01348 
L 329.621157 290.098383 
L 332.900496 289.297507 
" clip-path="url(#p72cce301c0)" style="fill: none; stroke: #7f7f7f; stroke-opacity: 0.2; stroke-width: 1.5; stroke-linecap: square"/>
   </g>
   <g id="line2d_16">
    <path d="M 73.832727 83.560393 
L 77.112066 83.340881 
L 80.391405 125.294914 
L 83.670744 134.312594 
L 86.950083 161.410029 
L 90.229421 158.30309 
L 93.50876 195.709705 
L 96.788099 191.790691 
L 100.067438 200.131876 
L 103.346777 208.470672 
L 106.626116 224.387638 
L 109.905455 205.386688 
L 113.184793 207.14238 
L 116.464132 211.831797 
L 119.743471 229.851778 
L 123.02281 230.962712 
L 126.302149 237.589817 
L 129.581488 236.14892 
L 132.860826 240.24209 
L 136.140165 219.513872 
L 139.419504 237.921274 
L 142.698843 238.217639 
L 145.978182 238.945845 
L 149.257521 235.620217 
L 152.53686 230.037642 
L 155.816198 243.789061 
L 159.095537 238.788263 
L 162.374876 238.714413 
L 165.654215 238.090907 
L 168.933554 203.036822 
L 172.212893 239.492313 
L 175.492231 234.038972 
L 178.77157 238.939128 
L 182.050909 237.465711 
L 185.330248 217.822663 
L 188.609587 245.0211 
L 191.888926 232.452337 
L 195.168264 227.143423 
L 198.447603 244.358924 
L 201.726942 198.968955 
L 205.006281 234.312904 
L 208.28562 238.143811 
L 211.564959 222.973024 
L 214.844298 187.661697 
L 218.123636 231.485225 
L 221.402975 222.897915 
L 224.682314 240.71951 
L 227.961653 235.098614 
L 231.240992 236.940517 
L 234.520331 238.148728 
L 237.799669 250.176619 
L 241.079008 243.457116 
L 244.358347 248.198833 
L 247.637686 232.80479 
L 250.917025 237.178398 
L 254.196364 246.263624 
L 257.475702 235.987371 
L 260.755041 240.527246 
L 264.03438 244.197465 
L 267.313719 241.643855 
L 270.593058 246.929145 
L 273.872397 225.850269 
L 277.151736 249.929101 
L 280.431074 238.5064 
L 283.710413 254.264616 
L 286.989752 241.370115 
L 290.269091 244.920077 
L 293.54843 249.500097 
L 296.827769 247.302584 
L 300.107107 238.085217 
L 303.386446 243.801291 
L 306.665785 244.000122 
L 309.945124 231.066788 
L 313.224463 241.934518 
L 316.503802 228.881812 
L 319.78314 238.256642 
L 323.062479 243.121982 
L 326.341818 239.336477 
L 329.621157 242.590071 
L 332.900496 240.701912 
" clip-path="url(#p72cce301c0)" style="fill: none; stroke: #2ca02c; stroke-opacity: 0.2; stroke-width: 1.5; stroke-linecap: square"/>
   </g>
   <g id="line2d_17">
    <path d="M 73.832727 77.683194 
L 77.112066 111.587649 
L 80.391405 139.318388 
L 83.670744 172.541533 
L 86.950083 185.539771 
L 90.229421 181.553518 
L 93.50876 198.139029 
L 96.788099 189.02535 
L 100.067438 223.286155 
L 103.346777 229.084792 
L 106.626116 220.985181 
L 109.905455 225.738146 
L 113.184793 193.517258 
L 116.464132 217.013995 
L 119.743471 234.885 
L 123.02281 165.348045 
L 126.302149 228.682835 
L 129.581488 241.150057 
L 132.860826 245.159005 
L 136.140165 242.106189 
L 139.419504 227.114516 
L 142.698843 251.5171 
L 145.978182 252.4804 
L 149.257521 248.212691 
L 152.53686 229.758223 
L 155.816198 260.104303 
L 159.095537 245.024784 
L 162.374876 249.339655 
L 165.654215 260.220419 
L 168.933554 265.778962 
L 172.212893 258.758727 
L 175.492231 251.500863 
L 178.77157 264.97032 
L 182.050909 253.352133 
L 185.330248 261.701877 
L 188.609587 268.68476 
L 191.888926 265.447545 
L 195.168264 261.941071 
L 198.447603 263.73092 
L 201.726942 230.193262 
L 205.006281 266.680061 
L 208.28562 269.837829 
L 211.564959 267.391835 
L 214.844298 270.981358 
L 218.123636 268.433325 
L 221.402975 272.813622 
L 224.682314 259.836357 
L 227.961653 276.403123 
L 231.240992 253.314207 
L 234.520331 272.659044 
L 237.799669 277.978281 
L 241.079008 276.426861 
" clip-path="url(#p72cce301c0)" style="fill: none; stroke: #7f7f7f; stroke-opacity: 0.4; stroke-width: 1.5; stroke-linecap: square"/>
   </g>
   <g id="line2d_18">
    <path d="M 73.832727 87.545586 
L 77.112066 113.127895 
L 80.391405 119.845264 
L 83.670744 164.308054 
L 86.950083 173.10426 
L 90.229421 188.297788 
L 93.50876 181.425083 
L 96.788099 190.204681 
L 100.067438 211.292511 
L 103.346777 221.670379 
L 106.626116 217.123472 
L 109.905455 214.392047 
L 113.184793 176.070648 
L 116.464132 212.189297 
L 119.743471 220.763235 
L 123.02281 155.658263 
L 126.302149 215.018229 
L 129.581488 209.625214 
L 132.860826 221.237573 
L 136.140165 227.756427 
L 139.419504 218.859423 
L 142.698843 221.30921 
L 145.978182 226.941974 
L 149.257521 230.197645 
L 152.53686 190.770898 
L 155.816198 239.144101 
L 159.095537 217.528374 
L 162.374876 226.273766 
L 165.654215 235.561575 
L 168.933554 228.337371 
L 172.212893 234.546598 
L 175.492231 222.4018 
L 178.77157 227.988709 
L 182.050909 227.387649 
L 185.330248 224.41875 
L 188.609587 237.10959 
L 191.888926 242.274899 
L 195.168264 241.639556 
L 198.447603 227.095312 
L 201.726942 218.758149 
L 205.006281 223.649821 
L 208.28562 223.995575 
L 211.564959 229.127246 
L 214.844298 231.992497 
L 218.123636 229.956184 
L 221.402975 234.036059 
L 224.682314 225.917682 
L 227.961653 241.262842 
L 231.240992 227.603558 
L 234.520331 237.403405 
L 237.799669 233.721713 
L 241.079008 228.564658 
" clip-path="url(#p72cce301c0)" style="fill: none; stroke: #d62728; stroke-opacity: 0.4; stroke-width: 1.5; stroke-linecap: square"/>
   </g>
   <g id="line2d_19">
    <path d="M 73.832727 57.897247 
L 77.112066 110.184915 
L 80.391405 120.589159 
L 83.670744 154.281252 
L 86.950083 158.450731 
L 90.229421 176.109848 
L 93.50876 185.065087 
L 96.788099 131.2863 
L 100.067438 190.907969 
L 103.346777 181.160361 
L 106.626116 206.832637 
L 109.905455 193.66799 
L 113.184793 210.07103 
L 116.464132 214.686594 
L 119.743471 205.730932 
L 123.02281 220.149334 
L 126.302149 211.907926 
L 129.581488 211.146109 
L 132.860826 231.666264 
L 136.140165 231.69764 
L 139.419504 235.992008 
L 142.698843 240.861731 
L 145.978182 185.528442 
L 149.257521 227.088712 
L 152.53686 237.39201 
L 155.816198 246.675011 
L 159.095537 249.266316 
L 162.374876 242.461339 
L 165.654215 247.337115 
L 168.933554 233.758435 
L 172.212893 239.644819 
L 175.492231 251.394614 
L 178.77157 254.028054 
L 182.050909 241.585095 
L 185.330248 247.796286 
L 188.609587 249.311506 
L 191.888926 253.20553 
L 195.168264 219.308277 
L 198.447603 240.523324 
L 201.726942 249.471652 
L 205.006281 254.28665 
L 208.28562 250.047141 
L 211.564959 259.915112 
L 214.844298 258.351434 
L 218.123636 251.093429 
L 221.402975 251.942386 
L 224.682314 258.007396 
L 227.961653 263.154354 
L 231.240992 264.74844 
L 234.520331 268.603843 
L 237.799669 268.238111 
L 241.079008 238.942929 
L 244.358347 244.260847 
L 247.637686 264.495952 
L 250.917025 263.257458 
L 254.196364 271.765743 
L 257.475702 260.394646 
L 260.755041 265.865583 
L 264.03438 256.868631 
L 267.313719 257.630118 
L 270.593058 267.10044 
L 273.872397 260.666589 
L 277.151736 270.585642 
L 280.431074 245.25675 
L 283.710413 247.863948 
L 286.989752 266.914492 
L 290.269091 275.696524 
L 293.54843 256.639812 
L 296.827769 270.774214 
L 300.107107 277.108442 
L 303.386446 279.693444 
L 306.665785 263.339181 
L 309.945124 258.959419 
L 313.224463 274.992765 
L 316.503802 278.691465 
L 319.78314 254.810848 
L 323.062479 246.566051 
L 326.341818 275.308673 
L 329.621157 278.841855 
L 332.900496 273.969155 
L 336.179835 276.111436 
L 339.459174 274.37729 
L 342.738512 282.226069 
L 346.017851 281.476568 
L 349.29719 276.8233 
L 352.576529 287.167557 
L 355.855868 282.243886 
L 359.135207 282.1799 
L 362.414545 271.103509 
L 365.693884 275.297779 
L 368.973223 277.1219 
L 372.252562 286.286933 
L 375.531901 284.908145 
L 378.81124 275.109637 
L 382.090579 290.038458 
L 385.369917 286.132502 
L 388.649256 288.117275 
L 391.928595 290.184468 
L 395.207934 274.372987 
L 398.487273 276.460724 
" clip-path="url(#p72cce301c0)" style="fill: none; stroke: #7f7f7f; stroke-opacity: 0.6; stroke-width: 1.5; stroke-linecap: square"/>
   </g>
   <g id="line2d_20">
    <path d="M 73.832727 75.5028 
L 77.112066 111.921063 
L 80.391405 113.993068 
L 83.670744 142.229002 
L 86.950083 134.760758 
L 90.229421 163.129736 
L 93.50876 167.654347 
L 96.788099 123.254257 
L 100.067438 184.879876 
L 103.346777 166.670666 
L 106.626116 200.667405 
L 109.905455 190.447652 
L 113.184793 194.05653 
L 116.464132 198.379601 
L 119.743471 195.507267 
L 123.02281 203.48453 
L 126.302149 199.065054 
L 129.581488 198.891182 
L 132.860826 220.524245 
L 136.140165 214.732173 
L 139.419504 226.567133 
L 142.698843 216.902042 
L 145.978182 170.673889 
L 149.257521 210.817529 
L 152.53686 221.776376 
L 155.816198 223.311913 
L 159.095537 227.225608 
L 162.374876 220.814003 
L 165.654215 223.24503 
L 168.933554 204.314624 
L 172.212893 216.235499 
L 175.492231 223.149807 
L 178.77157 225.535949 
L 182.050909 220.10369 
L 185.330248 215.770922 
L 188.609587 214.477415 
L 191.888926 229.703609 
L 195.168264 199.337493 
L 198.447603 206.802676 
L 201.726942 227.261201 
L 205.006281 226.550402 
L 208.28562 225.544892 
L 211.564959 234.29038 
L 214.844298 231.571771 
L 218.123636 211.903819 
L 221.402975 211.784238 
L 224.682314 223.254524 
L 227.961653 233.996754 
L 231.240992 223.439684 
L 234.520331 231.172716 
L 237.799669 232.732971 
L 241.079008 194.312354 
L 244.358347 228.702452 
L 247.637686 234.455418 
L 250.917025 229.235907 
L 254.196364 235.537842 
L 257.475702 230.419187 
L 260.755041 222.182109 
L 264.03438 224.417003 
L 267.313719 240.539908 
L 270.593058 233.480504 
L 273.872397 233.611618 
L 277.151736 226.802007 
L 280.431074 229.639999 
L 283.710413 225.562621 
L 286.989752 230.59994 
L 290.269091 238.910972 
L 293.54843 210.824642 
L 296.827769 234.898154 
L 300.107107 237.206704 
L 303.386446 233.389463 
L 306.665785 219.324586 
L 309.945124 238.497045 
L 313.224463 234.583696 
L 316.503802 246.572082 
L 319.78314 224.188875 
L 323.062479 226.808544 
L 326.341818 241.973363 
L 329.621157 240.344146 
L 332.900496 241.924675 
L 336.179835 240.989907 
L 339.459174 227.53061 
L 342.738512 236.464042 
L 346.017851 232.989355 
L 349.29719 247.276435 
L 352.576529 242.952828 
L 355.855868 243.829183 
L 359.135207 244.909915 
L 362.414545 227.284031 
L 365.693884 231.086148 
L 368.973223 242.03062 
L 372.252562 239.98272 
L 375.531901 235.276641 
L 378.81124 240.631879 
L 382.090579 239.000131 
L 385.369917 240.628445 
L 388.649256 236.159782 
L 391.928595 238.179913 
L 395.207934 241.791151 
L 398.487273 230.335543 
" clip-path="url(#p72cce301c0)" style="fill: none; stroke: #d62728; stroke-opacity: 0.6; stroke-width: 1.5; stroke-linecap: square"/>
   </g>
   <g id="line2d_21">
    <path d="M 73.832727 53.568 
L 77.112066 64.110236 
L 80.391405 112.990514 
L 83.670744 118.949475 
L 86.950083 141.081923 
L 90.229421 175.680188 
L 93.50876 186.051332 
L 96.788099 172.685492 
L 100.067438 197.99847 
L 103.346777 191.213223 
L 106.626116 192.511334 
L 109.905455 195.540155 
L 113.184793 200.830468 
L 116.464132 203.365823 
L 119.743471 210.594412 
L 123.02281 211.834891 
L 126.302149 184.857758 
L 129.581488 214.586854 
L 132.860826 222.699867 
L 136.140165 228.504819 
L 139.419504 229.579752 
L 142.698843 221.894161 
L 145.978182 216.374907 
L 149.257521 172.987706 
L 152.53686 233.355848 
L 155.816198 236.991745 
L 159.095537 230.700442 
L 162.374876 235.832826 
L 165.654215 239.183198 
L 168.933554 240.511603 
L 172.212893 241.054518 
L 175.492231 245.656958 
L 178.77157 238.622639 
L 182.050909 233.583096 
L 185.330248 244.957971 
L 188.609587 242.520763 
L 191.888926 242.885138 
L 195.168264 241.558968 
L 198.447603 251.066487 
L 201.726942 237.995693 
L 205.006281 237.919225 
L 208.28562 244.600935 
L 211.564959 247.94475 
L 214.844298 250.559335 
L 218.123636 213.164425 
L 221.402975 240.086532 
L 224.682314 250.030311 
L 227.961653 258.861555 
L 231.240992 254.509825 
L 234.520331 248.851134 
L 237.799669 255.286684 
L 241.079008 252.792909 
L 244.358347 262.438237 
L 247.637686 261.232273 
L 250.917025 266.894498 
L 254.196364 266.565584 
L 257.475702 267.388733 
L 260.755041 261.662428 
L 264.03438 261.569753 
L 267.313719 262.784292 
L 270.593058 265.130747 
L 273.872397 266.012683 
L 277.151736 272.899962 
L 280.431074 264.685227 
" clip-path="url(#p72cce301c0)" style="fill: none; stroke: #7f7f7f; stroke-opacity: 0.8; stroke-width: 1.5; stroke-linecap: square"/>
   </g>
   <g id="line2d_22">
    <path d="M 73.832727 79.880485 
L 77.112066 88.597184 
L 80.391405 110.639679 
L 83.670744 111.106377 
L 86.950083 125.397139 
L 90.229421 147.160516 
L 93.50876 155.680111 
L 96.788099 140.758032 
L 100.067438 166.975611 
L 103.346777 160.18373 
L 106.626116 162.255041 
L 109.905455 165.676394 
L 113.184793 165.870017 
L 116.464132 170.838865 
L 119.743471 177.349221 
L 123.02281 169.955847 
L 126.302149 146.040357 
L 129.581488 189.348624 
L 132.860826 186.464323 
L 136.140165 187.367552 
L 139.419504 190.29173 
L 142.698843 191.752162 
L 145.978182 170.249273 
L 149.257521 133.434806 
L 152.53686 200.396861 
L 155.816198 198.278466 
L 159.095537 191.616264 
L 162.374876 194.78042 
L 165.654215 202.61944 
L 168.933554 200.395542 
L 172.212893 197.849714 
L 175.492231 203.245701 
L 178.77157 196.911821 
L 182.050909 197.980411 
L 185.330248 203.734069 
L 188.609587 198.189583 
L 191.888926 201.419005 
L 195.168264 193.182165 
L 198.447603 205.735188 
L 201.726942 193.463257 
L 205.006281 191.769133 
L 208.28562 205.643821 
L 211.564959 208.768039 
L 214.844298 204.243681 
L 218.123636 173.235374 
L 221.402975 197.269034 
L 224.682314 203.614683 
L 227.961653 204.38433 
L 231.240992 215.682777 
L 234.520331 196.533533 
L 237.799669 205.629483 
L 241.079008 206.873114 
L 244.358347 206.102347 
L 247.637686 208.335888 
L 250.917025 211.892654 
L 254.196364 215.174708 
L 257.475702 213.293462 
L 260.755041 211.814159 
L 264.03438 209.919063 
L 267.313719 213.034495 
L 270.593058 213.014457 
L 273.872397 205.176194 
L 277.151736 206.166048 
L 280.431074 211.686347 
" clip-path="url(#p72cce301c0)" style="fill: none; stroke: #d62728; stroke-opacity: 0.8; stroke-width: 1.5; stroke-linecap: square"/>
   </g>
   <g id="line2d_23">
    <path d="M 73.832727 60.830183 
L 77.112066 108.828593 
L 80.391405 115.067915 
L 83.670744 141.820852 
L 86.950083 140.7386 
L 90.229421 168.79433 
L 93.50876 179.267048 
L 96.788099 187.122749 
L 100.067438 197.481581 
L 103.346777 167.53403 
L 106.626116 190.573122 
L 109.905455 207.487203 
L 113.184793 184.863905 
L 116.464132 218.792442 
L 119.743471 216.69813 
L 123.02281 190.636081 
L 126.302149 218.890971 
L 129.581488 218.624936 
L 132.860826 231.610984 
L 136.140165 213.65457 
L 139.419504 223.945555 
L 142.698843 238.233491 
L 145.978182 226.969652 
L 149.257521 232.812579 
L 152.53686 235.934739 
L 155.816198 239.108171 
L 159.095537 210.880497 
L 162.374876 231.644232 
L 165.654215 233.39335 
L 168.933554 229.561625 
L 172.212893 248.033231 
L 175.492231 225.645195 
L 178.77157 245.458194 
L 182.050909 254.489206 
L 185.330248 231.228719 
L 188.609587 251.584202 
L 191.888926 255.230841 
L 195.168264 252.975785 
L 198.447603 255.708907 
L 201.726942 263.583565 
L 205.006281 249.300633 
L 208.28562 259.276825 
L 211.564959 258.061544 
L 214.844298 266.9567 
L 218.123636 266.466672 
L 221.402975 268.580819 
L 224.682314 257.124023 
L 227.961653 259.827611 
L 231.240992 269.318632 
L 234.520331 270.303174 
L 237.799669 244.112112 
L 241.079008 276.105679 
L 244.358347 264.390374 
L 247.637686 274.432207 
L 250.917025 275.350008 
L 254.196364 278.756336 
L 257.475702 280.204744 
L 260.755041 283.437998 
L 264.03438 269.825284 
L 267.313719 278.307659 
L 270.593058 283.810276 
L 273.872397 265.380356 
L 277.151736 283.984456 
L 280.431074 281.878978 
L 283.710413 277.249075 
L 286.989752 281.609453 
L 290.269091 280.48251 
L 293.54843 281.066304 
L 296.827769 284.935455 
L 300.107107 270.626316 
L 303.386446 282.24336 
L 306.665785 279.400581 
L 309.945124 270.206345 
L 313.224463 286.185775 
L 316.503802 285.618435 
L 319.78314 287.598454 
L 323.062479 281.796761 
L 326.341818 285.443083 
L 329.621157 289.285168 
L 332.900496 287.55321 
L 336.179835 284.610991 
L 339.459174 286.491063 
L 342.738512 281.225582 
L 346.017851 295.488 
L 349.29719 293.587333 
L 352.576529 287.168121 
L 355.855868 285.930716 
L 359.135207 288.132821 
L 362.414545 266.978843 
L 365.693884 276.627055 
L 368.973223 286.071462 
L 372.252562 290.848172 
" clip-path="url(#p72cce301c0)" style="fill: none; stroke: #7f7f7f; stroke-width: 1.5; stroke-linecap: square"/>
   </g>
   <g id="line2d_24">
    <path d="M 73.832727 74.208781 
L 77.112066 117.342989 
L 80.391405 117.272312 
L 83.670744 127.543238 
L 86.950083 117.21359 
L 90.229421 164.681314 
L 93.50876 171.498545 
L 96.788099 173.505129 
L 100.067438 185.984627 
L 103.346777 155.858844 
L 106.626116 177.4363 
L 109.905455 188.890608 
L 113.184793 169.15503 
L 116.464132 194.069887 
L 119.743471 189.515645 
L 123.02281 151.551518 
L 126.302149 187.493987 
L 129.581488 176.438359 
L 132.860826 198.631609 
L 136.140165 185.749007 
L 139.419504 186.513157 
L 142.698843 198.945794 
L 145.978182 175.479919 
L 149.257521 189.710663 
L 152.53686 195.728187 
L 155.816198 189.440987 
L 159.095537 179.053476 
L 162.374876 195.89105 
L 165.654215 190.026935 
L 168.933554 181.738434 
L 172.212893 200.456336 
L 175.492231 175.125236 
L 178.77157 193.730157 
L 182.050909 208.768836 
L 185.330248 195.075997 
L 188.609587 196.516577 
L 191.888926 208.354622 
L 195.168264 203.771028 
L 198.447603 204.603786 
L 201.726942 209.126625 
L 205.006281 197.640609 
L 208.28562 206.952582 
L 211.564959 216.429787 
L 214.844298 212.556603 
L 218.123636 211.186677 
L 221.402975 208.674455 
L 224.682314 210.140668 
L 227.961653 214.671182 
L 231.240992 211.921675 
L 234.520331 212.799995 
L 237.799669 203.362172 
L 241.079008 216.66371 
L 244.358347 214.189288 
L 247.637686 219.759332 
L 250.917025 215.242491 
L 254.196364 216.63819 
L 257.475702 218.843585 
L 260.755041 217.37394 
L 264.03438 207.796491 
L 267.313719 218.53597 
L 270.593058 217.6266 
L 273.872397 204.264717 
L 277.151736 221.784972 
L 280.431074 219.603254 
L 283.710413 220.602513 
L 286.989752 211.630721 
L 290.269091 220.301304 
L 293.54843 215.002088 
L 296.827769 215.109256 
L 300.107107 215.513367 
L 303.386446 216.525574 
L 306.665785 212.690331 
L 309.945124 199.792228 
L 313.224463 210.715723 
L 316.503802 219.857182 
L 319.78314 218.920068 
L 323.062479 223.419016 
L 326.341818 217.531538 
L 329.621157 219.248163 
L 332.900496 216.05729 
L 336.179835 219.388863 
L 339.459174 218.930647 
L 342.738512 209.891732 
L 346.017851 218.533603 
L 349.29719 213.648121 
L 352.576529 216.812113 
L 355.855868 207.471921 
L 359.135207 206.666334 
L 362.414545 202.419698 
L 365.693884 215.627713 
L 368.973223 211.033691 
L 372.252562 222.122093 
" clip-path="url(#p72cce301c0)" style="fill: none; stroke: #d62728; stroke-width: 1.5; stroke-linecap: square"/>
   </g>
   <g id="line2d_25">
    <path d="M 57.6 254.264616 
L 414.72 254.264616 
" clip-path="url(#p72cce301c0)" style="fill: none; stroke-dasharray: 5.55,2.4; stroke-dashoffset: 0; stroke: #d62728; stroke-opacity: 0.5; stroke-width: 1.5"/>
   </g>
   <g id="patch_3">
    <path d="M 57.6 307.584 
L 57.6 41.472 
" style="fill: none; stroke: #000000; stroke-width: 0.8; stroke-linejoin: miter; stroke-linecap: square"/>
   </g>
   <g id="patch_4">
    <path d="M 414.72 307.584 
L 414.72 41.472 
" style="fill: none; stroke: #000000; stroke-width: 0.8; stroke-linejoin: miter; stroke-linecap: square"/>
   </g>
   <g id="patch_5">
    <path d="M 57.6 307.584 
L 414.72 307.584 
" style="fill: none; stroke: #000000; stroke-width: 0.8; stroke-linejoin: miter; stroke-linecap: square"/>
   </g>
   <g id="patch_6">
    <path d="M 57.6 41.472 
L 414.72 41.472 
" style="fill: none; stroke: #000000; stroke-width: 0.8; stroke-linejoin: miter; stroke-linecap: square"/>
   </g>
   <g id="legend_1">
    <g id="patch_7">
     <path d="M 287.96375 137.54075 
L 407.72 137.54075 
Q 409.72 137.54075 409.72 135.54075 
L 409.72 48.472 
Q 409.72 46.472 407.72 46.472 
L 287.96375 46.472 
Q 285.96375 46.472 285.96375 48.472 
L 285.96375 135.54075 
Q 285.96375 137.54075 287.96375 137.54075 
z
" style="fill: #ffffff; opacity: 0.8; stroke: #cccccc; stroke-linejoin: miter"/>
    </g>
    <g id="text_17">
     <!-- Message Passing Steps -->
     <g transform="translate(289.96375 58.070438) scale(0.1 -0.1)">
      <defs>
       <path id="DejaVuSans-65" d="M 3597 1894 
L 3597 1613 
L 953 1613 
Q 991 1019 1311 708 
Q 1631 397 2203 397 
Q 2534 397 2845 478 
Q 3156 559 3463 722 
L 3463 178 
Q 3153 47 2828 -22 
Q 2503 -91 2169 -91 
Q 1331 -91 842 396 
Q 353 884 353 1716 
Q 353 2575 817 3079 
Q 1281 3584 2069 3584 
Q 2775 3584 3186 3129 
Q 3597 2675 3597 1894 
z
M 3022 2063 
Q 3016 2534 2758 2815 
Q 2500 3097 2075 3097 
Q 1594 3097 1305 2825 
Q 1016 2553 972 2059 
L 3022 2063 
z
" transform="scale(0.015625)"/>
       <path id="DejaVuSans-73" d="M 2834 3397 
L 2834 2853 
Q 2591 2978 2328 3040 
Q 2066 3103 1784 3103 
Q 1356 3103 1142 2972 
Q 928 2841 928 2578 
Q 928 2378 1081 2264 
Q 1234 2150 1697 2047 
L 1894 2003 
Q 2506 1872 2764 1633 
Q 3022 1394 3022 966 
Q 3022 478 2636 193 
Q 2250 -91 1575 -91 
Q 1294 -91 989 -36 
Q 684 19 347 128 
L 347 722 
Q 666 556 975 473 
Q 1284 391 1588 391 
Q 1994 391 2212 530 
Q 2431 669 2431 922 
Q 2431 1156 2273 1281 
Q 2116 1406 1581 1522 
L 1381 1569 
Q 847 1681 609 1914 
Q 372 2147 372 2553 
Q 372 3047 722 3315 
Q 1072 3584 1716 3584 
Q 2034 3584 2315 3537 
Q 2597 3491 2834 3397 
z
" transform="scale(0.015625)"/>
       <path id="DejaVuSans-50" d="M 1259 4147 
L 1259 2394 
L 2053 2394 
Q 2494 2394 2734 2622 
Q 2975 2850 2975 3272 
Q 2975 3691 2734 3919 
Q 2494 4147 2053 4147 
L 1259 4147 
z
M 628 4666 
L 2053 4666 
Q 2838 4666 3239 4311 
Q 3641 3956 3641 3272 
Q 3641 2581 3239 2228 
Q 2838 1875 2053 1875 
L 1259 1875 
L 1259 0 
L 628 0 
L 628 4666 
z
" transform="scale(0.015625)"/>
       <path id="DejaVuSans-74" d="M 1172 4494 
L 1172 3500 
L 2356 3500 
L 2356 3053 
L 1172 3053 
L 1172 1153 
Q 1172 725 1289 603 
Q 1406 481 1766 481 
L 2356 481 
L 2356 0 
L 1766 0 
Q 1100 0 847 248 
Q 594 497 594 1153 
L 594 3053 
L 172 3053 
L 172 3500 
L 594 3500 
L 594 4494 
L 1172 4494 
z
" transform="scale(0.015625)"/>
      </defs>
      <use xlink:href="#DejaVuSans-4d"/>
      <use xlink:href="#DejaVuSans-65" transform="translate(86.279297 0)"/>
      <use xlink:href="#DejaVuSans-73" transform="translate(147.802734 0)"/>
      <use xlink:href="#DejaVuSans-73" transform="translate(199.902344 0)"/>
      <use xlink:href="#DejaVuSans-61" transform="translate(252.001953 0)"/>
      <use xlink:href="#DejaVuSans-67" transform="translate(313.28125 0)"/>
      <use xlink:href="#DejaVuSans-65" transform="translate(376.757812 0)"/>
      <use xlink:href="#DejaVuSans-20" transform="translate(438.28125 0)"/>
      <use xlink:href="#DejaVuSans-50" transform="translate(470.068359 0)"/>
      <use xlink:href="#DejaVuSans-61" transform="translate(525.871094 0)"/>
      <use xlink:href="#DejaVuSans-73" transform="translate(587.150391 0)"/>
      <use xlink:href="#DejaVuSans-73" transform="translate(639.25 0)"/>
      <use xlink:href="#DejaVuSans-69" transform="translate(691.349609 0)"/>
      <use xlink:href="#DejaVuSans-6e" transform="translate(719.132812 0)"/>
      <use xlink:href="#DejaVuSans-67" transform="translate(782.511719 0)"/>
      <use xlink:href="#DejaVuSans-20" transform="translate(845.988281 0)"/>
      <use xlink:href="#DejaVuSans-53" transform="translate(877.775391 0)"/>
      <use xlink:href="#DejaVuSans-74" transform="translate(941.251953 0)"/>
      <use xlink:href="#DejaVuSans-65" transform="translate(980.460938 0)"/>
      <use xlink:href="#DejaVuSans-70" transform="translate(1041.984375 0)"/>
      <use xlink:href="#DejaVuSans-73" transform="translate(1105.460938 0)"/>
     </g>
    </g>
    <g id="line2d_26">
     <path d="M 330.660625 69.248563 
L 340.660625 69.248563 
L 350.660625 69.248563 
" style="fill: none; stroke: #2ca02c; stroke-opacity: 0.2; stroke-width: 1.5; stroke-linecap: square"/>
    </g>
    <g id="text_18">
     <!-- 3 -->
     <g transform="translate(358.660625 72.748563) scale(0.1 -0.1)">
      <defs>
       <path id="DejaVuSans-33" d="M 2597 2516 
Q 3050 2419 3304 2112 
Q 3559 1806 3559 1356 
Q 3559 666 3084 287 
Q 2609 -91 1734 -91 
Q 1441 -91 1130 -33 
Q 819 25 488 141 
L 488 750 
Q 750 597 1062 519 
Q 1375 441 1716 441 
Q 2309 441 2620 675 
Q 2931 909 2931 1356 
Q 2931 1769 2642 2001 
Q 2353 2234 1838 2234 
L 1294 2234 
L 1294 2753 
L 1863 2753 
Q 2328 2753 2575 2939 
Q 2822 3125 2822 3475 
Q 2822 3834 2567 4026 
Q 2313 4219 1838 4219 
Q 1578 4219 1281 4162 
Q 984 4106 628 3988 
L 628 4550 
Q 988 4650 1302 4700 
Q 1616 4750 1894 4750 
Q 2613 4750 3031 4423 
Q 3450 4097 3450 3541 
Q 3450 3153 3228 2886 
Q 3006 2619 2597 2516 
z
" transform="scale(0.015625)"/>
      </defs>
      <use xlink:href="#DejaVuSans-33"/>
     </g>
    </g>
    <g id="line2d_27">
     <path d="M 330.660625 83.926688 
L 340.660625 83.926688 
L 350.660625 83.926688 
" style="fill: none; stroke: #d62728; stroke-opacity: 0.4; stroke-width: 1.5; stroke-linecap: square"/>
    </g>
    <g id="text_19">
     <!-- 4 -->
     <g transform="translate(358.660625 87.426688) scale(0.1 -0.1)">
      <use xlink:href="#DejaVuSans-34"/>
     </g>
    </g>
    <g id="line2d_28">
     <path d="M 330.660625 98.604813 
L 340.660625 98.604813 
L 350.660625 98.604813 
" style="fill: none; stroke: #d62728; stroke-opacity: 0.6; stroke-width: 1.5; stroke-linecap: square"/>
    </g>
    <g id="text_20">
     <!-- 5 -->
     <g transform="translate(358.660625 102.104813) scale(0.1 -0.1)">
      <use xlink:href="#DejaVuSans-35"/>
     </g>
    </g>
    <g id="line2d_29">
     <path d="M 330.660625 113.282938 
L 340.660625 113.282938 
L 350.660625 113.282938 
" style="fill: none; stroke: #d62728; stroke-opacity: 0.8; stroke-width: 1.5; stroke-linecap: square"/>
    </g>
    <g id="text_21">
     <!-- 6 -->
     <g transform="translate(358.660625 116.782938) scale(0.1 -0.1)">
      <use xlink:href="#DejaVuSans-36"/>
     </g>
    </g>
    <g id="line2d_30">
     <path d="M 330.660625 127.961063 
L 340.660625 127.961063 
L 350.660625 127.961063 
" style="fill: none; stroke: #d62728; stroke-width: 1.5; stroke-linecap: square"/>
    </g>
    <g id="text_22">
     <!-- 7 -->
     <g transform="translate(358.660625 131.461063) scale(0.1 -0.1)">
      <use xlink:href="#DejaVuSans-37"/>
     </g>
    </g>
   </g>
  </g>
 </g>
 <defs>
  <clipPath id="p72cce301c0">
   <rect x="57.6" y="41.472" width="357.12" height="266.112"/>
  </clipPath>
 </defs>
</svg>
