<?xml version="1.0" encoding="utf-8" standalone="no"?>
<!DOCTYPE svg PUBLIC "-//W3C//DTD SVG 1.1//EN"
  "http://www.w3.org/Graphics/SVG/1.1/DTD/svg11.dtd">
<svg xmlns:xlink="http://www.w3.org/1999/xlink" width="460.8pt" height="345.6pt" viewBox="0 0 460.8 345.6" xmlns="http://www.w3.org/2000/svg" version="1.1">
 <metadata>
  <rdf:RDF xmlns:dc="http://purl.org/dc/elements/1.1/" xmlns:cc="http://creativecommons.org/ns#" xmlns:rdf="http://www.w3.org/1999/02/22-rdf-syntax-ns#">
   <cc:Work>
    <dc:type rdf:resource="http://purl.org/dc/dcmitype/StillImage"/>
    <dc:date>2025-10-18T14:42:45.280107</dc:date>
    <dc:format>image/svg+xml</dc:format>
    <dc:creator>
     <cc:Agent>
      <dc:title>Matplotlib v3.10.7, https://matplotlib.org/</dc:title>
     </cc:Agent>
    </dc:creator>
   </cc:Work>
  </rdf:RDF>
 </metadata>
 <defs>
  <style type="text/css">*{stroke-linejoin: round; stroke-linecap: butt}</style>
 </defs>
 <g id="figure_1">
  <g id="patch_1">
   <path d="M 0 345.6 
L 460.8 345.6 
L 460.8 0 
L 0 0 
z
" style="fill: #ffffff"/>
  </g>
  <g id="axes_1">
   <g id="patch_2">
    <path d="M 57.6 307.584 
L 414.72 307.584 
L 414.72 41.472 
L 57.6 41.472 
z
" style="fill: #ffffff"/>
   </g>
   <g id="matplotlib.axis_1">
    <g id="xtick_1">
     <g id="line2d_1">
      <defs>
       <path id="m4b918c61ec" d="M 0 0 
L 0 3.5 
" style="stroke: #000000; stroke-width: 0.8"/>
      </defs>
      <g>
       <use xlink:href="#m4b918c61ec" x="73.832727" y="307.584" style="stroke: #000000; stroke-width: 0.8"/>
      </g>
     </g>
     <g id="text_1">
      <!-- 0 -->
      <g transform="translate(70.651477 322.182437) scale(0.1 -0.1)">
       <defs>
        <path id="DejaVuSans-30" d="M 2034 4250 
Q 1547 4250 1301 3770 
Q 1056 3291 1056 2328 
Q 1056 1369 1301 889 
Q 1547 409 2034 409 
Q 2525 409 2770 889 
Q 3016 1369 3016 2328 
Q 3016 3291 2770 3770 
Q 2525 4250 2034 4250 
z
M 2034 4750 
Q 2819 4750 3233 4129 
Q 3647 3509 3647 2328 
Q 3647 1150 3233 529 
Q 2819 -91 2034 -91 
Q 1250 -91 836 529 
Q 422 1150 422 2328 
Q 422 3509 836 4129 
Q 1250 4750 2034 4750 
z
" transform="scale(0.015625)"/>
       </defs>
       <use xlink:href="#DejaVuSans-30"/>
      </g>
     </g>
    </g>
    <g id="xtick_2">
     <g id="line2d_2">
      <g>
       <use xlink:href="#m4b918c61ec" x="142.908162" y="307.584" style="stroke: #000000; stroke-width: 0.8"/>
      </g>
     </g>
     <g id="text_2">
      <!-- 20 -->
      <g transform="translate(136.545662 322.182437) scale(0.1 -0.1)">
       <defs>
        <path id="DejaVuSans-32" d="M 1228 531 
L 3431 531 
L 3431 0 
L 469 0 
L 469 531 
Q 828 903 1448 1529 
Q 2069 2156 2228 2338 
Q 2531 2678 2651 2914 
Q 2772 3150 2772 3378 
Q 2772 3750 2511 3984 
Q 2250 4219 1831 4219 
Q 1534 4219 1204 4116 
Q 875 4013 500 3803 
L 500 4441 
Q 881 4594 1212 4672 
Q 1544 4750 1819 4750 
Q 2544 4750 2975 4387 
Q 3406 4025 3406 3419 
Q 3406 3131 3298 2873 
Q 3191 2616 2906 2266 
Q 2828 2175 2409 1742 
Q 1991 1309 1228 531 
z
" transform="scale(0.015625)"/>
       </defs>
       <use xlink:href="#DejaVuSans-32"/>
       <use xlink:href="#DejaVuSans-30" transform="translate(63.623047 0)"/>
      </g>
     </g>
    </g>
    <g id="xtick_3">
     <g id="line2d_3">
      <g>
       <use xlink:href="#m4b918c61ec" x="211.983598" y="307.584" style="stroke: #000000; stroke-width: 0.8"/>
      </g>
     </g>
     <g id="text_3">
      <!-- 40 -->
      <g transform="translate(205.621098 322.182437) scale(0.1 -0.1)">
       <defs>
        <path id="DejaVuSans-34" d="M 2419 4116 
L 825 1625 
L 2419 1625 
L 2419 4116 
z
M 2253 4666 
L 3047 4666 
L 3047 1625 
L 3713 1625 
L 3713 1100 
L 3047 1100 
L 3047 0 
L 2419 0 
L 2419 1100 
L 313 1100 
L 313 1709 
L 2253 4666 
z
" transform="scale(0.015625)"/>
       </defs>
       <use xlink:href="#DejaVuSans-34"/>
       <use xlink:href="#DejaVuSans-30" transform="translate(63.623047 0)"/>
      </g>
     </g>
    </g>
    <g id="xtick_4">
     <g id="line2d_4">
      <g>
       <use xlink:href="#m4b918c61ec" x="281.059033" y="307.584" style="stroke: #000000; stroke-width: 0.8"/>
      </g>
     </g>
     <g id="text_4">
      <!-- 60 -->
      <g transform="translate(274.696533 322.182437) scale(0.1 -0.1)">
       <defs>
        <path id="DejaVuSans-36" d="M 2113 2584 
Q 1688 2584 1439 2293 
Q 1191 2003 1191 1497 
Q 1191 994 1439 701 
Q 1688 409 2113 409 
Q 2538 409 2786 701 
Q 3034 994 3034 1497 
Q 3034 2003 2786 2293 
Q 2538 2584 2113 2584 
z
M 3366 4563 
L 3366 3988 
Q 3128 4100 2886 4159 
Q 2644 4219 2406 4219 
Q 1781 4219 1451 3797 
Q 1122 3375 1075 2522 
Q 1259 2794 1537 2939 
Q 1816 3084 2150 3084 
Q 2853 3084 3261 2657 
Q 3669 2231 3669 1497 
Q 3669 778 3244 343 
Q 2819 -91 2113 -91 
Q 1303 -91 875 529 
Q 447 1150 447 2328 
Q 447 3434 972 4092 
Q 1497 4750 2381 4750 
Q 2619 4750 2861 4703 
Q 3103 4656 3366 4563 
z
" transform="scale(0.015625)"/>
       </defs>
       <use xlink:href="#DejaVuSans-36"/>
       <use xlink:href="#DejaVuSans-30" transform="translate(63.623047 0)"/>
      </g>
     </g>
    </g>
    <g id="xtick_5">
     <g id="line2d_5">
      <g>
       <use xlink:href="#m4b918c61ec" x="350.134468" y="307.584" style="stroke: #000000; stroke-width: 0.8"/>
      </g>
     </g>
     <g id="text_5">
      <!-- 80 -->
      <g transform="translate(343.771968 322.182437) scale(0.1 -0.1)">
       <defs>
        <path id="DejaVuSans-38" d="M 2034 2216 
Q 1584 2216 1326 1975 
Q 1069 1734 1069 1313 
Q 1069 891 1326 650 
Q 1584 409 2034 409 
Q 2484 409 2743 651 
Q 3003 894 3003 1313 
Q 3003 1734 2745 1975 
Q 2488 2216 2034 2216 
z
M 1403 2484 
Q 997 2584 770 2862 
Q 544 3141 544 3541 
Q 544 4100 942 4425 
Q 1341 4750 2034 4750 
Q 2731 4750 3128 4425 
Q 3525 4100 3525 3541 
Q 3525 3141 3298 2862 
Q 3072 2584 2669 2484 
Q 3125 2378 3379 2068 
Q 3634 1759 3634 1313 
Q 3634 634 3220 271 
Q 2806 -91 2034 -91 
Q 1263 -91 848 271 
Q 434 634 434 1313 
Q 434 1759 690 2068 
Q 947 2378 1403 2484 
z
M 1172 3481 
Q 1172 3119 1398 2916 
Q 1625 2713 2034 2713 
Q 2441 2713 2670 2916 
Q 2900 3119 2900 3481 
Q 2900 3844 2670 4047 
Q 2441 4250 2034 4250 
Q 1625 4250 1398 4047 
Q 1172 3844 1172 3481 
z
" transform="scale(0.015625)"/>
       </defs>
       <use xlink:href="#DejaVuSans-38"/>
       <use xlink:href="#DejaVuSans-30" transform="translate(63.623047 0)"/>
      </g>
     </g>
    </g>
    <g id="text_6">
     <!-- Training Epoch -->
     <g transform="translate(199.534219 335.860562) scale(0.1 -0.1)">
      <defs>
       <path id="DejaVuSans-54" d="M -19 4666 
L 3928 4666 
L 3928 4134 
L 2272 4134 
L 2272 0 
L 1638 0 
L 1638 4134 
L -19 4134 
L -19 4666 
z
" transform="scale(0.015625)"/>
       <path id="DejaVuSans-72" d="M 2631 2963 
Q 2534 3019 2420 3045 
Q 2306 3072 2169 3072 
Q 1681 3072 1420 2755 
Q 1159 2438 1159 1844 
L 1159 0 
L 581 0 
L 581 3500 
L 1159 3500 
L 1159 2956 
Q 1341 3275 1631 3429 
Q 1922 3584 2338 3584 
Q 2397 3584 2469 3576 
Q 2541 3569 2628 3553 
L 2631 2963 
z
" transform="scale(0.015625)"/>
       <path id="DejaVuSans-61" d="M 2194 1759 
Q 1497 1759 1228 1600 
Q 959 1441 959 1056 
Q 959 750 1161 570 
Q 1363 391 1709 391 
Q 2188 391 2477 730 
Q 2766 1069 2766 1631 
L 2766 1759 
L 2194 1759 
z
M 3341 1997 
L 3341 0 
L 2766 0 
L 2766 531 
Q 2569 213 2275 61 
Q 1981 -91 1556 -91 
Q 1019 -91 701 211 
Q 384 513 384 1019 
Q 384 1609 779 1909 
Q 1175 2209 1959 2209 
L 2766 2209 
L 2766 2266 
Q 2766 2663 2505 2880 
Q 2244 3097 1772 3097 
Q 1472 3097 1187 3025 
Q 903 2953 641 2809 
L 641 3341 
Q 956 3463 1253 3523 
Q 1550 3584 1831 3584 
Q 2591 3584 2966 3190 
Q 3341 2797 3341 1997 
z
" transform="scale(0.015625)"/>
       <path id="DejaVuSans-69" d="M 603 3500 
L 1178 3500 
L 1178 0 
L 603 0 
L 603 3500 
z
M 603 4863 
L 1178 4863 
L 1178 4134 
L 603 4134 
L 603 4863 
z
" transform="scale(0.015625)"/>
       <path id="DejaVuSans-6e" d="M 3513 2113 
L 3513 0 
L 2938 0 
L 2938 2094 
Q 2938 2591 2744 2837 
Q 2550 3084 2163 3084 
Q 1697 3084 1428 2787 
Q 1159 2491 1159 1978 
L 1159 0 
L 581 0 
L 581 3500 
L 1159 3500 
L 1159 2956 
Q 1366 3272 1645 3428 
Q 1925 3584 2291 3584 
Q 2894 3584 3203 3211 
Q 3513 2838 3513 2113 
z
" transform="scale(0.015625)"/>
       <path id="DejaVuSans-67" d="M 2906 1791 
Q 2906 2416 2648 2759 
Q 2391 3103 1925 3103 
Q 1463 3103 1205 2759 
Q 947 2416 947 1791 
Q 947 1169 1205 825 
Q 1463 481 1925 481 
Q 2391 481 2648 825 
Q 2906 1169 2906 1791 
z
M 3481 434 
Q 3481 -459 3084 -895 
Q 2688 -1331 1869 -1331 
Q 1566 -1331 1297 -1286 
Q 1028 -1241 775 -1147 
L 775 -588 
Q 1028 -725 1275 -790 
Q 1522 -856 1778 -856 
Q 2344 -856 2625 -561 
Q 2906 -266 2906 331 
L 2906 616 
Q 2728 306 2450 153 
Q 2172 0 1784 0 
Q 1141 0 747 490 
Q 353 981 353 1791 
Q 353 2603 747 3093 
Q 1141 3584 1784 3584 
Q 2172 3584 2450 3431 
Q 2728 3278 2906 2969 
L 2906 3500 
L 3481 3500 
L 3481 434 
z
" transform="scale(0.015625)"/>
       <path id="DejaVuSans-20" transform="scale(0.015625)"/>
       <path id="DejaVuSans-45" d="M 628 4666 
L 3578 4666 
L 3578 4134 
L 1259 4134 
L 1259 2753 
L 3481 2753 
L 3481 2222 
L 1259 2222 
L 1259 531 
L 3634 531 
L 3634 0 
L 628 0 
L 628 4666 
z
" transform="scale(0.015625)"/>
       <path id="DejaVuSans-70" d="M 1159 525 
L 1159 -1331 
L 581 -1331 
L 581 3500 
L 1159 3500 
L 1159 2969 
Q 1341 3281 1617 3432 
Q 1894 3584 2278 3584 
Q 2916 3584 3314 3078 
Q 3713 2572 3713 1747 
Q 3713 922 3314 415 
Q 2916 -91 2278 -91 
Q 1894 -91 1617 61 
Q 1341 213 1159 525 
z
M 3116 1747 
Q 3116 2381 2855 2742 
Q 2594 3103 2138 3103 
Q 1681 3103 1420 2742 
Q 1159 2381 1159 1747 
Q 1159 1113 1420 752 
Q 1681 391 2138 391 
Q 2594 391 2855 752 
Q 3116 1113 3116 1747 
z
" transform="scale(0.015625)"/>
       <path id="DejaVuSans-6f" d="M 1959 3097 
Q 1497 3097 1228 2736 
Q 959 2375 959 1747 
Q 959 1119 1226 758 
Q 1494 397 1959 397 
Q 2419 397 2687 759 
Q 2956 1122 2956 1747 
Q 2956 2369 2687 2733 
Q 2419 3097 1959 3097 
z
M 1959 3584 
Q 2709 3584 3137 3096 
Q 3566 2609 3566 1747 
Q 3566 888 3137 398 
Q 2709 -91 1959 -91 
Q 1206 -91 779 398 
Q 353 888 353 1747 
Q 353 2609 779 3096 
Q 1206 3584 1959 3584 
z
" transform="scale(0.015625)"/>
       <path id="DejaVuSans-63" d="M 3122 3366 
L 3122 2828 
Q 2878 2963 2633 3030 
Q 2388 3097 2138 3097 
Q 1578 3097 1268 2742 
Q 959 2388 959 1747 
Q 959 1106 1268 751 
Q 1578 397 2138 397 
Q 2388 397 2633 464 
Q 2878 531 3122 666 
L 3122 134 
Q 2881 22 2623 -34 
Q 2366 -91 2075 -91 
Q 1284 -91 818 406 
Q 353 903 353 1747 
Q 353 2603 823 3093 
Q 1294 3584 2113 3584 
Q 2378 3584 2631 3529 
Q 2884 3475 3122 3366 
z
" transform="scale(0.015625)"/>
       <path id="DejaVuSans-68" d="M 3513 2113 
L 3513 0 
L 2938 0 
L 2938 2094 
Q 2938 2591 2744 2837 
Q 2550 3084 2163 3084 
Q 1697 3084 1428 2787 
Q 1159 2491 1159 1978 
L 1159 0 
L 581 0 
L 581 4863 
L 1159 4863 
L 1159 2956 
Q 1366 3272 1645 3428 
Q 1925 3584 2291 3584 
Q 2894 3584 3203 3211 
Q 3513 2838 3513 2113 
z
" transform="scale(0.015625)"/>
      </defs>
      <use xlink:href="#DejaVuSans-54"/>
      <use xlink:href="#DejaVuSans-72" transform="translate(46.333984 0)"/>
      <use xlink:href="#DejaVuSans-61" transform="translate(87.447266 0)"/>
      <use xlink:href="#DejaVuSans-69" transform="translate(148.726562 0)"/>
      <use xlink:href="#DejaVuSans-6e" transform="translate(176.509766 0)"/>
      <use xlink:href="#DejaVuSans-69" transform="translate(239.888672 0)"/>
      <use xlink:href="#DejaVuSans-6e" transform="translate(267.671875 0)"/>
      <use xlink:href="#DejaVuSans-67" transform="translate(331.050781 0)"/>
      <use xlink:href="#DejaVuSans-20" transform="translate(394.527344 0)"/>
      <use xlink:href="#DejaVuSans-45" transform="translate(426.314453 0)"/>
      <use xlink:href="#DejaVuSans-70" transform="translate(489.498047 0)"/>
      <use xlink:href="#DejaVuSans-6f" transform="translate(552.974609 0)"/>
      <use xlink:href="#DejaVuSans-63" transform="translate(614.15625 0)"/>
      <use xlink:href="#DejaVuSans-68" transform="translate(669.136719 0)"/>
     </g>
    </g>
   </g>
   <g id="matplotlib.axis_2">
    <g id="ytick_1">
     <g id="line2d_6">
      <defs>
       <path id="md957fbadda" d="M 0 0 
L -3.5 0 
" style="stroke: #000000; stroke-width: 0.8"/>
      </defs>
      <g>
       <use xlink:href="#md957fbadda" x="57.6" y="289.37392" style="stroke: #000000; stroke-width: 0.8"/>
      </g>
     </g>
     <g id="text_7">
      <!-- 0.25 -->
      <g transform="translate(28.334375 293.173139) scale(0.1 -0.1)">
       <defs>
        <path id="DejaVuSans-2e" d="M 684 794 
L 1344 794 
L 1344 0 
L 684 0 
L 684 794 
z
" transform="scale(0.015625)"/>
        <path id="DejaVuSans-35" d="M 691 4666 
L 3169 4666 
L 3169 4134 
L 1269 4134 
L 1269 2991 
Q 1406 3038 1543 3061 
Q 1681 3084 1819 3084 
Q 2600 3084 3056 2656 
Q 3513 2228 3513 1497 
Q 3513 744 3044 326 
Q 2575 -91 1722 -91 
Q 1428 -91 1123 -41 
Q 819 9 494 109 
L 494 744 
Q 775 591 1075 516 
Q 1375 441 1709 441 
Q 2250 441 2565 725 
Q 2881 1009 2881 1497 
Q 2881 1984 2565 2268 
Q 2250 2553 1709 2553 
Q 1456 2553 1204 2497 
Q 953 2441 691 2322 
L 691 4666 
z
" transform="scale(0.015625)"/>
       </defs>
       <use xlink:href="#DejaVuSans-30"/>
       <use xlink:href="#DejaVuSans-2e" transform="translate(63.623047 0)"/>
       <use xlink:href="#DejaVuSans-32" transform="translate(95.410156 0)"/>
       <use xlink:href="#DejaVuSans-35" transform="translate(159.033203 0)"/>
      </g>
     </g>
    </g>
    <g id="ytick_2">
     <g id="line2d_7">
      <g>
       <use xlink:href="#md957fbadda" x="57.6" y="256.747189" style="stroke: #000000; stroke-width: 0.8"/>
      </g>
     </g>
     <g id="text_8">
      <!-- 0.50 -->
      <g transform="translate(28.334375 260.546407) scale(0.1 -0.1)">
       <use xlink:href="#DejaVuSans-30"/>
       <use xlink:href="#DejaVuSans-2e" transform="translate(63.623047 0)"/>
       <use xlink:href="#DejaVuSans-35" transform="translate(95.410156 0)"/>
       <use xlink:href="#DejaVuSans-30" transform="translate(159.033203 0)"/>
      </g>
     </g>
    </g>
    <g id="ytick_3">
     <g id="line2d_8">
      <g>
       <use xlink:href="#md957fbadda" x="57.6" y="224.120458" style="stroke: #000000; stroke-width: 0.8"/>
      </g>
     </g>
     <g id="text_9">
      <!-- 0.75 -->
      <g transform="translate(28.334375 227.919676) scale(0.1 -0.1)">
       <defs>
        <path id="DejaVuSans-37" d="M 525 4666 
L 3525 4666 
L 3525 4397 
L 1831 0 
L 1172 0 
L 2766 4134 
L 525 4134 
L 525 4666 
z
" transform="scale(0.015625)"/>
       </defs>
       <use xlink:href="#DejaVuSans-30"/>
       <use xlink:href="#DejaVuSans-2e" transform="translate(63.623047 0)"/>
       <use xlink:href="#DejaVuSans-37" transform="translate(95.410156 0)"/>
       <use xlink:href="#DejaVuSans-35" transform="translate(159.033203 0)"/>
      </g>
     </g>
    </g>
    <g id="ytick_4">
     <g id="line2d_9">
      <g>
       <use xlink:href="#md957fbadda" x="57.6" y="191.493726" style="stroke: #000000; stroke-width: 0.8"/>
      </g>
     </g>
     <g id="text_10">
      <!-- 1.00 -->
      <g transform="translate(28.334375 195.292945) scale(0.1 -0.1)">
       <defs>
        <path id="DejaVuSans-31" d="M 794 531 
L 1825 531 
L 1825 4091 
L 703 3866 
L 703 4441 
L 1819 4666 
L 2450 4666 
L 2450 531 
L 3481 531 
L 3481 0 
L 794 0 
L 794 531 
z
" transform="scale(0.015625)"/>
       </defs>
       <use xlink:href="#DejaVuSans-31"/>
       <use xlink:href="#DejaVuSans-2e" transform="translate(63.623047 0)"/>
       <use xlink:href="#DejaVuSans-30" transform="translate(95.410156 0)"/>
       <use xlink:href="#DejaVuSans-30" transform="translate(159.033203 0)"/>
      </g>
     </g>
    </g>
    <g id="ytick_5">
     <g id="line2d_10">
      <g>
       <use xlink:href="#md957fbadda" x="57.6" y="158.866995" style="stroke: #000000; stroke-width: 0.8"/>
      </g>
     </g>
     <g id="text_11">
      <!-- 1.25 -->
      <g transform="translate(28.334375 162.666214) scale(0.1 -0.1)">
       <use xlink:href="#DejaVuSans-31"/>
       <use xlink:href="#DejaVuSans-2e" transform="translate(63.623047 0)"/>
       <use xlink:href="#DejaVuSans-32" transform="translate(95.410156 0)"/>
       <use xlink:href="#DejaVuSans-35" transform="translate(159.033203 0)"/>
      </g>
     </g>
    </g>
    <g id="ytick_6">
     <g id="line2d_11">
      <g>
       <use xlink:href="#md957fbadda" x="57.6" y="126.240264" style="stroke: #000000; stroke-width: 0.8"/>
      </g>
     </g>
     <g id="text_12">
      <!-- 1.50 -->
      <g transform="translate(28.334375 130.039483) scale(0.1 -0.1)">
       <use xlink:href="#DejaVuSans-31"/>
       <use xlink:href="#DejaVuSans-2e" transform="translate(63.623047 0)"/>
       <use xlink:href="#DejaVuSans-35" transform="translate(95.410156 0)"/>
       <use xlink:href="#DejaVuSans-30" transform="translate(159.033203 0)"/>
      </g>
     </g>
    </g>
    <g id="ytick_7">
     <g id="line2d_12">
      <g>
       <use xlink:href="#md957fbadda" x="57.6" y="93.613533" style="stroke: #000000; stroke-width: 0.8"/>
      </g>
     </g>
     <g id="text_13">
      <!-- 1.75 -->
      <g transform="translate(28.334375 97.412752) scale(0.1 -0.1)">
       <use xlink:href="#DejaVuSans-31"/>
       <use xlink:href="#DejaVuSans-2e" transform="translate(63.623047 0)"/>
       <use xlink:href="#DejaVuSans-37" transform="translate(95.410156 0)"/>
       <use xlink:href="#DejaVuSans-35" transform="translate(159.033203 0)"/>
      </g>
     </g>
    </g>
    <g id="ytick_8">
     <g id="line2d_13">
      <g>
       <use xlink:href="#md957fbadda" x="57.6" y="60.986802" style="stroke: #000000; stroke-width: 0.8"/>
      </g>
     </g>
     <g id="text_14">
      <!-- 2.00 -->
      <g transform="translate(28.334375 64.786021) scale(0.1 -0.1)">
       <use xlink:href="#DejaVuSans-32"/>
       <use xlink:href="#DejaVuSans-2e" transform="translate(63.623047 0)"/>
       <use xlink:href="#DejaVuSans-30" transform="translate(95.410156 0)"/>
       <use xlink:href="#DejaVuSans-30" transform="translate(159.033203 0)"/>
      </g>
     </g>
    </g>
    <g id="text_15">
     <!-- Valid RMSE -->
     <g transform="translate(22.254687 202.288156) rotate(-90) scale(0.1 -0.1)">
      <defs>
       <path id="DejaVuSans-56" d="M 1831 0 
L 50 4666 
L 709 4666 
L 2188 738 
L 3669 4666 
L 4325 4666 
L 2547 0 
L 1831 0 
z
" transform="scale(0.015625)"/>
       <path id="DejaVuSans-6c" d="M 603 4863 
L 1178 4863 
L 1178 0 
L 603 0 
L 603 4863 
z
" transform="scale(0.015625)"/>
       <path id="DejaVuSans-64" d="M 2906 2969 
L 2906 4863 
L 3481 4863 
L 3481 0 
L 2906 0 
L 2906 525 
Q 2725 213 2448 61 
Q 2172 -91 1784 -91 
Q 1150 -91 751 415 
Q 353 922 353 1747 
Q 353 2572 751 3078 
Q 1150 3584 1784 3584 
Q 2172 3584 2448 3432 
Q 2725 3281 2906 2969 
z
M 947 1747 
Q 947 1113 1208 752 
Q 1469 391 1925 391 
Q 2381 391 2643 752 
Q 2906 1113 2906 1747 
Q 2906 2381 2643 2742 
Q 2381 3103 1925 3103 
Q 1469 3103 1208 2742 
Q 947 2381 947 1747 
z
" transform="scale(0.015625)"/>
       <path id="DejaVuSans-52" d="M 2841 2188 
Q 3044 2119 3236 1894 
Q 3428 1669 3622 1275 
L 4263 0 
L 3584 0 
L 2988 1197 
Q 2756 1666 2539 1819 
Q 2322 1972 1947 1972 
L 1259 1972 
L 1259 0 
L 628 0 
L 628 4666 
L 2053 4666 
Q 2853 4666 3247 4331 
Q 3641 3997 3641 3322 
Q 3641 2881 3436 2590 
Q 3231 2300 2841 2188 
z
M 1259 4147 
L 1259 2491 
L 2053 2491 
Q 2509 2491 2742 2702 
Q 2975 2913 2975 3322 
Q 2975 3731 2742 3939 
Q 2509 4147 2053 4147 
L 1259 4147 
z
" transform="scale(0.015625)"/>
       <path id="DejaVuSans-4d" d="M 628 4666 
L 1569 4666 
L 2759 1491 
L 3956 4666 
L 4897 4666 
L 4897 0 
L 4281 0 
L 4281 4097 
L 3078 897 
L 2444 897 
L 1241 4097 
L 1241 0 
L 628 0 
L 628 4666 
z
" transform="scale(0.015625)"/>
       <path id="DejaVuSans-53" d="M 3425 4513 
L 3425 3897 
Q 3066 4069 2747 4153 
Q 2428 4238 2131 4238 
Q 1616 4238 1336 4038 
Q 1056 3838 1056 3469 
Q 1056 3159 1242 3001 
Q 1428 2844 1947 2747 
L 2328 2669 
Q 3034 2534 3370 2195 
Q 3706 1856 3706 1288 
Q 3706 609 3251 259 
Q 2797 -91 1919 -91 
Q 1588 -91 1214 -16 
Q 841 59 441 206 
L 441 856 
Q 825 641 1194 531 
Q 1563 422 1919 422 
Q 2459 422 2753 634 
Q 3047 847 3047 1241 
Q 3047 1584 2836 1778 
Q 2625 1972 2144 2069 
L 1759 2144 
Q 1053 2284 737 2584 
Q 422 2884 422 3419 
Q 422 4038 858 4394 
Q 1294 4750 2059 4750 
Q 2388 4750 2728 4690 
Q 3069 4631 3425 4513 
z
" transform="scale(0.015625)"/>
      </defs>
      <use xlink:href="#DejaVuSans-56"/>
      <use xlink:href="#DejaVuSans-61" transform="translate(60.658203 0)"/>
      <use xlink:href="#DejaVuSans-6c" transform="translate(121.9375 0)"/>
      <use xlink:href="#DejaVuSans-69" transform="translate(149.720703 0)"/>
      <use xlink:href="#DejaVuSans-64" transform="translate(177.503906 0)"/>
      <use xlink:href="#DejaVuSans-20" transform="translate(240.980469 0)"/>
      <use xlink:href="#DejaVuSans-52" transform="translate(272.767578 0)"/>
      <use xlink:href="#DejaVuSans-4d" transform="translate(342.25 0)"/>
      <use xlink:href="#DejaVuSans-53" transform="translate(428.529297 0)"/>
      <use xlink:href="#DejaVuSans-45" transform="translate(492.005859 0)"/>
     </g>
    </g>
   </g>
   <g id="line2d_14">
    <path d="M 73.832727 53.568 
L 77.286499 64.297032 
L 80.740271 96.819402 
L 84.194043 122.452994 
L 87.647814 129.782637 
L 91.101586 146.816822 
L 94.555358 130.249489 
L 98.00913 166.421273 
L 101.462901 165.918978 
L 104.916673 168.985945 
L 108.370445 187.630987 
L 111.824217 190.617466 
L 115.277988 187.325998 
L 118.73176 197.592522 
L 122.185532 205.903632 
L 125.639304 209.420344 
L 129.093075 209.642922 
L 132.546847 217.680956 
L 136.000619 217.811269 
L 139.454391 212.848083 
L 142.908162 214.537573 
L 146.361934 139.134182 
L 149.815706 223.010826 
L 153.269478 218.673047 
L 156.72325 211.77345 
L 160.177021 230.201825 
L 163.630793 228.986061 
L 167.084565 216.055281 
L 170.538337 229.955793 
L 173.992108 235.82366 
L 177.44588 218.105042 
L 180.899652 235.881177 
L 184.353424 236.482822 
L 187.807195 231.511628 
L 191.260967 234.755525 
L 194.714739 226.066456 
L 198.168511 234.137729 
L 201.622282 239.113231 
L 205.076054 230.182785 
L 208.529826 224.733782 
L 211.983598 231.917326 
L 215.437369 241.378786 
L 218.891141 242.121794 
L 222.344913 225.013852 
L 225.798685 235.312444 
L 229.252456 232.761866 
L 232.706228 243.479695 
L 236.16 242.07203 
L 239.613772 245.373189 
L 243.067544 246.670609 
L 246.521315 226.433644 
L 249.975087 246.405405 
L 253.428859 233.988405 
L 256.882631 246.514256 
L 260.336402 243.961162 
L 263.790174 206.76328 
L 267.243946 237.252228 
L 270.697718 243.535297 
L 274.151489 248.567468 
L 277.605261 249.034865 
L 281.059033 249.933507 
L 284.512805 247.283856 
L 287.966576 249.24378 
L 291.420348 251.721489 
L 294.87412 250.647049 
L 298.327892 236.323734 
L 301.781663 241.726245 
L 305.235435 247.531196 
L 308.689207 252.92867 
L 312.142979 250.154251 
L 315.59675 244.282508 
L 319.050522 252.241343 
L 322.504294 250.006903 
L 325.958066 245.073531 
L 329.411838 254.465589 
L 332.865609 253.686631 
L 336.319381 248.199568 
L 339.773153 256.840566 
L 343.226925 253.798504 
L 346.680696 250.647475 
L 350.134468 254.584312 
L 353.58824 249.113343 
L 357.042012 253.034812 
L 360.495783 232.32402 
L 363.949555 252.125534 
L 367.403327 251.397138 
L 370.857099 242.57359 
L 374.31087 229.985832 
L 377.764642 229.118178 
L 381.218414 256.773159 
L 384.672186 259.305538 
L 388.125957 257.454105 
L 391.579729 257.336881 
L 395.033501 239.140844 
L 398.487273 254.784292 
" clip-path="url(#p9354a0831d)" style="fill: none; stroke: #7f7f7f; stroke-opacity: 0.2; stroke-width: 1.5; stroke-linecap: square"/>
   </g>
   <g id="line2d_15">
    <path d="M 73.832727 70.13004 
L 77.286499 85.143688 
L 80.740271 108.132501 
L 84.194043 122.330898 
L 87.647814 126.040701 
L 91.101586 143.273711 
L 94.555358 125.161759 
L 98.00913 156.164291 
L 101.462901 152.938589 
L 104.916673 151.485405 
L 108.370445 172.94219 
L 111.824217 183.561742 
L 115.277988 189.161328 
L 118.73176 187.363086 
L 122.185532 191.848401 
L 125.639304 201.149771 
L 129.093075 209.471042 
L 132.546847 215.967171 
L 136.000619 216.16554 
L 139.454391 207.962745 
L 142.908162 213.391192 
L 146.361934 122.717032 
L 149.815706 216.867267 
L 153.269478 200.3162 
L 156.72325 197.358159 
L 160.177021 217.749099 
L 163.630793 207.914744 
L 167.084565 209.609815 
L 170.538337 218.296237 
L 173.992108 216.781516 
L 177.44588 191.69315 
L 180.899652 215.484802 
L 184.353424 220.862651 
L 187.807195 205.149655 
L 191.260967 216.3792 
L 194.714739 219.539187 
L 198.168511 218.871203 
L 201.622282 223.674321 
L 205.076054 217.846382 
L 208.529826 206.292077 
L 211.983598 216.930372 
L 215.437369 222.36192 
L 218.891141 220.076033 
L 222.344913 214.113366 
L 225.798685 206.903188 
L 229.252456 224.097196 
L 232.706228 224.126615 
L 236.16 214.252921 
L 239.613772 215.9848 
L 243.067544 225.20317 
L 246.521315 214.534943 
L 249.975087 225.265886 
L 253.428859 222.865559 
L 256.882631 221.894664 
L 260.336402 216.983164 
L 263.790174 196.499254 
L 267.243946 218.806843 
L 270.697718 223.280209 
L 274.151489 226.710786 
L 277.605261 223.977587 
L 281.059033 222.992444 
L 284.512805 221.360913 
L 287.966576 216.266783 
L 291.420348 224.136759 
L 294.87412 219.175766 
L 298.327892 203.771943 
L 301.781663 222.55662 
L 305.235435 214.985529 
L 308.689207 219.103633 
L 312.142979 220.829965 
L 315.59675 222.990251 
L 319.050522 218.391862 
L 322.504294 218.681693 
L 325.958066 205.180768 
L 329.411838 227.313297 
L 332.865609 220.269964 
L 336.319381 222.274658 
L 339.773153 223.383975 
L 343.226925 220.568111 
L 346.680696 227.420901 
L 350.134468 225.743239 
L 353.58824 205.861531 
L 357.042012 214.798291 
L 360.495783 211.576878 
L 363.949555 223.875571 
L 367.403327 223.392614 
L 370.857099 220.9896 
L 374.31087 210.873187 
L 377.764642 196.556489 
L 381.218414 216.071684 
L 384.672186 224.663491 
L 388.125957 222.636707 
L 391.579729 223.785488 
L 395.033501 216.481318 
L 398.487273 224.505767 
" clip-path="url(#p9354a0831d)" style="fill: none; stroke: #d62728; stroke-opacity: 0.2; stroke-width: 1.5; stroke-linecap: square"/>
   </g>
   <g id="line2d_16">
    <path d="M 73.832727 84.305521 
L 77.286499 111.847485 
L 80.740271 146.694515 
L 84.194043 118.925326 
L 87.647814 166.774027 
L 91.101586 171.798335 
L 94.555358 171.520758 
L 98.00913 181.792869 
L 101.462901 202.556992 
L 104.916673 211.220211 
L 108.370445 201.283012 
L 111.824217 211.638779 
L 115.277988 201.362384 
L 118.73176 212.050583 
L 122.185532 224.011718 
L 125.639304 210.891832 
L 129.093075 227.93947 
L 132.546847 179.853746 
L 136.000619 226.017494 
L 139.454391 212.342701 
L 142.908162 228.08226 
L 146.361934 228.862033 
L 149.815706 237.474389 
L 153.269478 236.618591 
L 156.72325 237.469829 
L 160.177021 211.843252 
L 163.630793 230.613981 
L 167.084565 237.491686 
L 170.538337 233.25345 
L 173.992108 237.836677 
L 177.44588 248.685106 
L 180.899652 249.084196 
L 184.353424 243.632935 
L 187.807195 243.494031 
L 191.260967 241.497105 
L 194.714739 247.443339 
L 198.168511 243.337424 
L 201.622282 245.875885 
L 205.076054 228.939743 
L 208.529826 245.21217 
L 211.983598 245.837348 
L 215.437369 240.654887 
L 218.891141 250.818035 
L 222.344913 248.036727 
L 225.798685 251.80314 
L 229.252456 254.972288 
L 232.706228 256.696184 
L 236.16 254.554103 
L 239.613772 253.126858 
L 243.067544 257.350892 
" clip-path="url(#p9354a0831d)" style="fill: none; stroke: #7f7f7f; stroke-opacity: 0.4; stroke-width: 1.5; stroke-linecap: square"/>
   </g>
   <g id="line2d_17">
    <path d="M 73.832727 104.887577 
L 77.286499 117.129174 
L 80.740271 144.571804 
L 84.194043 115.997519 
L 87.647814 157.550759 
L 91.101586 166.357579 
L 94.555358 166.253757 
L 98.00913 184.41715 
L 101.462901 194.658404 
L 104.916673 202.423018 
L 108.370445 184.092031 
L 111.824217 200.398829 
L 115.277988 195.370774 
L 118.73176 207.568229 
L 122.185532 215.123113 
L 125.639304 207.138518 
L 129.093075 213.166138 
L 132.546847 160.803472 
L 136.000619 211.413461 
L 139.454391 191.891433 
L 142.908162 207.772656 
L 146.361934 220.026558 
L 149.815706 223.845381 
L 153.269478 224.330897 
L 156.72325 215.583297 
L 160.177021 188.329742 
L 163.630793 221.660263 
L 167.084565 222.867089 
L 170.538337 219.357471 
L 173.992108 217.808414 
L 177.44588 228.381559 
L 180.899652 228.376119 
L 184.353424 225.82859 
L 187.807195 213.38622 
L 191.260967 232.341262 
L 194.714739 229.00265 
L 198.168511 225.656893 
L 201.622282 218.871776 
L 205.076054 220.00083 
L 208.529826 221.566705 
L 211.983598 219.58757 
L 215.437369 215.62631 
L 218.891141 220.541115 
L 222.344913 227.912234 
L 225.798685 231.861964 
L 229.252456 227.526447 
L 232.706228 230.496669 
L 236.16 230.279156 
L 239.613772 221.374324 
L 243.067544 225.311465 
" clip-path="url(#p9354a0831d)" style="fill: none; stroke: #2ca02c; stroke-opacity: 0.4; stroke-width: 1.5; stroke-linecap: square"/>
   </g>
   <g id="line2d_18">
    <path d="M 73.832727 67.915138 
L 77.286499 54.59083 
L 80.740271 116.208651 
L 84.194043 134.529422 
L 87.647814 145.770086 
L 91.101586 175.603253 
L 94.555358 187.751068 
L 98.00913 167.664663 
L 101.462901 201.290553 
L 104.916673 157.152368 
L 108.370445 192.20812 
L 111.824217 213.489826 
L 115.277988 210.695486 
L 118.73176 221.103613 
L 122.185532 219.54184 
L 125.639304 227.054398 
L 129.093075 229.779444 
L 132.546847 233.867691 
L 136.000619 229.302959 
L 139.454391 227.649039 
L 142.908162 238.767308 
L 146.361934 241.033932 
L 149.815706 234.494227 
L 153.269478 242.055892 
L 156.72325 246.432175 
L 160.177021 251.419573 
L 163.630793 249.205771 
L 167.084565 246.624289 
L 170.538337 251.034791 
L 173.992108 257.502119 
L 177.44588 258.375576 
L 180.899652 249.217556 
L 184.353424 253.493113 
L 187.807195 257.40055 
L 191.260967 259.160144 
L 194.714739 260.848712 
L 198.168511 250.453953 
L 201.622282 260.759968 
L 205.076054 262.886243 
L 208.529826 267.039995 
L 211.983598 269.525988 
L 215.437369 268.935099 
L 218.891141 270.734397 
L 222.344913 267.963898 
" clip-path="url(#p9354a0831d)" style="fill: none; stroke: #7f7f7f; stroke-opacity: 0.6; stroke-width: 1.5; stroke-linecap: square"/>
   </g>
   <g id="line2d_19">
    <path d="M 73.832727 91.551754 
L 77.286499 65.222089 
L 80.740271 114.584003 
L 84.194043 131.232152 
L 87.647814 135.388825 
L 91.101586 162.568371 
L 94.555358 180.58525 
L 98.00913 162.436208 
L 101.462901 191.642009 
L 104.916673 139.520274 
L 108.370445 175.18552 
L 111.824217 202.433459 
L 115.277988 194.824066 
L 118.73176 206.043344 
L 122.185532 203.787897 
L 125.639304 212.227716 
L 129.093075 197.562305 
L 132.546847 213.864418 
L 136.000619 201.555372 
L 139.454391 194.76054 
L 142.908162 197.02904 
L 146.361934 197.540949 
L 149.815706 189.549268 
L 153.269478 195.957709 
L 156.72325 194.73969 
L 160.177021 210.765784 
L 163.630793 201.533195 
L 167.084565 207.081113 
L 170.538337 213.940025 
L 173.992108 203.662419 
L 177.44588 202.317918 
L 180.899652 205.776007 
L 184.353424 203.614221 
L 187.807195 205.065391 
L 191.260967 208.72009 
L 194.714739 205.906593 
L 198.168511 192.824394 
L 201.622282 210.978424 
L 205.076054 208.295404 
L 208.529826 209.744454 
L 211.983598 208.159674 
L 215.437369 205.383839 
L 218.891141 213.228172 
L 222.344913 197.571038 
" clip-path="url(#p9354a0831d)" style="fill: none; stroke: #d62728; stroke-opacity: 0.6; stroke-width: 1.5; stroke-linecap: square"/>
   </g>
   <g id="line2d_20">
    <path d="M 73.832727 84.509422 
L 77.286499 118.087302 
L 80.740271 121.932545 
L 84.194043 148.72161 
L 87.647814 169.098258 
L 91.101586 178.136377 
L 94.555358 194.786117 
L 98.00913 186.479967 
L 101.462901 213.285927 
L 104.916673 204.649907 
L 108.370445 188.868511 
L 111.824217 216.664986 
L 115.277988 227.006887 
L 118.73176 242.328862 
L 122.185532 244.341833 
L 125.639304 235.158992 
L 129.093075 248.321799 
L 132.546847 232.171812 
L 136.000619 236.008979 
L 139.454391 224.815485 
L 142.908162 246.429851 
L 146.361934 259.939448 
L 149.815706 261.768955 
L 153.269478 264.332637 
L 156.72325 257.671311 
L 160.177021 261.932495 
L 163.630793 252.037592 
L 167.084565 263.396631 
L 170.538337 261.704821 
L 173.992108 259.378666 
L 177.44588 250.397949 
L 180.899652 264.916475 
L 184.353424 269.856259 
L 187.807195 276.91599 
L 191.260967 276.752341 
L 194.714739 274.776 
L 198.168511 273.462877 
L 201.622282 266.137927 
" clip-path="url(#p9354a0831d)" style="fill: none; stroke: #7f7f7f; stroke-opacity: 0.8; stroke-width: 1.5; stroke-linecap: square"/>
   </g>
   <g id="line2d_21">
    <path d="M 73.832727 93.562122 
L 77.286499 133.281322 
L 80.740271 135.563918 
L 84.194043 147.481178 
L 87.647814 155.649211 
L 91.101586 171.846026 
L 94.555358 185.458727 
L 98.00913 176.839648 
L 101.462901 200.302229 
L 104.916673 200.012185 
L 108.370445 175.779144 
L 111.824217 200.788553 
L 115.277988 206.406392 
L 118.73176 219.461333 
L 122.185532 203.969995 
L 125.639304 204.984756 
L 129.093075 217.384399 
L 132.546847 200.623979 
L 136.000619 192.306452 
L 139.454391 187.957503 
L 142.908162 192.720551 
L 146.361934 218.183936 
L 149.815706 222.817839 
L 153.269478 217.851995 
L 156.72325 214.425105 
L 160.177021 212.257893 
L 163.630793 201.235905 
L 167.084565 208.762055 
L 170.538337 214.098669 
L 173.992108 215.780293 
L 177.44588 203.309468 
L 180.899652 213.211761 
L 184.353424 216.100629 
L 187.807195 212.540146 
L 191.260967 215.77446 
L 194.714739 215.759335 
L 198.168511 215.254271 
L 201.622282 210.35749 
" clip-path="url(#p9354a0831d)" style="fill: none; stroke: #d62728; stroke-opacity: 0.8; stroke-width: 1.5; stroke-linecap: square"/>
   </g>
   <g id="line2d_22">
    <path d="M 73.832727 67.149865 
L 77.286499 119.814906 
L 80.740271 118.30025 
L 84.194043 154.308247 
L 87.647814 174.790161 
L 91.101586 163.61473 
L 94.555358 182.038447 
L 98.00913 210.536557 
L 101.462901 210.495411 
L 104.916673 215.437752 
L 108.370445 226.174278 
L 111.824217 228.06847 
L 115.277988 223.704682 
L 118.73176 231.808343 
L 122.185532 239.783884 
L 125.639304 241.834722 
L 129.093075 238.463432 
L 132.546847 246.256975 
L 136.000619 242.247357 
L 139.454391 254.276708 
L 142.908162 255.988392 
L 146.361934 259.570374 
L 149.815706 242.912691 
L 153.269478 251.600018 
L 156.72325 226.397882 
L 160.177021 255.883711 
L 163.630793 266.877291 
L 167.084565 254.859989 
L 170.538337 273.050508 
L 173.992108 276.675031 
L 177.44588 276.043225 
L 180.899652 277.077172 
L 184.353424 270.72261 
L 187.807195 275.003959 
L 191.260967 274.379159 
L 194.714739 274.575968 
L 198.168511 276.392133 
L 201.622282 277.285064 
L 205.076054 280.438514 
L 208.529826 277.759023 
L 211.983598 282.70949 
L 215.437369 281.295464 
L 218.891141 284.924593 
L 222.344913 285.335287 
L 225.798685 286.140684 
L 229.252456 288.831278 
L 232.706228 283.430861 
L 236.16 289.905182 
L 239.613772 290.154013 
L 243.067544 285.813078 
L 246.521315 289.607039 
L 249.975087 293.541506 
L 253.428859 290.110205 
L 256.882631 288.900186 
L 260.336402 287.742201 
L 263.790174 294.225416 
L 267.243946 294.418617 
L 270.697718 287.12225 
L 274.151489 282.525898 
L 277.605261 292.872807 
L 281.059033 288.836894 
L 284.512805 289.620167 
L 287.966576 288.277781 
L 291.420348 288.508729 
L 294.87412 290.626271 
L 298.327892 295.488 
L 301.781663 287.35012 
L 305.235435 285.400213 
L 308.689207 269.006464 
L 312.142979 270.550011 
L 315.59675 264.68658 
L 319.050522 260.538765 
L 322.504294 280.195821 
" clip-path="url(#p9354a0831d)" style="fill: none; stroke: #7f7f7f; stroke-width: 1.5; stroke-linecap: square"/>
   </g>
   <g id="line2d_23">
    <path d="M 73.832727 82.765136 
L 77.286499 124.84053 
L 80.740271 116.193165 
L 84.194043 142.355621 
L 87.647814 158.31185 
L 91.101586 154.377533 
L 94.555358 169.039819 
L 98.00913 188.538878 
L 101.462901 186.661764 
L 104.916673 180.363233 
L 108.370445 185.792338 
L 111.824217 194.324536 
L 115.277988 191.417846 
L 118.73176 192.045398 
L 122.185532 200.806301 
L 125.639304 188.44665 
L 129.093075 193.052093 
L 132.546847 202.384512 
L 136.000619 192.360511 
L 139.454391 198.527545 
L 142.908162 201.921253 
L 146.361934 198.603168 
L 149.815706 177.768209 
L 153.269478 203.242258 
L 156.72325 193.979408 
L 160.177021 203.986144 
L 163.630793 198.511694 
L 167.084565 190.945473 
L 170.538337 206.546478 
L 173.992108 204.140871 
L 177.44588 205.621958 
L 180.899652 202.413013 
L 184.353424 200.823351 
L 187.807195 198.906044 
L 191.260967 197.564172 
L 194.714739 191.848462 
L 198.168511 198.044762 
L 201.622282 200.009792 
L 205.076054 205.83853 
L 208.529826 203.134917 
L 211.983598 206.577237 
L 215.437369 201.793334 
L 218.891141 203.040263 
L 222.344913 201.10649 
L 225.798685 205.043499 
L 229.252456 204.166201 
L 232.706228 214.104549 
L 236.16 204.183422 
L 239.613772 201.546037 
L 243.067544 210.438372 
L 246.521315 204.752647 
L 249.975087 209.927615 
L 253.428859 206.091399 
L 256.882631 209.578299 
L 260.336402 201.480472 
L 263.790174 207.083087 
L 267.243946 207.381217 
L 270.697718 215.26552 
L 274.151489 209.874907 
L 277.605261 203.324647 
L 281.059033 201.265834 
L 284.512805 201.556129 
L 287.966576 199.491403 
L 291.420348 197.235251 
L 294.87412 205.833191 
L 298.327892 201.346716 
L 301.781663 204.039376 
L 305.235435 196.967808 
L 308.689207 195.110721 
L 312.142979 183.758432 
L 315.59675 199.452607 
L 319.050522 194.945655 
L 322.504294 191.270023 
" clip-path="url(#p9354a0831d)" style="fill: none; stroke: #d62728; stroke-width: 1.5; stroke-linecap: square"/>
   </g>
   <g id="line2d_24">
    <path d="M 57.6 232.341262 
L 414.72 232.341262 
" clip-path="url(#p9354a0831d)" style="fill: none; stroke-dasharray: 5.55,2.4; stroke-dashoffset: 0; stroke: #d62728; stroke-opacity: 0.5; stroke-width: 1.5"/>
   </g>
   <g id="patch_3">
    <path d="M 57.6 307.584 
L 57.6 41.472 
" style="fill: none; stroke: #000000; stroke-width: 0.8; stroke-linejoin: miter; stroke-linecap: square"/>
   </g>
   <g id="patch_4">
    <path d="M 414.72 307.584 
L 414.72 41.472 
" style="fill: none; stroke: #000000; stroke-width: 0.8; stroke-linejoin: miter; stroke-linecap: square"/>
   </g>
   <g id="patch_5">
    <path d="M 57.6 307.584 
L 414.72 307.584 
" style="fill: none; stroke: #000000; stroke-width: 0.8; stroke-linejoin: miter; stroke-linecap: square"/>
   </g>
   <g id="patch_6">
    <path d="M 57.6 41.472 
L 414.72 41.472 
" style="fill: none; stroke: #000000; stroke-width: 0.8; stroke-linejoin: miter; stroke-linecap: square"/>
   </g>
   <g id="legend_1">
    <g id="patch_7">
     <path d="M 250.390312 139.472 
L 407.72 139.472 
Q 409.72 139.472 409.72 137.472 
L 409.72 48.472 
Q 409.72 46.472 407.72 46.472 
L 250.390312 46.472 
Q 248.390312 46.472 248.390312 48.472 
L 248.390312 137.472 
Q 248.390312 139.472 250.390312 139.472 
z
" style="fill: #ffffff; opacity: 0.8; stroke: #cccccc; stroke-linejoin: miter"/>
    </g>
    <g id="text_16">
     <!-- Node Features | Edge Features -->
     <g transform="translate(252.390312 58.114188) scale(0.1 -0.1)">
      <defs>
       <path id="DejaVuSans-4e" d="M 628 4666 
L 1478 4666 
L 3547 763 
L 3547 4666 
L 4159 4666 
L 4159 0 
L 3309 0 
L 1241 3903 
L 1241 0 
L 628 0 
L 628 4666 
z
" transform="scale(0.015625)"/>
       <path id="DejaVuSans-65" d="M 3597 1894 
L 3597 1613 
L 953 1613 
Q 991 1019 1311 708 
Q 1631 397 2203 397 
Q 2534 397 2845 478 
Q 3156 559 3463 722 
L 3463 178 
Q 3153 47 2828 -22 
Q 2503 -91 2169 -91 
Q 1331 -91 842 396 
Q 353 884 353 1716 
Q 353 2575 817 3079 
Q 1281 3584 2069 3584 
Q 2775 3584 3186 3129 
Q 3597 2675 3597 1894 
z
M 3022 2063 
Q 3016 2534 2758 2815 
Q 2500 3097 2075 3097 
Q 1594 3097 1305 2825 
Q 1016 2553 972 2059 
L 3022 2063 
z
" transform="scale(0.015625)"/>
       <path id="DejaVuSans-46" d="M 628 4666 
L 3309 4666 
L 3309 4134 
L 1259 4134 
L 1259 2759 
L 3109 2759 
L 3109 2228 
L 1259 2228 
L 1259 0 
L 628 0 
L 628 4666 
z
" transform="scale(0.015625)"/>
       <path id="DejaVuSans-74" d="M 1172 4494 
L 1172 3500 
L 2356 3500 
L 2356 3053 
L 1172 3053 
L 1172 1153 
Q 1172 725 1289 603 
Q 1406 481 1766 481 
L 2356 481 
L 2356 0 
L 1766 0 
Q 1100 0 847 248 
Q 594 497 594 1153 
L 594 3053 
L 172 3053 
L 172 3500 
L 594 3500 
L 594 4494 
L 1172 4494 
z
" transform="scale(0.015625)"/>
       <path id="DejaVuSans-75" d="M 544 1381 
L 544 3500 
L 1119 3500 
L 1119 1403 
Q 1119 906 1312 657 
Q 1506 409 1894 409 
Q 2359 409 2629 706 
Q 2900 1003 2900 1516 
L 2900 3500 
L 3475 3500 
L 3475 0 
L 2900 0 
L 2900 538 
Q 2691 219 2414 64 
Q 2138 -91 1772 -91 
Q 1169 -91 856 284 
Q 544 659 544 1381 
z
M 1991 3584 
L 1991 3584 
z
" transform="scale(0.015625)"/>
       <path id="DejaVuSans-73" d="M 2834 3397 
L 2834 2853 
Q 2591 2978 2328 3040 
Q 2066 3103 1784 3103 
Q 1356 3103 1142 2972 
Q 928 2841 928 2578 
Q 928 2378 1081 2264 
Q 1234 2150 1697 2047 
L 1894 2003 
Q 2506 1872 2764 1633 
Q 3022 1394 3022 966 
Q 3022 478 2636 193 
Q 2250 -91 1575 -91 
Q 1294 -91 989 -36 
Q 684 19 347 128 
L 347 722 
Q 666 556 975 473 
Q 1284 391 1588 391 
Q 1994 391 2212 530 
Q 2431 669 2431 922 
Q 2431 1156 2273 1281 
Q 2116 1406 1581 1522 
L 1381 1569 
Q 847 1681 609 1914 
Q 372 2147 372 2553 
Q 372 3047 722 3315 
Q 1072 3584 1716 3584 
Q 2034 3584 2315 3537 
Q 2597 3491 2834 3397 
z
" transform="scale(0.015625)"/>
       <path id="DejaVuSans-7c" d="M 1344 4891 
L 1344 -1509 
L 813 -1509 
L 813 4891 
L 1344 4891 
z
" transform="scale(0.015625)"/>
      </defs>
      <use xlink:href="#DejaVuSans-4e"/>
      <use xlink:href="#DejaVuSans-6f" transform="translate(74.804688 0)"/>
      <use xlink:href="#DejaVuSans-64" transform="translate(135.986328 0)"/>
      <use xlink:href="#DejaVuSans-65" transform="translate(199.462891 0)"/>
      <use xlink:href="#DejaVuSans-20" transform="translate(260.986328 0)"/>
      <use xlink:href="#DejaVuSans-46" transform="translate(292.773438 0)"/>
      <use xlink:href="#DejaVuSans-65" transform="translate(344.792969 0)"/>
      <use xlink:href="#DejaVuSans-61" transform="translate(406.316406 0)"/>
      <use xlink:href="#DejaVuSans-74" transform="translate(467.595703 0)"/>
      <use xlink:href="#DejaVuSans-75" transform="translate(506.804688 0)"/>
      <use xlink:href="#DejaVuSans-72" transform="translate(570.183594 0)"/>
      <use xlink:href="#DejaVuSans-65" transform="translate(609.046875 0)"/>
      <use xlink:href="#DejaVuSans-73" transform="translate(670.570312 0)"/>
      <use xlink:href="#DejaVuSans-20" transform="translate(722.669922 0)"/>
      <use xlink:href="#DejaVuSans-7c" transform="translate(754.457031 0)"/>
      <use xlink:href="#DejaVuSans-20" transform="translate(788.148438 0)"/>
      <use xlink:href="#DejaVuSans-45" transform="translate(819.935547 0)"/>
      <use xlink:href="#DejaVuSans-64" transform="translate(883.119141 0)"/>
      <use xlink:href="#DejaVuSans-67" transform="translate(946.595703 0)"/>
      <use xlink:href="#DejaVuSans-65" transform="translate(1010.072266 0)"/>
      <use xlink:href="#DejaVuSans-20" transform="translate(1071.595703 0)"/>
      <use xlink:href="#DejaVuSans-46" transform="translate(1103.382812 0)"/>
      <use xlink:href="#DejaVuSans-65" transform="translate(1155.402344 0)"/>
      <use xlink:href="#DejaVuSans-61" transform="translate(1216.925781 0)"/>
      <use xlink:href="#DejaVuSans-74" transform="translate(1278.205078 0)"/>
      <use xlink:href="#DejaVuSans-75" transform="translate(1317.414062 0)"/>
      <use xlink:href="#DejaVuSans-72" transform="translate(1380.792969 0)"/>
      <use xlink:href="#DejaVuSans-65" transform="translate(1419.65625 0)"/>
      <use xlink:href="#DejaVuSans-73" transform="translate(1481.179688 0)"/>
     </g>
    </g>
    <g id="line2d_25">
     <path d="M 292.694219 69.614188 
L 302.694219 69.614188 
L 312.694219 69.614188 
" style="fill: none; stroke: #d62728; stroke-opacity: 0.2; stroke-width: 1.5; stroke-linecap: square"/>
    </g>
    <g id="text_17">
     <!-- 16| 32 -->
     <g transform="translate(320.694219 73.114188) scale(0.1 -0.1)">
      <defs>
       <path id="DejaVuSans-33" d="M 2597 2516 
Q 3050 2419 3304 2112 
Q 3559 1806 3559 1356 
Q 3559 666 3084 287 
Q 2609 -91 1734 -91 
Q 1441 -91 1130 -33 
Q 819 25 488 141 
L 488 750 
Q 750 597 1062 519 
Q 1375 441 1716 441 
Q 2309 441 2620 675 
Q 2931 909 2931 1356 
Q 2931 1769 2642 2001 
Q 2353 2234 1838 2234 
L 1294 2234 
L 1294 2753 
L 1863 2753 
Q 2328 2753 2575 2939 
Q 2822 3125 2822 3475 
Q 2822 3834 2567 4026 
Q 2313 4219 1838 4219 
Q 1578 4219 1281 4162 
Q 984 4106 628 3988 
L 628 4550 
Q 988 4650 1302 4700 
Q 1616 4750 1894 4750 
Q 2613 4750 3031 4423 
Q 3450 4097 3450 3541 
Q 3450 3153 3228 2886 
Q 3006 2619 2597 2516 
z
" transform="scale(0.015625)"/>
      </defs>
      <use xlink:href="#DejaVuSans-31"/>
      <use xlink:href="#DejaVuSans-36" transform="translate(63.623047 0)"/>
      <use xlink:href="#DejaVuSans-7c" transform="translate(127.246094 0)"/>
      <use xlink:href="#DejaVuSans-20" transform="translate(160.9375 0)"/>
      <use xlink:href="#DejaVuSans-33" transform="translate(192.724609 0)"/>
      <use xlink:href="#DejaVuSans-32" transform="translate(256.347656 0)"/>
     </g>
    </g>
    <g id="line2d_26">
     <path d="M 292.694219 84.614188 
L 302.694219 84.614188 
L 312.694219 84.614188 
" style="fill: none; stroke: #2ca02c; stroke-opacity: 0.4; stroke-width: 1.5; stroke-linecap: square"/>
    </g>
    <g id="text_18">
     <!-- 32| 64 -->
     <g transform="translate(320.694219 88.114188) scale(0.1 -0.1)">
      <use xlink:href="#DejaVuSans-33"/>
      <use xlink:href="#DejaVuSans-32" transform="translate(63.623047 0)"/>
      <use xlink:href="#DejaVuSans-7c" transform="translate(127.246094 0)"/>
      <use xlink:href="#DejaVuSans-20" transform="translate(160.9375 0)"/>
      <use xlink:href="#DejaVuSans-36" transform="translate(192.724609 0)"/>
      <use xlink:href="#DejaVuSans-34" transform="translate(256.347656 0)"/>
     </g>
    </g>
    <g id="line2d_27">
     <path d="M 292.694219 99.614188 
L 302.694219 99.614188 
L 312.694219 99.614188 
" style="fill: none; stroke: #d62728; stroke-opacity: 0.6; stroke-width: 1.5; stroke-linecap: square"/>
    </g>
    <g id="text_19">
     <!-- 64| 128 -->
     <g transform="translate(320.694219 103.114188) scale(0.1 -0.1)">
      <use xlink:href="#DejaVuSans-36"/>
      <use xlink:href="#DejaVuSans-34" transform="translate(63.623047 0)"/>
      <use xlink:href="#DejaVuSans-7c" transform="translate(127.246094 0)"/>
      <use xlink:href="#DejaVuSans-20" transform="translate(160.9375 0)"/>
      <use xlink:href="#DejaVuSans-31" transform="translate(192.724609 0)"/>
      <use xlink:href="#DejaVuSans-32" transform="translate(256.347656 0)"/>
      <use xlink:href="#DejaVuSans-38" transform="translate(319.970703 0)"/>
     </g>
    </g>
    <g id="line2d_28">
     <path d="M 292.694219 114.614188 
L 302.694219 114.614188 
L 312.694219 114.614188 
" style="fill: none; stroke: #d62728; stroke-opacity: 0.8; stroke-width: 1.5; stroke-linecap: square"/>
    </g>
    <g id="text_20">
     <!-- 96| 192 -->
     <g transform="translate(320.694219 118.114188) scale(0.1 -0.1)">
      <defs>
       <path id="DejaVuSans-39" d="M 703 97 
L 703 672 
Q 941 559 1184 500 
Q 1428 441 1663 441 
Q 2288 441 2617 861 
Q 2947 1281 2994 2138 
Q 2813 1869 2534 1725 
Q 2256 1581 1919 1581 
Q 1219 1581 811 2004 
Q 403 2428 403 3163 
Q 403 3881 828 4315 
Q 1253 4750 1959 4750 
Q 2769 4750 3195 4129 
Q 3622 3509 3622 2328 
Q 3622 1225 3098 567 
Q 2575 -91 1691 -91 
Q 1453 -91 1209 -44 
Q 966 3 703 97 
z
M 1959 2075 
Q 2384 2075 2632 2365 
Q 2881 2656 2881 3163 
Q 2881 3666 2632 3958 
Q 2384 4250 1959 4250 
Q 1534 4250 1286 3958 
Q 1038 3666 1038 3163 
Q 1038 2656 1286 2365 
Q 1534 2075 1959 2075 
z
" transform="scale(0.015625)"/>
      </defs>
      <use xlink:href="#DejaVuSans-39"/>
      <use xlink:href="#DejaVuSans-36" transform="translate(63.623047 0)"/>
      <use xlink:href="#DejaVuSans-7c" transform="translate(127.246094 0)"/>
      <use xlink:href="#DejaVuSans-20" transform="translate(160.9375 0)"/>
      <use xlink:href="#DejaVuSans-31" transform="translate(192.724609 0)"/>
      <use xlink:href="#DejaVuSans-39" transform="translate(256.347656 0)"/>
      <use xlink:href="#DejaVuSans-32" transform="translate(319.970703 0)"/>
     </g>
    </g>
    <g id="line2d_29">
     <path d="M 292.694219 129.614188 
L 302.694219 129.614188 
L 312.694219 129.614188 
" style="fill: none; stroke: #d62728; stroke-width: 1.5; stroke-linecap: square"/>
    </g>
    <g id="text_21">
     <!-- 128| 256 -->
     <g transform="translate(320.694219 133.114188) scale(0.1 -0.1)">
      <use xlink:href="#DejaVuSans-31"/>
      <use xlink:href="#DejaVuSans-32" transform="translate(63.623047 0)"/>
      <use xlink:href="#DejaVuSans-38" transform="translate(127.246094 0)"/>
      <use xlink:href="#DejaVuSans-7c" transform="translate(190.869141 0)"/>
      <use xlink:href="#DejaVuSans-20" transform="translate(224.560547 0)"/>
      <use xlink:href="#DejaVuSans-32" transform="translate(256.347656 0)"/>
      <use xlink:href="#DejaVuSans-35" transform="translate(319.970703 0)"/>
      <use xlink:href="#DejaVuSans-36" transform="translate(383.59375 0)"/>
     </g>
    </g>
   </g>
  </g>
 </g>
 <defs>
  <clipPath id="p9354a0831d">
   <rect x="57.6" y="41.472" width="357.12" height="266.112"/>
  </clipPath>
 </defs>
</svg>
