<?xml version="1.0" encoding="utf-8" standalone="no"?>
<!DOCTYPE svg PUBLIC "-//W3C//DTD SVG 1.1//EN"
  "http://www.w3.org/Graphics/SVG/1.1/DTD/svg11.dtd">
<svg xmlns:xlink="http://www.w3.org/1999/xlink" width="460.8pt" height="345.6pt" viewBox="0 0 460.8 345.6" xmlns="http://www.w3.org/2000/svg" version="1.1">
 <metadata>
  <rdf:RDF xmlns:dc="http://purl.org/dc/elements/1.1/" xmlns:cc="http://creativecommons.org/ns#" xmlns:rdf="http://www.w3.org/1999/02/22-rdf-syntax-ns#">
   <cc:Work>
    <dc:type rdf:resource="http://purl.org/dc/dcmitype/StillImage"/>
    <dc:date>2025-10-19T17:30:09.933754</dc:date>
    <dc:format>image/svg+xml</dc:format>
    <dc:creator>
     <cc:Agent>
      <dc:title>Matplotlib v3.10.7, https://matplotlib.org/</dc:title>
     </cc:Agent>
    </dc:creator>
   </cc:Work>
  </rdf:RDF>
 </metadata>
 <defs>
  <style type="text/css">*{stroke-linejoin: round; stroke-linecap: butt}</style>
 </defs>
 <g id="figure_1">
  <g id="patch_1">
   <path d="M 0 345.6 
L 460.8 345.6 
L 460.8 0 
L 0 0 
z
" style="fill: #ffffff"/>
  </g>
  <g id="axes_1">
   <g id="patch_2">
    <path d="M 57.6 307.584 
L 414.72 307.584 
L 414.72 41.472 
L 57.6 41.472 
z
" style="fill: #ffffff"/>
   </g>
   <g id="patch_3">
    <path d="M 73.832727 307.584 
L 80.325818 307.584 
L 80.325818 307.584 
L 73.832727 307.584 
z
" clip-path="url(#p1ab7c8c0c5)" style="fill: #1f77b4"/>
   </g>
   <g id="patch_4">
    <path d="M 80.325818 307.584 
L 86.818909 307.584 
L 86.818909 307.584 
L 80.325818 307.584 
z
" clip-path="url(#p1ab7c8c0c5)" style="fill: #1f77b4"/>
   </g>
   <g id="patch_5">
    <path d="M 86.818909 307.584 
L 93.312 307.584 
L 93.312 307.584 
L 86.818909 307.584 
z
" clip-path="url(#p1ab7c8c0c5)" style="fill: #1f77b4"/>
   </g>
   <g id="patch_6">
    <path d="M 93.312 307.584 
L 99.805091 307.584 
L 99.805091 307.584 
L 93.312 307.584 
z
" clip-path="url(#p1ab7c8c0c5)" style="fill: #1f77b4"/>
   </g>
   <g id="patch_7">
    <path d="M 99.805091 307.584 
L 106.298182 307.584 
L 106.298182 307.584 
L 99.805091 307.584 
z
" clip-path="url(#p1ab7c8c0c5)" style="fill: #1f77b4"/>
   </g>
   <g id="patch_8">
    <path d="M 106.298182 307.584 
L 112.791273 307.584 
L 112.791273 307.584 
L 106.298182 307.584 
z
" clip-path="url(#p1ab7c8c0c5)" style="fill: #1f77b4"/>
   </g>
   <g id="patch_9">
    <path d="M 112.791273 307.584 
L 119.284364 307.584 
L 119.284364 307.584 
L 112.791273 307.584 
z
" clip-path="url(#p1ab7c8c0c5)" style="fill: #1f77b4"/>
   </g>
   <g id="patch_10">
    <path d="M 119.284364 307.584 
L 125.777455 307.584 
L 125.777455 307.584 
L 119.284364 307.584 
z
" clip-path="url(#p1ab7c8c0c5)" style="fill: #1f77b4"/>
   </g>
   <g id="patch_11">
    <path d="M 125.777455 307.584 
L 132.270545 307.584 
L 132.270545 303.744 
L 125.777455 303.744 
z
" clip-path="url(#p1ab7c8c0c5)" style="fill: #1f77b4"/>
   </g>
   <g id="patch_12">
    <path d="M 132.270545 307.584 
L 138.763636 307.584 
L 138.763636 296.064 
L 132.270545 296.064 
z
" clip-path="url(#p1ab7c8c0c5)" style="fill: #1f77b4"/>
   </g>
   <g id="patch_13">
    <path d="M 138.763636 307.584 
L 145.256727 307.584 
L 145.256727 296.064 
L 138.763636 296.064 
z
" clip-path="url(#p1ab7c8c0c5)" style="fill: #1f77b4"/>
   </g>
   <g id="patch_14">
    <path d="M 145.256727 307.584 
L 151.749818 307.584 
L 151.749818 284.544 
L 145.256727 284.544 
z
" clip-path="url(#p1ab7c8c0c5)" style="fill: #1f77b4"/>
   </g>
   <g id="patch_15">
    <path d="M 151.749818 307.584 
L 158.242909 307.584 
L 158.242909 284.544 
L 151.749818 284.544 
z
" clip-path="url(#p1ab7c8c0c5)" style="fill: #1f77b4"/>
   </g>
   <g id="patch_16">
    <path d="M 158.242909 307.584 
L 164.736 307.584 
L 164.736 273.024 
L 158.242909 273.024 
z
" clip-path="url(#p1ab7c8c0c5)" style="fill: #1f77b4"/>
   </g>
   <g id="patch_17">
    <path d="M 164.736 307.584 
L 171.229091 307.584 
L 171.229091 284.544 
L 164.736 284.544 
z
" clip-path="url(#p1ab7c8c0c5)" style="fill: #1f77b4"/>
   </g>
   <g id="patch_18">
    <path d="M 171.229091 307.584 
L 177.722182 307.584 
L 177.722182 296.064 
L 171.229091 296.064 
z
" clip-path="url(#p1ab7c8c0c5)" style="fill: #1f77b4"/>
   </g>
   <g id="patch_19">
    <path d="M 177.722182 307.584 
L 184.215273 307.584 
L 184.215273 269.184 
L 177.722182 269.184 
z
" clip-path="url(#p1ab7c8c0c5)" style="fill: #1f77b4"/>
   </g>
   <g id="patch_20">
    <path d="M 184.215273 307.584 
L 190.708364 307.584 
L 190.708364 276.864 
L 184.215273 276.864 
z
" clip-path="url(#p1ab7c8c0c5)" style="fill: #1f77b4"/>
   </g>
   <g id="patch_21">
    <path d="M 190.708364 307.584 
L 197.201455 307.584 
L 197.201455 284.544 
L 190.708364 284.544 
z
" clip-path="url(#p1ab7c8c0c5)" style="fill: #1f77b4"/>
   </g>
   <g id="patch_22">
    <path d="M 197.201455 307.584 
L 203.694545 307.584 
L 203.694545 276.864 
L 197.201455 276.864 
z
" clip-path="url(#p1ab7c8c0c5)" style="fill: #1f77b4"/>
   </g>
   <g id="patch_23">
    <path d="M 203.694545 307.584 
L 210.187636 307.584 
L 210.187636 265.344 
L 203.694545 265.344 
z
" clip-path="url(#p1ab7c8c0c5)" style="fill: #1f77b4"/>
   </g>
   <g id="patch_24">
    <path d="M 210.187636 307.584 
L 216.680727 307.584 
L 216.680727 269.184 
L 210.187636 269.184 
z
" clip-path="url(#p1ab7c8c0c5)" style="fill: #1f77b4"/>
   </g>
   <g id="patch_25">
    <path d="M 216.680727 307.584 
L 223.173818 307.584 
L 223.173818 257.664 
L 216.680727 257.664 
z
" clip-path="url(#p1ab7c8c0c5)" style="fill: #1f77b4"/>
   </g>
   <g id="patch_26">
    <path d="M 223.173818 307.584 
L 229.666909 307.584 
L 229.666909 234.624 
L 223.173818 234.624 
z
" clip-path="url(#p1ab7c8c0c5)" style="fill: #1f77b4"/>
   </g>
   <g id="patch_27">
    <path d="M 229.666909 307.584 
L 236.16 307.584 
L 236.16 223.104 
L 229.666909 223.104 
z
" clip-path="url(#p1ab7c8c0c5)" style="fill: #1f77b4"/>
   </g>
   <g id="patch_28">
    <path d="M 236.16 307.584 
L 242.653091 307.584 
L 242.653091 230.784 
L 236.16 230.784 
z
" clip-path="url(#p1ab7c8c0c5)" style="fill: #1f77b4"/>
   </g>
   <g id="patch_29">
    <path d="M 242.653091 307.584 
L 249.146182 307.584 
L 249.146182 165.504 
L 242.653091 165.504 
z
" clip-path="url(#p1ab7c8c0c5)" style="fill: #1f77b4"/>
   </g>
   <g id="patch_30">
    <path d="M 249.146182 307.584 
L 255.639273 307.584 
L 255.639273 177.024 
L 249.146182 177.024 
z
" clip-path="url(#p1ab7c8c0c5)" style="fill: #1f77b4"/>
   </g>
   <g id="patch_31">
    <path d="M 255.639273 307.584 
L 262.132364 307.584 
L 262.132364 165.504 
L 255.639273 165.504 
z
" clip-path="url(#p1ab7c8c0c5)" style="fill: #1f77b4"/>
   </g>
   <g id="patch_32">
    <path d="M 262.132364 307.584 
L 268.625455 307.584 
L 268.625455 173.184 
L 262.132364 173.184 
z
" clip-path="url(#p1ab7c8c0c5)" style="fill: #1f77b4"/>
   </g>
   <g id="patch_33">
    <path d="M 268.625455 307.584 
L 275.118545 307.584 
L 275.118545 119.424 
L 268.625455 119.424 
z
" clip-path="url(#p1ab7c8c0c5)" style="fill: #1f77b4"/>
   </g>
   <g id="patch_34">
    <path d="M 275.118545 307.584 
L 281.611636 307.584 
L 281.611636 146.304 
L 275.118545 146.304 
z
" clip-path="url(#p1ab7c8c0c5)" style="fill: #1f77b4"/>
   </g>
   <g id="patch_35">
    <path d="M 281.611636 307.584 
L 288.104727 307.584 
L 288.104727 153.984 
L 281.611636 153.984 
z
" clip-path="url(#p1ab7c8c0c5)" style="fill: #1f77b4"/>
   </g>
   <g id="patch_36">
    <path d="M 288.104727 307.584 
L 294.597818 307.584 
L 294.597818 142.464 
L 288.104727 142.464 
z
" clip-path="url(#p1ab7c8c0c5)" style="fill: #1f77b4"/>
   </g>
   <g id="patch_37">
    <path d="M 294.597818 307.584 
L 301.090909 307.584 
L 301.090909 138.624 
L 294.597818 138.624 
z
" clip-path="url(#p1ab7c8c0c5)" style="fill: #1f77b4"/>
   </g>
   <g id="patch_38">
    <path d="M 301.090909 307.584 
L 307.584 307.584 
L 307.584 88.704 
L 301.090909 88.704 
z
" clip-path="url(#p1ab7c8c0c5)" style="fill: #1f77b4"/>
   </g>
   <g id="patch_39">
    <path d="M 307.584 307.584 
L 314.077091 307.584 
L 314.077091 104.064 
L 307.584 104.064 
z
" clip-path="url(#p1ab7c8c0c5)" style="fill: #1f77b4"/>
   </g>
   <g id="patch_40">
    <path d="M 314.077091 307.584 
L 320.570182 307.584 
L 320.570182 138.624 
L 314.077091 138.624 
z
" clip-path="url(#p1ab7c8c0c5)" style="fill: #1f77b4"/>
   </g>
   <g id="patch_41">
    <path d="M 320.570182 307.584 
L 327.063273 307.584 
L 327.063273 173.184 
L 320.570182 173.184 
z
" clip-path="url(#p1ab7c8c0c5)" style="fill: #1f77b4"/>
   </g>
   <g id="patch_42">
    <path d="M 327.063273 307.584 
L 333.556364 307.584 
L 333.556364 153.984 
L 327.063273 153.984 
z
" clip-path="url(#p1ab7c8c0c5)" style="fill: #1f77b4"/>
   </g>
   <g id="patch_43">
    <path d="M 333.556364 307.584 
L 340.049455 307.584 
L 340.049455 177.024 
L 333.556364 177.024 
z
" clip-path="url(#p1ab7c8c0c5)" style="fill: #1f77b4"/>
   </g>
   <g id="patch_44">
    <path d="M 340.049455 307.584 
L 346.542545 307.584 
L 346.542545 200.064 
L 340.049455 200.064 
z
" clip-path="url(#p1ab7c8c0c5)" style="fill: #1f77b4"/>
   </g>
   <g id="patch_45">
    <path d="M 346.542545 307.584 
L 353.035636 307.584 
L 353.035636 226.944 
L 346.542545 226.944 
z
" clip-path="url(#p1ab7c8c0c5)" style="fill: #1f77b4"/>
   </g>
   <g id="patch_46">
    <path d="M 353.035636 307.584 
L 359.528727 307.584 
L 359.528727 257.664 
L 353.035636 257.664 
z
" clip-path="url(#p1ab7c8c0c5)" style="fill: #1f77b4"/>
   </g>
   <g id="patch_47">
    <path d="M 359.528727 307.584 
L 366.021818 307.584 
L 366.021818 265.344 
L 359.528727 265.344 
z
" clip-path="url(#p1ab7c8c0c5)" style="fill: #1f77b4"/>
   </g>
   <g id="patch_48">
    <path d="M 366.021818 307.584 
L 372.514909 307.584 
L 372.514909 249.984 
L 366.021818 249.984 
z
" clip-path="url(#p1ab7c8c0c5)" style="fill: #1f77b4"/>
   </g>
   <g id="patch_49">
    <path d="M 372.514909 307.584 
L 379.008 307.584 
L 379.008 265.344 
L 372.514909 265.344 
z
" clip-path="url(#p1ab7c8c0c5)" style="fill: #1f77b4"/>
   </g>
   <g id="patch_50">
    <path d="M 379.008 307.584 
L 385.501091 307.584 
L 385.501091 284.544 
L 379.008 284.544 
z
" clip-path="url(#p1ab7c8c0c5)" style="fill: #1f77b4"/>
   </g>
   <g id="patch_51">
    <path d="M 385.501091 307.584 
L 391.994182 307.584 
L 391.994182 284.544 
L 385.501091 284.544 
z
" clip-path="url(#p1ab7c8c0c5)" style="fill: #1f77b4"/>
   </g>
   <g id="patch_52">
    <path d="M 391.994182 307.584 
L 398.487273 307.584 
L 398.487273 296.064 
L 391.994182 296.064 
z
" clip-path="url(#p1ab7c8c0c5)" style="fill: #1f77b4"/>
   </g>
   <g id="patch_53">
    <path d="M 73.832727 307.584 
L 80.325818 307.584 
L 80.325818 307.584 
L 73.832727 307.584 
z
" clip-path="url(#p1ab7c8c0c5)" style="fill: #ff7f0e"/>
   </g>
   <g id="patch_54">
    <path d="M 80.325818 307.584 
L 86.818909 307.584 
L 86.818909 307.584 
L 80.325818 307.584 
z
" clip-path="url(#p1ab7c8c0c5)" style="fill: #ff7f0e"/>
   </g>
   <g id="patch_55">
    <path d="M 86.818909 307.584 
L 93.312 307.584 
L 93.312 307.584 
L 86.818909 307.584 
z
" clip-path="url(#p1ab7c8c0c5)" style="fill: #ff7f0e"/>
   </g>
   <g id="patch_56">
    <path d="M 93.312 307.584 
L 99.805091 307.584 
L 99.805091 307.584 
L 93.312 307.584 
z
" clip-path="url(#p1ab7c8c0c5)" style="fill: #ff7f0e"/>
   </g>
   <g id="patch_57">
    <path d="M 99.805091 307.584 
L 106.298182 307.584 
L 106.298182 307.584 
L 99.805091 307.584 
z
" clip-path="url(#p1ab7c8c0c5)" style="fill: #ff7f0e"/>
   </g>
   <g id="patch_58">
    <path d="M 106.298182 307.584 
L 112.791273 307.584 
L 112.791273 307.584 
L 106.298182 307.584 
z
" clip-path="url(#p1ab7c8c0c5)" style="fill: #ff7f0e"/>
   </g>
   <g id="patch_59">
    <path d="M 112.791273 307.584 
L 119.284364 307.584 
L 119.284364 307.584 
L 112.791273 307.584 
z
" clip-path="url(#p1ab7c8c0c5)" style="fill: #ff7f0e"/>
   </g>
   <g id="patch_60">
    <path d="M 119.284364 307.584 
L 125.777455 307.584 
L 125.777455 307.584 
L 119.284364 307.584 
z
" clip-path="url(#p1ab7c8c0c5)" style="fill: #ff7f0e"/>
   </g>
   <g id="patch_61">
    <path d="M 125.777455 303.744 
L 132.270545 303.744 
L 132.270545 303.744 
L 125.777455 303.744 
z
" clip-path="url(#p1ab7c8c0c5)" style="fill: #ff7f0e"/>
   </g>
   <g id="patch_62">
    <path d="M 132.270545 296.064 
L 138.763636 296.064 
L 138.763636 296.064 
L 132.270545 296.064 
z
" clip-path="url(#p1ab7c8c0c5)" style="fill: #ff7f0e"/>
   </g>
   <g id="patch_63">
    <path d="M 138.763636 296.064 
L 145.256727 296.064 
L 145.256727 296.064 
L 138.763636 296.064 
z
" clip-path="url(#p1ab7c8c0c5)" style="fill: #ff7f0e"/>
   </g>
   <g id="patch_64">
    <path d="M 145.256727 284.544 
L 151.749818 284.544 
L 151.749818 284.544 
L 145.256727 284.544 
z
" clip-path="url(#p1ab7c8c0c5)" style="fill: #ff7f0e"/>
   </g>
   <g id="patch_65">
    <path d="M 151.749818 284.544 
L 158.242909 284.544 
L 158.242909 284.544 
L 151.749818 284.544 
z
" clip-path="url(#p1ab7c8c0c5)" style="fill: #ff7f0e"/>
   </g>
   <g id="patch_66">
    <path d="M 158.242909 273.024 
L 164.736 273.024 
L 164.736 269.184 
L 158.242909 269.184 
z
" clip-path="url(#p1ab7c8c0c5)" style="fill: #ff7f0e"/>
   </g>
   <g id="patch_67">
    <path d="M 164.736 284.544 
L 171.229091 284.544 
L 171.229091 280.704 
L 164.736 280.704 
z
" clip-path="url(#p1ab7c8c0c5)" style="fill: #ff7f0e"/>
   </g>
   <g id="patch_68">
    <path d="M 171.229091 296.064 
L 177.722182 296.064 
L 177.722182 292.224 
L 171.229091 292.224 
z
" clip-path="url(#p1ab7c8c0c5)" style="fill: #ff7f0e"/>
   </g>
   <g id="patch_69">
    <path d="M 177.722182 269.184 
L 184.215273 269.184 
L 184.215273 269.184 
L 177.722182 269.184 
z
" clip-path="url(#p1ab7c8c0c5)" style="fill: #ff7f0e"/>
   </g>
   <g id="patch_70">
    <path d="M 184.215273 276.864 
L 190.708364 276.864 
L 190.708364 276.864 
L 184.215273 276.864 
z
" clip-path="url(#p1ab7c8c0c5)" style="fill: #ff7f0e"/>
   </g>
   <g id="patch_71">
    <path d="M 190.708364 284.544 
L 197.201455 284.544 
L 197.201455 284.544 
L 190.708364 284.544 
z
" clip-path="url(#p1ab7c8c0c5)" style="fill: #ff7f0e"/>
   </g>
   <g id="patch_72">
    <path d="M 197.201455 276.864 
L 203.694545 276.864 
L 203.694545 265.344 
L 197.201455 265.344 
z
" clip-path="url(#p1ab7c8c0c5)" style="fill: #ff7f0e"/>
   </g>
   <g id="patch_73">
    <path d="M 203.694545 265.344 
L 210.187636 265.344 
L 210.187636 265.344 
L 203.694545 265.344 
z
" clip-path="url(#p1ab7c8c0c5)" style="fill: #ff7f0e"/>
   </g>
   <g id="patch_74">
    <path d="M 210.187636 269.184 
L 216.680727 269.184 
L 216.680727 246.144 
L 210.187636 246.144 
z
" clip-path="url(#p1ab7c8c0c5)" style="fill: #ff7f0e"/>
   </g>
   <g id="patch_75">
    <path d="M 216.680727 257.664 
L 223.173818 257.664 
L 223.173818 253.824 
L 216.680727 253.824 
z
" clip-path="url(#p1ab7c8c0c5)" style="fill: #ff7f0e"/>
   </g>
   <g id="patch_76">
    <path d="M 223.173818 234.624 
L 229.666909 234.624 
L 229.666909 234.624 
L 223.173818 234.624 
z
" clip-path="url(#p1ab7c8c0c5)" style="fill: #ff7f0e"/>
   </g>
   <g id="patch_77">
    <path d="M 229.666909 223.104 
L 236.16 223.104 
L 236.16 200.064 
L 229.666909 200.064 
z
" clip-path="url(#p1ab7c8c0c5)" style="fill: #ff7f0e"/>
   </g>
   <g id="patch_78">
    <path d="M 236.16 230.784 
L 242.653091 230.784 
L 242.653091 211.584 
L 236.16 211.584 
z
" clip-path="url(#p1ab7c8c0c5)" style="fill: #ff7f0e"/>
   </g>
   <g id="patch_79">
    <path d="M 242.653091 165.504 
L 249.146182 165.504 
L 249.146182 153.984 
L 242.653091 153.984 
z
" clip-path="url(#p1ab7c8c0c5)" style="fill: #ff7f0e"/>
   </g>
   <g id="patch_80">
    <path d="M 249.146182 177.024 
L 255.639273 177.024 
L 255.639273 150.144 
L 249.146182 150.144 
z
" clip-path="url(#p1ab7c8c0c5)" style="fill: #ff7f0e"/>
   </g>
   <g id="patch_81">
    <path d="M 255.639273 165.504 
L 262.132364 165.504 
L 262.132364 146.304 
L 255.639273 146.304 
z
" clip-path="url(#p1ab7c8c0c5)" style="fill: #ff7f0e"/>
   </g>
   <g id="patch_82">
    <path d="M 262.132364 173.184 
L 268.625455 173.184 
L 268.625455 157.824 
L 262.132364 157.824 
z
" clip-path="url(#p1ab7c8c0c5)" style="fill: #ff7f0e"/>
   </g>
   <g id="patch_83">
    <path d="M 268.625455 119.424 
L 275.118545 119.424 
L 275.118545 107.904 
L 268.625455 107.904 
z
" clip-path="url(#p1ab7c8c0c5)" style="fill: #ff7f0e"/>
   </g>
   <g id="patch_84">
    <path d="M 275.118545 146.304 
L 281.611636 146.304 
L 281.611636 127.104 
L 275.118545 127.104 
z
" clip-path="url(#p1ab7c8c0c5)" style="fill: #ff7f0e"/>
   </g>
   <g id="patch_85">
    <path d="M 281.611636 153.984 
L 288.104727 153.984 
L 288.104727 127.104 
L 281.611636 127.104 
z
" clip-path="url(#p1ab7c8c0c5)" style="fill: #ff7f0e"/>
   </g>
   <g id="patch_86">
    <path d="M 288.104727 142.464 
L 294.597818 142.464 
L 294.597818 119.424 
L 288.104727 119.424 
z
" clip-path="url(#p1ab7c8c0c5)" style="fill: #ff7f0e"/>
   </g>
   <g id="patch_87">
    <path d="M 294.597818 138.624 
L 301.090909 138.624 
L 301.090909 104.064 
L 294.597818 104.064 
z
" clip-path="url(#p1ab7c8c0c5)" style="fill: #ff7f0e"/>
   </g>
   <g id="patch_88">
    <path d="M 301.090909 88.704 
L 307.584 88.704 
L 307.584 73.344 
L 301.090909 73.344 
z
" clip-path="url(#p1ab7c8c0c5)" style="fill: #ff7f0e"/>
   </g>
   <g id="patch_89">
    <path d="M 307.584 104.064 
L 314.077091 104.064 
L 314.077091 81.024 
L 307.584 81.024 
z
" clip-path="url(#p1ab7c8c0c5)" style="fill: #ff7f0e"/>
   </g>
   <g id="patch_90">
    <path d="M 314.077091 138.624 
L 320.570182 138.624 
L 320.570182 127.104 
L 314.077091 127.104 
z
" clip-path="url(#p1ab7c8c0c5)" style="fill: #ff7f0e"/>
   </g>
   <g id="patch_91">
    <path d="M 320.570182 173.184 
L 327.063273 173.184 
L 327.063273 165.504 
L 320.570182 165.504 
z
" clip-path="url(#p1ab7c8c0c5)" style="fill: #ff7f0e"/>
   </g>
   <g id="patch_92">
    <path d="M 327.063273 153.984 
L 333.556364 153.984 
L 333.556364 134.784 
L 327.063273 134.784 
z
" clip-path="url(#p1ab7c8c0c5)" style="fill: #ff7f0e"/>
   </g>
   <g id="patch_93">
    <path d="M 333.556364 177.024 
L 340.049455 177.024 
L 340.049455 161.664 
L 333.556364 161.664 
z
" clip-path="url(#p1ab7c8c0c5)" style="fill: #ff7f0e"/>
   </g>
   <g id="patch_94">
    <path d="M 340.049455 200.064 
L 346.542545 200.064 
L 346.542545 192.384 
L 340.049455 192.384 
z
" clip-path="url(#p1ab7c8c0c5)" style="fill: #ff7f0e"/>
   </g>
   <g id="patch_95">
    <path d="M 346.542545 226.944 
L 353.035636 226.944 
L 353.035636 223.104 
L 346.542545 223.104 
z
" clip-path="url(#p1ab7c8c0c5)" style="fill: #ff7f0e"/>
   </g>
   <g id="patch_96">
    <path d="M 353.035636 257.664 
L 359.528727 257.664 
L 359.528727 242.304 
L 353.035636 242.304 
z
" clip-path="url(#p1ab7c8c0c5)" style="fill: #ff7f0e"/>
   </g>
   <g id="patch_97">
    <path d="M 359.528727 265.344 
L 366.021818 265.344 
L 366.021818 253.824 
L 359.528727 253.824 
z
" clip-path="url(#p1ab7c8c0c5)" style="fill: #ff7f0e"/>
   </g>
   <g id="patch_98">
    <path d="M 366.021818 249.984 
L 372.514909 249.984 
L 372.514909 234.624 
L 366.021818 234.624 
z
" clip-path="url(#p1ab7c8c0c5)" style="fill: #ff7f0e"/>
   </g>
   <g id="patch_99">
    <path d="M 372.514909 265.344 
L 379.008 265.344 
L 379.008 261.504 
L 372.514909 261.504 
z
" clip-path="url(#p1ab7c8c0c5)" style="fill: #ff7f0e"/>
   </g>
   <g id="patch_100">
    <path d="M 379.008 284.544 
L 385.501091 284.544 
L 385.501091 280.704 
L 379.008 280.704 
z
" clip-path="url(#p1ab7c8c0c5)" style="fill: #ff7f0e"/>
   </g>
   <g id="patch_101">
    <path d="M 385.501091 284.544 
L 391.994182 284.544 
L 391.994182 284.544 
L 385.501091 284.544 
z
" clip-path="url(#p1ab7c8c0c5)" style="fill: #ff7f0e"/>
   </g>
   <g id="patch_102">
    <path d="M 391.994182 296.064 
L 398.487273 296.064 
L 398.487273 296.064 
L 391.994182 296.064 
z
" clip-path="url(#p1ab7c8c0c5)" style="fill: #ff7f0e"/>
   </g>
   <g id="patch_103">
    <path d="M 73.832727 307.584 
L 80.325818 307.584 
L 80.325818 303.744 
L 73.832727 303.744 
z
" clip-path="url(#p1ab7c8c0c5)" style="fill: #2ca02c"/>
   </g>
   <g id="patch_104">
    <path d="M 80.325818 307.584 
L 86.818909 307.584 
L 86.818909 307.584 
L 80.325818 307.584 
z
" clip-path="url(#p1ab7c8c0c5)" style="fill: #2ca02c"/>
   </g>
   <g id="patch_105">
    <path d="M 86.818909 307.584 
L 93.312 307.584 
L 93.312 307.584 
L 86.818909 307.584 
z
" clip-path="url(#p1ab7c8c0c5)" style="fill: #2ca02c"/>
   </g>
   <g id="patch_106">
    <path d="M 93.312 307.584 
L 99.805091 307.584 
L 99.805091 307.584 
L 93.312 307.584 
z
" clip-path="url(#p1ab7c8c0c5)" style="fill: #2ca02c"/>
   </g>
   <g id="patch_107">
    <path d="M 99.805091 307.584 
L 106.298182 307.584 
L 106.298182 307.584 
L 99.805091 307.584 
z
" clip-path="url(#p1ab7c8c0c5)" style="fill: #2ca02c"/>
   </g>
   <g id="patch_108">
    <path d="M 106.298182 307.584 
L 112.791273 307.584 
L 112.791273 307.584 
L 106.298182 307.584 
z
" clip-path="url(#p1ab7c8c0c5)" style="fill: #2ca02c"/>
   </g>
   <g id="patch_109">
    <path d="M 112.791273 307.584 
L 119.284364 307.584 
L 119.284364 307.584 
L 112.791273 307.584 
z
" clip-path="url(#p1ab7c8c0c5)" style="fill: #2ca02c"/>
   </g>
   <g id="patch_110">
    <path d="M 119.284364 307.584 
L 125.777455 307.584 
L 125.777455 307.584 
L 119.284364 307.584 
z
" clip-path="url(#p1ab7c8c0c5)" style="fill: #2ca02c"/>
   </g>
   <g id="patch_111">
    <path d="M 125.777455 303.744 
L 132.270545 303.744 
L 132.270545 303.744 
L 125.777455 303.744 
z
" clip-path="url(#p1ab7c8c0c5)" style="fill: #2ca02c"/>
   </g>
   <g id="patch_112">
    <path d="M 132.270545 296.064 
L 138.763636 296.064 
L 138.763636 296.064 
L 132.270545 296.064 
z
" clip-path="url(#p1ab7c8c0c5)" style="fill: #2ca02c"/>
   </g>
   <g id="patch_113">
    <path d="M 138.763636 296.064 
L 145.256727 296.064 
L 145.256727 296.064 
L 138.763636 296.064 
z
" clip-path="url(#p1ab7c8c0c5)" style="fill: #2ca02c"/>
   </g>
   <g id="patch_114">
    <path d="M 145.256727 284.544 
L 151.749818 284.544 
L 151.749818 284.544 
L 145.256727 284.544 
z
" clip-path="url(#p1ab7c8c0c5)" style="fill: #2ca02c"/>
   </g>
   <g id="patch_115">
    <path d="M 151.749818 284.544 
L 158.242909 284.544 
L 158.242909 284.544 
L 151.749818 284.544 
z
" clip-path="url(#p1ab7c8c0c5)" style="fill: #2ca02c"/>
   </g>
   <g id="patch_116">
    <path d="M 158.242909 269.184 
L 164.736 269.184 
L 164.736 265.344 
L 158.242909 265.344 
z
" clip-path="url(#p1ab7c8c0c5)" style="fill: #2ca02c"/>
   </g>
   <g id="patch_117">
    <path d="M 164.736 280.704 
L 171.229091 280.704 
L 171.229091 280.704 
L 164.736 280.704 
z
" clip-path="url(#p1ab7c8c0c5)" style="fill: #2ca02c"/>
   </g>
   <g id="patch_118">
    <path d="M 171.229091 292.224 
L 177.722182 292.224 
L 177.722182 292.224 
L 171.229091 292.224 
z
" clip-path="url(#p1ab7c8c0c5)" style="fill: #2ca02c"/>
   </g>
   <g id="patch_119">
    <path d="M 177.722182 269.184 
L 184.215273 269.184 
L 184.215273 261.504 
L 177.722182 261.504 
z
" clip-path="url(#p1ab7c8c0c5)" style="fill: #2ca02c"/>
   </g>
   <g id="patch_120">
    <path d="M 184.215273 276.864 
L 190.708364 276.864 
L 190.708364 265.344 
L 184.215273 265.344 
z
" clip-path="url(#p1ab7c8c0c5)" style="fill: #2ca02c"/>
   </g>
   <g id="patch_121">
    <path d="M 190.708364 284.544 
L 197.201455 284.544 
L 197.201455 284.544 
L 190.708364 284.544 
z
" clip-path="url(#p1ab7c8c0c5)" style="fill: #2ca02c"/>
   </g>
   <g id="patch_122">
    <path d="M 197.201455 265.344 
L 203.694545 265.344 
L 203.694545 253.824 
L 197.201455 253.824 
z
" clip-path="url(#p1ab7c8c0c5)" style="fill: #2ca02c"/>
   </g>
   <g id="patch_123">
    <path d="M 203.694545 265.344 
L 210.187636 265.344 
L 210.187636 249.984 
L 203.694545 249.984 
z
" clip-path="url(#p1ab7c8c0c5)" style="fill: #2ca02c"/>
   </g>
   <g id="patch_124">
    <path d="M 210.187636 246.144 
L 216.680727 246.144 
L 216.680727 246.144 
L 210.187636 246.144 
z
" clip-path="url(#p1ab7c8c0c5)" style="fill: #2ca02c"/>
   </g>
   <g id="patch_125">
    <path d="M 216.680727 253.824 
L 223.173818 253.824 
L 223.173818 249.984 
L 216.680727 249.984 
z
" clip-path="url(#p1ab7c8c0c5)" style="fill: #2ca02c"/>
   </g>
   <g id="patch_126">
    <path d="M 223.173818 234.624 
L 229.666909 234.624 
L 229.666909 234.624 
L 223.173818 234.624 
z
" clip-path="url(#p1ab7c8c0c5)" style="fill: #2ca02c"/>
   </g>
   <g id="patch_127">
    <path d="M 229.666909 200.064 
L 236.16 200.064 
L 236.16 192.384 
L 229.666909 192.384 
z
" clip-path="url(#p1ab7c8c0c5)" style="fill: #2ca02c"/>
   </g>
   <g id="patch_128">
    <path d="M 236.16 211.584 
L 242.653091 211.584 
L 242.653091 196.224 
L 236.16 196.224 
z
" clip-path="url(#p1ab7c8c0c5)" style="fill: #2ca02c"/>
   </g>
   <g id="patch_129">
    <path d="M 242.653091 153.984 
L 249.146182 153.984 
L 249.146182 142.464 
L 242.653091 142.464 
z
" clip-path="url(#p1ab7c8c0c5)" style="fill: #2ca02c"/>
   </g>
   <g id="patch_130">
    <path d="M 249.146182 150.144 
L 255.639273 150.144 
L 255.639273 123.264 
L 249.146182 123.264 
z
" clip-path="url(#p1ab7c8c0c5)" style="fill: #2ca02c"/>
   </g>
   <g id="patch_131">
    <path d="M 255.639273 146.304 
L 262.132364 146.304 
L 262.132364 123.264 
L 255.639273 123.264 
z
" clip-path="url(#p1ab7c8c0c5)" style="fill: #2ca02c"/>
   </g>
   <g id="patch_132">
    <path d="M 262.132364 157.824 
L 268.625455 157.824 
L 268.625455 146.304 
L 262.132364 146.304 
z
" clip-path="url(#p1ab7c8c0c5)" style="fill: #2ca02c"/>
   </g>
   <g id="patch_133">
    <path d="M 268.625455 107.904 
L 275.118545 107.904 
L 275.118545 88.704 
L 268.625455 88.704 
z
" clip-path="url(#p1ab7c8c0c5)" style="fill: #2ca02c"/>
   </g>
   <g id="patch_134">
    <path d="M 275.118545 127.104 
L 281.611636 127.104 
L 281.611636 88.704 
L 275.118545 88.704 
z
" clip-path="url(#p1ab7c8c0c5)" style="fill: #2ca02c"/>
   </g>
   <g id="patch_135">
    <path d="M 281.611636 127.104 
L 288.104727 127.104 
L 288.104727 100.224 
L 281.611636 100.224 
z
" clip-path="url(#p1ab7c8c0c5)" style="fill: #2ca02c"/>
   </g>
   <g id="patch_136">
    <path d="M 288.104727 119.424 
L 294.597818 119.424 
L 294.597818 107.904 
L 288.104727 107.904 
z
" clip-path="url(#p1ab7c8c0c5)" style="fill: #2ca02c"/>
   </g>
   <g id="patch_137">
    <path d="M 294.597818 104.064 
L 301.090909 104.064 
L 301.090909 73.344 
L 294.597818 73.344 
z
" clip-path="url(#p1ab7c8c0c5)" style="fill: #2ca02c"/>
   </g>
   <g id="patch_138">
    <path d="M 301.090909 73.344 
L 307.584 73.344 
L 307.584 54.144 
L 301.090909 54.144 
z
" clip-path="url(#p1ab7c8c0c5)" style="fill: #2ca02c"/>
   </g>
   <g id="patch_139">
    <path d="M 307.584 81.024 
L 314.077091 81.024 
L 314.077091 61.824 
L 307.584 61.824 
z
" clip-path="url(#p1ab7c8c0c5)" style="fill: #2ca02c"/>
   </g>
   <g id="patch_140">
    <path d="M 314.077091 127.104 
L 320.570182 127.104 
L 320.570182 119.424 
L 314.077091 119.424 
z
" clip-path="url(#p1ab7c8c0c5)" style="fill: #2ca02c"/>
   </g>
   <g id="patch_141">
    <path d="M 320.570182 165.504 
L 327.063273 165.504 
L 327.063273 153.984 
L 320.570182 153.984 
z
" clip-path="url(#p1ab7c8c0c5)" style="fill: #2ca02c"/>
   </g>
   <g id="patch_142">
    <path d="M 327.063273 134.784 
L 333.556364 134.784 
L 333.556364 123.264 
L 327.063273 123.264 
z
" clip-path="url(#p1ab7c8c0c5)" style="fill: #2ca02c"/>
   </g>
   <g id="patch_143">
    <path d="M 333.556364 161.664 
L 340.049455 161.664 
L 340.049455 157.824 
L 333.556364 157.824 
z
" clip-path="url(#p1ab7c8c0c5)" style="fill: #2ca02c"/>
   </g>
   <g id="patch_144">
    <path d="M 340.049455 192.384 
L 346.542545 192.384 
L 346.542545 177.024 
L 340.049455 177.024 
z
" clip-path="url(#p1ab7c8c0c5)" style="fill: #2ca02c"/>
   </g>
   <g id="patch_145">
    <path d="M 346.542545 223.104 
L 353.035636 223.104 
L 353.035636 203.904 
L 346.542545 203.904 
z
" clip-path="url(#p1ab7c8c0c5)" style="fill: #2ca02c"/>
   </g>
   <g id="patch_146">
    <path d="M 353.035636 242.304 
L 359.528727 242.304 
L 359.528727 226.944 
L 353.035636 226.944 
z
" clip-path="url(#p1ab7c8c0c5)" style="fill: #2ca02c"/>
   </g>
   <g id="patch_147">
    <path d="M 359.528727 253.824 
L 366.021818 253.824 
L 366.021818 253.824 
L 359.528727 253.824 
z
" clip-path="url(#p1ab7c8c0c5)" style="fill: #2ca02c"/>
   </g>
   <g id="patch_148">
    <path d="M 366.021818 234.624 
L 372.514909 234.624 
L 372.514909 219.264 
L 366.021818 219.264 
z
" clip-path="url(#p1ab7c8c0c5)" style="fill: #2ca02c"/>
   </g>
   <g id="patch_149">
    <path d="M 372.514909 261.504 
L 379.008 261.504 
L 379.008 257.664 
L 372.514909 257.664 
z
" clip-path="url(#p1ab7c8c0c5)" style="fill: #2ca02c"/>
   </g>
   <g id="patch_150">
    <path d="M 379.008 280.704 
L 385.501091 280.704 
L 385.501091 280.704 
L 379.008 280.704 
z
" clip-path="url(#p1ab7c8c0c5)" style="fill: #2ca02c"/>
   </g>
   <g id="patch_151">
    <path d="M 385.501091 284.544 
L 391.994182 284.544 
L 391.994182 276.864 
L 385.501091 276.864 
z
" clip-path="url(#p1ab7c8c0c5)" style="fill: #2ca02c"/>
   </g>
   <g id="patch_152">
    <path d="M 391.994182 296.064 
L 398.487273 296.064 
L 398.487273 296.064 
L 391.994182 296.064 
z
" clip-path="url(#p1ab7c8c0c5)" style="fill: #2ca02c"/>
   </g>
   <g id="matplotlib.axis_1">
    <g id="xtick_1">
     <g id="line2d_1">
      <defs>
       <path id="m87e1c573c1" d="M 0 0 
L 0 3.5 
" style="stroke: #000000; stroke-width: 0.8"/>
      </defs>
      <g>
       <use xlink:href="#m87e1c573c1" x="63.979782" y="307.584" style="stroke: #000000; stroke-width: 0.8"/>
      </g>
     </g>
     <g id="text_1">
      <!-- −12 -->
      <g transform="translate(53.427438 322.182437) scale(0.1 -0.1)">
       <defs>
        <path id="DejaVuSans-2212" d="M 678 2272 
L 4684 2272 
L 4684 1741 
L 678 1741 
L 678 2272 
z
" transform="scale(0.015625)"/>
        <path id="DejaVuSans-31" d="M 794 531 
L 1825 531 
L 1825 4091 
L 703 3866 
L 703 4441 
L 1819 4666 
L 2450 4666 
L 2450 531 
L 3481 531 
L 3481 0 
L 794 0 
L 794 531 
z
" transform="scale(0.015625)"/>
        <path id="DejaVuSans-32" d="M 1228 531 
L 3431 531 
L 3431 0 
L 469 0 
L 469 531 
Q 828 903 1448 1529 
Q 2069 2156 2228 2338 
Q 2531 2678 2651 2914 
Q 2772 3150 2772 3378 
Q 2772 3750 2511 3984 
Q 2250 4219 1831 4219 
Q 1534 4219 1204 4116 
Q 875 4013 500 3803 
L 500 4441 
Q 881 4594 1212 4672 
Q 1544 4750 1819 4750 
Q 2544 4750 2975 4387 
Q 3406 4025 3406 3419 
Q 3406 3131 3298 2873 
Q 3191 2616 2906 2266 
Q 2828 2175 2409 1742 
Q 1991 1309 1228 531 
z
" transform="scale(0.015625)"/>
       </defs>
       <use xlink:href="#DejaVuSans-2212"/>
       <use xlink:href="#DejaVuSans-31" transform="translate(83.789062 0)"/>
       <use xlink:href="#DejaVuSans-32" transform="translate(147.412109 0)"/>
      </g>
     </g>
    </g>
    <g id="xtick_2">
     <g id="line2d_2">
      <g>
       <use xlink:href="#m87e1c573c1" x="113.244508" y="307.584" style="stroke: #000000; stroke-width: 0.8"/>
      </g>
     </g>
     <g id="text_2">
      <!-- −10 -->
      <g transform="translate(102.692164 322.182437) scale(0.1 -0.1)">
       <defs>
        <path id="DejaVuSans-30" d="M 2034 4250 
Q 1547 4250 1301 3770 
Q 1056 3291 1056 2328 
Q 1056 1369 1301 889 
Q 1547 409 2034 409 
Q 2525 409 2770 889 
Q 3016 1369 3016 2328 
Q 3016 3291 2770 3770 
Q 2525 4250 2034 4250 
z
M 2034 4750 
Q 2819 4750 3233 4129 
Q 3647 3509 3647 2328 
Q 3647 1150 3233 529 
Q 2819 -91 2034 -91 
Q 1250 -91 836 529 
Q 422 1150 422 2328 
Q 422 3509 836 4129 
Q 1250 4750 2034 4750 
z
" transform="scale(0.015625)"/>
       </defs>
       <use xlink:href="#DejaVuSans-2212"/>
       <use xlink:href="#DejaVuSans-31" transform="translate(83.789062 0)"/>
       <use xlink:href="#DejaVuSans-30" transform="translate(147.412109 0)"/>
      </g>
     </g>
    </g>
    <g id="xtick_3">
     <g id="line2d_3">
      <g>
       <use xlink:href="#m87e1c573c1" x="162.509234" y="307.584" style="stroke: #000000; stroke-width: 0.8"/>
      </g>
     </g>
     <g id="text_3">
      <!-- −8 -->
      <g transform="translate(155.138141 322.182437) scale(0.1 -0.1)">
       <defs>
        <path id="DejaVuSans-38" d="M 2034 2216 
Q 1584 2216 1326 1975 
Q 1069 1734 1069 1313 
Q 1069 891 1326 650 
Q 1584 409 2034 409 
Q 2484 409 2743 651 
Q 3003 894 3003 1313 
Q 3003 1734 2745 1975 
Q 2488 2216 2034 2216 
z
M 1403 2484 
Q 997 2584 770 2862 
Q 544 3141 544 3541 
Q 544 4100 942 4425 
Q 1341 4750 2034 4750 
Q 2731 4750 3128 4425 
Q 3525 4100 3525 3541 
Q 3525 3141 3298 2862 
Q 3072 2584 2669 2484 
Q 3125 2378 3379 2068 
Q 3634 1759 3634 1313 
Q 3634 634 3220 271 
Q 2806 -91 2034 -91 
Q 1263 -91 848 271 
Q 434 634 434 1313 
Q 434 1759 690 2068 
Q 947 2378 1403 2484 
z
M 1172 3481 
Q 1172 3119 1398 2916 
Q 1625 2713 2034 2713 
Q 2441 2713 2670 2916 
Q 2900 3119 2900 3481 
Q 2900 3844 2670 4047 
Q 2441 4250 2034 4250 
Q 1625 4250 1398 4047 
Q 1172 3844 1172 3481 
z
" transform="scale(0.015625)"/>
       </defs>
       <use xlink:href="#DejaVuSans-2212"/>
       <use xlink:href="#DejaVuSans-38" transform="translate(83.789062 0)"/>
      </g>
     </g>
    </g>
    <g id="xtick_4">
     <g id="line2d_4">
      <g>
       <use xlink:href="#m87e1c573c1" x="211.773961" y="307.584" style="stroke: #000000; stroke-width: 0.8"/>
      </g>
     </g>
     <g id="text_4">
      <!-- −6 -->
      <g transform="translate(204.402867 322.182437) scale(0.1 -0.1)">
       <defs>
        <path id="DejaVuSans-36" d="M 2113 2584 
Q 1688 2584 1439 2293 
Q 1191 2003 1191 1497 
Q 1191 994 1439 701 
Q 1688 409 2113 409 
Q 2538 409 2786 701 
Q 3034 994 3034 1497 
Q 3034 2003 2786 2293 
Q 2538 2584 2113 2584 
z
M 3366 4563 
L 3366 3988 
Q 3128 4100 2886 4159 
Q 2644 4219 2406 4219 
Q 1781 4219 1451 3797 
Q 1122 3375 1075 2522 
Q 1259 2794 1537 2939 
Q 1816 3084 2150 3084 
Q 2853 3084 3261 2657 
Q 3669 2231 3669 1497 
Q 3669 778 3244 343 
Q 2819 -91 2113 -91 
Q 1303 -91 875 529 
Q 447 1150 447 2328 
Q 447 3434 972 4092 
Q 1497 4750 2381 4750 
Q 2619 4750 2861 4703 
Q 3103 4656 3366 4563 
z
" transform="scale(0.015625)"/>
       </defs>
       <use xlink:href="#DejaVuSans-2212"/>
       <use xlink:href="#DejaVuSans-36" transform="translate(83.789062 0)"/>
      </g>
     </g>
    </g>
    <g id="xtick_5">
     <g id="line2d_5">
      <g>
       <use xlink:href="#m87e1c573c1" x="261.038687" y="307.584" style="stroke: #000000; stroke-width: 0.8"/>
      </g>
     </g>
     <g id="text_5">
      <!-- −4 -->
      <g transform="translate(253.667593 322.182437) scale(0.1 -0.1)">
       <defs>
        <path id="DejaVuSans-34" d="M 2419 4116 
L 825 1625 
L 2419 1625 
L 2419 4116 
z
M 2253 4666 
L 3047 4666 
L 3047 1625 
L 3713 1625 
L 3713 1100 
L 3047 1100 
L 3047 0 
L 2419 0 
L 2419 1100 
L 313 1100 
L 313 1709 
L 2253 4666 
z
" transform="scale(0.015625)"/>
       </defs>
       <use xlink:href="#DejaVuSans-2212"/>
       <use xlink:href="#DejaVuSans-34" transform="translate(83.789062 0)"/>
      </g>
     </g>
    </g>
    <g id="xtick_6">
     <g id="line2d_6">
      <g>
       <use xlink:href="#m87e1c573c1" x="310.303413" y="307.584" style="stroke: #000000; stroke-width: 0.8"/>
      </g>
     </g>
     <g id="text_6">
      <!-- −2 -->
      <g transform="translate(302.932319 322.182437) scale(0.1 -0.1)">
       <use xlink:href="#DejaVuSans-2212"/>
       <use xlink:href="#DejaVuSans-32" transform="translate(83.789062 0)"/>
      </g>
     </g>
    </g>
    <g id="xtick_7">
     <g id="line2d_7">
      <g>
       <use xlink:href="#m87e1c573c1" x="359.568139" y="307.584" style="stroke: #000000; stroke-width: 0.8"/>
      </g>
     </g>
     <g id="text_7">
      <!-- 0 -->
      <g transform="translate(356.386889 322.182437) scale(0.1 -0.1)">
       <use xlink:href="#DejaVuSans-30"/>
      </g>
     </g>
    </g>
    <g id="xtick_8">
     <g id="line2d_8">
      <g>
       <use xlink:href="#m87e1c573c1" x="408.832865" y="307.584" style="stroke: #000000; stroke-width: 0.8"/>
      </g>
     </g>
     <g id="text_8">
      <!-- 2 -->
      <g transform="translate(405.651615 322.182437) scale(0.1 -0.1)">
       <use xlink:href="#DejaVuSans-32"/>
      </g>
     </g>
    </g>
    <g id="text_9">
     <!-- Log Solubility $(log(mol\:dm^{-3}))$ -->
     <g transform="translate(161.51 337.362125) scale(0.1 -0.1)">
      <defs>
       <path id="DejaVuSans-4c" d="M 628 4666 
L 1259 4666 
L 1259 531 
L 3531 531 
L 3531 0 
L 628 0 
L 628 4666 
z
" transform="scale(0.015625)"/>
       <path id="DejaVuSans-6f" d="M 1959 3097 
Q 1497 3097 1228 2736 
Q 959 2375 959 1747 
Q 959 1119 1226 758 
Q 1494 397 1959 397 
Q 2419 397 2687 759 
Q 2956 1122 2956 1747 
Q 2956 2369 2687 2733 
Q 2419 3097 1959 3097 
z
M 1959 3584 
Q 2709 3584 3137 3096 
Q 3566 2609 3566 1747 
Q 3566 888 3137 398 
Q 2709 -91 1959 -91 
Q 1206 -91 779 398 
Q 353 888 353 1747 
Q 353 2609 779 3096 
Q 1206 3584 1959 3584 
z
" transform="scale(0.015625)"/>
       <path id="DejaVuSans-67" d="M 2906 1791 
Q 2906 2416 2648 2759 
Q 2391 3103 1925 3103 
Q 1463 3103 1205 2759 
Q 947 2416 947 1791 
Q 947 1169 1205 825 
Q 1463 481 1925 481 
Q 2391 481 2648 825 
Q 2906 1169 2906 1791 
z
M 3481 434 
Q 3481 -459 3084 -895 
Q 2688 -1331 1869 -1331 
Q 1566 -1331 1297 -1286 
Q 1028 -1241 775 -1147 
L 775 -588 
Q 1028 -725 1275 -790 
Q 1522 -856 1778 -856 
Q 2344 -856 2625 -561 
Q 2906 -266 2906 331 
L 2906 616 
Q 2728 306 2450 153 
Q 2172 0 1784 0 
Q 1141 0 747 490 
Q 353 981 353 1791 
Q 353 2603 747 3093 
Q 1141 3584 1784 3584 
Q 2172 3584 2450 3431 
Q 2728 3278 2906 2969 
L 2906 3500 
L 3481 3500 
L 3481 434 
z
" transform="scale(0.015625)"/>
       <path id="DejaVuSans-20" transform="scale(0.015625)"/>
       <path id="DejaVuSans-53" d="M 3425 4513 
L 3425 3897 
Q 3066 4069 2747 4153 
Q 2428 4238 2131 4238 
Q 1616 4238 1336 4038 
Q 1056 3838 1056 3469 
Q 1056 3159 1242 3001 
Q 1428 2844 1947 2747 
L 2328 2669 
Q 3034 2534 3370 2195 
Q 3706 1856 3706 1288 
Q 3706 609 3251 259 
Q 2797 -91 1919 -91 
Q 1588 -91 1214 -16 
Q 841 59 441 206 
L 441 856 
Q 825 641 1194 531 
Q 1563 422 1919 422 
Q 2459 422 2753 634 
Q 3047 847 3047 1241 
Q 3047 1584 2836 1778 
Q 2625 1972 2144 2069 
L 1759 2144 
Q 1053 2284 737 2584 
Q 422 2884 422 3419 
Q 422 4038 858 4394 
Q 1294 4750 2059 4750 
Q 2388 4750 2728 4690 
Q 3069 4631 3425 4513 
z
" transform="scale(0.015625)"/>
       <path id="DejaVuSans-6c" d="M 603 4863 
L 1178 4863 
L 1178 0 
L 603 0 
L 603 4863 
z
" transform="scale(0.015625)"/>
       <path id="DejaVuSans-75" d="M 544 1381 
L 544 3500 
L 1119 3500 
L 1119 1403 
Q 1119 906 1312 657 
Q 1506 409 1894 409 
Q 2359 409 2629 706 
Q 2900 1003 2900 1516 
L 2900 3500 
L 3475 3500 
L 3475 0 
L 2900 0 
L 2900 538 
Q 2691 219 2414 64 
Q 2138 -91 1772 -91 
Q 1169 -91 856 284 
Q 544 659 544 1381 
z
M 1991 3584 
L 1991 3584 
z
" transform="scale(0.015625)"/>
       <path id="DejaVuSans-62" d="M 3116 1747 
Q 3116 2381 2855 2742 
Q 2594 3103 2138 3103 
Q 1681 3103 1420 2742 
Q 1159 2381 1159 1747 
Q 1159 1113 1420 752 
Q 1681 391 2138 391 
Q 2594 391 2855 752 
Q 3116 1113 3116 1747 
z
M 1159 2969 
Q 1341 3281 1617 3432 
Q 1894 3584 2278 3584 
Q 2916 3584 3314 3078 
Q 3713 2572 3713 1747 
Q 3713 922 3314 415 
Q 2916 -91 2278 -91 
Q 1894 -91 1617 61 
Q 1341 213 1159 525 
L 1159 0 
L 581 0 
L 581 4863 
L 1159 4863 
L 1159 2969 
z
" transform="scale(0.015625)"/>
       <path id="DejaVuSans-69" d="M 603 3500 
L 1178 3500 
L 1178 0 
L 603 0 
L 603 3500 
z
M 603 4863 
L 1178 4863 
L 1178 4134 
L 603 4134 
L 603 4863 
z
" transform="scale(0.015625)"/>
       <path id="DejaVuSans-74" d="M 1172 4494 
L 1172 3500 
L 2356 3500 
L 2356 3053 
L 1172 3053 
L 1172 1153 
Q 1172 725 1289 603 
Q 1406 481 1766 481 
L 2356 481 
L 2356 0 
L 1766 0 
Q 1100 0 847 248 
Q 594 497 594 1153 
L 594 3053 
L 172 3053 
L 172 3500 
L 594 3500 
L 594 4494 
L 1172 4494 
z
" transform="scale(0.015625)"/>
       <path id="DejaVuSans-79" d="M 2059 -325 
Q 1816 -950 1584 -1140 
Q 1353 -1331 966 -1331 
L 506 -1331 
L 506 -850 
L 844 -850 
Q 1081 -850 1212 -737 
Q 1344 -625 1503 -206 
L 1606 56 
L 191 3500 
L 800 3500 
L 1894 763 
L 2988 3500 
L 3597 3500 
L 2059 -325 
z
" transform="scale(0.015625)"/>
       <path id="DejaVuSans-28" d="M 1984 4856 
Q 1566 4138 1362 3434 
Q 1159 2731 1159 2009 
Q 1159 1288 1364 580 
Q 1569 -128 1984 -844 
L 1484 -844 
Q 1016 -109 783 600 
Q 550 1309 550 2009 
Q 550 2706 781 3412 
Q 1013 4119 1484 4856 
L 1984 4856 
z
" transform="scale(0.015625)"/>
       <path id="DejaVuSans-Oblique-6c" d="M 1172 4863 
L 1747 4863 
L 800 0 
L 225 0 
L 1172 4863 
z
" transform="scale(0.015625)"/>
       <path id="DejaVuSans-Oblique-6f" d="M 1625 -91 
Q 1009 -91 651 289 
Q 294 669 294 1325 
Q 294 1706 417 2101 
Q 541 2497 738 2766 
Q 1047 3184 1428 3384 
Q 1809 3584 2291 3584 
Q 2888 3584 3255 3212 
Q 3622 2841 3622 2241 
Q 3622 1825 3500 1412 
Q 3378 1000 3181 728 
Q 2875 309 2494 109 
Q 2113 -91 1625 -91 
z
M 891 1344 
Q 891 869 1089 633 
Q 1288 397 1691 397 
Q 2269 397 2648 901 
Q 3028 1406 3028 2181 
Q 3028 2634 2825 2865 
Q 2622 3097 2228 3097 
Q 1903 3097 1650 2945 
Q 1397 2794 1197 2484 
Q 1050 2253 970 1956 
Q 891 1659 891 1344 
z
" transform="scale(0.015625)"/>
       <path id="DejaVuSans-Oblique-67" d="M 3816 3500 
L 3219 434 
Q 3047 -456 2561 -893 
Q 2075 -1331 1253 -1331 
Q 950 -1331 690 -1286 
Q 431 -1241 206 -1147 
L 313 -588 
Q 525 -725 762 -790 
Q 1000 -856 1269 -856 
Q 1816 -856 2167 -557 
Q 2519 -259 2631 300 
L 2681 563 
Q 2441 288 2122 144 
Q 1803 0 1434 0 
Q 903 0 598 351 
Q 294 703 294 1319 
Q 294 1803 478 2267 
Q 663 2731 997 3091 
Q 1219 3328 1514 3456 
Q 1809 3584 2131 3584 
Q 2484 3584 2746 3420 
Q 3009 3256 3138 2956 
L 3238 3500 
L 3816 3500 
z
M 2950 2216 
Q 2950 2641 2750 2872 
Q 2550 3103 2181 3103 
Q 1953 3103 1747 3012 
Q 1541 2922 1394 2759 
Q 1156 2491 1023 2127 
Q 891 1763 891 1375 
Q 891 944 1092 712 
Q 1294 481 1672 481 
Q 2219 481 2584 976 
Q 2950 1472 2950 2216 
z
" transform="scale(0.015625)"/>
       <path id="DejaVuSans-Oblique-6d" d="M 5747 2113 
L 5338 0 
L 4763 0 
L 5166 2094 
Q 5191 2228 5203 2325 
Q 5216 2422 5216 2491 
Q 5216 2772 5059 2928 
Q 4903 3084 4622 3084 
Q 4203 3084 3875 2770 
Q 3547 2456 3450 1953 
L 3066 0 
L 2491 0 
L 2900 2094 
Q 2925 2209 2937 2307 
Q 2950 2406 2950 2484 
Q 2950 2769 2794 2926 
Q 2638 3084 2363 3084 
Q 1938 3084 1609 2770 
Q 1281 2456 1184 1953 
L 800 0 
L 225 0 
L 909 3500 
L 1484 3500 
L 1375 2956 
Q 1609 3263 1923 3423 
Q 2238 3584 2597 3584 
Q 2978 3584 3223 3384 
Q 3469 3184 3519 2828 
Q 3781 3197 4126 3390 
Q 4472 3584 4856 3584 
Q 5306 3584 5551 3325 
Q 5797 3066 5797 2591 
Q 5797 2488 5784 2364 
Q 5772 2241 5747 2113 
z
" transform="scale(0.015625)"/>
       <path id="DejaVuSans-Oblique-64" d="M 2675 525 
Q 2444 222 2128 65 
Q 1813 -91 1428 -91 
Q 903 -91 598 267 
Q 294 625 294 1247 
Q 294 1766 478 2236 
Q 663 2706 1013 3078 
Q 1244 3325 1534 3454 
Q 1825 3584 2144 3584 
Q 2481 3584 2739 3421 
Q 2997 3259 3138 2956 
L 3513 4863 
L 4091 4863 
L 3144 0 
L 2566 0 
L 2675 525 
z
M 891 1350 
Q 891 897 1095 644 
Q 1300 391 1663 391 
Q 1931 391 2161 520 
Q 2391 650 2566 903 
Q 2750 1166 2856 1509 
Q 2963 1853 2963 2188 
Q 2963 2622 2758 2865 
Q 2553 3109 2194 3109 
Q 1922 3109 1687 2981 
Q 1453 2853 1288 2613 
Q 1106 2353 998 2009 
Q 891 1666 891 1350 
z
" transform="scale(0.015625)"/>
       <path id="DejaVuSans-33" d="M 2597 2516 
Q 3050 2419 3304 2112 
Q 3559 1806 3559 1356 
Q 3559 666 3084 287 
Q 2609 -91 1734 -91 
Q 1441 -91 1130 -33 
Q 819 25 488 141 
L 488 750 
Q 750 597 1062 519 
Q 1375 441 1716 441 
Q 2309 441 2620 675 
Q 2931 909 2931 1356 
Q 2931 1769 2642 2001 
Q 2353 2234 1838 2234 
L 1294 2234 
L 1294 2753 
L 1863 2753 
Q 2328 2753 2575 2939 
Q 2822 3125 2822 3475 
Q 2822 3834 2567 4026 
Q 2313 4219 1838 4219 
Q 1578 4219 1281 4162 
Q 984 4106 628 3988 
L 628 4550 
Q 988 4650 1302 4700 
Q 1616 4750 1894 4750 
Q 2613 4750 3031 4423 
Q 3450 4097 3450 3541 
Q 3450 3153 3228 2886 
Q 3006 2619 2597 2516 
z
" transform="scale(0.015625)"/>
       <path id="DejaVuSans-29" d="M 513 4856 
L 1013 4856 
Q 1481 4119 1714 3412 
Q 1947 2706 1947 2009 
Q 1947 1309 1714 600 
Q 1481 -109 1013 -844 
L 513 -844 
Q 928 -128 1133 580 
Q 1338 1288 1338 2009 
Q 1338 2731 1133 3434 
Q 928 4138 513 4856 
z
" transform="scale(0.015625)"/>
      </defs>
      <use xlink:href="#DejaVuSans-4c" transform="translate(0 0.765625)"/>
      <use xlink:href="#DejaVuSans-6f" transform="translate(55.712891 0.765625)"/>
      <use xlink:href="#DejaVuSans-67" transform="translate(116.894531 0.765625)"/>
      <use xlink:href="#DejaVuSans-20" transform="translate(180.371094 0.765625)"/>
      <use xlink:href="#DejaVuSans-53" transform="translate(212.158203 0.765625)"/>
      <use xlink:href="#DejaVuSans-6f" transform="translate(275.634766 0.765625)"/>
      <use xlink:href="#DejaVuSans-6c" transform="translate(336.816406 0.765625)"/>
      <use xlink:href="#DejaVuSans-75" transform="translate(364.599609 0.765625)"/>
      <use xlink:href="#DejaVuSans-62" transform="translate(427.978516 0.765625)"/>
      <use xlink:href="#DejaVuSans-69" transform="translate(491.455078 0.765625)"/>
      <use xlink:href="#DejaVuSans-6c" transform="translate(519.238281 0.765625)"/>
      <use xlink:href="#DejaVuSans-69" transform="translate(547.021484 0.765625)"/>
      <use xlink:href="#DejaVuSans-74" transform="translate(574.804688 0.765625)"/>
      <use xlink:href="#DejaVuSans-79" transform="translate(614.013672 0.765625)"/>
      <use xlink:href="#DejaVuSans-20" transform="translate(673.193359 0.765625)"/>
      <use xlink:href="#DejaVuSans-28" transform="translate(704.980469 0.765625)"/>
      <use xlink:href="#DejaVuSans-Oblique-6c" transform="translate(743.994141 0.765625)"/>
      <use xlink:href="#DejaVuSans-Oblique-6f" transform="translate(771.777344 0.765625)"/>
      <use xlink:href="#DejaVuSans-Oblique-67" transform="translate(832.958984 0.765625)"/>
      <use xlink:href="#DejaVuSans-28" transform="translate(896.435547 0.765625)"/>
      <use xlink:href="#DejaVuSans-Oblique-6d" transform="translate(935.449219 0.765625)"/>
      <use xlink:href="#DejaVuSans-Oblique-6f" transform="translate(1032.861328 0.765625)"/>
      <use xlink:href="#DejaVuSans-Oblique-6c" transform="translate(1094.042969 0.765625)"/>
      <use xlink:href="#DejaVuSans-Oblique-64" transform="translate(1143.473091 0.765625)"/>
      <use xlink:href="#DejaVuSans-Oblique-6d" transform="translate(1206.949653 0.765625)"/>
      <use xlink:href="#DejaVuSans-2212" transform="translate(1309.011659 39.046875) scale(0.7)"/>
      <use xlink:href="#DejaVuSans-33" transform="translate(1367.664002 39.046875) scale(0.7)"/>
      <use xlink:href="#DejaVuSans-29" transform="translate(1414.93451 0.765625)"/>
      <use xlink:href="#DejaVuSans-29" transform="translate(1453.948182 0.765625)"/>
     </g>
    </g>
   </g>
   <g id="matplotlib.axis_2">
    <g id="ytick_1">
     <g id="line2d_9">
      <defs>
       <path id="mcd0b3eb241" d="M 0 0 
L -3.5 0 
" style="stroke: #000000; stroke-width: 0.8"/>
      </defs>
      <g>
       <use xlink:href="#mcd0b3eb241" x="57.6" y="307.584" style="stroke: #000000; stroke-width: 0.8"/>
      </g>
     </g>
     <g id="text_10">
      <!-- 0 -->
      <g transform="translate(44.2375 311.383219) scale(0.1 -0.1)">
       <use xlink:href="#DejaVuSans-30"/>
      </g>
     </g>
    </g>
    <g id="ytick_2">
     <g id="line2d_10">
      <g>
       <use xlink:href="#mcd0b3eb241" x="57.6" y="269.184" style="stroke: #000000; stroke-width: 0.8"/>
      </g>
     </g>
     <g id="text_11">
      <!-- 10 -->
      <g transform="translate(37.875 272.983219) scale(0.1 -0.1)">
       <use xlink:href="#DejaVuSans-31"/>
       <use xlink:href="#DejaVuSans-30" transform="translate(63.623047 0)"/>
      </g>
     </g>
    </g>
    <g id="ytick_3">
     <g id="line2d_11">
      <g>
       <use xlink:href="#mcd0b3eb241" x="57.6" y="230.784" style="stroke: #000000; stroke-width: 0.8"/>
      </g>
     </g>
     <g id="text_12">
      <!-- 20 -->
      <g transform="translate(37.875 234.583219) scale(0.1 -0.1)">
       <use xlink:href="#DejaVuSans-32"/>
       <use xlink:href="#DejaVuSans-30" transform="translate(63.623047 0)"/>
      </g>
     </g>
    </g>
    <g id="ytick_4">
     <g id="line2d_12">
      <g>
       <use xlink:href="#mcd0b3eb241" x="57.6" y="192.384" style="stroke: #000000; stroke-width: 0.8"/>
      </g>
     </g>
     <g id="text_13">
      <!-- 30 -->
      <g transform="translate(37.875 196.183219) scale(0.1 -0.1)">
       <use xlink:href="#DejaVuSans-33"/>
       <use xlink:href="#DejaVuSans-30" transform="translate(63.623047 0)"/>
      </g>
     </g>
    </g>
    <g id="ytick_5">
     <g id="line2d_13">
      <g>
       <use xlink:href="#mcd0b3eb241" x="57.6" y="153.984" style="stroke: #000000; stroke-width: 0.8"/>
      </g>
     </g>
     <g id="text_14">
      <!-- 40 -->
      <g transform="translate(37.875 157.783219) scale(0.1 -0.1)">
       <use xlink:href="#DejaVuSans-34"/>
       <use xlink:href="#DejaVuSans-30" transform="translate(63.623047 0)"/>
      </g>
     </g>
    </g>
    <g id="ytick_6">
     <g id="line2d_14">
      <g>
       <use xlink:href="#mcd0b3eb241" x="57.6" y="115.584" style="stroke: #000000; stroke-width: 0.8"/>
      </g>
     </g>
     <g id="text_15">
      <!-- 50 -->
      <g transform="translate(37.875 119.383219) scale(0.1 -0.1)">
       <defs>
        <path id="DejaVuSans-35" d="M 691 4666 
L 3169 4666 
L 3169 4134 
L 1269 4134 
L 1269 2991 
Q 1406 3038 1543 3061 
Q 1681 3084 1819 3084 
Q 2600 3084 3056 2656 
Q 3513 2228 3513 1497 
Q 3513 744 3044 326 
Q 2575 -91 1722 -91 
Q 1428 -91 1123 -41 
Q 819 9 494 109 
L 494 744 
Q 775 591 1075 516 
Q 1375 441 1709 441 
Q 2250 441 2565 725 
Q 2881 1009 2881 1497 
Q 2881 1984 2565 2268 
Q 2250 2553 1709 2553 
Q 1456 2553 1204 2497 
Q 953 2441 691 2322 
L 691 4666 
z
" transform="scale(0.015625)"/>
       </defs>
       <use xlink:href="#DejaVuSans-35"/>
       <use xlink:href="#DejaVuSans-30" transform="translate(63.623047 0)"/>
      </g>
     </g>
    </g>
    <g id="ytick_7">
     <g id="line2d_15">
      <g>
       <use xlink:href="#mcd0b3eb241" x="57.6" y="77.184" style="stroke: #000000; stroke-width: 0.8"/>
      </g>
     </g>
     <g id="text_16">
      <!-- 60 -->
      <g transform="translate(37.875 80.983219) scale(0.1 -0.1)">
       <use xlink:href="#DejaVuSans-36"/>
       <use xlink:href="#DejaVuSans-30" transform="translate(63.623047 0)"/>
      </g>
     </g>
    </g>
    <g id="text_17">
     <!-- Data Count -->
     <g transform="translate(31.795312 202.903781) rotate(-90) scale(0.1 -0.1)">
      <defs>
       <path id="DejaVuSans-44" d="M 1259 4147 
L 1259 519 
L 2022 519 
Q 2988 519 3436 956 
Q 3884 1394 3884 2338 
Q 3884 3275 3436 3711 
Q 2988 4147 2022 4147 
L 1259 4147 
z
M 628 4666 
L 1925 4666 
Q 3281 4666 3915 4102 
Q 4550 3538 4550 2338 
Q 4550 1131 3912 565 
Q 3275 0 1925 0 
L 628 0 
L 628 4666 
z
" transform="scale(0.015625)"/>
       <path id="DejaVuSans-61" d="M 2194 1759 
Q 1497 1759 1228 1600 
Q 959 1441 959 1056 
Q 959 750 1161 570 
Q 1363 391 1709 391 
Q 2188 391 2477 730 
Q 2766 1069 2766 1631 
L 2766 1759 
L 2194 1759 
z
M 3341 1997 
L 3341 0 
L 2766 0 
L 2766 531 
Q 2569 213 2275 61 
Q 1981 -91 1556 -91 
Q 1019 -91 701 211 
Q 384 513 384 1019 
Q 384 1609 779 1909 
Q 1175 2209 1959 2209 
L 2766 2209 
L 2766 2266 
Q 2766 2663 2505 2880 
Q 2244 3097 1772 3097 
Q 1472 3097 1187 3025 
Q 903 2953 641 2809 
L 641 3341 
Q 956 3463 1253 3523 
Q 1550 3584 1831 3584 
Q 2591 3584 2966 3190 
Q 3341 2797 3341 1997 
z
" transform="scale(0.015625)"/>
       <path id="DejaVuSans-43" d="M 4122 4306 
L 4122 3641 
Q 3803 3938 3442 4084 
Q 3081 4231 2675 4231 
Q 1875 4231 1450 3742 
Q 1025 3253 1025 2328 
Q 1025 1406 1450 917 
Q 1875 428 2675 428 
Q 3081 428 3442 575 
Q 3803 722 4122 1019 
L 4122 359 
Q 3791 134 3420 21 
Q 3050 -91 2638 -91 
Q 1578 -91 968 557 
Q 359 1206 359 2328 
Q 359 3453 968 4101 
Q 1578 4750 2638 4750 
Q 3056 4750 3426 4639 
Q 3797 4528 4122 4306 
z
" transform="scale(0.015625)"/>
       <path id="DejaVuSans-6e" d="M 3513 2113 
L 3513 0 
L 2938 0 
L 2938 2094 
Q 2938 2591 2744 2837 
Q 2550 3084 2163 3084 
Q 1697 3084 1428 2787 
Q 1159 2491 1159 1978 
L 1159 0 
L 581 0 
L 581 3500 
L 1159 3500 
L 1159 2956 
Q 1366 3272 1645 3428 
Q 1925 3584 2291 3584 
Q 2894 3584 3203 3211 
Q 3513 2838 3513 2113 
z
" transform="scale(0.015625)"/>
      </defs>
      <use xlink:href="#DejaVuSans-44"/>
      <use xlink:href="#DejaVuSans-61" transform="translate(77.001953 0)"/>
      <use xlink:href="#DejaVuSans-74" transform="translate(138.28125 0)"/>
      <use xlink:href="#DejaVuSans-61" transform="translate(177.490234 0)"/>
      <use xlink:href="#DejaVuSans-20" transform="translate(238.769531 0)"/>
      <use xlink:href="#DejaVuSans-43" transform="translate(270.556641 0)"/>
      <use xlink:href="#DejaVuSans-6f" transform="translate(340.380859 0)"/>
      <use xlink:href="#DejaVuSans-75" transform="translate(401.5625 0)"/>
      <use xlink:href="#DejaVuSans-6e" transform="translate(464.941406 0)"/>
      <use xlink:href="#DejaVuSans-74" transform="translate(528.320312 0)"/>
     </g>
    </g>
   </g>
   <g id="patch_153">
    <path d="M 57.6 307.584 
L 57.6 41.472 
" style="fill: none; stroke: #000000; stroke-width: 0.8; stroke-linejoin: miter; stroke-linecap: square"/>
   </g>
   <g id="patch_154">
    <path d="M 414.72 307.584 
L 414.72 41.472 
" style="fill: none; stroke: #000000; stroke-width: 0.8; stroke-linejoin: miter; stroke-linecap: square"/>
   </g>
   <g id="patch_155">
    <path d="M 57.6 307.584 
L 414.72 307.584 
" style="fill: none; stroke: #000000; stroke-width: 0.8; stroke-linejoin: miter; stroke-linecap: square"/>
   </g>
   <g id="patch_156">
    <path d="M 57.6 41.472 
L 414.72 41.472 
" style="fill: none; stroke: #000000; stroke-width: 0.8; stroke-linejoin: miter; stroke-linecap: square"/>
   </g>
   <g id="legend_1">
    <g id="patch_157">
     <path d="M 351.768438 93.506375 
L 407.72 93.506375 
Q 409.72 93.506375 409.72 91.506375 
L 409.72 48.472 
Q 409.72 46.472 407.72 46.472 
L 351.768438 46.472 
Q 349.768438 46.472 349.768438 48.472 
L 349.768438 91.506375 
Q 349.768438 93.506375 351.768438 93.506375 
z
" style="fill: #ffffff; opacity: 0.8; stroke: #cccccc; stroke-linejoin: miter"/>
    </g>
    <g id="patch_158">
     <path d="M 353.768438 58.070438 
L 373.768438 58.070438 
L 373.768438 51.070438 
L 353.768438 51.070438 
z
" style="fill: #1f77b4"/>
    </g>
    <g id="text_18">
     <!-- train -->
     <g transform="translate(381.768438 58.070438) scale(0.1 -0.1)">
      <defs>
       <path id="DejaVuSans-72" d="M 2631 2963 
Q 2534 3019 2420 3045 
Q 2306 3072 2169 3072 
Q 1681 3072 1420 2755 
Q 1159 2438 1159 1844 
L 1159 0 
L 581 0 
L 581 3500 
L 1159 3500 
L 1159 2956 
Q 1341 3275 1631 3429 
Q 1922 3584 2338 3584 
Q 2397 3584 2469 3576 
Q 2541 3569 2628 3553 
L 2631 2963 
z
" transform="scale(0.015625)"/>
      </defs>
      <use xlink:href="#DejaVuSans-74"/>
      <use xlink:href="#DejaVuSans-72" transform="translate(39.208984 0)"/>
      <use xlink:href="#DejaVuSans-61" transform="translate(80.322266 0)"/>
      <use xlink:href="#DejaVuSans-69" transform="translate(141.601562 0)"/>
      <use xlink:href="#DejaVuSans-6e" transform="translate(169.384766 0)"/>
     </g>
    </g>
    <g id="patch_159">
     <path d="M 353.768438 72.748563 
L 373.768438 72.748563 
L 373.768438 65.748563 
L 353.768438 65.748563 
z
" style="fill: #ff7f0e"/>
    </g>
    <g id="text_19">
     <!-- valid -->
     <g transform="translate(381.768438 72.748563) scale(0.1 -0.1)">
      <defs>
       <path id="DejaVuSans-76" d="M 191 3500 
L 800 3500 
L 1894 563 
L 2988 3500 
L 3597 3500 
L 2284 0 
L 1503 0 
L 191 3500 
z
" transform="scale(0.015625)"/>
       <path id="DejaVuSans-64" d="M 2906 2969 
L 2906 4863 
L 3481 4863 
L 3481 0 
L 2906 0 
L 2906 525 
Q 2725 213 2448 61 
Q 2172 -91 1784 -91 
Q 1150 -91 751 415 
Q 353 922 353 1747 
Q 353 2572 751 3078 
Q 1150 3584 1784 3584 
Q 2172 3584 2448 3432 
Q 2725 3281 2906 2969 
z
M 947 1747 
Q 947 1113 1208 752 
Q 1469 391 1925 391 
Q 2381 391 2643 752 
Q 2906 1113 2906 1747 
Q 2906 2381 2643 2742 
Q 2381 3103 1925 3103 
Q 1469 3103 1208 2742 
Q 947 2381 947 1747 
z
" transform="scale(0.015625)"/>
      </defs>
      <use xlink:href="#DejaVuSans-76"/>
      <use xlink:href="#DejaVuSans-61" transform="translate(59.179688 0)"/>
      <use xlink:href="#DejaVuSans-6c" transform="translate(120.458984 0)"/>
      <use xlink:href="#DejaVuSans-69" transform="translate(148.242188 0)"/>
      <use xlink:href="#DejaVuSans-64" transform="translate(176.025391 0)"/>
     </g>
    </g>
    <g id="patch_160">
     <path d="M 353.768438 87.426688 
L 373.768438 87.426688 
L 373.768438 80.426688 
L 353.768438 80.426688 
z
" style="fill: #2ca02c"/>
    </g>
    <g id="text_20">
     <!-- test -->
     <g transform="translate(381.768438 87.426688) scale(0.1 -0.1)">
      <defs>
       <path id="DejaVuSans-65" d="M 3597 1894 
L 3597 1613 
L 953 1613 
Q 991 1019 1311 708 
Q 1631 397 2203 397 
Q 2534 397 2845 478 
Q 3156 559 3463 722 
L 3463 178 
Q 3153 47 2828 -22 
Q 2503 -91 2169 -91 
Q 1331 -91 842 396 
Q 353 884 353 1716 
Q 353 2575 817 3079 
Q 1281 3584 2069 3584 
Q 2775 3584 3186 3129 
Q 3597 2675 3597 1894 
z
M 3022 2063 
Q 3016 2534 2758 2815 
Q 2500 3097 2075 3097 
Q 1594 3097 1305 2825 
Q 1016 2553 972 2059 
L 3022 2063 
z
" transform="scale(0.015625)"/>
       <path id="DejaVuSans-73" d="M 2834 3397 
L 2834 2853 
Q 2591 2978 2328 3040 
Q 2066 3103 1784 3103 
Q 1356 3103 1142 2972 
Q 928 2841 928 2578 
Q 928 2378 1081 2264 
Q 1234 2150 1697 2047 
L 1894 2003 
Q 2506 1872 2764 1633 
Q 3022 1394 3022 966 
Q 3022 478 2636 193 
Q 2250 -91 1575 -91 
Q 1294 -91 989 -36 
Q 684 19 347 128 
L 347 722 
Q 666 556 975 473 
Q 1284 391 1588 391 
Q 1994 391 2212 530 
Q 2431 669 2431 922 
Q 2431 1156 2273 1281 
Q 2116 1406 1581 1522 
L 1381 1569 
Q 847 1681 609 1914 
Q 372 2147 372 2553 
Q 372 3047 722 3315 
Q 1072 3584 1716 3584 
Q 2034 3584 2315 3537 
Q 2597 3491 2834 3397 
z
" transform="scale(0.015625)"/>
      </defs>
      <use xlink:href="#DejaVuSans-74"/>
      <use xlink:href="#DejaVuSans-65" transform="translate(39.208984 0)"/>
      <use xlink:href="#DejaVuSans-73" transform="translate(100.732422 0)"/>
      <use xlink:href="#DejaVuSans-74" transform="translate(152.832031 0)"/>
     </g>
    </g>
   </g>
  </g>
 </g>
 <defs>
  <clipPath id="p1ab7c8c0c5">
   <rect x="57.6" y="41.472" width="357.12" height="266.112"/>
  </clipPath>
 </defs>
</svg>
